<svg width="58" height="28" viewBox="0 0 58 28" fill="none" xmlns="http://www.w3.org/2000/svg">
<path d="M10.2878 27.0828C13.5392 27.0789 16.2949 24.6894 16.7593 21.4712H42.1608C42.6739 25.0457 45.9877 27.527 49.5619 27.0135C52.4349 26.6012 54.6919 24.3442 55.1042 21.4712H56.1141C56.561 21.4712 56.9455 21.1548 57.0319 20.7167L57.9669 15.9693C57.9886 15.8604 57.9905 15.7485 57.9726 15.6392C57.4221 11.6314 54.1704 8.53919 50.1402 8.19087L41.23 7.33587L35.6805 3.9821C32.7322 1.96755 29.244 0.89176 25.6733 0.895947H21.5582C18.0932 0.900135 14.6348 1.19859 11.2201 1.78826C10.1119 1.97517 9.19452 2.15561 8.33 2.34937L6.34743 2.78982C5.91841 2.88346 5.61234 3.26262 5.6112 3.70154V4.99394L1.49646 7.05188C0.576745 7.50717 -0.00378816 8.44668 1.86083e-05 9.47299V16.061C-0.00226546 16.7793 0.283623 17.4691 0.792969 17.9754L3.76149 20.9439C3.97657 24.3914 6.83356 27.0786 10.2878 27.0828ZM10.2878 25.2121C7.70493 25.2121 5.61158 23.1188 5.61158 20.5359C5.61158 17.9533 7.70493 15.8596 10.2878 15.8596C12.8703 15.8596 14.9641 17.9533 14.9641 20.5359C14.9606 23.1172 12.8692 25.2091 10.2878 25.2121ZM48.6327 25.2121C46.0498 25.2121 43.9564 23.1188 43.9564 20.5359C43.9564 17.9533 46.0498 15.8596 48.6327 15.8596C51.2152 15.8596 53.3089 17.9533 53.3089 20.5359C53.3055 23.1172 51.2141 25.2091 48.6327 25.2121ZM49.9719 10.0509H49.9803C51.1269 10.1445 52.2293 10.5347 53.1795 11.1838H52.3732V13.054H54.9919C55.542 13.8774 55.9181 14.804 56.0974 15.7774L55.3455 19.6009H55.1126C55.1023 19.5286 55.0844 19.4585 55.0715 19.3874C55.0555 19.2987 55.0406 19.2107 55.0212 19.1239C54.9949 19.004 54.963 18.8864 54.9276 18.7691C54.904 18.6881 54.8834 18.6054 54.8575 18.5251C54.8172 18.4018 54.7715 18.2822 54.7235 18.1616C54.6965 18.0923 54.6721 18.0211 54.6424 17.9518C54.5823 17.8125 54.5149 17.6781 54.446 17.5441C54.4216 17.4984 54.4018 17.4508 54.3767 17.4048C54.2793 17.2259 54.1742 17.053 54.0604 16.8859C54.041 16.8551 54.0174 16.8277 53.996 16.798C53.9024 16.6625 53.8091 16.5296 53.6995 16.4013C53.6565 16.348 53.6058 16.2985 53.5628 16.2464C53.476 16.1463 53.3889 16.0469 53.2964 15.9536C53.2412 15.8973 53.1833 15.8448 53.1262 15.7907C53.0375 15.7066 52.9477 15.6225 52.854 15.5429C52.7904 15.4896 52.7261 15.439 52.6606 15.3887C52.567 15.3149 52.4733 15.2437 52.3801 15.1752C52.3096 15.1257 52.2385 15.0819 52.1665 15.0332C52.0683 14.9696 51.9693 14.9087 51.8673 14.8463C51.7915 14.8029 51.7158 14.7617 51.6393 14.7218C51.5353 14.6673 51.4288 14.6171 51.3222 14.5684C51.2426 14.533 51.1642 14.4972 51.0835 14.4644C50.9723 14.4195 50.8593 14.3792 50.7451 14.3411C50.6647 14.3129 50.5852 14.284 50.5029 14.2596C50.3823 14.2242 50.2597 14.1953 50.1371 14.166C50.0576 14.1473 49.9791 14.1268 49.8988 14.1112C49.7614 14.0838 49.6183 14.0651 49.4816 14.0465C49.4123 14.0381 49.3453 14.0251 49.2749 14.0183C49.0628 14.0015 48.8485 13.9893 48.6323 13.9893C48.4165 13.9893 48.2021 14.0015 47.9916 14.0221C47.9216 14.0286 47.8542 14.0419 47.7853 14.0503C47.6448 14.0689 47.5044 14.0876 47.3681 14.1146C47.2874 14.1306 47.2089 14.1511 47.1305 14.1698C47.0072 14.1987 46.8846 14.2288 46.7639 14.2634C46.6817 14.2878 46.6021 14.3167 46.5218 14.3449C46.4076 14.383 46.2946 14.4233 46.183 14.4682C46.1027 14.501 46.0243 14.5364 45.9447 14.5722C45.8381 14.6205 45.7312 14.6711 45.6276 14.7252C45.5507 14.7656 45.475 14.8067 45.3996 14.8497C45.2976 14.9079 45.1982 14.9685 45.0992 15.037C45.028 15.0827 44.9572 15.1302 44.8868 15.1782C44.7935 15.2463 44.6999 15.3183 44.6063 15.3921C44.5408 15.4428 44.4764 15.493 44.4129 15.5463C44.3192 15.6259 44.2256 15.71 44.1407 15.7945C44.0836 15.8486 44.0257 15.9011 43.9705 15.9571C43.8769 16.0507 43.7908 16.1497 43.7041 16.2498C43.6591 16.3023 43.6104 16.3518 43.5674 16.4051C43.4616 16.5342 43.3626 16.6689 43.267 16.8052C43.2472 16.8345 43.2259 16.8604 43.2061 16.8886C43.0934 17.0568 42.988 17.2301 42.8902 17.4086C42.865 17.4535 42.8452 17.5022 42.8209 17.5479C42.752 17.6815 42.6846 17.8163 42.6245 17.9556C42.5948 18.0249 42.5704 18.0957 42.5434 18.165C42.4954 18.2857 42.4497 18.4056 42.4094 18.5289C42.3831 18.6093 42.3625 18.6907 42.3393 18.7722C42.3066 18.8898 42.275 19.0078 42.2457 19.1285C42.227 19.2145 42.2122 19.3021 42.1962 19.3904C42.1832 19.4612 42.1654 19.5313 42.1551 19.6043H26.9931L26.5713 16.7987H40.2155V14.9243H26.2915L25.2047 7.68381L40.8859 9.20081L49.9719 10.0509ZM25.6695 2.7666C28.8831 2.76507 32.0211 3.73809 34.6702 5.55734L36.928 6.92093L24.9176 5.76748L24.4669 2.7666H25.6695ZM21.5543 2.7666H22.5738L22.9967 5.58323L13.6545 4.68635L12.8905 3.41451C15.7589 2.98587 18.6551 2.76926 21.5555 2.7666H21.5543ZM1.87067 11.1838H5.61158V9.31311H1.89313C1.93919 9.05881 2.1025 8.84107 2.33357 8.72496L6.96489 6.41387C7.28352 6.25474 7.48375 5.92812 7.48185 5.57219V4.44995L8.73237 4.16939C9.39818 4.02169 10.0994 3.88236 10.9049 3.73732L12.2917 6.04918C12.4444 6.30271 12.7082 6.46945 13.0024 6.498L23.2872 7.49804L24.3995 14.9247H17.7693V16.7953H24.6789L25.1007 19.6009H16.7677C16.7574 19.529 16.7399 19.4585 16.7266 19.3877C16.711 19.2987 16.6958 19.2107 16.6763 19.1239C16.6501 19.004 16.6181 18.8864 16.5827 18.7695C16.5595 18.6881 16.5389 18.6058 16.5127 18.5255C16.4723 18.4018 16.4266 18.2822 16.3787 18.1616C16.3516 18.0923 16.3273 18.0211 16.2976 17.9522C16.2374 17.8129 16.17 17.6781 16.1011 17.5445C16.0768 17.4984 16.057 17.4508 16.0319 17.4052C15.9348 17.2259 15.8293 17.053 15.7155 16.8859C15.6961 16.8551 15.6725 16.8281 15.6512 16.798C15.5575 16.6625 15.4643 16.5296 15.3546 16.4017C15.3116 16.3484 15.2614 16.2985 15.2184 16.2464C15.1312 16.1463 15.0444 16.0469 14.9515 15.9536C14.8967 15.8973 14.8384 15.8452 14.7813 15.7907C14.6881 15.7066 14.6028 15.6225 14.5092 15.5429C14.4456 15.4896 14.3812 15.439 14.3158 15.3887C14.2221 15.3149 14.1289 15.2437 14.0352 15.1755C13.9652 15.1257 13.894 15.0819 13.822 15.0332C13.7284 14.9696 13.6245 14.9087 13.5224 14.8463C13.4467 14.8032 13.3709 14.7621 13.2944 14.7218C13.1905 14.6673 13.0839 14.6171 12.9773 14.5684C12.8977 14.533 12.8193 14.4972 12.739 14.4644C12.6275 14.4195 12.5144 14.3795 12.4002 14.3411C12.3199 14.3129 12.2403 14.284 12.1581 14.2596C12.0374 14.2242 11.9148 14.1953 11.7926 14.1664C11.7131 14.1477 11.6343 14.1272 11.554 14.1112C11.4165 14.0841 11.2734 14.0655 11.1367 14.0465C11.0678 14.0381 11.0004 14.0251 10.9304 14.0187C10.718 14.0015 10.5037 13.9893 10.2878 13.9893C9.96463 13.9916 9.64257 14.0183 9.32357 14.0689C9.25999 14.0784 9.19528 14.0868 9.1317 14.0982C8.83211 14.1511 8.53709 14.225 8.24777 14.3198C8.19562 14.3365 8.14499 14.3571 8.0936 14.3757C7.82941 14.4698 7.57131 14.5809 7.3212 14.7077C7.28732 14.7256 7.25116 14.7397 7.21728 14.7583C7.12363 14.8097 7.03037 14.8687 6.93672 14.9247H1.87029V11.1838H1.87067ZM4.92332 16.7949C4.75392 17.0371 4.60126 17.2906 4.46689 17.5536C4.43986 17.6069 4.41435 17.661 4.38809 17.7162C4.25371 17.9914 4.13874 18.2758 4.04509 18.5674V18.5777L2.25782 16.7949H4.92332Z" fill="white"/>
</svg>
