<svg width="49" height="49" viewBox="0 0 49 49" fill="none" xmlns="http://www.w3.org/2000/svg">
<path fill-rule="evenodd" clip-rule="evenodd" d="M17.1323 0.027832H31.8677C45.3158 0.027832 48.5 3.21202 48.5 16.6601V31.3955C48.5 44.8436 45.3158 48.0278 31.8677 48.0278H17.1323C3.68419 48.0278 0.5 44.8436 0.5 31.3955V16.6601C0.5 3.21202 3.68419 0.027832 17.1323 0.027832Z" fill="#F68634"/>
<path d="M27.096 29.4403L30.6827 32.9028C31.4174 33.6106 31.4174 34.7601 30.6827 35.4686C29.9487 36.1771 28.759 36.1771 28.0258 35.4686L24.4994 32.0661L20.9761 35.4686C20.6087 35.8225 20.1273 35.9996 19.6459 35.9996C19.1653 35.9996 18.6846 35.8225 18.3173 35.4686C17.5833 34.7601 17.5833 33.6113 18.3165 32.9028L21.9035 29.4403C20.5976 29.1531 19.338 28.6536 18.1779 27.951C17.3 27.4167 17.0362 26.2972 17.5894 25.449C18.1411 24.5996 19.3012 24.3439 20.1806 24.8783C22.8072 26.4732 26.1908 26.4736 28.8189 24.8783C29.6984 24.3439 30.8581 24.5996 31.4109 25.449C31.9641 26.2964 31.6996 27.4167 30.8216 27.951C29.6615 28.6543 28.402 29.1531 27.096 29.4403Z" fill="white"/>
<path fill-rule="evenodd" clip-rule="evenodd" d="M18.0679 18.1936C18.0679 21.6079 20.9455 24.3853 24.4838 24.3853C28.0229 24.3853 30.8997 21.6079 30.8997 18.1936C30.8997 14.7781 28.0229 12 24.4838 12C20.9455 12 18.0679 14.7781 18.0679 18.1936ZM27.1403 18.1936C27.1403 16.7795 25.9487 15.6297 24.4838 15.6297C23.02 15.6297 21.8273 16.7795 21.8273 18.1936C21.8273 19.6065 23.02 20.7571 24.4838 20.7571C25.9487 20.7571 27.1403 19.6065 27.1403 18.1936Z" fill="white"/>
</svg>
