<svg width="49" height="49" viewBox="0 0 49 49" fill="none" xmlns="http://www.w3.org/2000/svg">
<path fill-rule="evenodd" clip-rule="evenodd" d="M17.1323 0.027832H31.8677C45.3158 0.027832 48.5 3.21202 48.5 16.6601V31.3955C48.5 44.8436 45.3158 48.0278 31.8677 48.0278H17.1323C3.68419 48.0278 0.5 44.8436 0.5 31.3955V16.6601C0.5 3.21202 3.68419 0.027832 17.1323 0.027832Z" fill="#2BA3D6"/>
<path d="M9.43825 25.1741C12.2438 23.6287 15.3756 22.3389 18.3018 21.0425C23.336 18.9191 28.3902 16.8325 33.4954 14.8899C34.4887 14.5589 36.2734 14.2352 36.4484 15.7072C36.3526 17.7908 35.9584 19.8622 35.688 21.9336C35.0017 26.4888 34.2085 31.0284 33.435 35.5686C33.1685 37.0809 31.274 37.8638 30.0618 36.896C27.1486 34.9282 24.213 32.9796 21.337 30.9662C20.3949 30.0089 21.2685 28.6342 22.1099 27.9506C24.5093 25.586 27.0539 23.577 29.3279 21.0902C29.9413 19.6089 28.1289 20.8573 27.5311 21.2398C24.2463 23.5034 21.0419 25.9052 17.5787 27.8946C15.8097 28.8684 13.7479 28.0362 11.9797 27.4928C10.3943 26.8364 8.07109 26.1751 9.43809 25.1742L9.43825 25.1741Z" fill="white"/>
</svg>
