<svg width="49" height="48" viewBox="0 0 49 48" fill="none" xmlns="http://www.w3.org/2000/svg">
<path fill-rule="evenodd" clip-rule="evenodd" d="M17.1323 0H31.8677C45.3158 0 48.5 3.18419 48.5 16.6323V31.3677C48.5 44.8158 45.3158 48 31.8677 48H17.1323C3.68419 48 0.5 44.8158 0.5 31.3677V16.6323C0.5 3.18419 3.68419 0 17.1323 0Z" fill="#4680C2"/>
<path fill-rule="evenodd" clip-rule="evenodd" d="M37.8176 17.1797C38.0325 16.5143 37.8176 16.0303 36.8655 16.0303H33.702C32.9035 16.0303 32.5349 16.4537 32.3199 16.9075C32.3199 16.9075 30.6921 20.7794 28.4193 23.29C27.6822 24.016 27.3443 24.258 26.9451 24.258C26.7301 24.258 26.4537 24.016 26.4537 23.3506V17.1494C26.4537 16.363 26.208 16 25.5322 16H20.5568C20.0653 16 19.7582 16.363 19.7582 16.726C19.7582 17.4823 20.8946 17.6637 21.0174 19.7811V24.379C21.0174 25.3773 20.8332 25.5587 20.4339 25.5587C19.3589 25.5587 16.7483 21.6566 15.182 17.21C14.8748 16.3327 14.5677 16 13.7692 16H10.5749C9.65357 16 9.5 16.4235 9.5 16.8773C9.5 17.694 10.5749 21.8078 14.5062 27.2527C17.1169 30.9733 20.8332 32.9697 24.1809 32.9697C26.208 32.9697 26.4537 32.516 26.4537 31.7598V28.9467C26.4537 28.0391 26.6379 27.888 27.283 27.888C27.7436 27.888 28.5729 28.1299 30.4464 29.9146C32.5963 32.032 32.9648 33 34.1627 33H37.3261C38.2475 33 38.6775 32.5463 38.4318 31.669C38.1554 30.7918 37.1112 29.5214 35.7598 28.0089C35.0226 27.162 33.9169 26.2243 33.5791 25.7704C33.1184 25.1655 33.2413 24.9235 33.5791 24.379C33.5485 24.379 37.4183 18.9947 37.8176 17.1797Z" fill="white"/>
</svg>
