<svg width="38" height="38" viewBox="0 0 38 38" fill="none" xmlns="http://www.w3.org/2000/svg">
<path d="M17.5665 12.1497H14.0128L10.9422 15.2203H10.7525C8.8375 15.2203 7.28511 16.7727 7.28511 18.6877V18.6877M17.5665 12.1497V7.87158H21.8274M17.5665 12.1497H21.8274M14.0473 7.87158H17.5147M28.8829 18.5325V15.2203L24.8807 12.1497H21.8274M28.8829 18.5325H33.7475M28.8829 18.5325V23.3281M33.7475 18.5325V15.2203M33.7475 18.5325V23.3281M33.7475 26.5367V23.3281M7.28511 18.6877V22.1551L10.3557 25.0187H12.8398L15.7034 29.3313H22.8796C26.1951 29.3313 28.8829 26.6436 28.8829 23.3281V23.3281M7.28511 18.6877H3.38647M3.38647 18.6877V15.2203M3.38647 18.6877V22.9141M33.7475 23.3281H28.8829M21.8274 7.87158V12.1497M21.8274 7.87158H25.5707M20.2576 15.9449L18.3427 20.223H22.1896L19.6365 25.2947" stroke="#D7AD48" stroke-width="2.34608" stroke-linecap="round"/>
</svg>
