<svg width="512" height="512" viewBox="0 0 512 512" fill="none" xmlns="http://www.w3.org/2000/svg">
<path fill-rule="evenodd" clip-rule="evenodd" d="M149.5 106C136.797 106 126.5 116.297 126.5 129V408H286V129C286 116.297 275.703 106 263 106H149.5ZM320 408V129C320 97.5198 294.48 72 263 72H149.5C118.02 72 92.5 97.5198 92.5 129V408H68V442H444V408H320Z" fill="#D7AD48"/>
<path d="M370 128.5L417.5 176L404 217L417.5 293V333.75C417.5 349.628 404.628 362.5 388.75 362.5V362.5C372.872 362.5 360 349.628 360 333.75V262.857C360 240.845 342.155 223 320.143 223H303" stroke="#D7AD48" stroke-width="34"/>
<rect x="154" y="139" width="107" height="80" rx="10" fill="#D7AD48"/>
</svg>
