<svg width="25" height="25" viewBox="0 0 25 25" fill="none" xmlns="http://www.w3.org/2000/svg">
<path fill-rule="evenodd" clip-rule="evenodd" d="M14.9616 1.74029C15.105 1.20696 15.6536 0.890883 16.187 1.03432C18.0514 1.53575 19.7514 2.51827 21.1166 3.88349C22.4818 5.2487 23.4643 6.94867 23.9658 8.81312C24.1092 9.34645 23.7931 9.89508 23.2598 10.0385C22.7264 10.182 22.1778 9.86588 22.0344 9.33254C21.624 7.80651 20.8198 6.41511 19.7024 5.2977C18.585 4.18029 17.1936 3.3761 15.6675 2.96569C15.1342 2.82226 14.8181 2.27363 14.9616 1.74029Z" fill="#D7AD48"/>
<path fill-rule="evenodd" clip-rule="evenodd" d="M13.9259 5.60504C14.0694 5.0717 14.618 4.75563 15.1513 4.89906C16.3377 5.21812 17.4194 5.84331 18.2881 6.712C19.1567 7.58069 19.7819 8.66238 20.101 9.84874C20.2444 10.3821 19.9283 10.9307 19.395 11.0741C18.8617 11.2176 18.3131 10.9015 18.1696 10.3682C17.9416 9.52023 17.4947 8.7471 16.8738 8.12621C16.253 7.50532 15.4798 7.05848 14.6319 6.83044C14.0986 6.687 13.7825 6.13837 13.9259 5.60504Z" fill="#D7AD48"/>
<path fill-rule="evenodd" clip-rule="evenodd" d="M6.35706 2.03826C6.35706 2.03827 6.35706 2.03826 6.35706 2.03826V2.03826ZM6.35806 2.04061L8.86963 7.90094L6.79124 11.0766C6.60218 11.3632 6.4904 11.6937 6.46679 12.0362C6.4431 12.3798 6.50894 12.7237 6.65788 13.0342L7.55954 12.6018L6.66124 13.0412C7.79692 15.363 9.67896 17.2365 12.0059 18.3616L12.013 18.365C12.3254 18.513 12.671 18.5771 13.0157 18.5511C13.3594 18.5251 13.6904 18.4103 13.9764 18.2181C13.9773 18.2174 13.9782 18.2168 13.9791 18.2162L17.104 16.1324L22.9587 18.6416C22.8027 19.8448 22.2152 20.9506 21.3044 21.7525C20.3913 22.5563 19.2165 22.9998 18 22.9999M8.46342 12.1738L10.5431 8.99616C10.7237 8.72021 10.8333 8.40388 10.862 8.07533C10.8908 7.74679 10.8378 7.41623 10.7079 7.1131L8.19786 1.2563C8.19761 1.25573 8.19737 1.25515 8.19712 1.25458C8.02776 0.856914 7.73392 0.52493 7.35973 0.308525C6.985 0.0918059 6.54998 0.00274107 6.12023 0.0547477L6.11361 0.0555719C4.42431 0.271456 2.87163 1.09569 1.74628 2.37393C0.620932 3.65218 8.95262e-05 5.29679 0 6.99983C0 11.7737 1.89642 16.3521 5.27208 19.7278C8.64773 23.1035 13.2261 24.9999 18 24.9999C19.703 24.9998 21.3477 24.3789 22.6259 23.2536C23.9042 22.1283 24.7284 20.5756 24.9443 18.8863L24.9451 18.8796C24.9971 18.4499 24.9081 18.0149 24.6913 17.6401C24.4749 17.2659 24.1428 16.972 23.745 16.8026C23.7445 16.8024 23.744 16.8022 23.7436 16.802L17.8919 14.2941C17.5861 14.1631 17.2524 14.1104 16.9211 14.1408C16.5898 14.1713 16.2713 14.2839 15.9945 14.4685L12.865 16.5552C10.9504 15.6263 9.40101 14.0842 8.46342 12.1738ZM6.35806 2.04061C5.15486 2.19661 4.04928 2.78471 3.24742 3.69552C2.44355 4.60861 2.00006 5.7834 2 6.99993C2 11.2434 3.68571 15.313 6.68629 18.3136C9.68686 21.3142 13.7566 22.9999 18 22.9999" fill="#D7AD48"/>
</svg>
