<svg width="33" height="32" viewBox="0 0 33 32" fill="none" xmlns="http://www.w3.org/2000/svg">
<path d="M22.8334 25C22.8334 25.7956 22.5173 26.5587 21.9547 27.1213C21.3921 27.6839 20.629 28 19.8334 28C19.0377 28 18.2747 27.6839 17.7121 27.1213C17.1494 26.5587 16.8334 25.7956 16.8334 25V17" stroke="white" stroke-width="2" stroke-linecap="round" stroke-linejoin="round"/>
<path d="M4.87522 17C4.73647 16.9997 4.59929 16.9706 4.47236 16.9146C4.34543 16.8586 4.23151 16.7768 4.13781 16.6745C4.04411 16.5722 3.97266 16.4515 3.928 16.3201C3.88334 16.1888 3.86642 16.0496 3.87833 15.9113C4.15147 12.6634 5.63467 9.63649 8.03406 7.43041C10.4334 5.22433 13.574 4 16.8334 4C20.0928 4 23.2333 5.22433 25.6327 7.43041C28.0321 9.63649 29.5153 12.6634 29.7885 15.9113C29.8004 16.0496 29.7835 16.1888 29.7388 16.3201C29.6941 16.4515 29.6227 16.5722 29.529 16.6745C29.4353 16.7768 29.3214 16.8586 29.1944 16.9146C29.0675 16.9706 28.9303 16.9997 28.7916 17H4.87522Z" stroke="white" stroke-width="2" stroke-linecap="round" stroke-linejoin="round"/>
<path d="M11.8334 17C11.8334 8 16.8334 4 16.8334 4C16.8334 4 21.8334 8 21.8334 17" stroke="white" stroke-width="2" stroke-linecap="round" stroke-linejoin="round"/>
</svg>
