<svg width="32" height="29" viewBox="0 0 32 29" fill="none" xmlns="http://www.w3.org/2000/svg">
<path d="M13.9498 18.1924C12.0711 16.3137 11.1213 11.1213 11.1213 11.1213C11.1213 11.1213 16.3137 12.071 18.1924 13.9497C19.364 15.1213 19.364 17.0208 18.1924 18.1924C17.0208 19.3639 15.1213 19.3639 13.9498 18.1924Z" fill="#0551A1"/>
<path d="M24.9059 28.1592C25.2471 28.5575 25.8404 28.6271 26.2433 28.2913C28.577 26.3465 30.3142 23.7725 31.2421 20.8663C32.2644 17.6639 32.2522 14.2209 31.2072 11.0258C30.1621 7.83078 28.1372 5.04605 25.42 3.06692C22.7027 1.0878 19.4311 0.0147369 16.0695 0.000149481C12.7078 -0.0143769 9.42704 1.03018 6.69266 2.98568C3.95841 4.94113 1.90934 7.70822 0.836583 10.8941C-0.23617 14.0799 -0.278285 17.5227 0.716344 20.7339C1.61847 23.6464 3.3318 26.2341 5.64666 28.1987C6.04814 28.5394 6.64472 28.4731 6.98857 28.0743L10.2427 24.3L8.12137 22.1787L6.13907 24.161C5.07816 22.879 4.27115 21.3949 3.77311 19.7871C2.97745 17.2182 3.01114 14.464 3.8693 11.9152C4.72757 9.36654 6.36673 7.15292 8.55411 5.58853C10.7416 4.02414 13.3662 3.1885 16.0556 3.20016C18.7449 3.21182 21.3621 4.07022 23.5359 5.65353C25.7098 7.23684 27.3296 9.46463 28.1658 12.0207C29.0019 14.5767 29.0116 17.3311 28.1936 19.893C27.6817 21.4967 26.8617 22.9739 25.7895 24.2467L23.7213 22.1787L21.6 24.3L24.9059 28.1592Z" fill="#0551A1"/>
</svg>
