<svg width="26" height="26" viewBox="0 0 26 26" fill="none" xmlns="http://www.w3.org/2000/svg">
<g clip-path="url(#clip0)">
<path d="M11.8918 16.4872C10.3654 14.9608 9.59368 10.742 9.59368 10.742C9.59368 10.742 13.8125 11.5137 15.3389 13.0401C16.2908 13.992 16.2908 15.5353 15.3389 16.4872C14.387 17.4391 12.8437 17.4391 11.8918 16.4872Z" fill="#BDC7D1"/>
<path d="M20.1225 24.4529C20.4637 24.8512 21.0577 24.9213 21.456 24.5801C23.285 23.0138 24.6481 20.9655 25.3842 18.6599C26.2149 16.058 26.2049 13.2605 25.3558 10.6646C24.5067 8.06856 22.8615 5.80597 20.6537 4.19793C18.4459 2.58989 15.7877 1.71803 13.0565 1.70618C10.3251 1.69437 7.65947 2.54308 5.43779 4.13192C3.21621 5.72072 1.55134 7.96898 0.679724 10.5575C-0.191889 13.146 -0.226106 15.9433 0.58203 18.5523C1.29762 20.8626 2.64141 22.9213 4.45487 24.503C4.85172 24.8492 5.44894 24.7823 5.79279 24.3835L8.3222 21.4498L6.59862 19.7262L4.988 21.3369C4.12601 20.2952 3.47031 19.0894 3.06565 17.7831C2.41918 15.6959 2.44655 13.458 3.14381 11.3872C3.84115 9.31637 5.17297 7.5178 6.95022 6.24673C8.72756 4.97567 10.8601 4.29671 13.0452 4.30619C15.2302 4.31566 17.3567 5.01311 19.1229 6.29955C20.8892 7.58599 22.2053 9.39607 22.8847 11.4728C23.564 13.5496 23.572 15.7876 22.9073 17.8691C22.4914 19.1722 21.8252 20.3724 20.9539 21.4065L19.2736 19.7262L17.55 21.4498L20.1225 24.4529Z" fill="#BDC7D1"/>
</g>
<defs>
<clipPath id="clip0">
<rect width="26" height="26" fill="white"/>
</clipPath>
</defs>
</svg>
