<svg width="60" height="61" viewBox="0 0 60 61" fill="none" xmlns="http://www.w3.org/2000/svg">
<rect y="0.240234" width="60" height="60" rx="2" fill="#1260B0"/>
<rect y="0.240234" width="60" height="60" rx="2" fill="url(#paint0_linear)"/>
<rect y="0.240234" width="60" height="60" rx="2" fill="#1260B0"/>
<rect y="0.240234" width="60" height="60" rx="2" fill="url(#paint1_linear)"/>
<path fill-rule="evenodd" clip-rule="evenodd" d="M29.6619 32.0205C32.1516 32.0188 34.539 31.0401 36.3003 29.2993C38.0615 27.5585 39.0529 25.1976 39.0568 22.7346C39.0546 20.2703 38.0641 17.9075 36.3027 16.165C34.5413 14.4225 32.1529 13.4426 29.6619 13.4404C27.1715 13.4426 24.7838 14.4227 23.0234 16.1654C21.263 17.9081 20.274 20.2709 20.2735 22.7346C20.2757 25.197 21.2656 27.5579 23.0258 29.2989C24.7861 31.0399 27.1728 32.0188 29.6619 32.0205ZM33.4612 39.6014C35.3927 39.1629 37.2361 38.4068 38.9146 37.3646C39.2204 37.174 39.4853 36.9257 39.6941 36.6338C39.903 36.3419 40.0516 36.0122 40.1317 35.6635C40.2117 35.3148 40.2215 34.9539 40.1605 34.6015C40.0996 34.249 39.969 33.9119 39.7763 33.6093C39.5837 33.3068 39.3327 33.0447 39.0376 32.8382C38.7426 32.6316 38.4093 32.4845 38.0568 32.4053C37.7043 32.3262 37.3395 32.3165 36.9832 32.3768C36.6269 32.4371 36.2862 32.5662 35.9803 32.7568C34.0844 33.9283 31.8939 34.5493 29.6586 34.5493C27.4232 34.5493 25.2328 33.9283 23.3368 32.7568C22.7199 32.4016 21.9877 32.2974 21.2947 32.4661C20.6016 32.6348 20.0019 33.0633 19.622 33.6611C19.2422 34.2589 19.112 34.9793 19.2588 35.6702C19.4057 36.3612 19.8181 36.9687 20.4092 37.3646C22.0876 38.4068 23.931 39.1629 25.8625 39.6014L20.6093 44.7917C20.0934 45.303 19.8039 45.996 19.8046 46.7183C19.8052 47.4407 20.0958 48.1332 20.6126 48.6436C21.1294 49.1539 21.8299 49.4403 22.5601 49.4397C23.2903 49.4391 23.9903 49.1515 24.5062 48.6403L29.6619 43.54L34.8241 48.6403C35.8976 49.7071 37.636 49.7071 38.7145 48.6403C39.23 48.1297 39.5196 47.4376 39.5196 46.716C39.5196 45.9944 39.23 45.3023 38.7145 44.7917L33.4612 39.6014ZM32.4118 20.0142C31.6824 19.2926 30.6934 18.8869 29.6619 18.886C28.6304 18.8869 27.6414 19.2926 26.912 20.0142C26.1826 20.7357 25.7724 21.7141 25.7716 22.7346C25.7742 23.7537 26.1852 24.7302 26.9144 25.4501C27.6437 26.17 28.6317 26.5745 29.6619 26.5749C30.6921 26.5745 31.6801 26.17 32.4093 25.4501C33.1386 24.7302 33.5496 23.7537 33.5522 22.7346C33.5513 21.7141 33.1412 20.7357 32.4118 20.0142Z" fill="white"/>
<defs>
<linearGradient id="paint0_linear" x1="30" y1="0.240234" x2="30" y2="60.2402" gradientUnits="userSpaceOnUse">
<stop stop-color="white"/>
<stop offset="1" stop-color="white" stop-opacity="0"/>
</linearGradient>
<linearGradient id="paint1_linear" x1="0.5" y1="0.240233" x2="59.5" y2="60.2402" gradientUnits="userSpaceOnUse">
<stop stop-color="white" stop-opacity="0"/>
<stop offset="0.520179" stop-color="white" stop-opacity="0.1"/>
<stop offset="0.521359" stop-color="white" stop-opacity="0"/>
</linearGradient>
</defs>
</svg>
