<svg width="60" height="61" viewBox="0 0 60 61" fill="none" xmlns="http://www.w3.org/2000/svg">
<rect y="0.240234" width="60" height="60" rx="2" fill="#1260B0"/>
<rect y="0.240234" width="60" height="60" rx="2" fill="url(#paint0_linear)"/>
<rect y="0.240234" width="60" height="60" rx="2" fill="#1260B0"/>
<rect y="0.240234" width="60" height="60" rx="2" fill="url(#paint1_linear)"/>
<path d="M41.076 33.9343C41.076 33.9343 43.623 36.4483 44.25 37.6153C44.268 37.6393 44.277 37.6633 44.283 37.6753C44.538 38.1043 44.598 38.4373 44.472 38.6863C44.262 39.1003 43.542 39.3043 43.296 39.3223H38.796C38.484 39.3223 37.83 39.2413 37.038 38.6953C36.429 38.2693 35.829 37.5703 35.244 36.8893C34.371 35.8753 33.615 34.9993 32.853 34.9993C32.7562 34.9992 32.66 35.0144 32.568 35.0443C31.992 35.2303 31.254 36.0523 31.254 38.2423C31.254 38.9263 30.714 39.3193 30.333 39.3193H28.272C27.57 39.3193 23.913 39.0733 20.673 35.6563C16.707 31.4713 13.137 23.0773 13.107 22.9993C12.882 22.4563 13.347 22.1653 13.854 22.1653H18.399C19.005 22.1653 19.203 22.5343 19.341 22.8613C19.503 23.2423 20.097 24.7573 21.072 26.4613C22.653 29.2393 23.622 30.3673 24.399 30.3673C24.5447 30.3656 24.6878 30.3286 24.816 30.2593C25.83 29.6953 25.641 26.0803 25.596 25.3303C25.596 25.1893 25.593 23.7133 25.074 23.0053C24.702 22.4923 24.069 22.2973 23.685 22.2253C23.8404 22.0109 24.0452 21.837 24.282 21.7183C24.978 21.3703 26.232 21.3193 27.477 21.3193H28.17C29.52 21.3373 29.868 21.4243 30.357 21.5473C31.347 21.7843 31.368 22.4233 31.281 24.6103C31.254 25.2313 31.227 25.9333 31.227 26.7613C31.227 26.9413 31.218 27.1333 31.218 27.3373C31.188 28.4503 31.152 29.7133 31.938 30.2323C32.0405 30.2966 32.159 30.3309 32.28 30.3313C32.553 30.3313 33.375 30.3313 35.601 26.5123C36.2875 25.2831 36.8841 24.0058 37.386 22.6903C37.431 22.6123 37.563 22.3723 37.719 22.2793C37.8341 22.2206 37.9618 22.1908 38.091 22.1923H43.434C44.016 22.1923 44.415 22.2793 44.49 22.5043C44.622 22.8613 44.466 23.9503 42.027 27.2533L40.938 28.6903C38.727 31.5883 38.727 31.7353 41.076 33.9343Z" fill="white"/>
<defs>
<linearGradient id="paint0_linear" x1="30" y1="0.240234" x2="30" y2="60.2402" gradientUnits="userSpaceOnUse">
<stop stop-color="white"/>
<stop offset="1" stop-color="white" stop-opacity="0"/>
</linearGradient>
<linearGradient id="paint1_linear" x1="0.5" y1="0.240233" x2="59.5" y2="60.2402" gradientUnits="userSpaceOnUse">
<stop stop-color="white" stop-opacity="0"/>
<stop offset="0.520179" stop-color="white" stop-opacity="0.1"/>
<stop offset="0.521359" stop-color="white" stop-opacity="0"/>
</linearGradient>
</defs>
</svg>
