<svg width="77" height="78" viewBox="0 0 77 78" fill="none" xmlns="http://www.w3.org/2000/svg">
<g clip-path="url(#clip0)">
<path d="M63.4978 19.9833L58.454 15.7589L57.3057 9.28059C56.9239 7.12739 55.061 5.56597 52.8748 5.56597C52.8734 5.56597 52.8718 5.56597 52.8704 5.56597L46.2913 5.57182L41.2476 1.34793C39.5702 -0.0570284 37.1371 -0.0549282 35.4621 1.35318L30.4261 5.58667L23.8469 5.59282C21.6589 5.59492 19.7965 7.16054 19.4186 9.31554L18.282 15.7958L13.246 20.0295C11.5711 21.4374 11.1508 23.8338 12.2466 25.7276L15.5414 31.4225L14.4049 37.9025C14.0267 40.0576 15.2453 42.1635 17.3021 42.9101L22.8495 44.9235L22.871 72.5445C22.871 74.2252 23.7961 75.7532 25.2852 76.5322C25.9437 76.8766 26.6596 77.047 27.3727 77.047C28.2723 77.047 29.1674 76.7759 29.9375 76.2415L38.3219 70.4211L46.706 76.2415C48.0866 77.1997 49.8692 77.3112 51.3584 76.5322C52.8475 75.7532 53.7726 74.2252 53.7726 72.5445V44.9561L59.4838 42.8716C61.539 42.1212 62.7536 40.0131 62.3717 37.8587L61.2233 31.3805L64.5076 25.6796C65.6 23.7837 65.1752 21.3881 63.4978 19.9833ZM39.605 65.8335C38.8335 65.298 37.8103 65.298 37.0388 65.8335L27.3715 72.5435C27.3715 72.543 27.3715 72.5427 27.3715 72.5427L27.3553 51.6311C28.2115 52.5703 29.4203 53.0975 30.6738 53.0975C31.1889 53.0975 31.7115 53.0086 32.22 52.8232L38.4003 50.5674L44.5848 52.8118C46.2487 53.4151 48.0619 52.9844 49.2725 51.7943L49.2719 72.5439L39.605 65.8335ZM57.324 29.134C56.7967 30.0493 56.6078 31.1259 56.7923 32.1659L57.9408 38.6441L51.7599 40.9C50.9853 41.183 50.308 41.676 49.7962 42.313C49.7717 42.3422 49.7494 42.3734 49.7264 42.4039C49.6103 42.5561 49.5004 42.7135 49.4041 42.8807L46.1212 48.5819C46.1212 48.5819 46.1207 48.5817 46.1197 48.5813L39.9353 46.337C38.9424 45.9767 37.8493 45.9776 36.857 46.3397L30.6768 48.5957L27.382 42.901C27.205 42.595 26.9906 42.3155 26.7502 42.0618C26.7284 42.0384 26.708 42.0138 26.6852 41.9913C26.2192 41.5205 25.6523 41.1533 25.0219 40.9243L18.8375 38.6798L19.9741 32.1995C20.1563 31.1591 19.9655 30.0828 19.4366 29.1686L16.1418 23.4739L21.1779 19.2403C21.9866 18.5606 22.5323 17.6132 22.7145 16.573L23.8511 10.0929L30.43 10.0867C31.4863 10.0858 32.5134 9.71096 33.3218 9.03128L38.3579 4.79779L43.4015 9.02182C44.2102 9.69925 45.2364 10.0722 46.2916 10.0722H46.2953L52.8745 10.0662L54.0228 16.5445C54.2071 17.5845 54.7547 18.5304 55.5644 19.2088L60.6082 23.4331L57.324 29.134Z" fill="#2E383E"/>
<path d="M38.3749 14.2898C31.2204 14.2898 25.3997 20.1105 25.3997 27.2651C25.3997 34.4197 31.2204 40.2404 38.3749 40.2404C45.5295 40.2404 51.3503 34.4197 51.3503 27.2651C51.3503 20.1105 45.5295 14.2898 38.3749 14.2898ZM38.3749 35.7402C33.7018 35.7402 29.8999 31.9383 29.8999 27.2651C29.8999 22.5919 33.7018 18.79 38.3749 18.79C43.0481 18.79 46.8501 22.5919 46.8501 27.2651C46.8501 31.9383 43.0481 35.7402 38.3749 35.7402Z" fill="#6AD1A6"/>
</g>
<defs>
<clipPath id="clip0">
<rect width="76.7513" height="76.7513" fill="white" transform="translate(0 0.295654)"/>
</clipPath>
</defs>
</svg>
