<svg width="66" height="67" viewBox="0 0 66 67" fill="none" xmlns="http://www.w3.org/2000/svg">
<path d="M33 2.99023C27.0171 2.99023 21.1686 4.76437 16.194 8.08828C11.2194 11.4122 7.34221 16.1366 5.05266 21.6641C2.76311 27.1915 2.16406 33.2738 3.33126 39.1417C4.49846 45.0097 7.3795 50.3997 11.61 54.6303C15.8406 58.8608 21.2306 61.7418 27.0985 62.909C32.9665 64.0762 39.0487 63.4772 44.5762 61.1876C50.1037 58.8981 54.8281 55.0209 58.152 50.0463C61.4759 45.0717 63.25 39.2231 63.25 33.2403C63.2406 25.2204 60.0505 17.5316 54.3795 11.8607C48.7086 6.18978 41.0199 2.9997 33 2.99023ZM33 57.9903C28.1049 57.9903 23.3198 56.5387 19.2496 53.8191C15.1795 51.0996 12.0073 47.2342 10.134 42.7117C8.26073 38.1892 7.77059 33.2128 8.72558 28.4118C9.68056 23.6107 12.0378 19.2007 15.4991 15.7394C18.9605 12.278 23.3705 9.92079 28.1715 8.9658C32.9726 8.01082 37.949 8.50095 42.4714 10.3742C46.9939 12.2475 50.8593 15.4198 53.5789 19.4899C56.2985 23.56 57.75 28.3452 57.75 33.2403C57.742 39.8019 55.1319 46.0925 50.4921 50.7323C45.8523 55.3721 39.5617 57.9823 33 57.9903Z" fill="#D0D0D0"/>
<path d="M35.75 32.1017V16.7402C35.75 16.0109 35.4603 15.3114 34.9445 14.7957C34.4288 14.28 33.7293 13.9902 33 13.9902C32.2707 13.9902 31.5712 14.28 31.0555 14.7957C30.5397 15.3114 30.25 16.0109 30.25 16.7402V33.2402C30.2502 33.9695 30.54 34.6689 31.0558 35.1845L39.3058 43.4345C39.8244 43.9354 40.5191 44.2126 41.2401 44.2063C41.9611 44.2001 42.6509 43.9108 43.1608 43.401C43.6706 42.8911 43.9598 42.2014 43.9661 41.4803C43.9724 40.7593 43.6952 40.0646 43.1943 39.546L35.75 32.1017Z" fill="#6AD1A6"/>
</svg>
