<svg width="28" height="28" viewBox="0 0 28 28" fill="none" xmlns="http://www.w3.org/2000/svg">
<path d="M5.93 12.185C8.09 16.43 11.57 19.91 15.815 22.07L19.115 18.77C19.535 18.35 20.12 18.23 20.645 18.395C22.325 18.95 24.125 19.25 26 19.25C26.3978 19.25 26.7794 19.408 27.0607 19.6893C27.342 19.9706 27.5 20.3522 27.5 20.75V26C27.5 26.3978 27.342 26.7794 27.0607 27.0607C26.7794 27.342 26.3978 27.5 26 27.5C19.237 27.5 12.751 24.8134 7.96878 20.0312C3.1866 15.249 0.5 8.76302 0.5 2C0.5 1.60218 0.658035 1.22064 0.93934 0.93934C1.22064 0.658035 1.60218 0.5 2 0.5H7.25C7.64782 0.5 8.02936 0.658035 8.31066 0.93934C8.59196 1.22064 8.75 1.60218 8.75 2C8.75 3.875 9.05 5.675 9.605 7.355C9.77 7.88 9.65 8.465 9.23 8.885L5.93 12.185Z" fill="#1260B0"/>
</svg>
