<svg width="22" height="30" viewBox="0 0 22 30" fill="none" xmlns="http://www.w3.org/2000/svg">
<path d="M11 14.25C10.0054 14.25 9.05161 13.8549 8.34835 13.1517C7.64509 12.4484 7.25 11.4946 7.25 10.5C7.25 9.50544 7.64509 8.55161 8.34835 7.84835C9.05161 7.14509 10.0054 6.75 11 6.75C11.9946 6.75 12.9484 7.14509 13.6517 7.84835C14.3549 8.55161 14.75 9.50544 14.75 10.5C14.75 10.9925 14.653 11.4801 14.4645 11.9351C14.2761 12.39 13.9999 12.8034 13.6517 13.1517C13.3034 13.4999 12.89 13.7761 12.4351 13.9645C11.9801 14.153 11.4925 14.25 11 14.25ZM11 0C8.21523 0 5.54451 1.10625 3.57538 3.07538C1.60625 5.04451 0.5 7.71523 0.5 10.5C0.5 18.375 11 30 11 30C11 30 21.5 18.375 21.5 10.5C21.5 7.71523 20.3938 5.04451 18.4246 3.07538C16.4555 1.10625 13.7848 0 11 0Z" fill="#1260B0"/>
</svg>
