<svg width="60" height="60" viewBox="0 0 60 60" fill="none" xmlns="http://www.w3.org/2000/svg">
<path d="M47.9999 27.8401C47.9999 25.3201 45.9599 24.0001 43.1999 24.0001H35.1599C35.7599 21.8401 35.9999 19.8001 35.9999 18.0001C35.9999 11.0401 34.0799 9.6001 32.3999 9.6001C31.3199 9.6001 30.4799 9.7201 29.3999 10.3201C29.0399 10.5601 28.9199 10.8001 28.7999 11.1601L27.5999 17.6401C26.2799 21.0001 23.0399 24.0001 20.3999 26.0401V43.2001C21.3599 43.2001 22.3199 43.6801 23.5199 44.2801C24.8399 44.8801 26.1599 45.6001 27.5999 45.6001H38.9999C41.3999 45.6001 43.1999 43.6801 43.1999 42.0001C43.1999 41.6401 43.1999 41.4001 43.0799 41.1601C44.5199 40.5601 45.5999 39.3601 45.5999 37.8001C45.5999 37.0801 45.4799 36.4801 45.2399 35.8801C46.1999 35.2801 47.0399 34.2001 47.0399 33.0001C47.0399 32.2801 46.6799 31.5601 46.3199 30.9601C47.2799 30.2401 47.9999 29.0401 47.9999 27.8401V27.8401ZM45.4799 27.8401C45.4799 29.4001 43.9199 29.5201 43.6799 30.2401C43.4399 31.0801 44.6399 31.3201 44.6399 32.7601C44.6399 34.2001 42.8399 34.2001 42.5999 35.0401C42.3599 36.0001 43.1999 36.2401 43.1999 37.6801V37.9201C42.9599 39.1201 41.1599 39.2401 40.7999 39.7201C40.4399 40.3201 40.7999 40.5601 40.7999 41.8801C40.7999 42.6001 39.9599 43.0801 38.9999 43.0801H27.5999C26.6399 43.0801 25.6799 42.6001 24.4799 42.0001C23.5199 41.5201 22.5599 41.0401 21.5999 40.8001V28.2001C24.5999 25.9201 28.4399 22.5601 29.8799 18.3601V18.1201L30.9599 12.1201C31.4399 12.0001 31.7999 12.0001 32.3999 12.0001C32.6399 12.0001 33.5999 13.4401 33.5999 18.0001C33.5999 19.8001 33.2399 21.7201 32.6399 24.0001H32.3999C31.6799 24.0001 31.1999 24.4801 31.1999 25.2001C31.1999 25.9201 31.6799 26.4001 32.3999 26.4001H43.1999C44.3999 26.4001 45.4799 27.0001 45.4799 27.8401Z" fill="#0551A1"/>
<path d="M19.2001 45.6H12.0001C10.6801 45.6 9.6001 44.52 9.6001 43.2V26.4C9.6001 25.08 10.6801 24 12.0001 24H19.2001C20.5201 24 21.6001 25.08 21.6001 26.4V43.2C21.6001 44.52 20.5201 45.6 19.2001 45.6ZM12.0001 26.4V43.2H19.2001V26.4H12.0001Z" fill="#0551A1"/>
</svg>
