<svg width="632" height="436" viewBox="0 0 632 436" fill="none" xmlns="http://www.w3.org/2000/svg">
<path d="M-70 -20.5164C-36.6667 -52.1995 -3.33333 -52.1995 30 -20.5164C63.3333 11.1667 96.6667 11.1667 130 -20.5164C163.333 -52.1995 196.667 -52.1995 230 -20.5164C263.333 11.1667 296.667 11.1667 330 -20.5164C363.333 -52.1995 396.667 -52.1995 430 -20.5164C463.333 11.1667 496.667 11.1667 530 -20.5164C563.333 -52.1995 596.667 -52.1995 630 -20.5164C663.333 11.1667 696.667 11.1667 730 -20.5164" stroke="white"/>
<path d="M-70 -11.6885C-36.6667 -43.7104 -3.33333 -43.7104 30 -11.6885C63.3333 20.3333 96.6667 20.3333 130 -11.6885C163.333 -43.7104 196.667 -43.7104 230 -11.6885C263.333 20.3333 296.667 20.3333 330 -11.6885C363.333 -43.7104 396.667 -43.7104 430 -11.6885C463.333 20.3333 496.667 20.3333 530 -11.6885C563.333 -43.7104 596.667 -43.7104 630 -11.6885C663.333 20.3333 696.667 20.3333 730 -11.6885" stroke="white"/>
<path d="M-70 -2.86066C-36.6667 -35.2213 -3.33333 -35.2213 30 -2.86066C63.3333 29.5 96.6667 29.5 130 -2.86066C163.333 -35.2213 196.667 -35.2213 230 -2.86066C263.333 29.5 296.667 29.5 330 -2.86066C363.333 -35.2213 396.667 -35.2213 430 -2.86066C463.333 29.5 496.667 29.5 530 -2.86066C563.333 -35.2213 596.667 -35.2213 630 -2.86066C663.333 29.5 696.667 29.5 730 -2.86066" stroke="white"/>
<path d="M-70 5.96722C-36.6667 -26.7322 -3.33333 -26.7322 30 5.96722C63.3333 38.6667 96.6667 38.6667 130 5.96722C163.333 -26.7322 196.667 -26.7322 230 5.96722C263.333 38.6667 296.667 38.6667 330 5.96722C363.333 -26.7322 396.667 -26.7322 430 5.96722C463.333 38.6667 496.667 38.6667 530 5.96722C563.333 -26.7322 596.667 -26.7322 630 5.96722C663.333 38.6667 696.667 38.6667 730 5.96722" stroke="white"/>
<path d="M-70 14.7951C-36.6667 -18.2432 -3.33333 -18.2432 30 14.7951C63.3333 47.8333 96.6667 47.8333 130 14.7951C163.333 -18.2432 196.667 -18.2432 230 14.7951C263.333 47.8333 296.667 47.8333 330 14.7951C363.333 -18.2432 396.667 -18.2432 430 14.7951C463.333 47.8333 496.667 47.8333 530 14.7951C563.333 -18.2432 596.667 -18.2432 630 14.7951C663.333 47.8333 696.667 47.8333 730 14.7951" stroke="white"/>
<path d="M-70 23.6229C-36.6667 -9.7541 -3.33333 -9.7541 30 23.6229C63.3333 57 96.6667 57 130 23.6229C163.333 -9.7541 196.667 -9.7541 230 23.6229C263.333 57 296.667 57 330 23.6229C363.333 -9.7541 396.667 -9.7541 430 23.6229C463.333 57 496.667 57 530 23.6229C563.333 -9.7541 596.667 -9.7541 630 23.6229C663.333 57 696.667 57 730 23.6229" stroke="white"/>
<path d="M-70 32.4508C-36.6667 -1.26502 -3.33333 -1.26502 30 32.4508C63.3333 66.1667 96.6667 66.1667 130 32.4508C163.333 -1.26502 196.667 -1.26502 230 32.4508C263.333 66.1667 296.667 66.1667 330 32.4508C363.333 -1.26502 396.667 -1.26502 430 32.4508C463.333 66.1667 496.667 66.1667 530 32.4508C563.333 -1.26502 596.667 -1.26502 630 32.4508C663.333 66.1667 696.667 66.1667 730 32.4508" stroke="white"/>
<path d="M-70 41.2787C-36.6667 7.22404 -3.33333 7.22404 30 41.2787C63.3333 75.3333 96.6667 75.3333 130 41.2787C163.333 7.22404 196.667 7.22404 230 41.2787C263.333 75.3333 296.667 75.3333 330 41.2787C363.333 7.22404 396.667 7.22404 430 41.2787C463.333 75.3333 496.667 75.3333 530 41.2787C563.333 7.22404 596.667 7.22404 630 41.2787C663.333 75.3333 696.667 75.3333 730 41.2787" stroke="white"/>
<path d="M-70 50.1066C-36.6667 15.7131 -3.33333 15.7131 30 50.1066C63.3333 84.5 96.6667 84.5 130 50.1066C163.333 15.7131 196.667 15.7131 230 50.1066C263.333 84.5 296.667 84.5 330 50.1066C363.333 15.7131 396.667 15.7131 430 50.1066C463.333 84.5 496.667 84.5 530 50.1066C563.333 15.7131 596.667 15.7131 630 50.1066C663.333 84.5 696.667 84.5 730 50.1066" stroke="white"/>
<path d="M-70 58.9344C-36.6667 24.2022 -3.33333 24.2022 30 58.9344C63.3333 93.6667 96.6667 93.6667 130 58.9344C163.333 24.2022 196.667 24.2022 230 58.9344C263.333 93.6667 296.667 93.6667 330 58.9344C363.333 24.2022 396.667 24.2022 430 58.9344C463.333 93.6667 496.667 93.6667 530 58.9344C563.333 24.2022 596.667 24.2022 630 58.9344C663.333 93.6667 696.667 93.6667 730 58.9344" stroke="white"/>
<path d="M-70 67.7623C-36.6667 32.6913 -3.33333 32.6913 30 67.7623C63.3333 102.833 96.6667 102.833 130 67.7623C163.333 32.6913 196.667 32.6913 230 67.7623C263.333 102.833 296.667 102.833 330 67.7623C363.333 32.6913 396.667 32.6913 430 67.7623C463.333 102.833 496.667 102.833 530 67.7623C563.333 32.6913 596.667 32.6913 630 67.7623C663.333 102.833 696.667 102.833 730 67.7623" stroke="white"/>
<path d="M-70 76.5902C-36.6667 41.1803 -3.33333 41.1803 30 76.5902C63.3333 112 96.6667 112 130 76.5902C163.333 41.1803 196.667 41.1803 230 76.5902C263.333 112 296.667 112 330 76.5902C363.333 41.1803 396.667 41.1803 430 76.5902C463.333 112 496.667 112 530 76.5902C563.333 41.1803 596.667 41.1803 630 76.5902C663.333 112 696.667 112 730 76.5902" stroke="white"/>
<path d="M-70 85.418C-36.6667 49.6694 -3.33333 49.6694 30 85.418C63.3333 121.167 96.6667 121.167 130 85.418C163.333 49.6694 196.667 49.6694 230 85.418C263.333 121.167 296.667 121.167 330 85.418C363.333 49.6694 396.667 49.6694 430 85.418C463.333 121.167 496.667 121.167 530 85.418C563.333 49.6694 596.667 49.6694 630 85.418C663.333 121.167 696.667 121.167 730 85.418" stroke="white"/>
<path d="M-70 94.2459C-36.6667 58.1585 -3.33333 58.1585 30 94.2459C63.3333 130.333 96.6667 130.333 130 94.2459C163.333 58.1585 196.667 58.1585 230 94.2459C263.333 130.333 296.667 130.333 330 94.2459C363.333 58.1585 396.667 58.1585 430 94.2459C463.333 130.333 496.667 130.333 530 94.2459C563.333 58.1585 596.667 58.1585 630 94.2459C663.333 130.333 696.667 130.333 730 94.2459" stroke="white"/>
<path d="M-70 103.074C-36.6667 66.6475 -3.33333 66.6475 30 103.074C63.3333 139.5 96.6667 139.5 130 103.074C163.333 66.6475 196.667 66.6475 230 103.074C263.333 139.5 296.667 139.5 330 103.074C363.333 66.6475 396.667 66.6475 430 103.074C463.333 139.5 496.667 139.5 530 103.074C563.333 66.6475 596.667 66.6475 630 103.074C663.333 139.5 696.667 139.5 730 103.074" stroke="white"/>
<path d="M-70 111.902C-36.6667 75.1366 -3.33333 75.1366 30 111.902C63.3333 148.667 96.6667 148.667 130 111.902C163.333 75.1366 196.667 75.1366 230 111.902C263.333 148.667 296.667 148.667 330 111.902C363.333 75.1366 396.667 75.1366 430 111.902C463.333 148.667 496.667 148.667 530 111.902C563.333 75.1366 596.667 75.1366 630 111.902C663.333 148.667 696.667 148.667 730 111.902" stroke="white"/>
<path d="M-70 120.73C-36.6667 83.6257 -3.33333 83.6257 30 120.73C63.3333 157.833 96.6667 157.833 130 120.73C163.333 83.6257 196.667 83.6257 230 120.73C263.333 157.833 296.667 157.833 330 120.73C363.333 83.6257 396.667 83.6257 430 120.73C463.333 157.833 496.667 157.833 530 120.73C563.333 83.6257 596.667 83.6257 630 120.73C663.333 157.833 696.667 157.833 730 120.73" stroke="white"/>
<path d="M-70 129.557C-36.6667 92.1147 -3.33333 92.1147 30 129.557C63.3333 167 96.6667 167 130 129.557C163.333 92.1147 196.667 92.1147 230 129.557C263.333 167 296.667 167 330 129.557C363.333 92.1147 396.667 92.1147 430 129.557C463.333 167 496.667 167 530 129.557C563.333 92.1147 596.667 92.1147 630 129.557C663.333 167 696.667 167 730 129.557" stroke="white"/>
<path d="M-70 138.385C-36.6667 100.604 -3.33333 100.604 30 138.385C63.3333 176.167 96.6667 176.167 130 138.385C163.333 100.604 196.667 100.604 230 138.385C263.333 176.167 296.667 176.167 330 138.385C363.333 100.604 396.667 100.604 430 138.385C463.333 176.167 496.667 176.167 530 138.385C563.333 100.604 596.667 100.604 630 138.385C663.333 176.167 696.667 176.167 730 138.385" stroke="white"/>
<path d="M-70 147.213C-36.6667 109.093 -3.33333 109.093 30 147.213C63.3333 185.333 96.6667 185.333 130 147.213C163.333 109.093 196.667 109.093 230 147.213C263.333 185.333 296.667 185.333 330 147.213C363.333 109.093 396.667 109.093 430 147.213C463.333 185.333 496.667 185.333 530 147.213C563.333 109.093 596.667 109.093 630 147.213C663.333 185.333 696.667 185.333 730 147.213" stroke="white"/>
<path d="M-70 156.041C-36.6667 117.582 -3.33333 117.582 30 156.041C63.3333 194.5 96.6667 194.5 130 156.041C163.333 117.582 196.667 117.582 230 156.041C263.333 194.5 296.667 194.5 330 156.041C363.333 117.582 396.667 117.582 430 156.041C463.333 194.5 496.667 194.5 530 156.041C563.333 117.582 596.667 117.582 630 156.041C663.333 194.5 696.667 194.5 730 156.041" stroke="white"/>
<path d="M-70 164.869C-36.6667 126.071 -3.33333 126.071 30 164.869C63.3333 203.667 96.6667 203.667 130 164.869C163.333 126.071 196.667 126.071 230 164.869C263.333 203.667 296.667 203.667 330 164.869C363.333 126.071 396.667 126.071 430 164.869C463.333 203.667 496.667 203.667 530 164.869C563.333 126.071 596.667 126.071 630 164.869C663.333 203.667 696.667 203.667 730 164.869" stroke="white"/>
<path d="M-70 173.697C-36.6667 134.56 -3.33333 134.56 30 173.697C63.3333 212.833 96.6667 212.833 130 173.697C163.333 134.56 196.667 134.56 230 173.697C263.333 212.833 296.667 212.833 330 173.697C363.333 134.56 396.667 134.56 430 173.697C463.333 212.833 496.667 212.833 530 173.697C563.333 134.56 596.667 134.56 630 173.697C663.333 212.833 696.667 212.833 730 173.697" stroke="white"/>
<path d="M-70 182.525C-36.6667 143.049 -3.33333 143.049 30 182.525C63.3333 222 96.6667 222 130 182.525C163.333 143.049 196.667 143.049 230 182.525C263.333 222 296.667 222 330 182.525C363.333 143.049 396.667 143.049 430 182.525C463.333 222 496.667 222 530 182.525C563.333 143.049 596.667 143.049 630 182.525C663.333 222 696.667 222 730 182.525" stroke="white"/>
<path d="M-70 191.352C-36.6667 151.538 -3.33333 151.538 30 191.352C63.3333 231.167 96.6667 231.167 130 191.352C163.333 151.538 196.667 151.538 230 191.352C263.333 231.167 296.667 231.167 330 191.352C363.333 151.538 396.667 151.538 430 191.352C463.333 231.167 496.667 231.167 530 191.352C563.333 151.538 596.667 151.538 630 191.352C663.333 231.167 696.667 231.167 730 191.352" stroke="white"/>
<path d="M-70 200.18C-36.6667 160.027 -3.33333 160.027 30 200.18C63.3333 240.333 96.6667 240.333 130 200.18C163.333 160.027 196.667 160.027 230 200.18C263.333 240.333 296.667 240.333 330 200.18C363.333 160.027 396.667 160.027 430 200.18C463.333 240.333 496.667 240.333 530 200.18C563.333 160.027 596.667 160.027 630 200.18C663.333 240.333 696.667 240.333 730 200.18" stroke="white"/>
<path d="M-70 209.008C-36.6667 168.516 -3.33333 168.516 30 209.008C63.3333 249.5 96.6667 249.5 130 209.008C163.333 168.516 196.667 168.516 230 209.008C263.333 249.5 296.667 249.5 330 209.008C363.333 168.516 396.667 168.516 430 209.008C463.333 249.5 496.667 249.5 530 209.008C563.333 168.516 596.667 168.516 630 209.008C663.333 249.5 696.667 249.5 730 209.008" stroke="white"/>
<path d="M-70 217.836C-36.6667 177.005 -3.33333 177.005 30 217.836C63.3333 258.667 96.6667 258.667 130 217.836C163.333 177.005 196.667 177.005 230 217.836C263.333 258.667 296.667 258.667 330 217.836C363.333 177.005 396.667 177.005 430 217.836C463.333 258.667 496.667 258.667 530 217.836C563.333 177.005 596.667 177.005 630 217.836C663.333 258.667 696.667 258.667 730 217.836" stroke="white"/>
<path d="M-70 226.664C-36.6667 185.495 -3.33333 185.495 30 226.664C63.3333 267.833 96.6667 267.833 130 226.664C163.333 185.495 196.667 185.495 230 226.664C263.333 267.833 296.667 267.833 330 226.664C363.333 185.495 396.667 185.495 430 226.664C463.333 267.833 496.667 267.833 530 226.664C563.333 185.495 596.667 185.495 630 226.664C663.333 267.833 696.667 267.833 730 226.664" stroke="white"/>
<path d="M-70 235.492C-36.6667 193.984 -3.33333 193.984 30 235.492C63.3333 277 96.6667 277 130 235.492C163.333 193.984 196.667 193.984 230 235.492C263.333 277 296.667 277 330 235.492C363.333 193.984 396.667 193.984 430 235.492C463.333 277 496.667 277 530 235.492C563.333 193.984 596.667 193.984 630 235.492C663.333 277 696.667 277 730 235.492" stroke="white"/>
<path d="M-70 244.32C-36.6667 202.473 -3.33333 202.473 30 244.32C63.3333 286.167 96.6667 286.167 130 244.32C163.333 202.473 196.667 202.473 230 244.32C263.333 286.167 296.667 286.167 330 244.32C363.333 202.473 396.667 202.473 430 244.32C463.333 286.167 496.667 286.167 530 244.32C563.333 202.473 596.667 202.473 630 244.32C663.333 286.167 696.667 286.167 730 244.32" stroke="white"/>
<path d="M-70 253.148C-36.6667 210.962 -3.33333 210.962 30 253.148C63.3333 295.333 96.6667 295.333 130 253.148C163.333 210.962 196.667 210.962 230 253.148C263.333 295.333 296.667 295.333 330 253.148C363.333 210.962 396.667 210.962 430 253.148C463.333 295.333 496.667 295.333 530 253.148C563.333 210.962 596.667 210.962 630 253.148C663.333 295.333 696.667 295.333 730 253.148" stroke="white"/>
<path d="M-70 261.975C-36.6667 219.451 -3.33333 219.451 30 261.975C63.3333 304.5 96.6667 304.5 130 261.975C163.333 219.451 196.667 219.451 230 261.975C263.333 304.5 296.667 304.5 330 261.975C363.333 219.451 396.667 219.451 430 261.975C463.333 304.5 496.667 304.5 530 261.975C563.333 219.451 596.667 219.451 630 261.975C663.333 304.5 696.667 304.5 730 261.975" stroke="white"/>
<path d="M-70 270.803C-36.6667 227.94 -3.33333 227.94 30 270.803C63.3333 313.667 96.6667 313.667 130 270.803C163.333 227.94 196.667 227.94 230 270.803C263.333 313.667 296.667 313.667 330 270.803C363.333 227.94 396.667 227.94 430 270.803C463.333 313.667 496.667 313.667 530 270.803C563.333 227.94 596.667 227.94 630 270.803C663.333 313.667 696.667 313.667 730 270.803" stroke="white"/>
<path d="M-70 279.631C-36.6667 236.429 -3.33333 236.429 30 279.631C63.3333 322.833 96.6667 322.833 130 279.631C163.333 236.429 196.667 236.429 230 279.631C263.333 322.833 296.667 322.833 330 279.631C363.333 236.429 396.667 236.429 430 279.631C463.333 322.833 496.667 322.833 530 279.631C563.333 236.429 596.667 236.429 630 279.631C663.333 322.833 696.667 322.833 730 279.631" stroke="white"/>
<path d="M-70 288.459C-36.6667 244.918 -3.33333 244.918 30 288.459C63.3333 332 96.6667 332 130 288.459C163.333 244.918 196.667 244.918 230 288.459C263.333 332 296.667 332 330 288.459C363.333 244.918 396.667 244.918 430 288.459C463.333 332 496.667 332 530 288.459C563.333 244.918 596.667 244.918 630 288.459C663.333 332 696.667 332 730 288.459" stroke="white"/>
<path d="M-70 297.287C-36.6667 253.407 -3.33333 253.407 30 297.287C63.3333 341.167 96.6667 341.167 130 297.287C163.333 253.407 196.667 253.407 230 297.287C263.333 341.167 296.667 341.167 330 297.287C363.333 253.407 396.667 253.407 430 297.287C463.333 341.167 496.667 341.167 530 297.287C563.333 253.407 596.667 253.407 630 297.287C663.333 341.167 696.667 341.167 730 297.287" stroke="white"/>
<path d="M-70 306.115C-36.6667 261.896 -3.33333 261.896 30 306.115C63.3333 350.333 96.6667 350.333 130 306.115C163.333 261.896 196.667 261.896 230 306.115C263.333 350.333 296.667 350.333 330 306.115C363.333 261.896 396.667 261.896 430 306.115C463.333 350.333 496.667 350.333 530 306.115C563.333 261.896 596.667 261.896 630 306.115C663.333 350.333 696.667 350.333 730 306.115" stroke="white"/>
<path d="M-70 314.943C-36.6667 270.385 -3.33333 270.385 30 314.943C63.3333 359.5 96.6667 359.5 130 314.943C163.333 270.385 196.667 270.385 230 314.943C263.333 359.5 296.667 359.5 330 314.943C363.333 270.385 396.667 270.385 430 314.943C463.333 359.5 496.667 359.5 530 314.943C563.333 270.385 596.667 270.385 630 314.943C663.333 359.5 696.667 359.5 730 314.943" stroke="white"/>
<path d="M-70 323.77C-36.6667 278.874 -3.33333 278.874 30 323.77C63.3333 368.667 96.6667 368.667 130 323.77C163.333 278.874 196.667 278.874 230 323.77C263.333 368.667 296.667 368.667 330 323.77C363.333 278.874 396.667 278.874 430 323.77C463.333 368.667 496.667 368.667 530 323.77C563.333 278.874 596.667 278.874 630 323.77C663.333 368.667 696.667 368.667 730 323.77" stroke="white"/>
<path d="M-70 332.598C-36.6667 287.363 -3.33333 287.363 30 332.598C63.3333 377.833 96.6667 377.833 130 332.598C163.333 287.363 196.667 287.363 230 332.598C263.333 377.833 296.667 377.833 330 332.598C363.333 287.363 396.667 287.363 430 332.598C463.333 377.833 496.667 377.833 530 332.598C563.333 287.363 596.667 287.363 630 332.598C663.333 377.833 696.667 377.833 730 332.598" stroke="white"/>
<path d="M-70 341.426C-36.6667 295.852 -3.33333 295.852 30 341.426C63.3333 387 96.6667 387 130 341.426C163.333 295.852 196.667 295.852 230 341.426C263.333 387 296.667 387 330 341.426C363.333 295.852 396.667 295.852 430 341.426C463.333 387 496.667 387 530 341.426C563.333 295.852 596.667 295.852 630 341.426C663.333 387 696.667 387 730 341.426" stroke="white"/>
<path d="M-70 350.254C-36.6667 304.342 -3.33333 304.342 30 350.254C63.3333 396.167 96.6667 396.167 130 350.254C163.333 304.342 196.667 304.342 230 350.254C263.333 396.167 296.667 396.167 330 350.254C363.333 304.342 396.667 304.342 430 350.254C463.333 396.167 496.667 396.167 530 350.254C563.333 304.342 596.667 304.342 630 350.254C663.333 396.167 696.667 396.167 730 350.254" stroke="white"/>
<path d="M-70 359.082C-36.6667 312.831 -3.33333 312.831 30 359.082C63.3333 405.333 96.6667 405.333 130 359.082C163.333 312.831 196.667 312.831 230 359.082C263.333 405.333 296.667 405.333 330 359.082C363.333 312.831 396.667 312.831 430 359.082C463.333 405.333 496.667 405.333 530 359.082C563.333 312.831 596.667 312.831 630 359.082C663.333 405.333 696.667 405.333 730 359.082" stroke="white"/>
<path d="M-70 367.91C-36.6667 321.32 -3.33333 321.32 30 367.91C63.3333 414.5 96.6667 414.5 130 367.91C163.333 321.32 196.667 321.32 230 367.91C263.333 414.5 296.667 414.5 330 367.91C363.333 321.32 396.667 321.32 430 367.91C463.333 414.5 496.667 414.5 530 367.91C563.333 321.32 596.667 321.32 630 367.91C663.333 414.5 696.667 414.5 730 367.91" stroke="white"/>
<path d="M-70 376.738C-36.6667 329.809 -3.33333 329.809 30 376.738C63.3333 423.667 96.6667 423.667 130 376.738C163.333 329.809 196.667 329.809 230 376.738C263.333 423.667 296.667 423.667 330 376.738C363.333 329.809 396.667 329.809 430 376.738C463.333 423.667 496.667 423.667 530 376.738C563.333 329.809 596.667 329.809 630 376.738C663.333 423.667 696.667 423.667 730 376.738" stroke="white"/>
<path d="M-70 385.566C-36.6667 338.298 -3.33333 338.298 30 385.566C63.3333 432.833 96.6667 432.833 130 385.566C163.333 338.298 196.667 338.298 230 385.566C263.333 432.833 296.667 432.833 330 385.566C363.333 338.298 396.667 338.298 430 385.566C463.333 432.833 496.667 432.833 530 385.566C563.333 338.298 596.667 338.298 630 385.566C663.333 432.833 696.667 432.833 730 385.566" stroke="white"/>
<path d="M-70 394.393C-36.6667 346.787 -3.33333 346.787 30 394.393C63.3333 442 96.6667 442 130 394.393C163.333 346.787 196.667 346.787 230 394.393C263.333 442 296.667 442 330 394.393C363.333 346.787 396.667 346.787 430 394.393C463.333 442 496.667 442 530 394.393C563.333 346.787 596.667 346.787 630 394.393C663.333 442 696.667 442 730 394.393" stroke="white"/>
<path d="M-70 403.221C-36.6667 355.276 -3.33333 355.276 30 403.221C63.3333 451.167 96.6667 451.167 130 403.221C163.333 355.276 196.667 355.276 230 403.221C263.333 451.167 296.667 451.167 330 403.221C363.333 355.276 396.667 355.276 430 403.221C463.333 451.167 496.667 451.167 530 403.221C563.333 355.276 596.667 355.276 630 403.221C663.333 451.167 696.667 451.167 730 403.221" stroke="white"/>
<path d="M-70 412.049C-36.6667 363.765 -3.33333 363.765 30 412.049C63.3333 460.333 96.6667 460.333 130 412.049C163.333 363.765 196.667 363.765 230 412.049C263.333 460.333 296.667 460.333 330 412.049C363.333 363.765 396.667 363.765 430 412.049C463.333 460.333 496.667 460.333 530 412.049C563.333 363.765 596.667 363.765 630 412.049C663.333 460.333 696.667 460.333 730 412.049" stroke="white"/>
<path d="M-70 420.877C-36.6667 372.254 -3.33333 372.254 30 420.877C63.3333 469.5 96.6667 469.5 130 420.877C163.333 372.254 196.667 372.254 230 420.877C263.333 469.5 296.667 469.5 330 420.877C363.333 372.254 396.667 372.254 430 420.877C463.333 469.5 496.667 469.5 530 420.877C563.333 372.254 596.667 372.254 630 420.877C663.333 469.5 696.667 469.5 730 420.877" stroke="white"/>
<path d="M-70 429.705C-36.6667 380.743 -3.33333 380.743 30 429.705C63.3333 478.667 96.6667 478.667 130 429.705C163.333 380.743 196.667 380.743 230 429.705C263.333 478.667 296.667 478.667 330 429.705C363.333 380.743 396.667 380.743 430 429.705C463.333 478.667 496.667 478.667 530 429.705C563.333 380.743 596.667 380.743 630 429.705C663.333 478.667 696.667 478.667 730 429.705" stroke="white"/>
<path d="M-70 438.533C-36.6667 389.232 -3.33333 389.232 30 438.533C63.3333 487.833 96.6667 487.833 130 438.533C163.333 389.232 196.667 389.232 230 438.533C263.333 487.833 296.667 487.833 330 438.533C363.333 389.232 396.667 389.232 430 438.533C463.333 487.833 496.667 487.833 530 438.533C563.333 389.232 596.667 389.232 630 438.533C663.333 487.833 696.667 487.833 730 438.533" stroke="white"/>
<path d="M-70 447.361C-36.6667 397.721 -3.33333 397.721 30 447.361C63.3333 497 96.6667 497 130 447.361C163.333 397.721 196.667 397.721 230 447.361C263.333 497 296.667 497 330 447.361C363.333 397.721 396.667 397.721 430 447.361C463.333 497 496.667 497 530 447.361C563.333 397.721 596.667 397.721 630 447.361C663.333 497 696.667 497 730 447.361" stroke="white"/>
<path d="M-70 456.189C-36.6667 406.21 -3.33333 406.21 30 456.189C63.3333 506.167 96.6667 506.167 130 456.189C163.333 406.21 196.667 406.21 230 456.189C263.333 506.167 296.667 506.167 330 456.189C363.333 406.21 396.667 406.21 430 456.189C463.333 506.167 496.667 506.167 530 456.189C563.333 406.21 596.667 406.21 630 456.189C663.333 506.167 696.667 506.167 730 456.189" stroke="white"/>
<path d="M-70 465.016C-36.6667 414.699 -3.33333 414.699 30 465.016C63.3333 515.333 96.6667 515.333 130 465.016C163.333 414.699 196.667 414.699 230 465.016C263.333 515.333 296.667 515.333 330 465.016C363.333 414.699 396.667 414.699 430 465.016C463.333 515.333 496.667 515.333 530 465.016C563.333 414.699 596.667 414.699 630 465.016C663.333 515.333 696.667 515.333 730 465.016" stroke="white"/>
<path d="M-70 473.844C-36.6667 423.188 -3.33333 423.188 30 473.844C63.3333 524.5 96.6667 524.5 130 473.844C163.333 423.188 196.667 423.188 230 473.844C263.333 524.5 296.667 524.5 330 473.844C363.333 423.188 396.667 423.188 430 473.844C463.333 524.5 496.667 524.5 530 473.844C563.333 423.188 596.667 423.188 630 473.844C663.333 524.5 696.667 524.5 730 473.844" stroke="white"/>
</svg>
