<svg width="77" height="78" viewBox="0 0 77 78" fill="none" xmlns="http://www.w3.org/2000/svg">
<g clip-path="url(#clip0)">
<path d="M71.4349 5.48474H5.31639C2.38508 5.48474 0 7.86982 0 10.8011V55.6587C0 58.59 2.38508 60.9751 5.31639 60.9751H43.8711L42.707 68.0747C42.4879 69.4111 42.93 70.6217 43.8896 71.3125C44.849 72.0034 46.1365 72.0404 47.335 71.4088L55.6531 67.0306C55.8852 66.9115 56.5247 66.9115 56.7568 67.0306L65.075 71.4088C65.644 71.7084 66.2334 71.8575 66.7981 71.8575C67.4227 71.8575 68.0169 71.675 68.5206 71.3122C69.48 70.6214 69.922 69.4105 69.7033 68.0741L68.5394 60.9748H71.4352C74.3665 60.9748 76.7516 58.5897 76.7516 55.6584V10.8011C76.7513 7.86952 74.3662 5.48474 71.4349 5.48474ZM56.2051 51.8625C51.0962 51.8625 46.9394 47.7057 46.9394 42.5968C46.9394 37.4879 51.0962 33.3311 56.2051 33.3311C61.314 33.3311 65.4708 37.4879 65.4708 42.5968C65.4708 47.7057 61.314 51.8625 56.2051 51.8625ZM58.8794 62.9983C57.3298 62.1823 55.0802 62.1823 53.5308 62.9983L47.65 66.0937L49.5195 54.6896C51.5024 55.7902 53.7815 56.4191 56.2054 56.4191C58.6294 56.4191 60.9082 55.7899 62.8913 54.6896L63.6198 59.1356C63.6216 59.1429 63.6222 59.1508 63.6238 59.1581L64.7609 66.094L58.8794 62.9983ZM72.1944 55.6587C72.1944 56.0703 71.8465 56.4182 71.4349 56.4182H67.7921L66.96 51.3421C66.9567 51.322 66.9512 51.3029 66.9473 51.2828C68.8718 48.9078 70.028 45.885 70.028 42.5968C70.028 34.9749 63.8273 28.7742 56.2054 28.7742C48.5836 28.7742 42.3828 34.9749 42.3828 42.5968C42.3828 45.885 43.5391 48.9072 45.4636 51.2828C45.4596 51.3026 45.4542 51.322 45.4508 51.3418L44.6181 56.4221C44.5926 56.4212 44.568 56.4182 44.5425 56.4182H5.31639C4.90475 56.4182 4.5569 56.0703 4.5569 55.6587V10.8011C4.5569 10.3895 4.90475 10.0416 5.31639 10.0416H71.4349C71.8465 10.0416 72.1944 10.3895 72.1944 10.8011V55.6587Z" fill="#2E383E"/>
<path d="M63.3769 18.5972H11.7321C10.4734 18.5972 9.45361 19.617 9.45361 20.8756C9.45361 22.1342 10.4734 23.1541 11.7321 23.1541H63.3769C64.6356 23.1541 65.6554 22.1342 65.6554 20.8756C65.6554 19.617 64.6356 18.5972 63.3769 18.5972Z" fill="#6AD1A6"/>
<path d="M33.6052 30.9518H11.7321C10.4734 30.9518 9.45361 31.9716 9.45361 33.2302C9.45361 34.4888 10.4734 35.5087 11.7321 35.5087H33.6052C34.8638 35.5087 35.8836 34.4888 35.8836 33.2302C35.8836 31.9716 34.8638 30.9518 33.6052 30.9518Z" fill="#6AD1A6"/>
</g>
<defs>
<clipPath id="clip0">
<rect width="76.7513" height="76.7513" fill="white" transform="translate(0 0.295654)"/>
</clipPath>
</defs>
</svg>
