<svg width="93" height="86" viewBox="0 0 93 86" fill="none" xmlns="http://www.w3.org/2000/svg">
<rect x="2" y="2" width="73.2402" height="60.3812" fill="white" stroke="#1C1C1C" stroke-width="3"/>
<path d="M64.616 32.1906H12.6211" stroke="#1C1C1C" stroke-width="3"/>
<path d="M64.616 44.4904H12.6211" stroke="#1C1C1C" stroke-width="3"/>
<path d="M25.4801 19.8906H19.0506H12.6211" stroke="#1C1C1C" stroke-width="3"/>
<path d="M66.7643 62.6941L64.0583 83.0672L75.2401 76.3582L86.4218 83.0672L83.7158 62.6718" fill="white"/>
<path d="M66.7643 62.6941L64.0583 83.0672L75.2401 76.3582L86.4218 83.0672L83.7158 62.6718" stroke="#1C1C1C" stroke-width="3"/>
<path d="M75.2401 65.1765C83.8858 65.1765 90.8945 58.1678 90.8945 49.5221C90.8945 40.8764 83.8858 33.8677 75.2401 33.8677C66.5944 33.8677 59.5857 40.8764 59.5857 49.5221C59.5857 58.1678 66.5944 65.1765 75.2401 65.1765Z" fill="white" stroke="#1C1C1C" stroke-width="3"/>
</svg>
