<svg width="92" height="83" viewBox="0 0 92 83" fill="none" xmlns="http://www.w3.org/2000/svg">
<path d="M1.8833 22.4054V80.0202L27.0898 65.6165L55.8972 80.0202L81.1037 65.6165V8.00171L55.8972 22.4054L27.0898 8.00171L1.8833 22.4054Z" fill="white" stroke="#1C1C1C" stroke-width="3"/>
<path d="M27.0898 8.00171V65.6165" stroke="#1C1C1C" stroke-width="3"/>
<path d="M55.8989 22.405V80.0198" stroke="#1C1C1C" stroke-width="3"/>
<path d="M90.3955 19.114C90.3955 32.4249 73.2815 43.8343 73.2815 43.8343C73.2815 43.8343 56.1675 32.4249 56.1675 19.114C56.1675 14.5751 57.9706 10.2221 61.1801 7.01258C64.3896 3.80308 68.7426 2 73.2815 2C77.8204 2 82.1734 3.80308 85.3829 7.01258C88.5924 10.2221 90.3955 14.5751 90.3955 19.114Z" fill="white" stroke="#1C1C1C" stroke-width="3"/>
<path d="M73.2813 24.8187C76.4319 24.8187 78.986 22.2646 78.986 19.114C78.986 15.9634 76.4319 13.4094 73.2813 13.4094C70.1307 13.4094 67.5767 15.9634 67.5767 19.114C67.5767 22.2646 70.1307 24.8187 73.2813 24.8187Z" fill="white" stroke="#1C1C1C" stroke-width="3"/>
</svg>
