<svg width="83" height="84" viewBox="0 0 83 84" fill="none" xmlns="http://www.w3.org/2000/svg">
<path d="M38.7415 2.78483C40.4044 1.68719 42.5618 1.68719 44.2247 2.78483L53.8646 9.14767C54.4649 9.54392 55.1355 9.82168 55.8402 9.96599L67.1559 12.2832C69.1079 12.683 70.6334 14.2084 71.0331 16.1605L73.3503 27.4761C73.4946 28.1808 73.7724 28.8514 74.1686 29.4517L80.5315 39.0916C81.6291 40.7546 81.6291 42.9119 80.5315 44.5748L74.1686 54.2148C73.7724 54.8151 73.4946 55.4857 73.3503 56.1903L71.0331 67.506C70.6334 69.458 69.1079 70.9835 67.1559 71.3832L55.8402 73.7005C55.1355 73.8448 54.4649 74.1225 53.8646 74.5188L44.2247 80.8816C42.5618 81.9793 40.4044 81.9793 38.7415 80.8816L29.1016 74.5188C28.5012 74.1225 27.8307 73.8448 27.126 73.7005L15.8103 71.3832C13.8583 70.9835 12.3328 69.458 11.9331 67.506L9.61586 56.1903C9.47155 55.4857 9.19379 54.8151 8.79754 54.2148L2.4347 44.5748C1.33706 42.9119 1.33706 40.7546 2.4347 39.0916L8.79754 29.4517C9.19379 28.8514 9.47155 28.1808 9.61586 27.4761L11.9331 16.1605C12.3328 14.2084 13.8583 12.683 15.8103 12.2832L27.126 9.96599C27.8307 9.82168 28.5012 9.54392 29.1016 9.14767L38.7415 2.78483Z" stroke="#E7E7E7" stroke-width="0.663582"/>
<path opacity="0.8" d="M38.7322 8.43717C40.3484 7.37037 42.4451 7.37037 44.0614 8.43717L51.8622 13.5861C52.4774 13.9922 53.1646 14.2769 53.8868 14.4247L63.0437 16.2999C64.9409 16.6884 66.4235 18.171 66.812 20.0682L68.6872 29.2251C68.8351 29.9473 69.1197 30.6345 69.5258 31.2497L74.6747 39.0506C75.7415 40.6668 75.7415 42.7635 74.6747 44.3797L69.5258 52.1806C69.1197 52.7958 68.8351 53.483 68.6872 54.2052L66.812 63.3621C66.4235 65.2593 64.9409 66.7419 63.0437 67.1304L53.8868 69.0056C53.1646 69.1534 52.4774 69.4381 51.8622 69.8442L44.0614 74.9931C42.4451 76.0599 40.3484 76.0599 38.7322 74.9931L30.9313 69.8442C30.3161 69.4381 29.6289 69.1534 28.9067 69.0056L19.7498 67.1304C17.8526 66.7419 16.37 65.2593 15.9815 63.3621L14.1064 54.2052C13.9585 53.483 13.6738 52.7958 13.2678 52.1806L8.11878 44.3797C7.05198 42.7635 7.05198 40.6668 8.11878 39.0506L13.2678 31.2497C13.6738 30.6345 13.9585 29.9473 14.1064 29.2251L15.9815 20.0682C16.37 18.171 17.8526 16.6884 19.7498 16.2999L28.9067 14.4247C29.6289 14.2769 30.3161 13.9922 30.9313 13.5861L38.7322 8.43717Z" stroke="#E7E7E7" stroke-width="0.943234"/>
<path opacity="0.6" d="M38.7322 13.4049C40.3485 12.3381 42.4452 12.3381 44.0614 13.4049L50.2464 17.4873C50.8616 17.8934 51.5488 18.178 52.271 18.3259L59.5311 19.8126C61.4283 20.2011 62.9109 21.6837 63.2994 23.5809L64.7861 30.841C64.934 31.5632 65.2187 32.2504 65.6247 32.8656L69.7071 39.0506C70.7739 40.6668 70.7739 42.7635 69.7071 44.3798L65.6247 50.5647C65.2187 51.1799 64.934 51.8671 64.7861 52.5893L63.2994 59.8494C62.9109 61.7466 61.4283 63.2292 59.5311 63.6177L52.271 65.1044C51.5488 65.2523 50.8616 65.537 50.2464 65.943L44.0614 70.0254C42.4452 71.0922 40.3485 71.0922 38.7322 70.0254L32.5473 65.943C31.9321 65.537 31.2449 65.2523 30.5227 65.1044L23.2626 63.6177C21.3654 63.2292 19.8828 61.7466 19.4943 59.8494L18.0076 52.5893C17.8597 51.8671 17.575 51.1799 17.169 50.5647L13.0866 44.3798C12.0198 42.7635 12.0198 40.6668 13.0866 39.0506L17.169 32.8656C17.575 32.2504 17.8597 31.5632 18.0076 30.841L19.4943 23.5809C19.8828 21.6837 21.3654 20.2011 23.2626 19.8126L30.5227 18.3259C31.2449 18.178 31.9321 17.8934 32.5473 17.4873L38.7322 13.4049Z" stroke="#E7E7E7" stroke-width="0.943234"/>
<path opacity="0.4" d="M39.2511 18.8582C40.5528 17.999 42.2414 17.999 43.543 18.8582L48.5131 22.1387C49.0281 22.4786 49.6034 22.7169 50.2079 22.8407L56.042 24.0354C57.5699 24.3483 58.7639 25.5423 59.0768 27.0702L60.2715 32.9043C60.3953 33.5088 60.6336 34.0841 60.9735 34.5991L64.254 39.5692C65.1132 40.8708 65.1132 42.5594 64.254 43.8611L60.9735 48.8312C60.6336 49.3462 60.3953 49.9214 60.2715 50.526L59.0768 56.36C58.7639 57.8879 57.5699 59.082 56.042 59.3949L50.2079 60.5896C49.6034 60.7134 49.0281 60.9517 48.5131 61.2916L43.543 64.5721C42.2414 65.4313 40.5528 65.4313 39.2511 64.5721L34.281 61.2916C33.766 60.9517 33.1908 60.7134 32.5862 60.5896L26.7522 59.3949C25.2243 59.082 24.0302 57.8879 23.7174 56.36L22.5226 50.526C22.3989 49.9214 22.1606 49.3462 21.8206 48.8312L18.5401 43.8611C17.681 42.5594 17.681 40.8708 18.5401 39.5692L21.8206 34.5991C22.1606 34.0841 22.3989 33.5088 22.5226 32.9043L23.7174 27.0702C24.0302 25.5423 25.2243 24.3483 26.7522 24.0354L32.5862 22.8407C33.1908 22.7169 33.766 22.4786 34.281 22.1387L39.2511 18.8582Z" stroke="#E7E7E7" stroke-width="0.943234"/>
</svg>
