<svg width="19" height="28" viewBox="0 0 19 28" fill="none" xmlns="http://www.w3.org/2000/svg">
<path d="M9.5 0C4.2617 0 0 4.41591 0 9.84375C0 11.6776 0.490253 13.4673 1.41809 15.02L8.95924 27.6122C9.10369 27.8534 9.35819 28 9.63189 28C9.634 28 9.63606 28 9.63817 28C9.91425 27.9978 10.1693 27.8467 10.3111 27.6012L17.66 14.887C18.5367 13.3672 19 11.6232 19 9.84375C19 4.41591 14.7383 0 9.5 0ZM16.3013 14.0447L9.61991 25.6039L2.76381 14.1556C1.99152 12.8633 1.57278 11.3723 1.57278 9.84375C1.57278 5.32055 5.13475 1.62969 9.5 1.62969C13.8652 1.62969 17.4219 5.32055 17.4219 9.84375C17.4219 11.3269 17.0308 12.7798 16.3013 14.0447Z" fill="#00ADF8"/>
<path fill-rule="evenodd" clip-rule="evenodd" d="M16.3013 14.0447L9.61991 25.6039L2.76381 14.1556C1.99152 12.8633 1.57278 11.3723 1.57278 9.84375C1.57278 5.32055 5.13475 1.62969 9.5 1.62969C13.8652 1.62969 17.4219 5.32055 17.4219 9.84375C17.4219 11.3269 17.0308 12.7798 16.3013 14.0447ZM4.75 9.84375C4.75 7.12983 6.88085 4.92188 9.5 4.92188C12.1192 4.92188 14.25 7.12983 14.25 9.84375C14.25 12.5107 12.1865 14.7656 9.5 14.7656C6.84618 14.7656 4.75 12.5403 4.75 9.84375Z" fill="#00ADF8"/>
</svg>
