<svg width="26" height="20" viewBox="0 0 26 20" fill="none" xmlns="http://www.w3.org/2000/svg">
<path fill-rule="evenodd" clip-rule="evenodd" d="M5.43755 1.58759C6.03869 0.601613 7.1102 0 8.26513 0H17.7349C18.8898 0 19.9613 0.601613 20.5625 1.58759L22.5407 4.83221H24.9707C25.4182 4.83221 26 5.01119 26 5.81656C26 6.67274 25.5937 6.78421 24.575 7.06371L24.5749 7.06374C24.4225 7.10557 24.2563 7.15116 24.0757 7.20358C24.568 7.77032 25.5525 9.55705 25.5525 12.17V19.0846C25.5525 19.3276 25.4559 19.5597 25.284 19.7315C25.1121 19.9034 24.8789 20 24.6358 20H22.3969C22.1538 20 21.9206 19.9034 21.7487 19.7315C21.5768 19.5597 21.4802 19.3265 21.4802 19.0834V17.7181H4.51979V19.0834C4.51979 19.3265 4.42321 19.5597 4.25129 19.7315C4.07937 19.9034 3.8462 20 3.60307 20H1.36423C1.1211 20 0.887926 19.9034 0.716007 19.7315C0.544088 19.5597 0.447504 19.3276 0.447504 19.0846V12.17C0.447504 9.55705 1.43201 7.77032 1.92427 7.20358C1.74365 7.15115 1.57745 7.10555 1.42497 7.06371C0.406276 6.78421 0 6.67274 0 5.81656C0 5.01119 0.581756 4.83221 1.02926 4.83221H3.45932L5.43755 1.58759ZM15.8864 16.1521C16.0347 16.1521 16.1549 16.0319 16.1549 15.8837V14.8098C16.1549 14.6616 16.0347 14.5414 15.8864 14.5414H10.1136C9.96531 14.5414 9.84509 14.6616 9.84509 14.8098V15.8837C9.84509 16.0319 9.96531 16.1521 10.1136 16.1521H15.8864ZM21.883 7.20358C22.3752 7.20358 22.241 6.75615 22.241 6.75615L22.2417 6.74867L19.4926 2.23968C19.1189 1.62677 18.4528 1.2528 17.7349 1.2528H8.26513C7.5472 1.2528 6.88113 1.62677 6.50744 2.23968L3.75834 6.74867L3.75904 6.75615C3.75904 6.75615 3.62478 7.20358 4.11704 7.20358H21.883ZM3.44578 9.8434C3.56939 9.8434 3.68933 9.85906 3.80374 9.8885L3.80379 9.88814L3.80919 9.88991C3.86468 9.90442 3.91886 9.92218 3.97151 9.94297L6.13081 10.6488L6.13043 10.6574C6.63563 10.723 7.02582 11.1549 7.02582 11.6779C7.02582 12.2312 6.58901 12.6825 6.04135 12.706L6.04131 12.7069H3.44578C2.6549 12.7069 2.01377 12.0659 2.01377 11.2752C2.01377 10.4844 2.6549 9.8434 3.44578 9.8434ZM22.5542 9.8434C22.4306 9.8434 22.3107 9.85906 22.1963 9.8885L22.1962 9.88814L22.1908 9.88991C22.1353 9.90442 22.0811 9.92218 22.0285 9.94297L19.8692 10.6488L19.8696 10.6574C19.3644 10.723 18.9742 11.1549 18.9742 11.6779C18.9742 12.2312 19.411 12.6825 19.9587 12.706L19.9587 12.7069H22.5542C23.3451 12.7069 23.9862 12.0659 23.9862 11.2752C23.9862 10.4844 23.3451 9.8434 22.5542 9.8434Z" fill="#0551A1"/>
</svg>
