<svg width="45" height="45" viewBox="0 0 45 45" fill="none" xmlns="http://www.w3.org/2000/svg">
<path fill-rule="evenodd" clip-rule="evenodd" d="M0.899902 22.5004C0.899902 10.5709 10.5704 0.900391 22.4999 0.900391C34.4294 0.900391 44.0999 10.5709 44.0999 22.5004C44.0999 34.4299 34.4294 44.1004 22.4999 44.1004C10.5704 44.1004 0.899902 34.4299 0.899902 22.5004ZM24.3088 14.8307C23.7617 14.2895 23.02 13.9852 22.2463 13.9846C21.4727 13.9852 20.731 14.2895 20.1839 14.8307C19.6369 15.3719 19.3293 16.1056 19.3286 16.871C19.3306 17.6353 19.6388 18.3677 20.1857 18.9077C20.7327 19.4476 21.4737 19.7509 22.2463 19.7513C23.019 19.7509 23.76 19.4476 24.3069 18.9077C24.8539 18.3677 25.1621 17.6353 25.1641 16.871C25.1634 16.1056 24.8558 15.3719 24.3088 14.8307ZM27.2251 21.7945C25.9042 23.1002 24.1136 23.8341 22.2463 23.8354C20.3795 23.8341 18.5895 23.1 17.2693 21.7942C15.9491 20.4885 15.2067 18.7178 15.2051 16.871C15.2054 15.0232 15.9472 13.2511 17.2675 11.9441C18.5878 10.6371 20.3785 9.90201 22.2463 9.90038C24.1146 9.90201 25.9059 10.6369 27.227 11.9438C28.548 13.2507 29.2909 15.0228 29.2926 16.871C29.2896 18.7182 28.5461 20.4889 27.2251 21.7945ZM29.1859 27.8435C27.927 28.6252 26.5445 29.1923 25.0958 29.5211L29.0358 33.4139C29.4224 33.7968 29.6396 34.3158 29.6396 34.8571C29.6396 35.3983 29.4224 35.9174 29.0358 36.3003C28.227 37.1004 26.9232 37.1004 26.118 36.3003L22.2463 32.475L18.3796 36.3003C17.9927 36.6837 17.4677 36.8993 16.92 36.8998C16.3724 36.9003 15.847 36.6855 15.4594 36.3027C15.0718 35.92 14.8538 35.4006 14.8534 34.8588C14.8529 34.317 15.07 33.7973 15.4569 33.4139L19.3968 29.5211C17.9482 29.1923 16.5657 28.6252 15.3068 27.8435C14.8635 27.5466 14.5542 27.091 14.4441 26.5727C14.3339 26.0545 14.4316 25.5142 14.7165 25.0659C15.0013 24.6175 15.4511 24.2962 15.9709 24.1696C16.4907 24.0431 17.0399 24.1213 17.5025 24.3877C18.9245 25.2662 20.5673 25.7321 22.2439 25.7321C23.9204 25.7321 25.5632 25.2662 26.9852 24.3877C27.2146 24.2447 27.4701 24.1479 27.7374 24.1026C28.0046 24.0574 28.2782 24.0647 28.5425 24.1241C28.8069 24.1834 29.0569 24.2937 29.2782 24.4487C29.4994 24.6036 29.6877 24.8001 29.8322 25.0271C29.9767 25.254 30.0746 25.5068 30.1203 25.7712C30.1661 26.0355 30.1587 26.3062 30.0987 26.5677C30.0387 26.8292 29.9272 27.0765 29.7705 27.2954C29.6139 27.5143 29.4153 27.7006 29.1859 27.8435Z" fill="#0551A1"/>
</svg>
