<svg width="18" height="18" viewBox="0 0 18 18" fill="none" xmlns="http://www.w3.org/2000/svg">
<path d="M17.5101 13.2102L14.9981 10.6982C14.101 9.80111 12.5759 10.16 12.217 11.3262C11.9479 12.1337 11.0508 12.5822 10.2434 12.4028C8.44911 11.9542 6.02687 9.62168 5.57831 7.73772C5.30917 6.93027 5.84744 6.03314 6.65486 5.76404C7.82112 5.40519 8.17997 3.88007 7.28285 2.98295L4.77089 0.470991C4.05319 -0.156997 2.97664 -0.156997 2.34865 0.470991L0.644112 2.17553C-1.06043 3.96978 0.823537 8.72455 5.04003 12.941C9.25652 17.1575 14.0113 19.1313 15.8055 17.337L17.5101 15.6324C18.1381 14.9147 18.1381 13.8382 17.5101 13.2102Z" fill="white"/>
</svg>
