<svg width="18" height="18" viewBox="0 0 18 18" fill="none" xmlns="http://www.w3.org/2000/svg">
<g clip-path="url(#clip0)">
<path d="M17.5101 13.2102L14.9982 10.6982C14.101 9.80111 12.5759 10.16 12.2171 11.3262C11.9479 12.1337 11.0508 12.5822 10.2434 12.4028C8.44913 11.9542 6.02689 9.62168 5.57833 7.73772C5.30919 6.93027 5.84747 6.03314 6.65488 5.76404C7.82114 5.40519 8.18 3.88007 7.28287 2.98295L4.77092 0.470991C4.05321 -0.156997 2.97666 -0.156997 2.34867 0.470991L0.644135 2.17553C-1.06041 3.96978 0.82356 8.72455 5.04005 12.941C9.25655 17.1575 14.0113 19.1313 15.8056 17.337L17.5101 15.6324C18.1381 14.9147 18.1381 13.8382 17.5101 13.2102Z" fill="#00ADF8"/>
</g>
<defs>
<clipPath id="clip0">
<rect width="18" height="18" fill="white"/>
</clipPath>
</defs>
</svg>
