<svg width="37" height="28" viewBox="0 0 37 28" fill="none" xmlns="http://www.w3.org/2000/svg">
<path fill-rule="evenodd" clip-rule="evenodd" d="M27 3.5H13V0.5H27V3.5ZM13.8028 10.5L12.5449 12.3868C12.0813 13.0822 11.3007 13.5 10.4648 13.5H10V21H13.5858C14.2488 21 14.8847 21.2634 15.3536 21.7322L18.1213 24.5H33.5V15.5H32.4142C31.7512 15.5 31.1153 15.2366 30.6464 14.7678L26.3787 10.5H13.8028ZM11.4551 8.61325C11.9187 7.91775 12.6993 7.5 13.5352 7.5H26.5858C27.2488 7.5 27.8847 7.76339 28.3536 8.23223L32.6213 12.5H34C35.3807 12.5 36.5 13.6193 36.5 15V25C36.5 26.3807 35.3807 27.5 34 27.5H17.9142C17.2512 27.5 16.6153 27.2366 16.1464 26.7678L13.3787 24H9.5C8.11929 24 7 22.8807 7 21.5V13C7 11.6193 8.11929 10.5 9.5 10.5H10.1972L11.4551 8.61325ZM0.5 22.5V12H3.5V22.5H0.5Z" fill="#0551A1"/>
</svg>
