<svg width="26" height="26" viewBox="0 0 26 26" fill="none" xmlns="http://www.w3.org/2000/svg">
<path fill-rule="evenodd" clip-rule="evenodd" d="M19.1389 6.11111H9.02778V4H19.1389V6.11111ZM9.60756 11.037L8.69912 12.3647C8.36426 12.8542 7.8005 13.1481 7.19681 13.1481H6.86111V18.4259H9.45085C9.92971 18.4259 10.389 18.6113 10.7276 18.9412L12.7265 20.8889H23.8333V14.5556H23.0492C22.5703 14.5556 22.111 14.3702 21.7724 14.0403L18.6902 11.037H9.60756ZM7.91199 9.70932C8.24685 9.2199 8.81061 8.92593 9.4143 8.92593H18.8397C19.3186 8.92593 19.7778 9.11128 20.1165 9.4412L23.1987 12.4444H24.1944C25.1916 12.4444 26 13.2321 26 14.2037V21.2407C26 22.2124 25.1916 23 24.1944 23H12.5769C12.0981 23 11.6388 22.8146 11.3002 22.4847L9.30127 20.537H6.5C5.50282 20.537 4.69444 19.7494 4.69444 18.7778V12.7963C4.69444 11.8247 5.50282 11.037 6.5 11.037H7.00355L7.91199 9.70932ZM0 19.4815V12.0926H2.16667V19.4815H0Z" fill="#BDC7D1"/>
</svg>
