<svg width="48" height="48" viewBox="0 0 48 48" fill="none" xmlns="http://www.w3.org/2000/svg">
<path d="M0 0V48H48V0H0ZM46.4 46.4H1.6V1.6H46.4V46.4Z" fill="#1260B0"/>
<path d="M38.9664 10.1656L10.1664 38.9656L9.03516 37.8344L37.8352 9.03442L38.9664 10.1656Z" fill="#1260B0"/>
<path d="M13.6008 18.4C16.248 18.4 18.4008 16.2472 18.4008 13.6C18.4008 10.9528 16.248 8.79999 13.6008 8.79999C10.9536 8.79999 8.80078 10.9528 8.80078 13.6C8.80078 16.2472 10.9536 18.4 13.6008 18.4ZM13.6008 10.4C15.3656 10.4 16.8008 11.8352 16.8008 13.6C16.8008 15.3648 15.3656 16.8 13.6008 16.8C11.836 16.8 10.4008 15.3648 10.4008 13.6C10.4008 11.8352 11.836 10.4 13.6008 10.4Z" fill="#1260B0"/>
<path d="M34.4016 29.6C31.7544 29.6 29.6016 31.7528 29.6016 34.4C29.6016 37.0472 31.7544 39.2 34.4016 39.2C37.0487 39.2 39.2015 37.0472 39.2015 34.4C39.2015 31.7528 37.0487 29.6 34.4016 29.6ZM34.4016 37.6C32.6368 37.6 31.2016 36.1648 31.2016 34.4C31.2016 32.6352 32.6368 31.2 34.4016 31.2C36.1663 31.2 37.6015 32.6352 37.6015 34.4C37.6015 36.1648 36.1663 37.6 34.4016 37.6Z" fill="#1260B0"/>
</svg>
