<svg width="48" height="48" viewBox="0 0 48 48" fill="none" xmlns="http://www.w3.org/2000/svg">
<path d="M45.7134 2.28576C42.664 -0.761918 37.7041 -0.761918 34.6547 2.28576L3.32481 33.6156C3.31005 33.6304 3.30136 33.6487 3.28833 33.6643C3.27008 33.6851 3.25444 33.7077 3.23794 33.7303C3.19189 33.7946 3.15627 33.8632 3.12934 33.938C3.12152 33.9605 3.11023 33.9805 3.10415 34.0031C3.10154 34.0118 3.09633 34.0205 3.09372 34.0292L0.0225882 46.9305C0.00868778 46.9887 0.00521267 47.0478 0.00347511 47.106C0.00347511 47.1173 0 47.1277 0 47.139C0.000868778 47.2381 0.0225882 47.3345 0.0564706 47.4275C0.0642896 47.4492 0.0729774 47.4683 0.0825339 47.4892C0.125104 47.5821 0.1781 47.6716 0.252815 47.7463C0.335348 47.8288 0.432652 47.8923 0.537774 47.9357C0.642896 47.9791 0.754968 48.0009 0.867041 48.0009C0.933937 48.0009 1.0017 47.993 1.06773 47.9774L13.9691 44.9063C13.9925 44.9011 14.0134 44.888 14.036 44.8802C14.0655 44.8707 14.0933 44.8594 14.122 44.8463C14.1845 44.8177 14.2428 44.782 14.2966 44.7395C14.3175 44.723 14.3392 44.7108 14.3592 44.6926C14.3661 44.6856 14.3748 44.6821 14.3818 44.6752L45.7125 13.3444C48.7619 10.295 48.7619 5.3343 45.7134 2.28576ZM44.4849 3.51421C46.6464 5.6766 46.8306 9.07178 45.0496 11.4522L36.5469 2.9495C38.9282 1.16851 42.3234 1.35269 44.4849 3.51421ZM40.1845 16.4156L31.5836 7.81466L32.812 6.58621L41.4129 15.1871L40.1845 16.4156ZM4.31001 43.6891C3.97032 43.3494 3.42125 43.3494 3.08156 43.6891L2.42389 44.3468L4.64275 35.0265L8.48449 34.6L7.99015 39.0498C7.98668 39.0829 7.99884 39.1133 7.99884 39.1454C7.99884 39.1784 7.98668 39.208 7.99015 39.241C7.99363 39.2696 8.0084 39.2931 8.01448 39.3209C8.02491 39.3713 8.03967 39.4173 8.05792 39.4643C8.08051 39.5207 8.10744 39.572 8.14045 39.6215C8.16739 39.6615 8.19432 39.6971 8.22733 39.7318C8.26903 39.7761 8.31421 39.8135 8.36373 39.8483C8.40282 39.8752 8.44018 39.9004 8.48362 39.9212C8.54096 39.9482 8.60091 39.9638 8.66346 39.9786C8.69647 39.9864 8.7234 40.0046 8.75729 40.009C8.78856 40.0125 8.81984 40.0142 8.85198 40.0142H8.85285H8.85372H8.85459H8.85546C8.88673 40.0142 8.91888 40.0125 8.95015 40.009L13.4 39.5146L12.9735 43.3564L3.65234 45.5752L4.31001 44.9176C4.64883 44.5788 4.64883 44.0288 4.31001 43.6891ZM15.2132 38.9291L34.6547 19.4867C34.9944 19.147 34.9944 18.5979 34.6547 18.2582C34.315 17.9186 33.7659 17.9186 33.4262 18.2582L13.9847 37.7006L9.83805 38.1611L10.2985 34.0144L29.7418 14.5729C30.0815 14.2332 30.0815 13.6841 29.7418 13.3444C29.4021 13.0047 28.853 13.0047 28.5133 13.3444L9.07005 32.786L6.30472 33.0935L30.3551 9.04311L38.956 17.644L14.9056 41.6944L15.2132 38.9291ZM42.6414 13.9587L34.0405 5.35776L35.2698 4.12843L43.8707 12.7293L42.6414 13.9587Z" fill="#1260B0"/>
</svg>
