<svg width="48" height="48" viewBox="0 0 48 48" fill="none" xmlns="http://www.w3.org/2000/svg">
<path d="M16.8174 23.1816C15.0006 21.1296 12.5782 20 9.99505 20C7.41185 20 4.98945 21.1296 3.17345 23.1816C-0.51615 27.3504 -0.51615 34.132 3.17345 38.3008L9.99505 46.0072L16.8166 38.3008C20.507 34.132 20.507 27.3504 16.8174 23.1816ZM15.619 37.24L9.99585 43.5928L4.37185 37.24C1.19905 33.6568 1.19905 27.8256 4.37185 24.2424C5.87985 22.5384 7.87745 21.6 9.99505 21.6C12.1126 21.6 14.111 22.5384 15.6182 24.2424C18.791 27.8256 18.791 33.656 15.619 37.24Z" fill="#1260B0"/>
<path d="M38.9971 19.6056L44.1683 13.7768C46.9507 10.6408 46.9507 5.54 44.1683 2.404C42.7923 0.8536 40.9555 0 38.9963 0C37.0379 0 35.2011 0.8536 33.8251 2.404C31.0427 5.54 31.0427 10.6408 33.8251 13.7768L38.9971 19.6056ZM35.0219 3.4664C36.0899 2.2624 37.5011 1.6 38.9963 1.6C40.4923 1.6 41.9035 2.2624 42.9715 3.4664C45.2339 6.016 45.2339 10.1648 42.9715 12.7144L38.9971 17.1952L35.0219 12.7144C32.7595 10.1648 32.7595 6.016 35.0219 3.4664Z" fill="#1260B0"/>
<path d="M42.0834 43.6136C41.6522 43.5168 41.2242 43.7872 41.1274 44.2184C41.0354 44.6264 40.857 45.0016 40.597 45.332C40.3242 45.6792 40.3834 46.1824 40.7314 46.4552C40.8786 46.5704 41.0522 46.6264 41.225 46.6264C41.4626 46.6264 41.697 46.5216 41.8546 46.3208C42.2578 45.8088 42.5458 45.204 42.6882 44.5704C42.785 44.1384 42.5146 43.7104 42.0834 43.6136Z" fill="#1260B0"/>
<path d="M25.5946 24.8C25.2482 24.7992 24.9114 24.7376 24.593 24.616C24.1834 24.46 23.7186 24.6656 23.5602 25.0784C23.4034 25.4912 23.6106 25.9536 24.0226 26.1112C24.5234 26.3016 25.0506 26.3992 25.593 26.4H25.8786C26.321 26.4 26.6786 26.0424 26.6786 25.6C26.6786 25.1576 26.321 24.8 25.8786 24.8H25.5946Z" fill="#1260B0"/>
<path d="M23.6998 19.7408C23.8446 19.7408 23.9902 19.7016 24.1222 19.62C24.4766 19.3992 24.8686 19.264 25.2854 19.2176C25.7246 19.1688 26.0414 18.7736 25.9934 18.3344C25.9454 17.8952 25.5526 17.5816 25.1102 17.6264C24.4526 17.6992 23.835 17.912 23.275 18.2616C22.8998 18.4952 22.7862 18.9888 23.0198 19.364C23.1718 19.6072 23.4326 19.7408 23.6998 19.7408Z" fill="#1260B0"/>
<path d="M14.4508 46.4H12.8508C12.4084 46.4 12.0508 46.7576 12.0508 47.2C12.0508 47.6424 12.4084 48 12.8508 48H14.4508C14.8932 48 15.2508 47.6424 15.2508 47.2C15.2508 46.7576 14.8924 46.4 14.4508 46.4Z" fill="#1260B0"/>
<path d="M28.7922 32C28.7234 32 28.6554 32.0016 28.5874 32.0048C28.1458 32.0224 27.8034 32.3952 27.821 32.8368C27.8378 33.2672 28.193 33.604 28.6194 33.604C28.6306 33.604 28.6418 33.604 28.653 33.6032L30.2202 33.6C30.6626 33.6 31.0202 33.2424 31.0202 32.8C31.0202 32.3576 30.6626 32 30.2202 32H28.7922Z" fill="#1260B0"/>
<path d="M28.3937 19.2H29.9937C30.4361 19.2 30.7937 18.8424 30.7937 18.4C30.7937 17.9576 30.4361 17.6 29.9937 17.6H28.3937C27.9513 17.6 27.5938 17.9576 27.5938 18.4C27.5938 18.8424 27.9513 19.2 28.3937 19.2Z" fill="#1260B0"/>
<path d="M38.2219 32C37.7795 32 37.4219 32.3576 37.4219 32.8C37.4219 33.2424 37.7795 33.6 38.2219 33.6H39.8219C40.2643 33.6 40.6219 33.2424 40.6219 32.8C40.6219 32.3576 40.2643 32 39.8219 32H38.2219Z" fill="#1260B0"/>
<path d="M41.0828 25.6C41.0828 25.1576 40.7252 24.8 40.2828 24.8H38.6828C38.2404 24.8 37.8828 25.1576 37.8828 25.6C37.8828 26.0424 38.2404 26.4 38.6828 26.4H40.2828C40.7244 26.4 41.0828 26.0424 41.0828 25.6Z" fill="#1260B0"/>
<path d="M33.425 33.6H35.025C35.4674 33.6 35.825 33.2424 35.825 32.8C35.825 32.3576 35.4674 32 35.025 32H33.425C32.9826 32 32.625 32.3576 32.625 32.8C32.625 33.2424 32.9834 33.6 33.425 33.6Z" fill="#1260B0"/>
<path d="M34.7945 19.2C35.2369 19.2 35.5945 18.8424 35.5945 18.4C35.5945 17.9576 35.2369 17.6 34.7945 17.6H33.1945C32.7521 17.6 32.3945 17.9576 32.3945 18.4C32.3945 18.8424 32.7521 19.2 33.1945 19.2H34.7945Z" fill="#1260B0"/>
<path d="M29.0813 24.8C28.6389 24.8 28.2812 25.1576 28.2812 25.6C28.2812 26.0424 28.6389 26.4 29.0813 26.4H30.6813C31.1237 26.4 31.4813 26.0424 31.4813 25.6C31.4813 25.1576 31.1237 24.8 30.6813 24.8H29.0813Z" fill="#1260B0"/>
<path d="M36.282 25.6C36.282 25.1576 35.9244 24.8 35.482 24.8H33.882C33.4396 24.8 33.082 25.1576 33.082 25.6C33.082 26.0424 33.4396 26.4 33.882 26.4H35.482C35.9236 26.4 36.282 26.0424 36.282 25.6Z" fill="#1260B0"/>
<path d="M47.544 28.5056C47.4736 28.0688 47.0616 27.7704 46.6272 27.8424C46.1904 27.912 45.8936 28.3232 45.964 28.7592C45.9864 28.9016 45.9992 29.0464 45.9976 29.2008C45.9976 29.4696 45.9592 29.7352 45.884 29.9912C45.76 30.4152 46.0024 30.86 46.4272 30.984C46.5024 31.0056 46.5776 31.016 46.652 31.016C46.9984 31.016 47.3176 30.7904 47.42 30.4408C47.5376 30.0384 47.5976 29.6216 47.5976 29.2064C47.5992 28.976 47.5816 28.74 47.544 28.5056Z" fill="#1260B0"/>
<path d="M33.6539 46.4H32.0539C31.6115 46.4 31.2539 46.7576 31.2539 47.2C31.2539 47.6424 31.6115 48 32.0539 48H33.6539C34.0963 48 34.4539 47.6424 34.4539 47.2C34.4539 46.7576 34.0955 46.4 33.6539 46.4Z" fill="#1260B0"/>
<path d="M28.8531 46.4H27.2531C26.8107 46.4 26.4531 46.7576 26.4531 47.2C26.4531 47.6424 26.8107 48 27.2531 48H28.8531C29.2955 48 29.6531 47.6424 29.6531 47.2C29.6531 46.7576 29.2947 46.4 28.8531 46.4Z" fill="#1260B0"/>
<path d="M37.6531 39.9999C37.6531 39.5576 37.2955 39.2 36.8531 39.2H35.2531C34.8107 39.2 34.4531 39.5576 34.4531 39.9999C34.4531 40.4423 34.8107 40.7999 35.2531 40.7999H36.8531C37.2947 40.7999 37.6531 40.4423 37.6531 39.9999Z" fill="#1260B0"/>
<path d="M32.8562 39.9999C32.8562 39.5576 32.4986 39.2 32.0562 39.2H30.4562C30.0138 39.2 29.6562 39.5576 29.6562 39.9999C29.6562 40.4423 30.0138 40.7999 30.4562 40.7999H32.0562C32.4978 40.7999 32.8562 40.4423 32.8562 39.9999Z" fill="#1260B0"/>
<path d="M38.3948 46.4H36.8508C36.4084 46.4 36.0508 46.7576 36.0508 47.2C36.0508 47.6424 36.4084 48 36.8508 48L38.4276 47.9992L38.4508 47.1992V47.9992C38.8932 47.9992 39.2228 47.6416 39.2228 47.1992C39.2228 46.7576 38.8372 46.4 38.3948 46.4Z" fill="#1260B0"/>
<path d="M41.2272 42.1752C41.4 42.1752 41.5752 42.1192 41.7208 42.004C42.0688 41.7304 42.128 41.2272 41.8552 40.8808C41.4528 40.3696 40.9336 39.9472 40.352 39.6584C39.9543 39.4608 39.4759 39.6232 39.2791 40.0184C39.0823 40.4144 39.2439 40.8944 39.6392 41.0912C40.0096 41.2744 40.3408 41.544 40.5968 41.8704C40.7552 42.0704 40.9895 42.1752 41.2272 42.1752Z" fill="#1260B0"/>
<path d="M44.2763 31.7832C43.9331 31.9272 43.5699 32 43.1947 32H43.0227C42.5803 32 42.2227 32.3576 42.2227 32.8C42.2227 33.2424 42.5803 33.6 43.0227 33.6H43.1947C43.7835 33.6 44.3555 33.4848 44.8947 33.2584C45.3027 33.0872 45.4939 32.6184 45.3227 32.2112C45.1523 31.804 44.6803 31.612 44.2763 31.7832Z" fill="#1260B0"/>
<path d="M22.4241 23.884C22.8433 23.7456 23.0721 23.2936 22.9345 22.8736C22.8425 22.5928 22.7953 22.2992 22.7953 22.0032C22.7961 21.8824 22.8033 21.7616 22.8177 21.644C22.8729 21.2056 22.5625 20.8048 22.1241 20.7504C21.6721 20.7 21.2849 21.0072 21.2305 21.444C21.2081 21.6248 21.1961 21.8088 21.1953 21.9992C21.1953 22.4696 21.2689 22.932 21.4137 23.3736C21.5249 23.7104 21.8377 23.924 22.1737 23.924C22.2569 23.924 22.3417 23.912 22.4241 23.884Z" fill="#1260B0"/>
<path d="M19.2516 46.4H17.6516C17.2092 46.4 16.8516 46.7576 16.8516 47.2C16.8516 47.6424 17.2092 48 17.6516 48H19.2516C19.694 48 20.0516 47.6424 20.0516 47.2C20.0516 46.7576 19.6932 46.4 19.2516 46.4Z" fill="#1260B0"/>
<path d="M27.2959 40.4752C27.5999 40.4752 27.8895 40.3016 28.0239 40.008C28.2071 39.6056 28.0311 39.1312 27.6295 38.948C27.2543 38.776 26.9143 38.5176 26.6471 38.1992C26.3623 37.8608 25.8583 37.8168 25.5199 38.1016C25.1815 38.3856 25.1375 38.8904 25.4223 39.2288C25.8415 39.7272 26.3743 40.1336 26.9639 40.4024C27.0719 40.4512 27.1847 40.4752 27.2959 40.4752Z" fill="#1260B0"/>
<path d="M45.3958 25.3904C44.8246 25.0592 44.2006 24.8648 43.5422 24.8128C43.103 24.7808 42.7166 25.1064 42.6822 25.548C42.6478 25.9888 42.9766 26.3736 43.4174 26.408C43.835 26.4408 44.231 26.564 44.5934 26.7744C44.7198 26.848 44.8582 26.8824 44.9942 26.8824C45.2702 26.8824 45.539 26.7392 45.687 26.484C45.9086 26.1024 45.7782 25.6128 45.3958 25.3904Z" fill="#1260B0"/>
<path d="M24.0523 46.4H22.4523C22.0099 46.4 21.6523 46.7576 21.6523 47.2C21.6523 47.6424 22.0099 48 22.4523 48H24.0523C24.4947 48 24.8523 47.6424 24.8523 47.2C24.8523 46.7576 24.4939 46.4 24.0523 46.4Z" fill="#1260B0"/>
<path d="M26.0474 35.8712C26.1266 35.46 26.293 35.08 26.5426 34.7408C26.8042 34.3856 26.7282 33.8848 26.3722 33.6224C26.0162 33.3616 25.5162 33.4368 25.2538 33.7928C24.8626 34.3256 24.6002 34.9232 24.4754 35.5704C24.3922 36.004 24.6762 36.4232 25.1106 36.5072C25.161 36.5168 25.2122 36.5216 25.2618 36.5216C25.6378 36.52 25.973 36.2536 26.0474 35.8712Z" fill="#1260B0"/>
<path d="M39.1969 12C41.6225 12 43.5969 10.0256 43.5969 7.60001C43.5969 5.17441 41.6225 3.20001 39.1969 3.20001C36.7713 3.20001 34.7969 5.17441 34.7969 7.60001C34.7969 10.0256 36.7713 12 39.1969 12ZM39.1969 4.80001C40.7409 4.80001 41.9969 6.05601 41.9969 7.60001C41.9969 9.14402 40.7409 10.4 39.1969 10.4C37.6529 10.4 36.3969 9.14402 36.3969 7.60001C36.3969 6.05601 37.6537 4.80001 39.1969 4.80001Z" fill="#1260B0"/>
<path d="M9.99531 24.8C7.34811 24.8 5.19531 26.9528 5.19531 29.6C5.19531 32.2472 7.34811 34.4 9.99531 34.4C12.6425 34.4 14.7953 32.2472 14.7953 29.6C14.7953 26.9528 12.6425 24.8 9.99531 24.8ZM9.99531 32.8C8.23051 32.8 6.79531 31.3648 6.79531 29.6C6.79531 27.8352 8.23051 26.4 9.99531 26.4C11.7601 26.4 13.1953 27.8352 13.1953 29.6C13.1953 31.3648 11.7601 32.8 9.99531 32.8Z" fill="#1260B0"/>
</svg>
