<svg width="48" height="48" viewBox="0 0 48 48" fill="none" xmlns="http://www.w3.org/2000/svg">
<path d="M48 10.107H35.1503C35.8366 9.1259 36.2105 7.96043 36.2105 6.73264C36.2105 5.15369 35.5992 3.67327 34.4901 2.56422C32.192 0.266111 28.4522 0.266111 26.1541 2.56422L23.7718 4.94653L21.3903 2.56422C19.0922 0.266111 15.3524 0.266111 13.0543 2.56422C11.9453 3.67327 11.3339 5.15369 11.3339 6.73264C11.3339 7.96043 11.7078 9.1259 12.3941 10.107H0V21.8964H4.21053V47.1596H44.6316V21.8964H48V10.107ZM27.3448 3.75495C28.9869 2.11369 31.6581 2.11369 33.2994 3.75495C34.0901 4.54653 34.5263 5.60337 34.5263 6.73264C34.5263 7.86106 34.0901 8.91874 33.2994 9.70948L32.9019 10.107H20.9928L24.9625 6.13727L27.3448 3.75495ZM14.2451 9.70948C13.4543 8.91874 13.0181 7.86106 13.0181 6.73264C13.0181 5.60337 13.4543 4.54653 14.2451 3.75495C15.8872 2.11369 18.5583 2.11369 20.1996 3.75495L22.5811 6.13727L19.6042 9.11411C19.4299 9.28843 19.2699 9.48548 19.1149 9.69432C19.0695 9.7558 19.0248 9.82232 18.9811 9.88716C18.9305 9.96127 18.8775 10.0278 18.8295 10.1061H14.6425L14.2451 9.70948ZM1.68421 20.2122V11.7912H13.9444H17.9301H19.8291H23.5789V20.2122H4.21053H1.68421ZM23.5789 21.8964V32.0017H5.89474V21.8964H23.5789ZM5.89474 33.6859H23.5789V45.4754H5.89474V33.6859ZM25.2632 45.4754V33.6859H42.9474V45.4754H25.2632ZM42.9474 32.0017H25.2632V21.8964H42.9474V32.0017ZM46.3158 20.2122H44.6316H25.2632V11.7912H33.5992H46.3158V20.2122Z" fill="#1260B0"/>
</svg>