<svg width="77" height="78" viewBox="0 0 77 78" fill="none" xmlns="http://www.w3.org/2000/svg">
<g clip-path="url(#clip0)">
<path d="M61.0113 31.7756C57.2918 31.7756 54.2656 34.8018 54.2656 38.5214C54.2656 42.2409 57.2918 45.2671 61.0113 45.2671C64.7309 45.2671 67.7571 42.2409 67.7571 38.5214C67.7571 34.8018 64.7309 31.7756 61.0113 31.7756ZM61.0113 40.7699C59.7717 40.7699 58.7628 39.761 58.7628 38.5214C58.7628 37.2817 59.7717 36.2728 61.0113 36.2728C62.251 36.2728 63.2599 37.2817 63.2599 38.5214C63.2599 39.761 62.251 40.7699 61.0113 40.7699Z" fill="#6AD1A6"/>
<path d="M76.7513 38.5214C76.7513 29.8421 69.6905 22.7814 61.0113 22.7814C52.332 22.7814 45.2713 29.8421 45.2713 38.5214C45.2713 41.2812 45.9962 43.997 47.3682 46.3762L57.6554 64.4532C56.2699 65.2513 55.1937 66.5255 54.652 68.0526H8.99429C6.51442 68.0526 4.49715 66.0348 4.49715 63.5555C4.49715 61.0756 6.51442 59.0584 8.99429 59.0584H24.7343C30.9501 59.0584 35.9772 53.8814 35.9772 47.6656C35.9772 41.4498 30.9501 36.2728 24.7343 36.2728H13.105C12.4263 34.3592 10.9079 32.8408 8.99429 32.1621V22.7814H26.9829C28.9773 22.7814 29.9886 20.3583 28.5727 18.943L23.4174 13.7871L28.5727 8.63118C29.9833 7.22114 28.9849 4.7928 26.9829 4.7928H8.99429V2.54423C8.99429 1.30224 7.9877 0.295654 6.74572 0.295654C5.50373 0.295654 4.49715 1.30224 4.49715 2.54423V32.1621C1.87967 33.0909 0 35.59 0 38.5214C0 42.2409 3.0262 45.2671 6.74572 45.2671C9.67706 45.2671 12.1763 43.3869 13.105 40.77H24.7343C28.3912 40.77 31.48 43.9279 31.48 47.6656C31.48 51.4033 28.3912 54.5612 24.7343 54.5612H8.99429C4.03455 54.5612 0 58.5958 0 63.5555C0 68.5152 4.03455 72.5498 8.99429 72.5498H54.652C55.5807 75.1667 58.0799 77.0469 61.0113 77.0469C64.7308 77.0469 67.757 74.0207 67.757 70.3012C67.757 67.8032 66.3909 65.619 64.3671 64.4532L74.6503 46.3826C76.0246 44.0023 76.7513 41.2835 76.7513 38.5214ZM21.5541 9.28995L18.6473 12.1973C17.769 13.0756 17.769 14.4991 18.6473 15.3769L21.5541 18.2842H8.99429V9.28995H21.5541ZM6.74572 40.77C5.50608 40.77 4.49715 39.761 4.49715 38.5214C4.49715 37.2817 5.50608 36.2728 6.74572 36.2728C7.98536 36.2728 8.99429 37.2817 8.99429 38.5214C8.99429 39.761 7.98536 40.77 6.74572 40.77ZM61.0113 72.5498C59.7716 72.5498 58.7627 71.5409 58.7627 70.3012C58.7627 69.0616 59.7716 68.0526 61.0113 68.0526C62.2509 68.0526 63.2598 69.0616 63.2598 70.3012C63.2598 71.5409 62.2509 72.5498 61.0113 72.5498ZM70.7486 44.1463L61.0113 61.2577L51.2739 44.1463C51.2716 44.1422 51.2692 44.1381 51.2669 44.134C50.2866 42.4365 49.7684 40.4953 49.7684 38.5214C49.7684 32.322 54.8119 27.2785 61.0113 27.2785C67.2107 27.2785 72.2541 32.322 72.2541 38.5214C72.2541 40.4953 71.7359 42.4359 70.7486 44.1463Z" fill="#2E383E"/>
</g>
<defs>
<clipPath id="clip0">
<rect width="76.7513" height="76.7513" fill="white" transform="translate(0 0.295654)"/>
</clipPath>
</defs>
</svg>
