<svg width="77" height="78" viewBox="0 0 77 78" fill="none" xmlns="http://www.w3.org/2000/svg">
<g clip-path="url(#clip0)">
<path d="M76.75 38.7424C76.7502 38.7186 76.7509 38.6949 76.7509 38.6711C76.7509 28.4206 72.7593 18.7838 65.5111 11.5356C58.263 4.28745 48.6261 0.295654 38.3757 0.295654C28.1252 0.295654 18.4883 4.28745 11.2402 11.5356C4.00973 18.7661 0.0206311 28.3737 0.00114356 38.596V38.6008C0.00099366 38.6241 0.000244141 38.6475 0.000244141 38.6711C0.000244141 48.9214 3.99189 58.5584 11.24 65.8065C18.4833 73.0498 28.112 77.0408 38.3545 77.0462C38.362 77.0463 38.3694 77.0469 38.3769 77.0469C38.3808 77.0469 38.3848 77.0463 38.3887 77.0463C48.6342 77.043 58.266 73.0517 65.5111 65.8065C72.7411 58.5764 76.7302 48.9692 76.75 38.7474C76.75 38.7457 76.75 38.7439 76.75 38.7424ZM56.4823 67.2924L53.1836 65.1143C52.1472 64.4301 50.7525 64.7154 50.0682 65.7517C49.3839 66.788 49.6693 68.1828 50.7056 68.8671L51.967 69.7001C48.201 71.3563 44.0789 72.3456 39.7497 72.5194L37.9777 68.9755C37.4223 67.8649 36.0716 67.4146 34.9608 67.9699C33.8501 68.5253 33.3999 69.876 33.9553 70.9868L34.6329 72.3419C30.3459 71.8685 26.298 70.5924 22.6422 68.667L22.8795 64.7172C22.954 63.4775 22.0094 62.4123 20.7697 62.3378C19.5335 62.2652 18.4648 63.2078 18.3903 64.4475L18.3004 65.9433C14.9173 63.4463 12.0135 60.3367 9.7545 56.7786L11.9323 53.4798C12.6165 52.4433 12.331 51.0486 11.2946 50.3645C10.2582 49.6803 8.86347 49.9657 8.1793 51.0022L7.34659 52.2635C5.69045 48.4974 4.70093 44.3754 4.52719 40.0461L8.07077 38.2738C9.18141 37.7183 9.63142 36.3676 9.07603 35.257C8.52049 34.1464 7.17 33.6964 6.05921 34.2518L4.70483 34.9292C5.17808 30.6421 6.45436 26.5941 8.37973 22.9382L12.3294 23.1755C12.3753 23.1782 12.421 23.1795 12.4664 23.1795C13.6465 23.1795 14.637 22.2594 14.7088 21.0657C14.7832 19.826 13.8388 18.7608 12.5992 18.6863L11.1033 18.5964C13.6003 15.2132 16.7102 12.3093 20.2686 10.0501L23.5678 12.228C23.9494 12.4798 24.3793 12.6002 24.8046 12.6002C25.5346 12.6002 26.2508 12.2451 26.6832 11.5902C27.3673 10.5537 27.0817 9.15903 26.0453 8.47486L24.784 7.6423C28.5499 5.98616 32.6718 4.99679 37.0006 4.82305L38.7732 8.36693C39.1673 9.15468 39.9612 9.61009 40.786 9.61009C41.124 9.61009 41.4671 9.53364 41.79 9.37204C42.9007 8.8165 43.3508 7.46586 42.7953 6.35522L42.1177 5.00054C46.405 5.47379 50.453 6.75007 54.1091 8.67574L53.8723 12.6256C53.7979 13.8653 54.7426 14.9303 55.9823 15.0047C56.0282 15.0075 56.0736 15.0087 56.119 15.0087C57.2992 15.0087 58.2899 14.0885 58.3615 12.8946L58.4511 11.3996C61.8341 13.8966 64.7379 17.0065 66.997 20.5649L64.8189 23.8634C64.1346 24.8997 64.4198 26.2945 65.4561 26.9789C65.8376 27.2308 66.2677 27.3512 66.6931 27.3512C67.4231 27.3512 68.1391 26.9963 68.5716 26.3415L69.4046 25.08C71.0606 28.8461 72.0499 32.9681 72.2237 37.2971L68.6799 39.0689C67.5692 39.6243 67.119 40.9749 67.6744 42.0857C68.0683 42.8738 68.8624 43.3293 69.6873 43.3293C70.0252 43.3293 70.3683 43.2529 70.6911 43.0914L72.046 42.4139C71.5726 46.7008 70.2965 50.7488 68.371 54.4047L64.4207 54.1678C63.1809 54.0945 62.116 55.0382 62.0416 56.2777C61.9672 57.5174 62.9119 58.5825 64.1515 58.6569L65.6472 58.7465C63.1504 62.1294 60.0405 65.0332 56.4823 67.2924Z" fill="#2E383E"/>
<path d="M38.3762 14.7463C25.1842 14.7463 14.4517 25.479 14.4517 38.6711C14.4517 51.8631 25.1842 62.5958 38.3762 62.5958C51.5682 62.5958 62.3007 51.8633 62.3007 38.6711C62.3007 25.479 51.5682 14.7463 38.3762 14.7463ZM38.3762 43.6478C35.6319 43.6478 33.3994 41.4153 33.3994 38.6711C33.3994 35.9268 35.632 33.6943 38.3762 33.6943C41.1205 33.6943 43.353 35.927 43.353 38.6711C43.353 41.4153 41.1205 43.6478 38.3762 43.6478ZM18.9488 38.6711C18.9488 35.9369 19.5177 33.3332 20.5417 30.9709L29.283 36.0175C29.0367 36.8601 28.9021 37.75 28.9021 38.6711C28.9021 39.5923 29.0367 40.482 29.283 41.3246L20.5415 46.3712C19.5178 44.0089 18.9488 41.4054 18.9488 38.6711ZM47.4692 36.0175L56.2107 30.9709C57.2346 33.3332 57.8036 35.9369 57.8036 38.6711C57.8036 41.4054 57.2347 44.0089 56.2107 46.3712L47.4692 41.3246C47.7155 40.482 47.8501 39.5923 47.8501 38.6711C47.8501 37.75 47.7155 36.8601 47.4692 36.0175ZM53.9569 27.0792L45.2159 32.1257C43.9878 30.843 42.4046 29.904 40.6249 29.469V19.3743C46.0693 20.0048 50.8352 22.8941 53.9569 27.0792ZM36.1276 19.3743V29.469C34.3478 29.904 32.7647 30.8429 31.5367 32.1257L22.7955 27.0792C25.9172 22.8941 30.6831 20.0048 36.1276 19.3743ZM22.7955 50.2629L31.5367 45.2164C32.7647 46.4991 34.3478 47.4381 36.1276 47.8731V57.9678C30.6831 57.3373 25.9172 54.4482 22.7955 50.2629ZM40.6247 57.9678V47.8731C42.4044 47.4381 43.9877 46.4993 45.2157 45.2164L53.9569 50.2629C50.8352 54.4482 46.0693 57.3373 40.6247 57.9678Z" fill="#6AD1A6"/>
</g>
<defs>
<clipPath id="clip0">
<rect width="76.7513" height="76.7513" fill="white" transform="translate(0 0.295654)"/>
</clipPath>
</defs>
</svg>
