<svg width="49" height="42" viewBox="0 0 49 42" fill="none" xmlns="http://www.w3.org/2000/svg">
<path d="M2 13.5C2 13.5 11.4636 13.5 19.5 13.5M2 34H40.5147C45.8601 34 48.5372 27.5372 44.7574 23.7574L38.5 17.5C38.5 17.5 34.5 13.5 27 13.5C19.5 13.5 23.435 13.5 19.5 13.5M19.5 13.5L13.5 8L17 3M17 3H11M17 3H24.5M2 18.5H6C6.55228 18.5 7 18.9477 7 19.5V23C7 23.5523 6.55228 24 6 24H2M39.5 18.5H28C27.4477 18.5 27 18.9477 27 19.5V23C27 23.5523 27.4477 24 28 24H45M22.02 19.5V23C22.02 23.5523 21.5723 24 21.02 24H12.5C11.9477 24 11.5 23.5523 11.5 23V19.5C11.5 18.9477 11.9477 18.5 12.5 18.5H21.02C21.5723 18.5 22.02 18.9477 22.02 19.5Z" stroke="white" stroke-width="3"/>
<path d="M36 33C36 36.3137 33.3137 39 30 39C26.6863 39 24 36.3137 24 33" stroke="white" stroke-width="3"/>
<path d="M22 33C22 36.3137 19.3137 39 16 39C12.6863 39 10 36.3137 10 33" stroke="white" stroke-width="3"/>
</svg>
