<svg width="45" height="45" viewBox="0 0 45 45" fill="none" xmlns="http://www.w3.org/2000/svg">
<path d="M22.4999 0.900391C10.5704 0.900391 0.899902 10.5709 0.899902 22.5004C0.899902 34.4299 10.5704 44.1004 22.4999 44.1004C34.4294 44.1004 44.0999 34.4299 44.0999 22.5004C44.0999 10.5709 34.4294 0.900391 22.4999 0.900391ZM31.2861 18.5944C31.2951 18.7789 31.2974 18.9634 31.2974 19.1434C31.2974 24.7684 27.0202 31.2506 19.1947 31.2506C16.8823 31.2545 14.6181 30.5904 12.6742 29.3381C13.0049 29.3786 13.3447 29.3944 13.6889 29.3944C15.6824 29.3944 17.5162 28.7171 18.9719 27.5741C18.0848 27.5567 17.2252 27.263 16.5129 26.7338C15.8006 26.2047 15.2712 25.4665 14.9984 24.6221C15.6355 24.7433 16.2918 24.7179 16.9177 24.5479C15.9548 24.3532 15.0888 23.8314 14.4667 23.0711C13.8446 22.3108 13.5046 21.3588 13.5044 20.3764V20.3246C14.0782 20.6419 14.7352 20.8354 15.4327 20.8579C14.5299 20.257 13.8909 19.3339 13.6463 18.2774C13.4016 17.221 13.5698 16.111 14.1164 15.1744C15.1851 16.4884 16.5177 17.5633 18.0282 18.3296C19.5386 19.0959 21.1932 19.5364 22.8846 19.6226C22.6696 18.7098 22.7622 17.7516 23.1479 16.8968C23.5337 16.042 24.191 15.3386 25.0178 14.896C25.8446 14.4534 26.7944 14.2963 27.7197 14.4492C28.6449 14.602 29.4937 15.0563 30.1341 15.7414C31.0863 15.553 31.9993 15.2038 32.8342 14.7086C32.5168 15.6944 31.8524 16.5315 30.9644 17.0644C31.8078 16.9628 32.6314 16.7361 33.4079 16.3916C32.8375 17.2464 32.119 17.9924 31.2861 18.5944Z" fill="#0551A1"/>
</svg>
