<svg width="45" height="45" viewBox="0 0 45 45" fill="none" xmlns="http://www.w3.org/2000/svg">
<path d="M22.4999 0.900391C10.5704 0.900391 0.899902 10.5709 0.899902 22.5004C0.899902 34.4299 10.5704 44.1004 22.4999 44.1004C34.4294 44.1004 44.0999 34.4299 44.0999 22.5004C44.0999 10.5709 34.4294 0.900391 22.4999 0.900391ZM30.8069 25.2701C30.8069 25.2701 32.7172 27.1556 33.1874 28.0309C33.2009 28.0489 33.2077 28.0669 33.2122 28.0759C33.4034 28.3976 33.4484 28.6474 33.3539 28.8341C33.1964 29.1446 32.6564 29.2976 32.4719 29.3111H29.0969C28.8629 29.3111 28.3724 29.2504 27.7784 28.8409C27.3217 28.5214 26.8717 27.9971 26.4329 27.4864C25.7782 26.7259 25.2112 26.0689 24.6397 26.0689C24.5671 26.0688 24.4949 26.0802 24.4259 26.1026C23.9939 26.2421 23.4404 26.8586 23.4404 28.5011C23.4404 29.0141 23.0354 29.3089 22.7497 29.3089H21.2039C20.6774 29.3089 17.9347 29.1244 15.5047 26.5616C12.5302 23.4229 9.85265 17.1274 9.83015 17.0689C9.6614 16.6616 10.0102 16.4434 10.3904 16.4434H13.7992C14.2537 16.4434 14.4022 16.7201 14.5057 16.9654C14.6272 17.2511 15.0727 18.3874 15.8039 19.6654C16.9897 21.7489 17.7164 22.5949 18.2992 22.5949C18.4084 22.5936 18.5157 22.5658 18.6119 22.5139C19.3724 22.0909 19.2307 19.3796 19.1969 18.8171C19.1969 18.7114 19.1947 17.6044 18.8054 17.0734C18.5264 16.6886 18.0517 16.5424 17.7637 16.4884C17.8802 16.3275 18.0338 16.1971 18.2114 16.1081C18.7334 15.8471 19.6739 15.8089 20.6077 15.8089H21.1274C22.1399 15.8224 22.4009 15.8876 22.7677 15.9799C23.5102 16.1576 23.5259 16.6369 23.4607 18.2771C23.4404 18.7429 23.4202 19.2694 23.4202 19.8904C23.4202 20.0254 23.4134 20.1694 23.4134 20.3224C23.3909 21.1571 23.3639 22.1044 23.9534 22.4936C24.0303 22.5419 24.1191 22.5676 24.2099 22.5679C24.4147 22.5679 25.0312 22.5679 26.7007 19.7036C27.2155 18.7817 27.663 17.8237 28.0394 16.8371C28.0732 16.7786 28.1722 16.5986 28.2892 16.5289C28.3755 16.4849 28.4712 16.4625 28.5682 16.4636H32.5754C33.0119 16.4636 33.3112 16.5289 33.3674 16.6976C33.4664 16.9654 33.3494 17.7821 31.5202 20.2594L30.7034 21.3371C29.0452 23.5106 29.0452 23.6209 30.8069 25.2701Z" fill="#0551A1"/>
</svg>
