<svg style="width:0;height:0" xmlns="http://www.w3.org/2000/svg">
  <symbol id="svg-40000" viewBox="0 0 80 80">
    <path d="M59.4126 59.6238H2.34707V19.8336H11.5895C12.2376 19.8336 12.763 19.3082 12.763 18.6601C12.763 18.012 12.2376 17.4865 11.5895 17.4865H1.17353C0.525431 17.4865 0 18.012 0 18.6601V60.7973C0 61.4454 0.525431 61.9708 1.17353 61.9708H11.3806L15.7527 71.3984C16.0217 71.9784 16.7302 72.2388 17.311 71.9692L21.5918 69.984L34.5692 79.2434C35.0899 79.6149 35.8352 79.4895 36.2062 78.9697L48.3349 61.9707H59.4129C60.061 61.9707 60.5865 61.4453 60.5865 60.7972C60.5861 60.1492 60.0607 59.6238 59.4126 59.6238ZM13.9677 61.9708H33.2924L17.388 69.3464L13.9677 61.9708ZM34.977 76.6513L24.0409 68.8484L38.8715 61.9708H45.4513L34.977 76.6513Z" fill="#BBBBBB"/>
    <path d="M78.8262 17.4866H68.6191L64.2472 8.05889C63.9785 7.47963 63.2692 7.2188 62.6889 7.48808L58.4081 9.47324L45.4309 0.213892C44.9101 -0.157258 44.1648 -0.0323939 43.7939 0.487717L31.6651 17.4868H16.2834C15.6353 17.4868 15.1099 18.0122 15.1099 18.6603C15.1099 19.3084 15.6353 19.8338 16.2834 19.8338H32.2676C32.2672 19.8338 32.2679 19.8338 32.2676 19.8338C32.268 19.8338 32.2694 19.8338 32.2697 19.8338H67.8662C67.8676 19.8338 67.869 19.8341 67.8706 19.8341C67.8724 19.8341 67.8743 19.8338 67.8762 19.8338H77.6525V59.624H64.1063C63.4581 59.624 62.9328 60.1494 62.9328 60.7975C62.9328 61.4456 63.4581 61.9711 64.1063 61.9711H78.826C79.4743 61.9711 79.9996 61.4456 79.9996 60.7975V18.6601C79.9997 18.012 79.4745 17.4866 78.8262 17.4866ZM66.032 17.4866H46.7072L62.6117 10.111L66.032 17.4866ZM45.0229 2.80615L55.959 10.6091L41.1284 17.4868H34.5486L45.0229 2.80615Z" fill="#BBBBBB"/>
    <path d="M40.0002 50.9434C46.1762 50.9434 51.2004 45.919 51.2004 39.7432C51.2004 33.5675 46.1762 28.543 40.0002 28.543C33.8245 28.543 28.8 33.5673 28.8 39.7432C28.8 45.919 33.8245 50.9434 40.0002 50.9434ZM40.0002 30.8901C44.8818 30.8901 48.8534 34.8615 48.8534 39.7432C48.8534 44.6248 44.8818 48.5964 40.0002 48.5964C35.1186 48.5964 31.1471 44.6248 31.1471 39.7432C31.1471 34.8616 35.1186 30.8901 40.0002 30.8901Z" fill="#BBBBBB"/>
    <path d="M30.0656 56.2196H65.8143C66.4625 56.2196 66.9878 55.6942 66.9878 55.0461C66.9878 52.0917 69.967 49.1922 73.0023 49.1922C73.6505 49.1922 74.1758 48.6667 74.1758 48.0186V31.4377C74.1758 30.7896 73.6505 30.2641 73.0023 30.2641C69.967 30.2641 66.9878 27.3646 66.9878 24.4102C66.9878 23.7621 66.4625 23.2367 65.8143 23.2367H13.5479C12.8998 23.2367 12.3743 23.7621 12.3743 24.4102C12.3743 27.5455 9.86219 30.2954 6.99829 30.2954C6.35019 30.2954 5.82476 30.8209 5.82476 31.469V47.987C5.82476 48.6351 6.35019 49.1606 6.99829 49.1606C9.86219 49.1606 12.3743 51.9107 12.3743 55.0458C12.3743 55.6939 12.8998 56.2193 13.5479 56.2193H25.3715C26.0196 56.2193 26.545 55.6939 26.545 55.0458C26.545 54.3977 26.0196 53.8722 25.3715 53.8722H14.6341C14.3903 52.2255 13.6439 50.6311 12.5047 49.3693C11.3022 48.0374 9.79459 47.1892 8.17167 46.9125V32.5432C9.79444 32.2665 11.302 31.4183 12.5047 30.0864C13.6439 28.8248 14.3903 27.2302 14.6341 25.5835H64.7442C65.3361 28.9565 68.3879 31.9434 71.8287 32.5133V46.9423C68.3879 47.512 65.3361 50.499 64.7442 53.8721H30.0656C29.4175 53.8721 28.8921 54.3975 28.8921 55.0456C28.8921 55.6942 29.4175 56.2196 30.0656 56.2196Z" fill="#BBBBBB"/>
  </symbol>
  <symbol id="svg-rassrochka" viewBox="0 0 60 80">
    <path d="M24.6423 17.0778H20.6951V13.1309C20.6951 12.5022 20.1854 11.9923 19.5564 11.9923C18.9276 11.9923 18.4178 12.502 18.4178 13.1309V17.0778H14.4705C13.8417 17.0778 13.3318 17.5875 13.3318 18.2164C13.3318 18.8453 13.8416 19.355 14.4705 19.355H18.4178V23.3018C18.4178 23.9306 18.9275 24.4404 19.5564 24.4404C20.1852 24.4404 20.6951 23.9307 20.6951 23.3018V19.355H24.6423C25.2711 19.355 25.781 18.8453 25.781 18.2164C25.781 17.5875 25.2711 17.0778 24.6423 17.0778Z" fill="#BBBBBB"/>
    <path d="M51.6519 5.92037H8.34698C6.47369 5.92037 4.94981 7.44411 4.94981 9.31723V27.1155C4.94981 28.9886 6.47369 30.5123 8.34698 30.5123H51.6518C53.5251 30.5123 55.0489 28.9886 55.0489 27.1155V9.31723C55.0489 7.44411 53.5252 5.92037 51.6519 5.92037ZM51.6519 28.2353H8.34698C7.72943 28.2353 7.22704 27.733 7.22704 27.1155V9.31723C7.22704 8.69973 7.72943 8.19739 8.34698 8.19739H51.6518C52.2693 8.19739 52.7717 8.69973 52.7717 9.31723V27.1155C52.7717 27.733 52.2695 28.2353 51.6519 28.2353Z" fill="#BBBBBB"/>
    <path d="M58.861 22.8263C58.2322 22.8263 57.7223 23.3359 57.7223 23.9648V74.5267C57.7223 76.2891 56.2884 77.723 54.5258 77.723H5.47391C3.71141 77.723 2.27738 76.2892 2.27738 74.5267V63.648C2.27738 63.0193 1.76765 62.5094 1.13869 62.5094C0.509888 62.5094 0 63.0191 0 63.648V74.5267C0 77.5447 2.45552 80 5.47375 80H54.5258C57.544 80 59.9995 77.5447 59.9995 74.5267V23.9647C59.9997 23.3359 59.4899 22.8263 58.861 22.8263Z" fill="#BBBBBB"/>
    <path d="M54.5259 0H5.47392C2.45569 0 0.000171287 2.45531 0.000171287 5.47327V56.4534C0.000171287 57.0822 0.509903 57.592 1.13886 57.592C1.76767 57.592 2.27755 57.0823 2.27755 56.4534V5.47327C2.27755 3.71093 3.71143 2.27702 5.47408 2.27702H54.5261C56.2886 2.27702 57.7226 3.71077 57.7226 5.47327V16.7703C57.7226 17.399 58.2323 17.9089 58.8613 17.9089C59.4901 17.9089 60 17.3992 60 16.7703V5.47327C59.9997 2.45531 57.5442 0 54.5259 0Z" fill="#BBBBBB"/>
    <path d="M12.7677 33.6497H7.50597C6.09648 33.6497 4.94981 34.7962 4.94981 36.2056V41.4668C4.94981 42.8762 6.09648 44.0228 7.50597 44.0228H12.7677C14.1772 44.0228 15.3238 42.8762 15.3238 41.4668V36.2056C15.3238 34.7962 14.1772 33.6497 12.7677 33.6497ZM13.0466 41.4667C13.0466 41.6204 12.9214 41.7456 12.7677 41.7456H7.50597C7.35221 41.7456 7.22704 41.6204 7.22704 41.4667V36.2054C7.22704 36.0517 7.35221 35.9265 7.50597 35.9265H12.7677C12.9214 35.9265 13.0466 36.0517 13.0466 36.2054V41.4667Z" fill="#BBBBBB"/>
    <path d="M26.0099 33.6495H20.7482C19.3387 33.6495 18.1921 34.796 18.1921 36.2054V41.4666C18.1921 42.876 19.3387 44.0226 20.7482 44.0226H26.0099C27.4194 44.0226 28.5661 42.876 28.5661 41.4666V36.2054C28.5661 34.796 27.4194 33.6495 26.0099 33.6495ZM26.2889 41.4668C26.2889 41.6205 26.1637 41.7457 26.0099 41.7457H20.7482C20.5945 41.7457 20.4693 41.6205 20.4693 41.4668V36.2056C20.4693 36.0518 20.5945 35.9267 20.7482 35.9267H26.0099C26.1637 35.9267 26.2889 36.0518 26.2889 36.2056V41.4668Z" fill="#BBBBBB"/>
    <path d="M39.2515 33.6495H33.9898C32.5803 33.6495 31.4337 34.796 31.4337 36.2054V41.4666C31.4337 42.876 32.5803 44.0226 33.9898 44.0226H39.2515C40.661 44.0226 41.8077 42.876 41.8077 41.4666V36.2054C41.8077 34.796 40.661 33.6495 39.2515 33.6495ZM39.5304 41.4668C39.5304 41.6205 39.4053 41.7457 39.2515 41.7457H33.9898C33.8361 41.7457 33.7109 41.6205 33.7109 41.4668V36.2056C33.7109 36.0518 33.8361 35.9267 33.9898 35.9267H39.2515C39.4053 35.9267 39.5304 36.0518 39.5304 36.2056V41.4668Z" fill="#BBBBBB"/>
    <path d="M52.4931 33.6495H47.2314C45.8219 33.6495 44.6753 34.796 44.6753 36.2054V41.4666C44.6753 42.876 45.8219 44.0226 47.2314 44.0226H52.4931C53.9026 44.0226 55.0493 42.876 55.0493 41.4666V36.2054C55.0493 34.796 53.9026 33.6495 52.4931 33.6495ZM52.772 41.4668C52.772 41.6205 52.6469 41.7457 52.4931 41.7457H47.2314C47.0777 41.7457 46.9525 41.6205 46.9525 41.4668V36.2056C46.9525 36.0518 47.0777 35.9267 47.2314 35.9267H52.4931C52.6469 35.9267 52.772 36.0518 52.772 36.2056V41.4668Z" fill="#BBBBBB"/>
    <path d="M12.7677 47.1599H7.50597C6.09648 47.1599 4.94981 48.3064 4.94981 49.7158V54.9771C4.94981 56.3864 6.09648 57.533 7.50597 57.533H12.7677C14.1772 57.533 15.3238 56.3864 15.3238 54.9771V49.7158C15.3238 48.3064 14.1772 47.1599 12.7677 47.1599ZM13.0466 54.9771C13.0466 55.1308 12.9214 55.256 12.7677 55.256H7.50597C7.35221 55.256 7.22704 55.1308 7.22704 54.9771V49.7158C7.22704 49.5621 7.35221 49.4369 7.50597 49.4369H12.7677C12.9214 49.4369 13.0466 49.5621 13.0466 49.7158V54.9771Z" fill="#BBBBBB"/>
    <path d="M26.0099 47.1599H20.7482C19.3387 47.1599 18.1921 48.3064 18.1921 49.7158V54.9771C18.1921 56.3864 19.3387 57.533 20.7482 57.533H26.0099C27.4194 57.533 28.5661 56.3864 28.5661 54.9771V49.7158C28.5661 48.3064 27.4194 47.1599 26.0099 47.1599ZM26.2889 54.9771C26.2889 55.1308 26.1637 55.256 26.0099 55.256H20.7482C20.5945 55.256 20.4693 55.1308 20.4693 54.9771V49.7158C20.4693 49.5621 20.5945 49.4369 20.7482 49.4369H26.0099C26.1637 49.4369 26.2889 49.5621 26.2889 49.7158V54.9771Z" fill="#BBBBBB"/>
    <path d="M39.2515 47.1599H33.9898C32.5803 47.1599 31.4337 48.3064 31.4337 49.7158V54.9771C31.4337 56.3864 32.5803 57.533 33.9898 57.533H39.2515C40.661 57.533 41.8077 56.3864 41.8077 54.9771V49.7158C41.8077 48.3064 40.661 47.1599 39.2515 47.1599ZM39.5304 54.9771C39.5304 55.1308 39.4053 55.256 39.2515 55.256H33.9898C33.8361 55.256 33.7109 55.1308 33.7109 54.9771V49.7158C33.7109 49.5621 33.8361 49.4369 33.9898 49.4369H39.2515C39.4053 49.4369 39.5304 49.5621 39.5304 49.7158V54.9771Z" fill="#BBBBBB"/>
    <path d="M12.7677 60.6703H7.50597C6.09648 60.6703 4.94981 61.8168 4.94981 63.2262V68.4875C4.94981 69.8968 6.09648 71.0434 7.50597 71.0434H12.7677C14.1772 71.0434 15.3238 69.8968 15.3238 68.4875V63.2262C15.3238 61.8168 14.1772 60.6703 12.7677 60.6703ZM13.0466 68.4875C13.0466 68.6412 12.9214 68.7663 12.7677 68.7663H7.50597C7.35221 68.7663 7.22704 68.6412 7.22704 68.4875V63.2262C7.22704 63.0725 7.35221 62.9473 7.50597 62.9473H12.7677C12.9214 62.9473 13.0466 63.0725 13.0466 63.2262V68.4875Z" fill="#BBBBBB"/>
    <path d="M26.0099 60.6703H20.7482C19.3387 60.6703 18.1921 61.8168 18.1921 63.2262V68.4875C18.1921 69.8968 19.3387 71.0434 20.7482 71.0434H26.0099C27.4194 71.0434 28.5661 69.8968 28.5661 68.4875V63.2262C28.5661 61.8168 27.4194 60.6703 26.0099 60.6703ZM26.2889 68.4875C26.2889 68.6412 26.1637 68.7663 26.0099 68.7663H20.7482C20.5945 68.7663 20.4693 68.6412 20.4693 68.4875V63.2262C20.4693 63.0725 20.5945 62.9473 20.7482 62.9473H26.0099C26.1637 62.9473 26.2889 63.0725 26.2889 63.2262V68.4875Z" fill="#BBBBBB"/>
    <path d="M39.2515 60.6703H33.9898C32.5803 60.6703 31.4337 61.8168 31.4337 63.2262V68.4875C31.4337 69.8968 32.5803 71.0434 33.9898 71.0434H39.2515C40.661 71.0434 41.8077 69.8968 41.8077 68.4875V63.2262C41.8077 61.8168 40.661 60.6703 39.2515 60.6703ZM39.5304 68.4875C39.5304 68.6412 39.4053 68.7663 39.2515 68.7663H33.9898C33.8361 68.7663 33.7109 68.6412 33.7109 68.4875V63.2262C33.7109 63.0725 33.8361 62.9473 33.9898 62.9473H39.2515C39.4053 62.9473 39.5304 63.0725 39.5304 63.2262V68.4875Z" fill="#BBBBBB"/>
    <path d="M52.493 47.1599H47.2313C45.8218 47.1599 44.6751 48.3065 44.6751 49.7158V68.4875C44.6751 69.8969 45.8218 71.0434 47.2313 71.0434H52.493C53.9025 71.0434 55.0491 69.8969 55.0491 68.4875V49.7158C55.0493 48.3066 53.9025 47.1599 52.493 47.1599ZM52.772 68.4875C52.772 68.6412 52.6469 68.7664 52.4931 68.7664H47.2314C47.0777 68.7664 46.9525 68.6412 46.9525 68.4875V49.7158C46.9525 49.5621 47.0777 49.4369 47.2314 49.4369H52.4931C52.6469 49.4369 52.772 49.5621 52.772 49.7158V68.4875Z" fill="#BBBBBB"/>
    <path d="M40.8909 17.1768V13.629C42.1145 13.7164 42.5689 14.2756 42.9883 14.2756C43.5127 14.2756 43.7574 13.6115 43.7574 13.2795C43.7574 12.4232 42.0795 12.0562 40.8909 12.0212V11.5493C40.8909 11.3395 40.6289 11.1473 40.3666 11.1473C40.0694 11.1473 39.8597 11.3396 39.8597 11.5493V12.0562C38.1993 12.2309 36.5388 13.1048 36.5388 15.3068C36.5388 17.5438 38.2868 18.1731 39.8597 18.7323V22.8393C38.0769 22.6996 37.605 21.4762 37.0282 21.4762C36.5913 21.4762 36.2243 22.0529 36.2243 22.4724C36.2243 23.3288 37.6924 24.4998 39.8597 24.5348V25.0763C39.8597 25.2862 40.0694 25.4784 40.3666 25.4784C40.6287 25.4784 40.8909 25.286 40.8909 25.0763V24.4821C42.7786 24.2201 44.072 23.0316 44.072 20.882C44.072 18.5051 42.4115 17.736 40.8909 17.1768ZM39.9646 16.8449C39.0383 16.4954 38.2866 16.1284 38.2866 15.1323C38.2866 14.2235 38.9858 13.7867 39.9646 13.6643V16.8449ZM40.7861 22.8046V19.117C41.6425 19.484 42.3242 19.9734 42.3242 21.0745C42.3242 22.0706 41.7299 22.6299 40.7861 22.8046Z" fill="#BBBBBB"/>
  </symbol>
  <symbol id="svg-pervonach" viewBox="0 0 80 35">
    <path d="M77.9938 22.863V12.2073C77.9938 10.6594 76.7462 9.3998 75.213 9.3998H54.0112V3.82795C54.0112 1.7174 52.3102 0 50.2197 0H28.2007C26.9824 0 25.8313 0.595884 25.1208 1.59477L19.5679 9.3998H18.053C13.7885 9.3998 9.60449 10.1762 5.6189 11.7075C3.95996 12.3447 2.84607 13.9765 2.84607 15.7678V22.8383H2.32178C1.04126 22.8389 0 23.8902 0 25.1824V27.9948C0 29.287 1.04126 30.3383 2.32117 30.3383H15.166C16.076 33.0454 18.6163 35 21.601 35C24.5862 35 27.1259 33.0454 28.0365 30.3383H34.5374C35.1782 30.3383 35.6982 29.8139 35.6982 29.1669C35.6982 28.5198 35.1782 27.9948 34.5374 27.9948H32.6593C32.6379 27.0218 32.4939 26.0796 32.24 25.1824H53.9197C53.6664 26.0796 53.5217 27.0218 53.501 27.9948H40C39.3591 27.9948 38.8391 28.5198 38.8391 29.1669C38.8391 29.8139 39.3591 30.3383 40 30.3383H58.1757C59.1296 32.9646 61.6309 34.8435 64.5587 34.8435C67.486 34.8435 69.9872 32.9646 70.9412 30.3383H77.6782C78.9587 30.3383 80 29.287 80 27.9948V25.1824C80 23.998 79.1248 23.0189 77.9938 22.863ZM75.672 19.3832H75.4974C75.4095 19.3832 75.3387 19.3117 75.3387 19.2236V17.6504C75.3387 17.5622 75.4102 17.4901 75.4974 17.4901H75.672V19.3832ZM51.6901 3.82795V9.40042H38.3807V2.3441H50.2197C51.0303 2.3441 51.6901 3.00961 51.6901 3.82795ZM5.16724 17.4901H5.83008C6.43188 17.4901 6.98242 17.8475 7.23267 18.4003L7.68494 19.4016H5.16724V17.4901ZM2.32117 25.1824H10.9619C10.7086 26.0796 10.564 27.0218 10.5432 27.9948H2.32117V25.1824ZM21.601 32.6559C19.1345 32.6559 17.1271 30.6298 17.1271 28.139C17.1271 25.6489 19.1345 23.6221 21.601 23.6221C24.068 23.6221 26.0748 25.6489 26.0748 28.139C26.0748 30.6298 24.068 32.6559 21.601 32.6559ZM28.3929 27.9948C28.316 24.2784 25.3003 21.2787 21.601 21.2787C17.9022 21.2787 14.8859 24.2784 14.8096 27.9948H12.865C12.9944 23.2413 16.8622 19.414 21.601 19.414C26.3397 19.414 30.2075 23.2413 30.3375 27.9948H28.3929ZM31.2811 22.8389C29.3921 19.4023 25.7623 17.0705 21.601 17.0705C17.4402 17.0705 13.8098 19.4023 11.9214 22.8389H5.16724V21.7451H8.36853C9.01184 21.7451 9.60388 21.4192 9.95178 20.8726C10.2997 20.326 10.3479 19.6469 10.0806 19.056L9.34448 17.4273C8.71765 16.042 7.33826 15.1467 5.82336 15.1467H5.26733C5.45166 14.5834 5.87891 14.1151 6.44409 13.8982C10.1654 12.4686 14.071 11.7439 18.053 11.7439H23.9099C24.5508 11.7439 25.0702 11.2189 25.0702 10.5719C25.0702 9.92482 24.5508 9.40042 23.9099 9.40042H22.4255L27.0062 2.96216C27.2815 2.57518 27.7283 2.3441 28.2001 2.3441H36.059V9.40042H29.1718C28.5309 9.40042 28.0115 9.92482 28.0115 10.5719C28.0115 11.2195 28.5309 11.7439 29.1718 11.7439H54.0112V18.815C54.0112 19.462 54.5306 19.9864 55.1715 19.9864C55.8124 19.9864 56.3324 19.462 56.3324 18.815V11.7439H75.213C75.4657 11.7439 75.672 11.9516 75.672 12.2073V15.1467H75.4968C74.1296 15.1467 73.017 16.2694 73.017 17.6504V19.2236C73.017 20.6039 74.1296 21.7273 75.4968 21.7273H75.672V22.8389H74.2383C72.3492 19.4023 68.7195 17.0705 64.5581 17.0705C60.3973 17.0705 56.767 19.4023 54.8785 22.8389H31.2811ZM64.5587 32.5C62.0917 32.5 60.0848 30.4739 60.0848 27.9831C60.0848 25.4924 62.0917 23.4662 64.5587 23.4662C67.0258 23.4662 69.0326 25.4924 69.0326 27.9831C69.0326 30.4739 67.0258 32.5 64.5587 32.5ZM64.5587 21.1227C60.8118 21.1227 57.7637 24.2001 57.7637 27.9831V27.9948H55.8221C55.9521 23.2413 59.8199 19.414 64.5587 19.414C69.2975 19.414 73.1653 23.2413 73.2953 27.9948H71.3538C71.3538 27.9905 71.3538 27.9868 71.3538 27.9831C71.3538 24.2001 68.3057 21.1227 64.5587 21.1227ZM77.6788 27.9948H75.6165C75.5957 27.0218 75.451 26.0796 75.1978 25.1824H77.6782V27.9948H77.6788Z" fill="#BBBBBB"/>
    <path d="M34.2792 13.5026H31.1841C30.5432 13.5026 30.0238 14.027 30.0238 14.6746C30.0238 15.3217 30.5432 15.8461 31.1841 15.8461H34.2792C34.9207 15.8461 35.4401 15.3217 35.4401 14.6746C35.4401 14.027 34.9201 13.5026 34.2792 13.5026Z" fill="#BBBBBB"/>
    <path d="M49.6009 13.5026H46.5058C45.8643 13.5026 45.3449 14.027 45.3449 14.6746C45.3449 15.3217 45.8643 15.8461 46.5058 15.8461H49.6009C50.2417 15.8461 50.7612 15.3217 50.7612 14.6746C50.7612 14.027 50.2417 13.5026 49.6009 13.5026Z" fill="#BBBBBB"/>
    <path d="M23.1787 28.139C23.1787 29.019 22.4725 29.7319 21.6009 29.7319C20.73 29.7319 20.0232 29.019 20.0232 28.139C20.0232 27.2597 20.73 26.5467 21.6009 26.5467C22.4725 26.5467 23.1787 27.2597 23.1787 28.139Z" fill="#BBBBBB"/>
    <path d="M66.1364 27.9831C66.1364 28.8631 65.4296 29.576 64.5586 29.576C63.687 29.576 62.9809 28.8631 62.9809 27.9831C62.9809 27.1032 63.687 26.3902 64.5586 26.3902C65.4296 26.3902 66.1364 27.1032 66.1364 27.9831Z" fill="#BBBBBB"/>
  </symbol>
  <symbol id="svg-util" viewBox="0 0 76 38">
    <path fill-rule="evenodd" clip-rule="evenodd" d="M75.1268 12.4845V11.3672C75.1268 10.0213 74.5408 8.7442 73.5189 7.86343L66.5976 1.89823C65.7499 1.16787 64.6658 0.765612 63.545 0.765612H47.0951C46.0808 0.765612 45.0777 1.10248 44.2705 1.71416L37.5051 6.84071L28.563 8.4209C27.299 8.64355 26.1735 9.38731 25.4743 10.4625L25.0082 11.1806C24.4203 12.0846 24.1096 13.1321 24.1096 14.2097C24.1096 15.0005 24.2746 15.7685 24.6008 16.495C24.9267 17.2169 25.3934 17.8501 25.989 18.3778L26.6175 18.9335C27.5718 19.7785 28.8005 20.2438 30.0772 20.2438H31.5079C31.9861 21.1514 32.6881 21.924 33.5412 22.4881H23.0621V1.43551C23.0621 0.64263 22.4168 0 21.6207 0H6.00575C5.35503 0 4.78505 0.434165 4.61464 1.05957L0.0503013 17.8073C0.0168152 17.9297 0 18.0562 0 18.1832V29.6657C0 30.4586 0.645268 31.1012 1.44138 31.1012H5.74807C5.70963 31.3762 5.68814 31.6566 5.68814 31.942C5.68814 35.2824 8.41701 38 11.7711 38C15.1252 38 17.8539 35.2822 17.8539 31.942C17.8539 31.6566 17.8324 31.3762 17.794 31.1012H27.4143C27.4638 31.1062 27.514 31.1088 27.5648 31.1088C28.3803 31.1088 29.0415 30.4477 29.0415 29.6321C29.0415 28.8166 28.3803 28.2539 27.5648 28.2539C27.5598 28.2539 27.5549 28.2539 27.55 28.2539V28.2302H23.0612V25.3592H69.1828V28.2302H66.948C65.8341 26.8039 64.0963 25.8838 62.1456 25.8838C60.195 25.8838 58.4571 26.8039 57.3433 28.2302H53.0975C51.9836 26.8039 50.2458 25.8838 48.2951 25.8838C46.3444 25.8838 44.6066 26.8039 43.4928 28.2302H36.1V28.2541C35.2981 28.2675 34.6528 28.8264 34.6528 29.6321C34.6528 30.4477 35.314 31.1088 36.1295 31.1088C36.1803 31.1088 36.2305 31.1062 36.28 31.1012H42.2721C42.2337 31.3762 42.2122 31.6566 42.2122 31.942C42.2122 35.2824 44.941 38 48.2951 38C51.6492 38 54.3779 35.2822 54.3779 31.942C54.3779 31.6566 54.3564 31.3762 54.318 31.1012H56.1226C56.0841 31.3762 56.0627 31.6566 56.0627 31.942C56.0627 35.2824 58.7916 38 62.1456 38C65.4997 38 68.2284 35.2822 68.2284 31.942C68.2284 31.6566 68.2069 31.3762 68.1685 31.1012H70.624C71.4201 31.1012 72.0654 30.4586 72.0654 29.6657V23.9237C72.0654 23.1308 71.4201 22.4881 70.624 22.4881H67.9137C68.7669 21.924 69.4688 21.1514 69.947 20.2438H70.6725C72.3556 20.2438 73.9754 19.4517 75.0051 18.1251C75.6467 17.2991 76 16.2687 76 15.2241C76.0002 14.2347 75.6935 13.2815 75.1268 12.4845ZM67.8306 6.75776H65.0044L64.2347 3.77667C64.4065 3.84862 64.5681 3.94591 64.7111 4.0692L67.8306 6.75776ZM62.0278 6.75776H54.3487L55.0651 3.63649H61.2219L62.0278 6.75776ZM46.0161 3.99887C46.3244 3.7652 46.7075 3.63649 47.0951 3.63649H52.1081L51.3917 6.75776H42.3752L46.0161 3.99887ZM33.697 17.4385C33.697 15.6811 35.1326 14.2515 36.897 14.2515C38.6614 14.2515 40.097 15.6812 40.097 17.4385C40.097 19.1959 38.6614 20.6256 36.897 20.6256C35.1326 20.6256 33.697 19.1959 33.697 17.4385ZM7.10807 2.87103H12.4916V14.3872L3.4505 16.292L7.10807 2.87103ZM11.7711 35.1291C10.0065 35.1291 8.5709 33.6994 8.5709 31.9421C8.5709 30.1847 10.0065 28.755 11.7711 28.755C13.5356 28.755 14.9711 30.1847 14.9711 31.9421C14.9711 33.6994 13.5355 35.1291 11.7711 35.1291ZM11.7711 25.8838C9.82042 25.8838 8.08259 26.8039 6.96873 28.2302H2.88276V24.1636H5.28504C6.08118 24.1636 6.72642 23.5209 6.72642 22.728C6.72642 21.9351 6.08118 21.2925 5.28504 21.2925H2.88276V19.3461L14.2312 16.9552C14.8976 16.8148 15.3742 16.2291 15.3742 15.5508V2.87103H20.1793L20.1785 28.2302H16.5733C15.4594 26.8039 13.7216 25.8838 11.7711 25.8838ZM48.2953 35.1291C46.5305 35.1291 45.0951 33.6994 45.0951 31.9421C45.0951 30.1847 46.5307 28.755 48.2953 28.755C50.0598 28.755 51.4953 30.1847 51.4953 31.9421C51.4953 33.6994 50.0597 35.1291 48.2953 35.1291ZM62.1458 35.1291C60.3811 35.1291 58.9456 33.6994 58.9456 31.9421C58.9456 30.1847 60.3812 28.755 62.1458 28.755C63.9104 28.755 65.3458 30.1847 65.3458 31.9421C65.3458 33.6994 63.9104 35.1291 62.1458 35.1291ZM40.2527 22.4881C41.1059 21.924 41.8077 21.1514 42.286 20.2438H59.1694C59.6476 21.1514 60.3495 21.924 61.2027 22.4881H40.2527ZM61.3582 17.4385C61.3582 15.6811 62.7938 14.2515 64.5582 14.2515C66.3229 14.2515 67.7584 15.6812 67.7584 17.4385C67.7584 19.1959 66.3227 20.6256 64.5582 20.6256C62.7938 20.6256 61.3582 19.1959 61.3582 17.4385ZM72.7249 16.3687C72.2369 16.9973 71.4698 17.3726 70.6728 17.3726H70.6397C70.604 14.0625 67.8903 11.3803 64.5583 11.3803C61.2263 11.3803 58.5129 14.0625 58.4772 17.3726H42.9784C42.9426 14.0625 40.2292 11.3803 36.8972 11.3803C33.5654 11.3803 30.8517 14.0625 30.816 17.3726H30.0776C29.5077 17.3726 28.9592 17.1648 28.5326 16.7871L27.9044 16.2317C27.7095 16.059 27.5457 15.8612 27.4096 15.645H28.5862C29.3823 15.645 30.0276 15.0024 30.0276 14.2095C30.0276 13.4166 29.3823 12.774 28.5862 12.774H27.4083C27.4101 12.7711 27.4119 12.7682 27.4136 12.7652C27.4148 12.7633 27.4159 12.7613 27.4171 12.7593C27.4208 12.7528 27.4246 12.7463 27.4288 12.74L27.8948 12.022C28.1599 11.6144 28.5862 11.3323 29.0659 11.2479L38.2271 9.62895H71.1618L71.6323 10.0346C72.0211 10.3695 72.2439 10.8554 72.2439 11.3672V12.9873C72.2439 13.3465 72.3792 13.6927 72.623 13.9575C72.9417 14.3035 73.1172 14.7533 73.1172 15.224C73.1174 15.6422 72.9816 16.038 72.7249 16.3687Z" fill="#BBBBBB"/>
  </symbol>
</svg>