<svg style="width:0;height:0" xmlns="http://www.w3.org/2000/svg">
  <symbol id="svg-modal-guarantee" viewBox="0 0 30 30">
    <path d="M29.9951 13.2689C29.9696 13.0259 29.8447 12.8044 29.65 12.6569L27.2736 10.8569L28.1382 8.00394C28.209 7.77015 28.18 7.51749 28.0578 7.30597C27.9357 7.09444 27.7314 6.94292 27.4936 6.88737L24.5904 6.2095L24.2198 3.25157C24.1894 3.00923 24.0601 2.79021 23.8625 2.64665C23.6649 2.50304 23.4168 2.44778 23.1768 2.49372L20.249 3.05528L18.7072 0.503819C18.5808 0.294815 18.3736 0.147335 18.1347 0.0965924C17.8958 0.0457916 17.6465 0.0961822 17.4461 0.235753L15 1.93966L12.5537 0.235753C12.3533 0.0961822 12.104 0.0457916 11.8651 0.0965924C11.6261 0.147393 11.4189 0.294756 11.2926 0.503878L9.75095 3.0554L6.82314 2.49384C6.58332 2.44796 6.33506 2.50315 6.13742 2.64677C5.93984 2.79038 5.81047 3.00929 5.78012 3.25169L5.40951 6.20962L2.50631 6.88749C2.26842 6.94304 2.06422 7.09456 1.94205 7.30608C1.81989 7.51767 1.79082 7.77026 1.86166 8.00399L2.72615 10.857L0.350004 12.657C0.155298 12.8045 0.0303758 13.0259 0.00482898 13.2689C-0.0206593 13.5118 0.0555125 13.7544 0.215298 13.9392L2.16535 16.1939L0.726645 18.8049C0.608813 19.0188 0.584731 19.272 0.660199 19.5043C0.735668 19.7365 0.903949 19.9272 1.12508 20.031L3.82367 21.2976L3.57119 24.268C3.55051 24.5114 3.63149 24.7525 3.79496 24.9341C3.95838 25.1156 4.18971 25.2213 4.43387 25.2262L7.41453 25.2856L8.39193 28.1019C8.47203 28.3326 8.64406 28.52 8.86718 28.6193C9.09037 28.7186 9.34466 28.7212 9.56972 28.6264L12.3169 27.4684L14.3554 29.6436C14.5224 29.8218 14.7558 29.923 15.0001 29.923C15.2443 29.923 15.4777 29.8218 15.6447 29.6436L17.6833 27.4684L20.4302 28.6264C20.6553 28.7211 20.9096 28.7186 21.1328 28.6193C21.356 28.52 21.528 28.3327 21.608 28.1019L22.5856 25.2856L25.5661 25.2262C25.8104 25.2214 26.0416 25.1156 26.2051 24.9341C26.3685 24.7525 26.4495 24.5115 26.4288 24.268L26.1763 21.2976L28.8751 20.031C29.0962 19.9272 29.2645 19.7365 29.34 19.5042C29.4155 19.272 29.3914 19.0188 29.2735 18.8048L27.8346 16.1939L29.7848 13.9392C29.9444 13.7544 30.0206 13.5118 29.9951 13.2689ZM25.9899 16.5078L27.2708 18.8321L24.8684 19.9595C24.5336 20.1167 24.3321 20.4657 24.3635 20.8342L24.5882 23.4784L21.935 23.5313C21.5653 23.5387 21.2392 23.7755 21.118 24.1248L20.2477 26.6319L17.8024 25.601C17.4616 25.4574 17.0674 25.5412 16.8146 25.811L15 27.7473L13.1853 25.8109C13.0147 25.6289 12.7798 25.5315 12.5404 25.5315C12.425 25.5315 12.3084 25.5542 12.1975 25.6009L9.75201 26.6318L8.88189 24.1248C8.7606 23.7754 8.43465 23.5385 8.06486 23.5312L5.41145 23.4783L5.63621 20.834C5.66756 20.4656 5.46605 20.1166 5.13131 19.9594L2.72908 18.8319L4.00982 16.5076C4.1883 16.1837 4.14611 15.783 3.9043 15.5032L2.16834 13.4961L4.28369 11.8937C4.57848 11.6704 4.70299 11.2872 4.59576 10.9333L3.82619 8.39353L6.41058 7.79013C6.7707 7.70605 7.04029 7.40651 7.08635 7.0396L7.41623 4.40651L10.0225 4.90638C10.3857 4.9761 10.7538 4.8121 10.9451 4.49558L12.3175 2.22431L14.4951 3.74107C14.7986 3.95241 15.2016 3.95241 15.505 3.74107L17.6825 2.22431L19.055 4.49564C19.2462 4.8121 19.6141 4.9761 19.9775 4.90638L22.5839 4.40651L22.9137 7.0396C22.9597 7.40651 23.2294 7.70605 23.5895 7.79013L26.1739 8.39353L25.4042 10.9332C25.2969 11.2871 25.4214 11.6704 25.7162 11.8937L27.8317 13.4961L26.0956 15.5032C25.8536 15.7831 25.8114 16.1839 25.9899 16.5078Z" fill="white"/>
    <path d="M14.9999 6.5462C10.3385 6.5462 6.54616 10.3386 6.54616 14.9999C6.54616 19.6613 10.3386 23.4537 14.9999 23.4537C19.6613 23.4537 23.4537 19.6614 23.4537 15C23.4537 10.3386 19.6614 6.5462 14.9999 6.5462ZM14.9999 21.6868C11.3128 21.6868 8.31311 18.6871 8.31311 15C8.31311 11.3129 11.3128 8.31315 14.9999 8.31315C18.6871 8.31315 21.6868 11.3129 21.6868 15C21.6868 18.6871 18.6871 21.6868 14.9999 21.6868Z" fill="white"/>
    <path d="M18.4637 12.4827C18.1186 12.1377 17.5592 12.1377 17.2142 12.4827L14.0538 15.6431L12.7858 14.3752C12.4408 14.0302 11.8815 14.0303 11.5365 14.3752C11.1915 14.7202 11.1915 15.2796 11.5365 15.6246L13.4291 17.5172C13.6016 17.6897 13.8278 17.776 14.0538 17.776C14.2799 17.776 14.506 17.6897 14.6785 17.5172L18.4636 13.7321C18.8086 13.3872 18.8086 12.8277 18.4637 12.4827Z" fill="white"/>
  </symbol>
  <symbol id="svg-modal-credit" viewBox="0 0 30 30">
    <path d="M29.1211 0H0.878906C0.393516 0 0 0.393516 0 0.878906V29.1211C0 29.6065 0.393516 30 0.878906 30H29.1211C29.6065 30 30 29.6065 30 29.1211V0.878906C30 0.393516 29.6065 0 29.1211 0ZM14.1211 28.2422H1.75781V15.8788H14.1211V28.2422ZM14.1211 14.121H1.75781V1.75781H14.1211V14.121ZM28.2422 28.2422H15.8789V15.8788H28.2422V28.2422ZM28.2422 14.121H15.8789V1.75781H28.2422V14.121Z" fill="white"/>
    <path d="M10.2929 7.06056H8.81837V5.58599C8.81837 5.1006 8.42486 4.70708 7.93947 4.70708C7.45408 4.70708 7.06056 5.1006 7.06056 5.58599V7.06056H5.58599C5.1006 7.06056 4.70708 7.45408 4.70708 7.93947C4.70708 8.42486 5.1006 8.81837 5.58599 8.81837H7.06056V10.2929C7.06056 10.7783 7.45408 11.1719 7.93947 11.1719C8.42486 11.1719 8.81837 10.7783 8.81837 10.2929V8.81837H10.2929C10.7783 8.81837 11.1719 8.42486 11.1719 7.93947C11.1719 7.45408 10.7783 7.06056 10.2929 7.06056Z" fill="white"/>
    <path d="M9.18237 22.0605L10.2251 21.0178C10.5683 20.6746 10.5683 20.1181 10.2251 19.7748C9.88192 19.4315 9.32539 19.4317 8.98215 19.7748L7.93942 20.8176L6.89668 19.7748C6.5535 19.4317 5.99698 19.4317 5.65373 19.7748C5.31049 20.118 5.31049 20.6745 5.65373 21.0178L6.69647 22.0605L5.65373 23.1032C5.31049 23.4464 5.31049 24.0029 5.65373 24.3462C5.82535 24.5178 6.0503 24.6036 6.27518 24.6036C6.50012 24.6036 6.72506 24.5178 6.89662 24.3462L7.93936 23.3034L8.98209 24.3462C9.15371 24.5178 9.37866 24.6036 9.60354 24.6036C9.82848 24.6036 10.0534 24.5178 10.225 24.3462C10.5683 24.003 10.5683 23.4464 10.225 23.1032L9.18237 22.0605Z" fill="white"/>
    <path d="M24.4141 7.06055H19.7071C19.2217 7.06055 18.8282 7.45406 18.8282 7.93945C18.8282 8.42484 19.2217 8.81836 19.7071 8.81836H24.4141C24.8994 8.81836 25.293 8.42484 25.293 7.93945C25.293 7.45406 24.8994 7.06055 24.4141 7.06055Z" fill="white"/>
    <path d="M24.4141 18.828H19.7071C19.2217 18.828 18.8282 19.2215 18.8282 19.7069C18.8282 20.1923 19.2217 20.5858 19.7071 20.5858H24.4141C24.8994 20.5858 25.293 20.1923 25.293 19.7069C25.293 19.2215 24.8994 18.828 24.4141 18.828Z" fill="white"/>
    <path d="M24.4141 23.5351H19.7071C19.2217 23.5351 18.8282 23.9286 18.8282 24.414C18.8282 24.8994 19.2217 25.2929 19.7071 25.2929H24.4141C24.8994 25.2929 25.293 24.8994 25.293 24.414C25.293 23.9286 24.8994 23.5351 24.4141 23.5351Z" fill="white"/>
  </symbol>
  <symbol id="svg-modal-present" viewBox="0 0 30 25">
    <path d="M29.1211 0H0.878906C0.393516 0 0 0.393516 0 0.878906V23.4727C0 23.958 0.393516 24.3516 0.878906 24.3516H29.1211C29.6065 24.3516 30 23.958 30 23.4727V0.878906C30 0.393516 29.6065 0 29.1211 0ZM11.2969 22.5938H1.75781V13.0547H6.20238C5.85164 13.6204 5.6485 14.2867 5.6485 14.9999C5.6485 17.0419 7.30969 18.7031 9.35156 18.7031C10.0648 18.7031 10.7312 18.4999 11.2969 18.1492V22.5938ZM11.2969 14.9999C11.2969 16.0727 10.4242 16.9453 9.35156 16.9453C8.27894 16.9453 7.40631 16.0726 7.40631 14.9999C7.40625 13.9274 8.27894 13.0547 9.35156 13.0547H11.2969V14.9999ZM11.2969 10.0539L8.09021 6.84727C7.74703 6.50408 7.19051 6.50408 6.84727 6.84727C6.50402 7.19045 6.50402 7.74697 6.84727 8.09022L10.054 11.2969H1.75781V1.75781H11.2969V10.0539ZM28.2422 22.5938H13.0547V14.2976L16.2614 17.5043C16.433 17.6759 16.658 17.7617 16.8829 17.7617C17.1079 17.7617 17.3328 17.6759 17.5044 17.5043C17.8476 17.1611 17.8476 16.6046 17.5044 16.2613L14.2977 13.0547H28.2422V22.5938ZM13.0547 11.2969V9.35156C13.0547 8.27889 13.9274 7.40625 15 7.40625C16.0727 7.40625 16.9454 8.27895 16.9454 9.35156C16.9454 10.4242 16.0727 11.2969 15 11.2969H13.0547ZM28.2422 11.2969H18.1493C18.5 10.7312 18.7032 10.0648 18.7032 9.35156C18.7032 7.30963 17.0419 5.64844 15 5.64844C14.2868 5.64844 13.6205 5.85158 13.0547 6.20232V1.75781H28.2422V11.2969Z" fill="white"/>
    <path d="M23.4726 16.9453H20.6484C20.163 16.9453 19.7695 17.3388 19.7695 17.8242C19.7695 18.3096 20.163 18.7031 20.6484 18.7031H23.4726C23.958 18.7031 24.3515 18.3096 24.3515 17.8242C24.3515 17.3388 23.958 16.9453 23.4726 16.9453Z" fill="white"/>
    <path d="M24.0944 5.90576C23.9303 5.74229 23.7041 5.64848 23.4727 5.64848C23.2412 5.64848 23.0151 5.74229 22.8511 5.90576C22.6876 6.06918 22.5938 6.29594 22.5938 6.52738C22.5938 6.75883 22.6876 6.98506 22.8511 7.14906C23.0151 7.31254 23.2412 7.40629 23.4727 7.40629C23.7041 7.40629 23.9304 7.31254 24.0944 7.14906C24.2578 6.985 24.3516 6.75883 24.3516 6.52738C24.3516 6.29594 24.2578 6.06977 24.0944 5.90576Z" fill="white"/>
  </symbol>
  <symbol id="svg-modal-tradein" viewBox="0 0 30 30">
    <path d="M25.6066 4.39342C22.7735 1.56029 19.0066 0 15 0C10.9934 0 7.22654 1.56029 4.39342 4.39342C1.56029 7.22654 0 10.9934 0 15C0 19.0066 1.56029 22.7735 4.39342 25.6066C7.22654 28.4397 10.9934 30 15 30C19.0066 30 22.7735 28.4397 25.6066 25.6066C28.4397 22.7735 30 19.0066 30 15C30 10.9934 28.4397 7.22654 25.6066 4.39342ZM15 28.2422C7.69822 28.2422 1.75781 22.3018 1.75781 15C1.75781 7.69822 7.69822 1.75781 15 1.75781C22.3018 1.75781 28.2422 7.69822 28.2422 15C28.2422 22.3018 22.3018 28.2422 15 28.2422Z" fill="white"/>
    <path d="M4.48096 14.1211H5.25621C7.08861 14.1211 8.71231 13.6146 10.22 12.5726C11.4361 11.7321 13.1783 11.25 15 11.25C16.8217 11.25 18.5639 11.7321 19.78 12.5726C21.2877 13.6146 22.9113 14.1211 24.7437 14.1211C24.7437 14.1211 25.5187 14.1211 25.519 14.1211C26.0523 14.1211 26.4732 13.6242 26.3861 13.0983C25.9439 10.4327 24.564 7.99225 22.5006 6.22641C20.4139 4.44059 17.7502 3.45703 15 3.45703C12.2498 3.45703 9.58605 4.44059 7.4993 6.22641C5.43592 7.99225 4.05604 10.4328 3.61389 13.0983C3.52635 13.6262 3.94682 14.1211 4.48096 14.1211ZM15 5.21484C19.4517 5.21484 23.2618 8.16135 24.4249 12.3571C23.0778 12.304 21.9118 11.9091 20.7795 11.1265C19.2546 10.0726 17.2021 9.49219 15 9.49219C12.7979 9.49219 10.7454 10.0726 9.22055 11.1265C8.08805 11.9092 6.92232 12.304 5.57514 12.3571C6.73822 8.16135 10.5483 5.21484 15 5.21484Z" fill="white"/>
    <path d="M25.519 15.8789H21.9907C21.5876 15.8789 21.2362 16.1531 21.1382 16.5441C20.8145 17.8354 20.0681 19.0178 19.0363 19.8734C17.2996 21.3137 16.2339 23.2232 15.9545 25.3955C15.919 25.6723 16.0168 25.9494 16.2183 26.1424C16.4176 26.3333 16.7038 26.4207 16.9757 26.3738C21.8027 25.5405 25.5844 21.734 26.3861 16.9017C26.4283 16.6469 26.3564 16.3864 26.1894 16.1895C26.0224 15.9925 25.7773 15.8789 25.519 15.8789ZM17.9929 24.3191C18.3895 23.1285 19.1145 22.0921 20.1585 21.2264C21.2967 20.2825 22.1633 19.026 22.6449 17.6367H24.4255C23.543 20.8056 21.1134 23.3202 17.9929 24.3191Z" fill="white"/>
    <path d="M10.9636 19.8734C9.93188 19.0177 9.18545 17.8354 8.86178 16.5441C8.76381 16.1531 8.41236 15.8789 8.00924 15.8789H4.48096C4.22273 15.8789 3.97752 15.9925 3.81053 16.1895C3.64353 16.3864 3.57164 16.6469 3.61389 16.9017C4.41557 21.7341 8.19727 25.5407 13.0242 26.3738C13.2967 26.4209 13.5819 26.3337 13.7816 26.1424C13.983 25.9494 14.081 25.6723 14.0453 25.3955C13.766 23.2232 12.7004 21.3136 10.9636 19.8734ZM5.57455 17.6367H7.35516C7.83674 19.0261 8.70328 20.2825 9.84158 21.2265C10.8855 22.0922 11.6105 23.1286 12.0072 24.3192C8.88662 23.3203 6.45703 20.8057 5.57455 17.6367Z" fill="white"/>
    <path d="M19.5117 15.2051C19.5117 13.6518 17.5721 12.4805 15 12.4805C12.4279 12.4805 10.4883 13.6518 10.4883 15.2051C10.4883 16.7583 12.4279 17.9297 15 17.9297C17.5721 17.9297 19.5117 16.7583 19.5117 15.2051ZM15 16.1719C13.193 16.1719 12.2461 15.4536 12.2461 15.2051C12.2461 14.9566 13.193 14.2383 15 14.2383C16.807 14.2383 17.7539 14.9566 17.7539 15.2051C17.7539 15.4536 16.807 16.1719 15 16.1719Z" fill="white"/>
  </symbol>
  <symbol id="svg-modal-fuel" viewBox="0 0 27 30">
    <path d="M21.9727 0H16.6992C14.2761 0 12.3047 1.97139 12.3047 4.39453C12.3047 4.87916 11.9104 5.27344 11.4258 5.27344H10.4883V4.49795C10.6121 3.0174 9.31682 1.82033 7.85156 1.82033H6.09375C4.72441 1.82033 3.61752 2.89043 3.46189 4.36477C3.45861 4.39541 3.45703 4.42623 3.45703 4.45699V5.3751C1.48295 5.80594 0 7.56662 0 9.66797V25.6055C0 28.0286 1.97139 30 4.39453 30H21.9727C24.3958 30 26.3672 28.0286 26.3672 25.6055V4.39453C26.3672 1.97139 24.3958 0 21.9727 0ZM5.21484 4.50867C5.2776 4.03893 5.56922 3.56637 6.09375 3.56637H7.85156C8.30924 3.56637 8.79246 3.93393 8.74705 4.36471C8.74037 4.42758 8.74219 4.38961 8.74219 5.27344H5.21484V4.50867ZM24.6094 25.6055C24.6094 27.0594 23.4265 28.2422 21.9727 28.2422H4.39453C2.94064 28.2422 1.75781 27.0594 1.75781 25.6055V9.66797C1.75781 8.21408 2.94064 7.03125 4.39453 7.03125H11.4258C12.8797 7.03125 14.0625 5.84842 14.0625 4.39453C14.0625 2.94064 15.2453 1.75781 16.6992 1.75781H21.9727C23.4265 1.75781 24.6094 2.94064 24.6094 4.39453V25.6055Z" fill="white"/>
    <path d="M21.9141 3.57809H16.6406C16.1552 3.57809 15.7617 3.9716 15.7617 4.45699V7.97262C15.7617 8.45807 16.1552 8.85152 16.6406 8.85152H21.9141C22.3995 8.85152 22.793 8.45801 22.793 7.97262V4.45699C22.793 3.9716 22.3995 3.57809 21.9141 3.57809ZM21.0352 7.09371H17.5195V5.32418H21.0352V7.09371Z" fill="white"/>
    <path d="M22.5041 24.9367L17.5195 21.6137V15.5426L22.504 12.2196C22.908 11.9503 23.0171 11.4046 22.7478 11.0007C22.4786 10.5969 21.9329 10.4878 21.529 10.7569L16.477 14.125C9.06164 14.125 9.56232 14.1179 9.44092 14.1415L4.96576 10.7851C4.57746 10.4938 4.02656 10.5727 3.73529 10.9609C3.44402 11.3492 3.52277 11.9001 3.91107 12.1914L8.73047 15.806V21.3503L3.91107 24.9649C3.52277 25.2561 3.44402 25.807 3.73529 26.1953C4.02656 26.5836 4.57734 26.6624 4.96576 26.3711L9.44098 23.003C9.56531 23.0272 9.08889 23.0196 16.477 23.0196L21.529 26.3993C21.9332 26.6687 22.4788 26.5592 22.7479 26.1555C23.0171 25.7516 22.908 25.2059 22.5041 24.9367ZM15.7617 21.2734H10.4883V15.8711H15.7617V21.2734Z" fill="white"/>
  </symbol>
</svg>