<svg style="width:0;height:0" xmlns="http://www.w3.org/2000/svg">
  <symbol id="svg-dopskidki" viewBox="0 0 68 80">
    <path d="M34.0948 18.1949C31.2494 18.1949 28.9343 20.5513 28.9343 23.4479C28.9343 26.3441 31.2492 28.7007 34.0948 28.7007C36.9401 28.7007 39.2552 26.3442 39.2552 23.4479C39.255 20.5513 36.9401 18.1949 34.0948 18.1949ZM34.0948 26.3564C32.5192 26.3564 31.237 25.0514 31.237 23.4477C31.237 21.8438 32.519 20.5388 34.0948 20.5388C35.6707 20.5388 36.9524 21.844 36.9524 23.4477C36.9524 25.0516 35.6704 26.3564 34.0948 26.3564Z" fill="#BBBBBB"/>
    <path d="M28.5016 52.0626C27.8656 52.0626 27.3502 52.5872 27.3502 53.2347V59.087C27.3502 59.7343 27.8655 60.259 28.5016 60.259C29.1377 60.259 29.653 59.7345 29.653 59.087V53.2347C29.6528 52.5872 29.1375 52.0626 28.5016 52.0626Z" fill="#BBBBBB"/>
    <path d="M34.0948 52.0626C33.4588 52.0626 32.9434 52.5872 32.9434 53.2347V59.087C32.9434 59.7343 33.4587 60.259 34.0948 60.259C34.7307 60.259 35.2462 59.7345 35.2462 59.087V53.2347C35.246 52.5872 34.7307 52.0626 34.0948 52.0626Z" fill="#BBBBBB"/>
    <path d="M39.6881 52.0626C39.0521 52.0626 38.5367 52.5872 38.5367 53.2347V59.087C38.5367 59.7343 39.052 60.259 39.6881 60.259C40.3242 60.259 40.8395 59.7345 40.8395 59.087V53.2347C40.8395 52.5872 40.324 52.0626 39.6881 52.0626Z" fill="#BBBBBB"/>
    <path d="M65.0064 68.7269H62.7038C62.7796 68.4518 62.8231 68.1629 62.8231 67.8633V49.5986C62.8231 48.9512 62.3078 48.4265 61.6716 48.4265C61.0355 48.4265 60.5202 48.9511 60.5202 49.5986V67.8633C60.5202 68.3396 60.1397 68.7269 59.672 68.7269C57.6268 68.7269 9.44257 68.7269 8.32785 68.7269C7.86013 68.7269 7.47961 68.3396 7.47961 67.8633V24.5835C7.47961 24.1072 7.86013 23.7199 8.32785 23.7199H24.9466V27.4302H12.698C12.6412 27.4302 12.5852 27.4332 12.5299 27.4388C11.7009 27.5247 11.0516 28.2396 11.0516 29.106V63.4793C11.0516 64.4034 11.7902 65.1554 12.698 65.1554H55.3022C56.2098 65.1554 56.9486 64.4035 56.9486 63.4793V29.1061C56.9486 28.2399 56.2994 27.5249 55.4702 27.4389C55.415 27.4332 55.3589 27.4303 55.3022 27.4303H43.2429V23.72H59.672C60.1397 23.72 60.5202 24.1074 60.5202 24.5836V44.1295C60.5202 44.7768 61.0355 45.3015 61.6716 45.3015C62.3078 45.3015 62.8231 44.777 62.8231 44.1295V24.5835C62.8231 22.8149 61.4095 21.3758 59.672 21.3758H43.2429V15.2993C43.2429 15.0968 43.1861 14.8933 43.1012 14.736L35.6905 0.961052C35.0013 -0.32035 33.1883 -0.32035 32.4989 0.961052L25.0882 14.736C25.0007 14.898 24.9466 15.1021 24.9466 15.2993V21.3758H8.32785C6.59038 21.3758 5.1768 22.8149 5.1768 24.5835V67.8633C5.1768 68.1629 5.22039 68.4518 5.29607 68.7269H2.99356C1.34297 68.7269 0 70.094 0 71.7741V76.9528C0 78.633 1.34297 80 2.99356 80H31.3134C31.9494 80 32.4648 79.4755 32.4648 78.828C32.4648 78.1806 31.9495 77.656 31.3134 77.656H2.99356C2.61918 77.656 2.30281 77.3339 2.30281 76.9528V71.7741C2.30281 71.393 2.61918 71.071 2.99356 71.071C3.81817 71.071 21.2627 71.071 21.9399 71.071V72.3279C21.9399 74.0964 23.3537 75.5355 25.0912 75.5355H42.909C44.6465 75.5355 46.0602 74.0964 46.0602 72.3279V71.071C46.7528 71.071 64.2248 71.071 65.0066 71.071C65.381 71.071 65.6973 71.393 65.6973 71.7741V76.9528C65.6973 77.3339 65.381 77.656 65.0066 77.656H36.6866C36.0506 77.656 35.5352 78.1805 35.5352 78.828C35.5352 79.4753 36.0505 80 36.6866 80H65.0064C66.657 80 68 78.633 68 76.9528V71.7741C68 70.094 66.657 68.7269 65.0064 68.7269ZM20.0817 29.7741H23.6326C22.5592 31.0675 21.5751 32.1755 20.4814 33.9169H20.0817V29.7741ZM13.3544 29.7741H17.779V33.9169H13.3544V29.7741ZM54.6456 29.7741V33.9169H47.7079C46.6162 32.1788 45.6326 31.0708 44.5565 29.7741H54.6456ZM43.2429 31.8231L43.9892 32.7225C47.1673 36.5512 49.1465 41.4984 49.3322 46.8107L43.2429 41.6079C43.2429 40.6334 43.2429 32.7883 43.2429 31.8231ZM34.0947 2.8748L40.1485 14.1274H28.0411L34.0947 2.8748ZM27.2492 16.4713H40.9402C40.9402 19.1796 40.9402 39.2361 40.9402 42.2031C38.8772 42.2031 37.636 42.2031 35.2461 42.2031V31.483C35.2461 30.8356 34.7308 30.311 34.0947 30.311C33.4588 30.311 32.9433 30.8355 32.9433 31.483V42.2031C30.557 42.2031 29.309 42.2031 27.2491 42.2031C27.2492 40.7447 27.2492 17.0007 27.2492 16.4713ZM39.2612 44.547V47.1764C39.2612 47.2164 39.2241 47.2542 39.1848 47.2542H35.2461V44.547H39.2612ZM28.9282 47.1765V44.5472H32.9435V47.2543H29.0046C28.9653 47.2543 28.9282 47.2165 28.9282 47.1765ZM25.6088 44.1025C25.9055 44.3562 26.2702 44.5047 26.6252 44.5383V47.1764C26.6252 48.5118 27.6925 49.5981 29.0043 49.5981H32.9442C32.9553 50.2356 33.4655 50.7492 34.0946 50.7492C34.7234 50.7492 35.2338 50.2357 35.2449 49.5981H39.1846C40.4964 49.5981 41.5637 48.5115 41.5637 47.1764V44.5312C41.9329 44.4836 42.2858 44.3201 42.5595 44.0848L48.4719 49.1362C49.7434 50.2221 51.6488 49.2868 51.6488 47.6284C51.6488 43.6606 50.7326 39.7683 49.0128 36.2608H54.6456V62.8113H13.3544V36.2608H19.1765C17.4567 39.7684 16.5403 43.6608 16.5403 47.6284C16.5403 49.287 18.4454 50.2228 19.7173 49.1362L25.6088 44.1025ZM24.9467 41.6081L18.8574 46.8109C19.0161 42.2658 20.499 37.8392 23.1225 34.1303C23.7485 33.2449 24.1857 32.7403 24.9467 31.8231C24.9467 32.7886 24.9467 40.6326 24.9467 41.6081ZM43.7576 72.3277C43.7574 72.8039 43.3769 73.1913 42.909 73.1913H25.0912C24.6233 73.1913 24.2428 72.8039 24.2428 72.3277V71.0708H43.7577L43.7576 72.3277Z" fill="#BBBBBB"/>
  </symbol>

  <symbol id="svg-proezd" viewBox="0 0 55 80">
    <path d="M23.8763 61.2543C23.8763 62.0679 24.5361 62.7277 25.3497 62.7277C26.1633 62.7277 26.8231 62.0679 26.8231 61.2543C26.8231 60.4407 26.1633 59.7809 25.3497 59.7809C24.5361 59.7809 23.8763 60.4407 23.8763 61.2543Z" fill="#BBBBBB"/>
    <path d="M28.0316 61.2543C28.0316 62.0679 28.6908 62.7277 29.5044 62.7277C30.318 62.7277 30.9778 62.0679 30.9778 61.2543C30.9778 60.4407 30.318 59.7809 29.5044 59.7809C28.6908 59.7809 28.0316 60.4407 28.0316 61.2543Z" fill="#BBBBBB"/>
    <path d="M4.50195 6.23047C4.92737 5.74463 5.66589 5.69519 6.15234 6.12061C6.63818 6.54541 6.68762 7.28394 6.26221 7.77039C3.7323 10.6628 2.33887 14.375 2.33887 18.2233V51.731C2.33887 52.7271 2.68066 53.7036 3.302 54.4824L9.02527 61.6559C9.55322 62.3169 10.3406 62.6959 11.1865 62.6959H15.7874C16.4331 62.6959 16.9568 63.2196 16.9568 63.8654C16.9568 64.5111 16.4331 65.0348 15.7874 65.0348H11.1865C9.78455 65.0348 8.47046 64.4684 7.5116 63.4698V71.2677C7.5116 71.9128 8.03589 72.4371 8.68042 72.4371H46.33C46.9745 72.4371 47.4988 71.9128 47.4988 71.2677V63.3014C46.5295 64.4049 45.1471 65.0342 43.6676 65.0342H34.7119C34.6503 66.9788 33.0499 68.5419 31.0907 68.5419H23.764C21.7651 68.5419 20.1392 66.9159 20.1392 64.9176V57.5903C20.1392 55.592 21.7651 53.9661 23.764 53.9661H31.0907C33.089 53.9661 34.715 55.592 34.715 57.5903V62.6959H43.6676C44.5135 62.6959 45.3015 62.3169 45.8289 61.6559L51.5527 54.4824C52.1735 53.7042 52.5159 52.7271 52.5159 51.731V18.2227C52.5159 9.46411 45.39 2.33826 36.6309 2.33826H18.2233C15.3613 2.33826 12.5568 3.1073 10.1117 4.56238C9.55688 4.89258 8.83972 4.71008 8.50952 4.15588C8.17871 3.60107 8.36121 2.8833 8.91602 2.5531C11.7224 0.882568 14.9408 0 18.2233 0H36.6315C46.6797 0 54.8541 8.17505 54.8541 18.2227V51.731C54.8541 53.255 54.3311 54.7498 53.3807 55.9406L49.837 60.3815V71.2677C49.837 73.2019 48.2635 74.7754 46.33 74.7754H45.1215V76.7731C45.1215 78.5522 43.6737 80 41.8945 80C40.1154 80 38.6676 78.5522 38.6676 76.7731V74.7754H16.1865V76.7731C16.1865 78.5522 14.7394 80 12.9596 80C11.1804 80 9.73267 78.5522 9.73267 76.7731V74.7754H8.68042C6.74622 74.7754 5.17273 73.2019 5.17273 71.2677V60.5768L1.474 55.9406C0.523682 54.7498 0 53.255 0 51.731V18.2227C0.000610313 13.8086 1.59912 9.54956 4.50195 6.23047ZM32.3767 57.5909C32.3767 56.8817 31.7999 56.3049 31.0907 56.3049H23.764C23.0548 56.3049 22.4774 56.8817 22.4774 57.5909V64.9176C22.4774 65.6268 23.0548 66.2036 23.764 66.2036H31.0907C31.7999 66.2036 32.3767 65.6268 32.3767 64.9176V57.5909ZM41.0059 76.7731C41.0059 77.2632 41.405 77.6617 41.8945 77.6617C42.3846 77.6617 42.7832 77.2632 42.7832 76.7731V74.7754H41.0059V76.7731ZM12.0715 76.7731C12.0715 77.2632 12.4701 77.6617 12.9602 77.6617C13.4497 77.6617 13.8483 77.2632 13.8483 76.7731V74.7754H12.0715V76.7731Z" fill="#BBBBBB"/>
    <path d="M5.01098 17.4853C5.01098 15.6219 6.52709 14.1052 8.39111 14.1052H46.4636C48.327 14.1052 49.8437 15.6213 49.8437 17.4853V38.0688C49.8437 39.9329 48.327 41.449 46.4636 41.449H8.39111C6.52709 41.449 5.01098 39.9329 5.01098 38.0688V17.4853ZM7.34924 38.0688C7.34924 38.6432 7.81676 39.1107 8.39111 39.1107H46.4636C47.038 39.1107 47.5049 38.6432 47.5049 38.0688V35.5457H42.2803C42.7051 36.0052 42.6953 36.7218 42.2491 37.168C42.0203 37.3968 41.7206 37.511 41.4203 37.511C41.1206 37.511 40.8209 37.3968 40.592 37.168L38.9691 35.5457H15.885L14.2627 37.168C14.0338 37.3968 13.7335 37.511 13.4338 37.511C13.1341 37.511 12.8339 37.3968 12.6056 37.168C12.1588 36.7218 12.149 36.0052 12.5738 35.5457H7.34924V38.0688ZM7.34924 33.2068H14.909L21.9934 26.123C22.4506 25.6653 23.1927 25.6653 23.6505 26.123C24.1083 26.5808 24.1083 27.3224 23.6505 27.7801L18.2239 33.2068H26.5234V21.853H7.34924V33.2068ZM7.34924 19.5148H37.9236C38.5693 19.5148 39.093 20.0378 39.093 20.6836C39.093 21.3293 38.5693 21.853 37.9236 21.853H28.8617V33.2074H36.6309L31.2042 27.7808C30.7465 27.3224 30.7465 26.5808 31.2042 26.123C31.662 25.6659 32.4036 25.6659 32.8613 26.123L39.9457 33.2074H47.5049V21.853H43.3801C42.7344 21.853 42.2107 21.3293 42.2107 20.6836C42.2107 20.0378 42.7344 19.5148 43.3801 19.5148H47.5049V17.4853C47.5049 16.911 47.038 16.4441 46.4636 16.4441H8.39111C7.81676 16.4441 7.34924 16.911 7.34924 17.4853V19.5148Z" fill="#BBBBBB"/>
    <path d="M45.7123 45.3925C47.9901 45.3925 49.8437 47.2455 49.8437 49.5233V50.459C49.8437 52.7368 47.9901 54.5898 45.7123 54.5898H38.3398C36.0614 54.5898 34.2084 52.7368 34.2084 50.459V49.5233C34.2084 47.2455 36.0614 45.3925 38.3398 45.3925H45.7123ZM36.5466 49.5233V50.459C36.5466 51.4471 37.3511 52.2516 38.3398 52.2516H45.7123C46.701 52.2516 47.5055 51.4471 47.5055 50.459V49.5233C47.5055 48.5352 46.701 47.7307 45.7123 47.7307H38.3398C37.3511 47.7307 36.5466 48.5352 36.5466 49.5233Z" fill="#BBBBBB"/>
    <path d="M41.6296 49.9909C41.6296 50.8051 42.2888 51.4642 43.1024 51.4642C43.9166 51.4642 44.5758 50.8051 44.5758 49.9909C44.5758 49.1773 43.9166 48.5181 43.1024 48.5181C42.2888 48.5181 41.6296 49.1773 41.6296 49.9909Z" fill="#BBBBBB"/>
    <path d="M9.23461 45.3925H16.6077C18.8855 45.3925 20.7385 47.2455 20.7385 49.5233V50.459C20.7385 52.7368 18.8855 54.5898 16.6077 54.5898H9.23461C6.95678 54.5898 5.10375 52.7368 5.10375 50.459V49.5233C5.10375 47.2455 6.95678 45.3925 9.23461 45.3925ZM7.44201 50.459C7.44201 51.4471 8.24645 52.2516 9.23461 52.2516H16.6077C17.5964 52.2516 18.4003 51.4471 18.4003 50.459V49.5233C18.4003 48.5352 17.5964 47.7307 16.6077 47.7307H9.23461C8.24645 47.7307 7.44201 48.5345 7.44201 49.5233V50.459Z" fill="#BBBBBB"/>
    <path d="M14.5258 49.9909C14.5258 50.8051 15.1856 51.4642 15.9992 51.4642C16.8128 51.4642 17.4725 50.8051 17.4725 49.9909C17.4725 49.1773 16.8128 48.5181 15.9992 48.5181C15.1856 48.5181 14.5258 49.1773 14.5258 49.9909Z" fill="#BBBBBB"/>
    <path d="M10.3711 49.9909C10.3711 50.8051 11.0309 51.4642 11.8445 51.4642C12.6581 51.4642 13.3172 50.8051 13.3172 49.9909C13.3172 49.1773 12.6581 48.5181 11.8445 48.5181C11.0309 48.5181 10.3711 49.1773 10.3711 49.9909Z" fill="#BBBBBB"/>
    <path d="M23.8763 61.2543C23.8763 62.0679 24.5361 62.7277 25.3497 62.7277C26.1633 62.7277 26.8231 62.0679 26.8231 61.2543C26.8231 60.4407 26.1633 59.7809 25.3497 59.7809C24.5361 59.7809 23.8763 60.4407 23.8763 61.2543Z" fill="#BBBBBB"/>
    <path d="M28.0316 61.2543C28.0316 62.0679 28.6908 62.7277 29.5044 62.7277C30.318 62.7277 30.9778 62.0679 30.9778 61.2543C30.9778 60.4407 30.318 59.7809 29.5044 59.7809C28.6908 59.7809 28.0316 60.4407 28.0316 61.2543Z" fill="#BBBBBB"/>
    <path d="M37.4743 49.9909C37.4743 50.8051 38.1341 51.4642 38.9477 51.4642C39.7613 51.4642 40.4211 50.8051 40.4211 49.9909C40.4211 49.1773 39.7613 48.5181 38.9477 48.5181C38.1341 48.5181 37.4743 49.1773 37.4743 49.9909Z" fill="#BBBBBB"/>
    <path d="M23.208 11.5845C21.413 11.5845 19.9524 10.1239 19.9524 8.32886V7.91321C19.9524 6.11817 21.413 4.6576 23.208 4.6576H31.6467C33.4418 4.6576 34.9023 6.11817 34.9023 7.91321V8.32886C34.9023 10.1239 33.4418 11.5845 31.6467 11.5845H23.208ZM32.5586 8.32886V7.91321C32.5586 7.41028 32.149 7.00135 31.6467 7.00135H23.208C22.7051 7.00135 22.2961 7.41028 22.2961 7.91321V8.32886C22.2961 8.83179 22.7051 9.24073 23.208 9.24073H31.6467C32.149 9.24073 32.5586 8.83179 32.5586 8.32886Z" fill="#BBBBBB"/>
  </symbol>

  <symbol id="svg-bank" viewBox="0 0 75 80">
    <path d="M70.3425 33.2446V30.4462H72.0826C73.1648 30.4462 74.0907 29.7845 74.4417 28.761C74.792 27.738 74.4673 26.6473 73.6128 25.9839L41.504 1.03516C40.6453 0.367432 39.5729 0 38.4852 0H36.0963C35.0081 0 33.9357 0.367432 33.0769 1.03516L0.968138 25.9839C0.113646 26.6479 -0.211671 27.738 0.139281 28.761C0.490233 29.7845 1.41614 30.4462 2.49768 30.4462H4.23779V33.2446C4.23779 34.9609 5.63489 36.3574 7.3512 36.3574H8.81848L6.89282 65.8704C5.39319 66.0931 4.23779 67.3853 4.23779 68.9459V71.7444H3.47851C1.5614 71.7444 0.00195183 73.3038 0.00195183 75.2209V76.5234C0.00195183 78.4406 1.5614 80 3.47851 80H71.1024C73.0195 80 74.579 78.4406 74.579 76.5234V75.2209C74.579 73.3038 73.0195 71.7444 71.1024 71.7444H70.3431V68.9459C70.3431 67.3853 69.1877 66.0931 67.6887 65.8704L66.8977 53.7537C66.8556 53.1073 66.2953 52.6154 65.652 52.6605C65.0062 52.7026 64.5167 53.2599 64.5588 53.9056L65.337 65.8325H58.415L60.3383 36.3574H63.4138L64.2018 48.4369C64.2439 49.0826 64.803 49.5734 65.4481 49.53C66.0939 49.4879 66.5834 48.9301 66.5413 48.2843L65.7631 36.3574H67.2297C68.946 36.358 70.3425 34.9609 70.3425 33.2446ZM2.35669 28.0011C2.3219 27.9004 2.375 27.8595 2.40613 27.8351L34.5149 2.88574C34.9647 2.53662 35.5262 2.34375 36.0963 2.34375H38.4852C39.0547 2.34375 39.6162 2.53662 40.066 2.88574L72.1742 27.8351C72.2059 27.8595 72.2584 27.9004 72.2243 28.0011C72.1895 28.1024 72.1229 28.1024 72.0826 28.1024C71.432 28.1024 3.25757 28.1024 2.49768 28.1024C2.45801 28.1024 2.39148 28.1024 2.35669 28.0011ZM48.9467 65.8325H42.0247L43.9479 36.358H47.0234L48.9467 65.8325ZM39.6754 65.8325H34.9049L32.9817 36.358H41.5986L39.6754 65.8325ZM32.5563 65.8325H25.6343L27.5575 36.358H30.6331L32.5563 65.8325ZM23.285 65.8325H18.5145L16.5913 36.358H25.2089L23.285 65.8325ZM16.1659 65.8325H9.2439L11.1671 36.358H14.2427L16.1659 65.8325ZM72.2346 75.2209V76.5234C72.2346 77.1478 71.7268 77.6562 71.1024 77.6562H3.47851C2.85413 77.6562 2.34631 77.1478 2.34631 76.5234V75.2209C2.34631 74.5966 2.85413 74.0881 3.47851 74.0881H71.1024C71.7268 74.0881 72.2346 74.5966 72.2346 75.2209ZM67.2291 68.1763C67.6466 68.1763 67.9988 68.5291 67.9988 68.9459V71.7444H6.58215V68.9459C6.58215 68.5291 6.93433 68.1763 7.3512 68.1763H67.2291ZM56.0658 65.8325H51.2953L49.3721 36.358H57.9896L56.0658 65.8325ZM7.3512 34.0137C6.93433 34.0137 6.58215 33.6615 6.58215 33.2446V30.4462H67.9988V33.2446C67.9988 33.6615 67.6466 34.0137 67.2291 34.0137C54.8921 34.0137 18.0171 34.0137 7.3512 34.0137Z" fill="#BBBBBB"/>
    <path d="M33.2355 16.4776C33.2355 18.8507 35.1667 20.7818 37.5397 20.7818C39.9134 20.7818 41.8445 18.8507 41.8445 16.4776C41.8445 14.104 39.9134 12.1734 37.5397 12.1734C35.1667 12.1734 33.2355 14.104 33.2355 16.4776ZM37.5397 14.5172C38.6213 14.5172 39.5002 15.3961 39.5002 16.477C39.5002 17.558 38.6213 18.4375 37.5397 18.4375C36.4588 18.4375 35.5793 17.558 35.5793 16.477C35.5793 15.3961 36.4588 14.5172 37.5397 14.5172Z" fill="#BBBBBB"/>
    <path d="M37.5396 24.9878C42.2326 24.9878 46.0504 21.17 46.0504 16.4776C46.0504 12.8985 43.7884 9.68016 40.4217 8.46861C39.8132 8.24949 39.1412 8.56504 38.9221 9.17417C38.703 9.78331 39.0191 10.4547 39.6282 10.6738C42.0678 11.5515 43.7066 13.8843 43.7066 16.4776C43.7066 19.8779 40.9405 22.644 37.5402 22.644C34.14 22.644 31.3732 19.8779 31.3732 16.4776C31.3732 14.046 32.81 11.8347 35.0329 10.8435C35.6243 10.5804 35.8898 9.88706 35.6262 9.29624C35.3625 8.70481 34.6698 8.43931 34.0789 8.70298C31.0113 10.0702 29.0295 13.1219 29.0295 16.4776C29.0295 21.17 32.8472 24.9878 37.5396 24.9878Z" fill="#BBBBBB"/>
  </symbol>

  <symbol id="svg-akzii" viewBox="0 0 80 80">
    <path d="M77.2257 14.3955C75.531 12.2688 72.9996 11.049 70.2808 11.049H63.1449V9.1395H63.8703C66.3899 9.1395 68.44 7.08956 68.44 4.56975C68.4397 2.04995 66.3898 0 63.8701 0H16.1302C13.6104 0 11.5604 2.04995 11.5604 4.56975C11.5604 7.0894 13.6104 9.1395 16.13 9.1395H16.8554V11.049H9.71949C7.00069 11.049 4.46929 12.2688 2.7746 14.3955C1.08648 16.514 0.464596 19.2406 1.06817 21.8762C2.2656 27.1063 4.51031 31.6404 7.55979 34.9883C10.8416 38.591 15.0228 40.892 19.9897 41.8409C23.2014 47.3512 28.623 51.4212 35.0314 52.8286C34.5576 65.3185 31.9273 68.3565 31.2827 68.9161H28.8919C23.7708 68.9161 19.2427 72.6632 17.3556 78.4623C17.1045 79.2342 17.7082 80 18.5037 80H46.0201C46.6807 80 47.2138 79.4547 47.1937 78.7896C47.1745 78.1469 46.6138 77.6515 45.9708 77.6515H20.185C21.9709 73.7233 25.2601 71.2648 28.8917 71.2648H51.1084C54.74 71.2648 58.0292 73.7233 59.815 77.6515H50.8413C50.1928 77.6515 49.667 78.1772 49.667 78.8257C49.667 79.4743 50.1928 80 50.8413 80H61.5279C62.3354 80 62.8831 79.1919 62.6357 78.4356C60.7436 72.6518 56.2213 68.9162 51.1084 68.9162H48.7176C48.073 68.3567 45.4427 65.3186 44.9689 52.8287C51.3772 51.4212 56.7989 47.3513 60.0106 41.8411C64.9775 40.8921 69.1587 38.5912 72.4403 34.9884C72.877 34.509 72.8424 33.7662 72.363 33.3296C71.8837 32.8931 71.141 32.9277 70.7041 33.4071C68.1759 36.1827 65.0414 38.0946 61.3671 39.1155C61.8123 38.0495 62.1796 36.943 62.4629 35.8037C64.8524 34.8517 66.9312 33.4182 68.6476 31.5339C71.7499 28.1279 73.2332 23.7796 73.931 20.7313C74.184 19.6267 73.9224 18.4829 73.2133 17.5931C72.4975 16.6948 71.4286 16.1797 70.2806 16.1797H63.1447V13.3975H70.2806C72.2803 13.3975 74.1422 14.2947 75.3888 15.8591C76.6287 17.4151 77.0857 19.4173 76.6426 21.3521C76.0041 24.1406 75.0524 26.7096 73.8136 28.9879C73.5275 29.5139 73.694 30.1901 74.1908 30.5237C74.7577 30.9043 75.5512 30.7086 75.8767 30.1098C77.2177 27.6435 78.2457 24.8733 78.9318 21.8763C79.5355 19.2405 78.9136 16.5139 77.2257 14.3955ZM17.021 32.9856C15.5388 32.2098 14.221 31.1952 13.0888 29.9522C10.3298 26.9231 8.99348 22.9807 8.35829 20.2068C8.26591 19.8032 8.36251 19.3839 8.62336 19.0565C8.89109 18.7205 9.29049 18.5279 9.71933 18.5279H16.8554V30.223C16.8555 31.1578 16.9129 32.0794 17.021 32.9856ZM9.29597 33.4069C6.5183 30.3573 4.46475 26.1888 3.35735 21.352C2.91426 19.4173 3.37128 17.4151 4.61114 15.8592C5.85774 14.2948 7.71965 13.3977 9.71933 13.3977H16.8554V16.1796H9.71949C8.57153 16.1796 7.50264 16.6948 6.78681 17.5931C6.07772 18.4829 5.81609 19.6267 6.06911 20.7312C6.76709 23.7794 8.25026 28.1278 11.3527 31.5337C13.0691 33.4182 15.1479 34.8516 17.5374 35.8035C17.8206 36.9429 18.1878 38.0493 18.6332 39.1155C14.9587 38.0944 11.8242 36.1826 9.29597 33.4069ZM45.7693 68.9162H34.2308C35.5466 66.6336 37.0008 62.1188 37.3663 53.2167C38.231 53.3152 39.1095 53.3675 40.0001 53.3675C40.8906 53.3675 41.7691 53.3152 42.6339 53.2167C42.9994 62.1187 44.4535 66.6336 45.7693 68.9162ZM40.0001 51.0189C28.533 51.0189 19.2041 41.69 19.2041 30.223V9.1395H25.0051C25.6536 9.1395 26.1793 8.61375 26.1793 7.96524C26.1793 7.31674 25.6536 6.79098 25.0051 6.79098H16.13C14.9053 6.79098 13.9089 5.79458 13.9089 4.56975C13.9089 3.34492 14.9053 2.34852 16.1302 2.34852H63.8701C65.0948 2.34852 66.0913 3.34492 66.0913 4.56975C66.0913 5.79443 65.0949 6.79098 63.8701 6.79098H29.7023C29.0538 6.79098 28.528 7.31674 28.528 7.96524C28.528 8.61375 29.0538 9.1395 29.7023 9.1395H60.7964V30.223C60.7962 41.6898 51.4671 51.0189 40.0001 51.0189ZM70.2806 18.5279C70.7095 18.5279 71.109 18.7205 71.3768 19.0565C71.6376 19.3839 71.7344 19.8032 71.6418 20.207C71.0066 22.9807 69.6705 26.9231 66.9114 29.9522C65.7791 31.1952 64.4613 32.2098 62.9792 32.9856C63.0876 32.0794 63.1447 31.1578 63.1447 30.223V18.5279H70.2806Z" fill="#BBBBBB"/>
    <path d="M48.7652 23.0674L44.4397 22.4388C44.3608 22.4274 44.2927 22.3779 44.2574 22.3063L42.323 18.3868C41.8834 17.4961 40.9935 16.9428 40.0002 16.9426C39.0071 16.9426 38.1168 17.496 37.6772 18.3867L35.7428 22.3063C35.7076 22.3777 35.6395 22.4272 35.5606 22.4386L31.2351 23.0673C30.2521 23.2101 29.4508 23.8856 29.1439 24.8302C28.8369 25.775 29.0882 26.7925 29.7995 27.4858L32.9294 30.5368C32.9866 30.5924 33.0126 30.6726 32.9991 30.751L32.2601 35.0591C32.0923 36.0381 32.4871 37.009 33.2908 37.5929C34.0945 38.1767 35.1397 38.2522 36.0188 37.79L39.8876 35.756C39.9581 35.7189 40.0423 35.7189 40.1128 35.756L43.9816 37.79C44.8497 38.2462 45.9164 38.1692 46.7098 37.5927C47.5134 37.0089 47.9083 36.038 47.7403 35.059L47.0014 30.7508C46.988 30.6724 47.014 30.5922 47.071 30.5367L50.2011 27.4856C50.9124 26.7922 51.1635 25.7746 50.8565 24.8301C50.5494 23.8858 49.748 23.2102 48.7652 23.0674ZM48.5615 25.8042L45.4315 28.8553C44.8209 29.4505 44.5424 30.3078 44.6866 31.1482L45.4254 35.4563C45.4589 35.6511 45.2507 35.8045 45.0744 35.7114L41.2055 33.6774C40.4574 33.2841 39.5427 33.2841 38.7946 33.6774L34.9257 35.7114C34.7495 35.8041 34.5411 35.6514 34.5746 35.4563L35.3136 31.1481C35.4577 30.3076 35.1792 29.4505 34.5685 28.8553L31.4386 25.8042C31.296 25.6652 31.3767 25.42 31.5726 25.3915L35.8983 24.7629C36.7423 24.6403 37.4715 24.1105 37.8486 23.3458L39.783 19.4261C39.871 19.2478 40.1287 19.2475 40.2169 19.4261L42.1513 23.3456C42.5286 24.1103 43.2577 24.6402 44.1018 24.7627L48.4275 25.3914C48.6232 25.42 48.7043 25.665 48.5615 25.8042Z" fill="#BBBBBB"/>
  </symbol>



  <symbol id="svg-hoverboard" viewBox="0 0 140 140">
    <path d="M53.7684 66H44.0344C41.2583 66 39 68.2047 39 70.915V72.8222C39 74.0232 40.0014 75 41.2316 75H50.9656C53.7408 75 56 72.7953 56 70.085V68.1787C56 66.9768 54.9986 66 53.7684 66ZM52.8121 70.085C52.8121 71.0797 51.9836 71.8886 50.9656 71.8886H42.187V70.915C42.187 69.9203 43.0155 69.1114 44.0344 69.1114H52.8121V70.085Z" fill="#AAAAAA"/>
    <path d="M95.9656 66H86.2316C85.0014 66 84 66.9768 84 68.1787V70.085C84 72.7953 86.2583 75 89.0344 75H98.7684C99.9986 75 101 74.0232 101 72.8222V70.915C101 68.2047 98.7409 66 95.9656 66ZM97.8121 71.8886H89.0344C88.0155 71.8886 87.187 71.0797 87.187 70.085V69.1114H95.9656C96.9836 69.1114 97.8121 69.9203 97.8121 70.915V71.8886Z" fill="#AAAAAA"/>
    <path d="M114.664 47H113.949C109.313 47 105.38 50.0327 104.075 54.1968H69.875C69.8447 54.1968 69.8154 54.1992 69.786 54.2009C65.2927 54.2357 60.807 55.3805 56.7989 57.6392L51.7307 60.4976C51.4127 60.676 51.0518 60.7714 50.6859 60.7714H36.387V57.3621H52.366C53.2506 57.3621 53.9673 56.6537 53.9673 55.7794C53.9673 54.9051 53.2506 54.1968 52.366 54.1968H35.9254C34.6196 50.0327 30.687 47 26.051 47H25.336C19.6368 47 15 51.583 15 57.2161V65.5684C15 66.9611 16.0977 68.1025 17.4825 68.1971L17.4749 85.522C17.4749 89.6455 20.8688 93 25.0406 93H26.0787C30.2497 93 33.6436 89.6455 33.6436 85.522V79.976H50.6859C54.4221 79.976 58.1123 79.0096 61.3576 77.1797L66.4265 74.3213C68.627 73.0804 71.3612 73.0812 73.5625 74.3213L78.6307 77.1789C81.876 79.0088 85.5661 79.976 89.3024 79.976H106.356V85.522C106.356 89.6455 109.75 93 113.921 93H114.959C119.131 93 122.525 89.6455 122.525 85.522V68.1971C123.906 68.0984 125 66.9586 125 65.5692V57.2161C125 51.583 120.363 47 114.664 47ZM89.3032 60.7714C88.9373 60.7714 88.5764 60.6768 88.2584 60.4976L83.1902 57.64C83.0207 57.5446 82.8495 57.4534 82.6783 57.3621H103.613V60.7714H89.3032ZM26.0787 89.8346H25.0406C22.6345 89.8346 20.6774 87.9002 20.6774 85.5229L20.6858 68.207H21.4327C23.9664 68.207 26.0284 70.2451 26.0284 72.7494C26.0284 75.7165 27.8478 78.2714 30.4411 79.3829V85.5229C30.4411 87.9002 28.484 89.8346 26.0787 89.8346ZM80.2177 74.43L75.1495 71.5723C71.9688 69.7789 68.0186 69.7798 64.8396 71.5723L59.7706 74.43C57.0078 75.9878 53.8666 76.8106 50.6859 76.8106H33.3398C31.0747 76.8106 29.2309 74.989 29.2309 72.7494C29.2309 68.499 25.7321 65.0417 21.4327 65.0417H18.2025V57.2161C18.2025 53.3283 21.4025 50.1654 25.336 50.1654H26.051C29.9837 50.1654 33.1837 53.3283 33.1837 57.2161V70.5819C33.1837 71.4562 33.9012 72.1646 34.7858 72.1646C35.6703 72.1646 36.387 71.4562 36.387 70.5819V63.9368H50.6859C51.6074 63.9368 52.5163 63.6987 53.3169 63.2474L58.3858 60.389C61.491 58.6379 64.9235 57.6475 68.3987 57.416V66.2229C68.3987 67.0972 69.1154 67.8056 70 67.8056C70.8846 67.8056 71.6013 67.0972 71.6013 66.2229V57.4169C75.0732 57.65 78.5006 58.6404 81.6032 60.3898L86.6714 63.2474C87.472 63.6987 88.3817 63.9368 89.3032 63.9368H103.646C103.795 64.6576 104.44 65.2001 105.214 65.2001C106.099 65.2001 106.815 64.4917 106.815 63.6174V57.2161C106.815 53.3283 110.015 50.1654 113.949 50.1654H114.664C118.597 50.1654 121.797 53.3283 121.797 57.2161V65.0417H118.567C114.267 65.0417 110.769 68.499 110.769 72.7494C110.769 74.9376 109.009 76.7268 106.815 76.8081V71.2148C106.815 70.3405 106.099 69.6321 105.214 69.6321C104.33 69.6321 103.613 70.3405 103.613 71.2148V76.8106H89.3024C86.1217 76.8106 82.9804 75.9878 80.2177 74.43ZM114.959 89.8346H113.921C111.516 89.8346 109.559 87.9002 109.559 85.5229V79.3829C112.152 78.2714 113.972 75.7165 113.972 72.7494C113.972 70.2451 116.034 68.207 118.567 68.207H119.323V85.5229C119.323 87.9002 117.365 89.8346 114.959 89.8346Z" fill="#AAAAAA"/>
  </symbol>
  <symbol id="svg-ipad" viewBox="0 0 140 140">
    <path d="M108.879 90.1989L87.4929 68.9527V37.9068C87.4929 33.5472 83.9224 30 79.5341 30H35.9588C31.5698 30 28 33.5472 28 37.9068V102.093C28 106.453 31.5698 110 35.9588 110H39.3668C40.1499 110 40.7852 109.369 40.7852 108.591C40.7852 107.812 40.1499 107.182 39.3668 107.182H35.9588C33.1345 107.181 30.8369 104.899 30.8369 102.093V101.42H84.656V102.093C84.656 104.898 82.3584 107.181 79.5341 107.181H45.1322C44.3491 107.181 43.7137 107.812 43.7137 108.59C43.7137 109.369 44.3491 109.999 45.1322 109.999H79.5341C83.9224 109.999 87.4929 106.453 87.4929 102.093V92.5028C87.4929 91.7248 86.8576 91.0936 86.0745 91.0936C85.2906 91.0936 84.656 91.7248 84.656 92.5028V98.6018H30.8369V41.3982H84.656V66.1343L69.5983 51.175C69.4173 50.996 69.1913 50.8683 68.9445 50.8059L57.8865 48.0184C57.4011 47.8958 56.8877 48.0367 56.5346 48.3883C56.1807 48.7391 56.0396 49.2492 56.163 49.7306L58.9681 60.7163C59.0309 60.9622 59.1594 61.1868 59.3404 61.3659L98.6211 100.39C100.035 101.795 101.892 102.498 103.75 102.498C105.607 102.498 107.465 101.795 108.879 100.39C111.707 97.5802 111.707 93.0084 108.879 90.1989ZM30.8369 38.5798V37.9068C30.8369 35.1017 33.1345 32.8191 35.9588 32.8191H79.5341C82.3584 32.8191 84.656 35.1009 84.656 37.9068V38.5798H30.8369ZM59.4985 51.3321L67.8681 53.4422L85.0705 70.5328L104.054 89.3916L97.8084 95.5971L61.6218 59.647L59.4985 51.3321ZM106.873 98.3971C105.151 100.108 102.349 100.108 100.627 98.3971L99.8142 97.5897L106.061 91.3842L106.873 92.1916C108.595 93.9024 108.595 96.6862 106.873 98.3971Z" fill="#AAAAAA"/>
  </symbol>
  <symbol id="svg-bicycle" viewBox="0 0 140 140">
    <path d="M104.534 62.9239C99.5906 62.9239 94.9006 64.5041 90.9711 67.4931C90.8374 67.5952 90.7073 67.7016 90.5762 67.8062L85.2518 61.8039L87.0872 57.9137H99.7268C101.279 57.9137 102.542 56.6466 102.542 55.0898V52.8913C102.542 49.315 99.6406 46.4047 96.0757 46.4047H83.2904C81.7378 46.4047 80.4756 47.6717 80.4756 49.2294V55.0898C80.4756 56.6466 81.7378 57.9137 83.2904 57.9137H83.3499L74.2959 77.1055C72.951 77.0761 71.6432 77.3502 70.4534 77.8769L51.6747 56.7054L59.6631 39.7719C60.0968 38.8516 61.033 38.2574 62.0478 38.2574H62.3711V38.7539C62.3711 40.0625 63.4315 41.1263 64.7359 41.1263H74.5373C77.0452 41.1263 79.0859 39.0791 79.0859 36.5631C79.0859 34.0472 77.0452 32 74.5373 32H64.7359C63.4315 32 62.3711 33.0638 62.3711 34.3724V34.8688H62.0478C59.7347 34.8688 57.6001 36.2241 56.6095 38.3223L52.9084 46.1685H50.3591L50.916 44.9715C51.3273 44.0859 51.26 43.0653 50.7367 42.2411C50.2134 41.4169 49.3194 40.9247 48.3452 40.9247H29.488C27.4189 40.9247 25.7352 42.6139 25.7352 44.6896V58.2017C25.7352 60.2774 27.4189 61.9657 29.488 61.9657H40.6301C42.0827 61.9657 43.4182 61.1129 44.0311 59.7913L44.6346 58.494H47.0943L44.3312 64.351C41.8827 63.4299 39.2317 62.9248 36.466 62.9248C24.0782 62.9239 14 73.0344 14 85.462C14 97.8895 24.0782 108 36.466 108C48.8539 108 58.9321 97.8895 58.9321 85.462C58.9321 77.0121 54.2723 69.6346 47.396 65.7772L50.1057 60.0326L67.6498 79.8134C67.0394 80.4335 66.5127 81.1445 66.0963 81.9324H63.2358C61.4744 81.9324 60.0416 83.3698 60.0416 85.1368V89.0192C60.0416 90.7862 61.4744 92.2236 63.2358 92.2236H67.3533C69.0732 94.1541 71.5139 95.249 74.0856 95.249C74.3399 95.249 74.5951 95.2386 74.8503 95.217L83.931 94.4516C87.4726 102.601 95.6041 108 104.534 108C116.922 108 127 97.8895 127 85.462C127 73.0344 116.922 62.9239 104.534 62.9239ZM65.7488 35.3886H74.5373C75.183 35.3886 75.7081 35.9153 75.7081 36.5631C75.7081 37.2101 75.183 37.7376 74.5373 37.7376H65.7488V35.3886ZM41.031 58.3885C40.9585 58.5442 40.8008 58.6445 40.6301 58.6445H29.488C29.244 58.6445 29.0457 58.4456 29.0457 58.2008V44.6887C29.0457 44.4448 29.244 44.2459 29.488 44.2459H47.6003L41.031 58.3885ZM46.177 55.172L48.8168 49.4897H51.3419L48.6616 55.172H46.177ZM55.5543 85.462C55.5543 96.0213 46.9917 104.611 36.466 104.611C25.9404 104.611 17.3778 96.0213 17.3778 85.462C17.3778 74.9035 25.9404 66.3126 36.466 66.3126C38.7153 66.3126 40.8741 66.7078 42.8793 67.4274L34.7142 84.7372C34.315 85.5831 34.6754 86.5932 35.5177 86.9928C36.379 87.3673 37.1281 87.0983 37.767 86.1867L45.9451 68.851C51.6807 72.1583 55.5543 78.363 55.5543 85.462ZM96.0067 79.0272L86.8674 78.209C87.7123 76.1463 88.902 74.2747 90.3598 72.6608L96.0067 79.0272ZM83.8534 49.7941H96.0757C97.7784 49.7941 99.1638 51.1831 99.1638 52.8913V54.5251H83.8534V49.7941ZM83.6818 65.132L88.0976 70.1094C86.0182 72.3555 84.3974 75.0176 83.3706 77.896L77.8918 77.4056L83.6818 65.132ZM71.2095 88.835H63.4185V85.321H71.2095V88.835ZM104.534 104.611C97.3361 104.611 90.7461 100.484 87.52 94.1489L95.5455 93.4725C96.4749 93.3947 97.1654 92.5756 97.0878 91.6424C97.0094 90.7101 96.1912 90.019 95.2627 90.096L74.5675 91.8396C74.0494 91.8837 73.5364 91.8535 73.0398 91.7601C73.9657 91.1979 74.5882 90.1816 74.5882 89.0192V88.656H78.9229C79.8557 88.656 80.6118 87.8975 80.6118 86.9617C80.6118 86.0259 79.8557 85.2674 78.9229 85.2674H74.5882V85.1368C74.5882 83.3698 73.1545 81.9324 71.394 81.9324H70.3267C71.469 80.9153 73.0053 80.3695 74.5977 80.5131L99.2854 82.7237L103.346 87.3016C103.68 87.6778 104.143 87.8698 104.609 87.8698C105.008 87.8698 105.409 87.7288 105.731 87.4417C106.427 86.819 106.49 85.7482 105.869 85.0494L104.197 83.1631L105.208 83.2539C106.769 83.3932 107.945 84.6844 107.945 86.2559C107.945 87.8101 106.737 89.1299 105.193 89.2597L102.913 89.4517C101.983 89.5304 101.293 90.3494 101.372 91.2818C101.446 92.1666 102.184 92.8342 103.052 92.8342C103.1 92.8342 103.148 92.8325 103.196 92.8282L105.475 92.6362C108.754 92.3603 111.323 89.5572 111.323 86.2559C111.323 82.9166 108.823 80.1749 105.508 79.8783L100.918 79.4675L92.841 70.3602C96.1197 67.8097 100.21 66.3126 104.534 66.3126C115.06 66.3126 123.622 74.9035 123.622 85.462C123.622 96.0213 115.06 104.611 104.534 104.611Z" fill="#AAAAAA"/>
  </symbol>
  <symbol id="svg-tire" viewBox="0 0 140 140">
    <path d="M111 69.6H105.021L108.861 65.7108L106.739 63.6142L100.779 69.6H98.6214L102.461 65.7108L100.289 63.5642L96.4 67.3786V65.2214L102.411 59.2608L100.264 57.1392L96.4 60.9786V55H93.4V60.9786L89.6106 57.1392L87.4644 59.2608L93.4 65.2214V67.3786L89.6106 63.5392L87.5144 65.7108L91.3786 69.6H89.2214L83.2606 63.5892L81.1394 65.7358L84.9786 69.6H79V72.6H84.9786L81.1394 76.3892L83.2606 78.5358L89.2214 72.6H91.3786L87.5394 76.3892L89.6106 78.4858L93.4 74.6214V76.7786L87.4894 82.7392L89.5856 84.8608L93.4 81.0214V87H96.4V81.0214L100.289 84.8608L102.386 82.7392L96.4 76.7786V74.6214L100.289 78.4608L102.436 76.3892L98.6214 72.6H100.779L106.739 78.5108L108.861 76.4142L105.021 72.6H111V69.6Z" fill="#AAAAAA"/>
    <path d="M60.6764 30H39.658C34.8817 30 31.0098 33.872 31.0098 38.6482V101.703C31.0098 106.48 34.8817 110.352 39.658 110.352H60.6764C65.4526 110.352 69.3246 106.48 69.3246 101.703V38.6482C69.3246 33.872 65.4526 30 60.6764 30ZM66.0404 101.703C66.0404 104.666 63.6389 107.067 60.6764 107.067H39.658C36.6955 107.067 34.2939 104.666 34.2939 101.703V38.6482C34.2939 35.6857 36.6955 33.2841 39.658 33.2841H60.6764C63.6389 33.2841 66.0404 35.6857 66.0404 38.6482V101.703Z" fill="#AAAAAA"/>
    <path d="M41.2997 101.236C41.2997 100.329 40.5645 99.5939 39.6576 99.5939C38.7507 99.5939 38.0155 100.329 38.0155 101.236V101.455C38.0155 102.362 38.7507 103.097 39.6576 103.097C40.5645 103.097 41.2997 102.362 41.2997 101.455V101.236Z" fill="#AAAAAA"/>
    <path d="M59.0339 43.7933V48.5866L55.3119 44.8646V35.0357H52.0278V37.8585L48.3058 41.5805V35.0357H45.0217V48.5866L41.2997 44.8646V35.0357H38.0155V96.3393H41.2997V91.546L45.0217 95.268V105.097H48.3058V102.274L52.0278 98.5522V105.097H55.3119V91.546L59.0339 95.268V105.097H62.3181V43.7933H59.0339ZM45.0217 90.6234L41.2997 86.9014V77.5338L45.0217 81.2558V90.6234ZM45.0217 76.6111L41.2997 72.8891V63.5215L45.0217 67.2435V76.6111ZM45.0217 62.5989L41.2997 58.8769V49.5092L45.0217 53.2312V62.5989ZM52.0278 93.9075L48.3058 97.6295V88.2619L52.0278 84.5399V93.9075ZM52.0278 79.8953L48.3058 83.6173V74.2496L52.0278 70.5276V79.8953ZM52.0278 65.883L48.3058 69.605V60.2374L52.0278 56.5154V65.883ZM52.0278 51.8707L48.3058 55.5927V46.2251L52.0278 42.5031V51.8707ZM59.0339 90.6234L55.3119 86.9014V77.5338L59.0339 81.2558V90.6234ZM59.0339 76.6111L55.3119 72.8891V63.5215L59.0339 67.2435V76.6111ZM59.0339 62.5989L55.3119 58.8769V49.5092L59.0339 53.2312V62.5989Z" fill="#AAAAAA"/>
    <path d="M62.319 38.6777C62.319 37.7708 61.5838 37.0356 60.6769 37.0356C59.77 37.0356 59.0349 37.7708 59.0349 38.6777V38.8966C59.0349 39.8035 59.77 40.5387 60.6769 40.5387C61.5838 40.5387 62.319 39.8035 62.319 38.8966V38.6777Z" fill="#AAAAAA"/>
  </symbol>
  <symbol id="svg-sound" viewBox="0 0 140 140">
    <path d="M97.483 69.9764C97.483 79.1034 94.4475 87.853 89.1549 93.9822C88.7047 94.5036 88.0693 94.771 87.4303 94.771C86.9034 94.771 86.3742 94.5895 85.9442 94.2185C84.9921 93.3979 84.8861 91.9616 85.7074 91.0106C90.2975 85.6953 92.9298 78.0285 92.9298 69.9764C92.9298 61.6204 90.1311 53.7662 85.2508 48.4276C84.4029 47.5001 84.4682 46.0613 85.3965 45.2141C86.3251 44.3668 87.7655 44.4327 88.6129 45.3597C94.25 51.5265 97.483 60.4988 97.483 69.9764ZM82.0692 69.9999C82.0692 77.6279 76.4295 83.9643 69.0971 85.0655V106.725C69.0971 107.982 68.0779 109 66.8205 109H62.3859C61.7194 109 61.0862 108.708 60.6537 108.201L43.756 88.4032H36.5419C30.729 88.403 26 83.6785 26 77.8713V62.1287C26 56.3215 30.729 51.597 36.5419 51.597H43.7555L60.6537 31.7986C61.0862 31.2919 61.7194 31 62.3859 31H66.8205C68.0779 31 69.0971 32.0182 69.0971 33.2745V54.9345C76.4295 56.0354 82.0692 62.3718 82.0692 69.9999ZM42.5299 56.1461H36.5419C33.2398 56.1461 30.5532 58.8298 30.5532 62.1287V77.8713C30.5532 81.1702 33.2398 83.8541 36.5419 83.8541H42.5299V56.1461ZM64.5439 35.5488H63.4364L47.0831 54.7091V85.2901L63.4364 104.451H64.5439V35.5488ZM77.5159 69.9999C77.5159 64.888 73.9048 60.603 69.0971 59.5577V80.4423C73.9045 79.3968 77.5159 75.1118 77.5159 69.9999ZM100.302 32.0604C99.4535 31.1332 98.0142 31.0677 97.0854 31.9151C96.157 32.7623 96.092 34.201 96.9399 35.1286C104.888 43.8221 109.447 56.5833 109.447 70.1404C109.447 83.2008 105.161 95.6552 97.6892 104.31C96.8681 105.261 96.9741 106.698 97.9264 107.518C98.3565 107.889 98.8856 108.07 99.4123 108.07C100.051 108.07 100.687 107.803 101.137 107.281C109.311 97.8125 114 84.2752 114 70.1404C114 55.4617 109.007 41.5822 100.302 32.0604Z" fill="#AAAAAA"/>
  </symbol>
  <symbol id="svg-gps" viewBox="0 0 140 140">
    <path d="M33 30C30.2386 30 28 32.2386 28 35V105C28 107.761 30.2386 110 33 110C49 110 65 110 81 110C83.7614 110 86 107.761 86 105V35.0001C86 32.2387 83.7613 30.0001 80.9999 30.0001C64.9999 30.0004 49 30.0001 33 30ZM31.1349 94.314V73.922H40.0598L36.2773 80.1673C35.9292 80.7435 35.9857 81.4769 36.419 81.9921C36.8522 82.5055 37.5689 82.6868 38.1905 82.4409L46.8104 79.0525V94.314H31.1349ZM82.8651 78.628H74.0272L65.0575 71.1485C64.7758 70.9133 64.4207 70.7849 64.0538 70.7849H53.2282L49.9453 65.3645V59.804H82.8651V78.628ZM64.0538 48.824C61.4606 48.824 59.351 46.7129 59.351 44.118C59.351 41.5231 61.4606 39.412 64.0538 39.412C66.6469 39.412 68.7566 41.5231 68.7566 44.118C68.7566 46.7129 66.6469 48.824 64.0538 48.824ZM62.4859 36.4329C58.9132 37.1627 56.216 40.3302 56.216 44.118C56.216 47.9058 58.9132 51.0733 62.4859 51.803V56.667H49.9453V48.824C49.9453 48.5565 49.8771 48.2926 49.7462 48.0592L41.4241 33.1379H62.4859V36.4329ZM47.5944 67.5366L53.8247 77.8228L48.1666 75.5995C47.9827 75.5259 47.7881 75.4909 47.5944 75.4909C47.3997 75.4909 47.2051 75.5268 47.0212 75.5995L41.3631 77.8228L47.5944 67.5366ZM49.9453 79.6683L56.9982 82.4409C57.1839 82.5145 57.3776 82.5495 57.5705 82.5495C58.0234 82.5495 58.4648 82.3529 58.7697 81.9921C59.203 81.4769 59.2595 80.7426 58.9114 80.1673L55.1289 73.922H63.486L72.4548 81.4015C72.7374 81.6366 73.0917 81.765 73.4594 81.765H82.8651V94.314H49.9453V79.6683ZM82.8651 56.667H65.6217V51.803C69.1943 51.0733 71.8915 47.9058 71.8915 44.118C71.8915 40.3302 69.1943 37.1627 65.6217 36.4329V33.1379H79.8651C81.5219 33.1379 82.8651 34.4811 82.8651 36.1379V56.667ZM37.8335 33.1379L46.8104 49.2324V63.1843C46.5871 63.3019 46.3906 63.4697 46.2534 63.6968L41.9605 70.7849H31.1349V36.1379C31.1349 34.4811 32.4781 33.1379 34.1349 33.1379H37.8335ZM82.8651 103.863C82.8651 105.52 81.5219 106.863 79.8651 106.863H34.1349C32.4781 106.863 31.1349 105.52 31.1349 103.863V97.451H82.8651V103.863Z" fill="#AAAAAA"/>
    <path d="M67.2615 43.9326C67.2615 45.1736 65.8632 46.1798 64.1385 46.1798C62.4137 46.1798 61.0154 45.1736 61.0154 43.9326C61.0154 42.6916 62.4137 41.6854 64.1385 41.6854C65.8632 41.6854 67.2615 42.6916 67.2615 43.9326Z" fill="#AAAAAA"/>
    <path d="M59.2308 102.36C59.2308 104.098 58.0321 105.506 56.5538 105.506C55.0756 105.506 53.8769 104.098 53.8769 102.36C53.8769 100.622 55.0756 99.2135 56.5538 99.2135C58.0321 99.2135 59.2308 100.622 59.2308 102.36Z" fill="#AAAAAA"/>
    <path d="M87.7726 22C86.793 22 86 22.7941 86 23.7728C86 24.7515 86.793 25.5446 87.7726 25.5446C89.2521 25.5446 90.4558 26.7485 90.4558 28.2272C90.4558 29.2059 91.2478 30 92.2274 30C93.207 30 94 29.2059 94 28.2272C93.999 24.7931 91.2062 22 87.7726 22Z" fill="#AAAAAA"/>
    <path d="M87.6912 16C86.7566 16 86 16.8148 86 17.8212C86 18.8267 86.7566 19.6414 87.6912 19.6414C92.0622 19.6414 95.6187 23.4715 95.6187 28.1788C95.6187 29.1842 96.3743 30 97.3088 30C98.2434 30 99 29.1842 99 28.1788C99 21.4627 93.9275 16 87.6912 16Z" fill="#AAAAAA"/>
    <path d="M87.7432 11C86.7799 11 86 11.7799 86 12.7432C86 13.7056 86.7799 14.4855 87.7432 14.4855C95.3364 14.4855 101.514 20.6645 101.514 28.2578C101.514 29.2201 102.293 30 103.257 30C104.22 30 105 29.2201 105 28.2578C105 18.7418 97.2592 11 87.7432 11Z" fill="#AAAAAA"/>
  </symbol>

</svg>