<svg style="width:0;height:0" xmlns="http://www.w3.org/2000/svg">
  <symbol id="svg-statistic" viewBox="0 0 24 24">
    <path d="M3.5625 11.25C4.12976 11.25 4.64319 11.0224 5.02258 10.6569L7.10394 11.6975C7.09351 11.7823 7.07812 11.8656 7.07812 11.9531C7.07812 13.1162 8.02441 14.0625 9.1875 14.0625C10.3506 14.0625 11.2969 13.1162 11.2969 11.9531C11.2969 11.6285 11.217 11.3245 11.0854 11.0495L13.9089 8.22601C14.1839 8.35767 14.4879 8.4375 14.8125 8.4375C15.9756 8.4375 16.9219 7.49121 16.9219 6.32812C16.9219 6.10913 16.8788 5.90204 16.8166 5.70337L19.2698 3.86389C19.6046 4.08746 20.0057 4.21875 20.4375 4.21875C21.6006 4.21875 22.5469 3.27246 22.5469 2.10938C22.5469 0.946289 21.6006 0 20.4375 0C19.2744 0 18.3281 0.946289 18.3281 2.10938C18.3281 2.32837 18.3712 2.53546 18.4334 2.73413L15.9802 4.57361C15.6454 4.35004 15.2443 4.21875 14.8125 4.21875C13.6494 4.21875 12.7031 5.16504 12.7031 6.32812C12.7031 6.65277 12.783 6.95673 12.9146 7.23175L10.0911 10.0552C9.8161 9.92358 9.51215 9.84375 9.1875 9.84375C8.62024 9.84375 8.10681 10.0714 7.72742 10.4368L5.64606 9.39624C5.65649 9.31146 5.67188 9.22815 5.67188 9.14062C5.67188 7.97754 4.72559 7.03125 3.5625 7.03125C2.39941 7.03125 1.45312 7.97754 1.45312 9.14062C1.45312 10.3037 2.39941 11.25 3.5625 11.25Z" fill="#AAAAAA"/>
    <path d="M23.2969 22.5938H22.5469V7.73438C22.5469 7.34583 22.2323 7.03125 21.8438 7.03125H19.0312C18.6427 7.03125 18.3281 7.34583 18.3281 7.73438V22.5938H16.9219V11.9531C16.9219 11.5646 16.6073 11.25 16.2188 11.25H13.4062C13.0177 11.25 12.7031 11.5646 12.7031 11.9531V22.5938H11.2969V17.5781C11.2969 17.1896 10.9823 16.875 10.5938 16.875H7.78125C7.3927 16.875 7.07812 17.1896 7.07812 17.5781V22.5938H5.67188V14.7656C5.67188 14.3771 5.3573 14.0625 4.96875 14.0625H2.15625C1.7677 14.0625 1.45312 14.3771 1.45312 14.7656V22.5938H0.703125C0.314575 22.5938 0 22.9083 0 23.2969C0 23.6854 0.314575 24 0.703125 24H23.2969C23.6854 24 24 23.6854 24 23.2969C24 22.9083 23.6854 22.5938 23.2969 22.5938Z" fill="#AAAAAA"/>
  </symbol>
  <symbol id="svg-video-btn" viewBox="0 0 80 80">
    <path opacity="0.7" fill-rule="evenodd" clip-rule="evenodd" d="M40 80C62.0914 80 80 62.0914 80 40C80 17.9086 62.0914 0 40 0C17.9086 0 0 17.9086 0 40C0 62.0914 17.9086 80 40 80ZM29.5 21.753V39.4307V57.1083L57.1777 39.4307L29.5 21.753Z" fill="#ffffff"/>
  </symbol>
  <symbol id="svg-file-pdf" viewBox="0 0 30 31">
    <g clip-path="url(#clip0)">
      <path d="M21.5625 15.2471H17.8125C17.2947 15.2471 16.875 15.6668 16.875 16.1846V23.6846C16.875 24.2024 17.2947 24.6221 17.8125 24.6221H21.5625C22.598 24.6221 23.4375 23.7826 23.4375 22.7471V17.1221C23.4375 16.0865 22.598 15.2471 21.5625 15.2471ZM21.5625 22.7471H18.75V17.1221H21.5625V22.7471Z" fill="#AAAAAA"/>
      <path d="M30 17.1221V15.2471H25.3125C24.7947 15.2471 24.375 15.6668 24.375 16.1846V24.6221H26.25V20.8721H30V18.9971H26.25V17.1221H30Z" fill="#AAAAAA"/>
      <path d="M1.875 27.4346V3.05959C1.875 2.54179 2.29471 2.12209 2.8125 2.12209H16.875V5.87209C16.875 6.90761 17.7145 7.74709 18.75 7.74709H22.5V10.5596H24.375V6.80959C24.3765 6.56039 24.2786 6.32085 24.1031 6.14396L18.4781 0.51896C18.3012 0.343472 18.0617 0.245679 17.8125 0.247085H2.8125C1.25918 0.247085 0 1.50632 0 3.05959V27.4346C0 28.9879 1.25918 30.2471 2.8125 30.2471H9.375V28.3721H2.8125C2.29477 28.3721 1.875 27.9524 1.875 27.4346Z" fill="#AAAAAA"/>
      <path d="M14.0625 15.2471H10.3125C9.79471 15.2471 9.375 15.6668 9.375 16.1846V24.6221H11.25V21.8096H14.0625C15.098 21.8096 15.9375 20.9701 15.9375 19.9346V17.1221C15.9375 16.0865 15.098 15.2471 14.0625 15.2471ZM14.0625 19.9346H11.25V17.1221H14.0625V19.9346Z" fill="#AAAAAA"/>
    </g>
    <defs>
      <clipPath id="clip0">
        <rect width="30" height="30" fill="white" transform="translate(0 0.24707)"/>
      </clipPath>
    </defs>
  </symbol>
</svg>