<svg width="68" height="26" viewBox="0 0 68 26" fill="none" xmlns="http://www.w3.org/2000/svg">
<path fill-rule="evenodd" clip-rule="evenodd" d="M48.9407 20.4243C48.9407 17.3602 51.4539 14.8763 54.554 14.8763C57.654 14.8763 60.1672 17.3602 60.1672 20.4243C60.1672 20.9093 60.1042 21.3798 59.9859 21.8282C59.7121 22.8659 59.142 23.7853 58.3702 24.4928C57.3687 25.4109 56.0277 25.9722 54.554 25.9722C53.0802 25.9722 51.7392 25.4109 50.7377 24.4928C49.7919 23.6257 49.1489 22.4405 48.9831 21.1092C48.9551 20.8848 48.9407 20.6562 48.9407 20.4243ZM54.554 24.1229C56.6207 24.1229 58.2961 22.467 58.2961 20.4243C58.2961 18.3816 56.6207 16.7257 54.554 16.7257C52.4872 16.7257 50.8118 18.3816 50.8118 20.4243C50.8118 22.467 52.4872 24.1229 54.554 24.1229Z" fill="#D7AD48"/>
<path fill-rule="evenodd" clip-rule="evenodd" d="M48.9407 20.4243C48.9407 17.3602 51.4539 14.8763 54.554 14.8763C57.654 14.8763 60.1672 17.3602 60.1672 20.4243C60.1672 20.9093 60.1042 21.3798 59.9859 21.8282C59.7121 22.8659 59.142 23.7853 58.3702 24.4928C57.3687 25.4109 56.0277 25.9722 54.554 25.9722C53.0802 25.9722 51.7392 25.4109 50.7377 24.4928C49.7919 23.6257 49.1489 22.4405 48.9831 21.1092C48.9551 20.8848 48.9407 20.6562 48.9407 20.4243ZM54.554 24.1229C56.6207 24.1229 58.2961 22.467 58.2961 20.4243C58.2961 18.3816 56.6207 16.7257 54.554 16.7257C52.4872 16.7257 50.8118 18.3816 50.8118 20.4243C50.8118 22.467 52.4872 24.1229 54.554 24.1229Z" fill="url(#paint0_linear)"/>
<path fill-rule="evenodd" clip-rule="evenodd" d="M17.8809 20.4243C17.8809 17.3602 15.3678 14.8763 12.2677 14.8763C9.16756 14.8763 6.65443 17.3602 6.65443 20.4243C6.65443 20.6092 6.66359 20.792 6.68147 20.9722C6.95988 23.7791 9.35464 25.9722 12.2677 25.9722C15.1331 25.9722 17.4971 23.8501 17.8385 21.1092C17.8665 20.8848 17.8809 20.6562 17.8809 20.4243ZM8.52551 20.4243C8.52551 18.3816 10.2009 16.7257 12.2677 16.7257C14.3344 16.7257 16.0098 18.3816 16.0098 20.4243C16.0098 22.467 14.3344 24.1229 12.2677 24.1229C10.2009 24.1229 8.52551 22.467 8.52551 20.4243Z" fill="#D7AD48"/>
<path fill-rule="evenodd" clip-rule="evenodd" d="M17.8809 20.4243C17.8809 17.3602 15.3678 14.8763 12.2677 14.8763C9.16756 14.8763 6.65443 17.3602 6.65443 20.4243C6.65443 20.6092 6.66359 20.792 6.68147 20.9722C6.95988 23.7791 9.35464 25.9722 12.2677 25.9722C15.1331 25.9722 17.4971 23.8501 17.8385 21.1092C17.8665 20.8848 17.8809 20.6562 17.8809 20.4243ZM8.52551 20.4243C8.52551 18.3816 10.2009 16.7257 12.2677 16.7257C14.3344 16.7257 16.0098 18.3816 16.0098 20.4243C16.0098 22.467 14.3344 24.1229 12.2677 24.1229C10.2009 24.1229 8.52551 22.467 8.52551 20.4243Z" fill="url(#paint1_linear)"/>
<path fill-rule="evenodd" clip-rule="evenodd" d="M6.65443 20.4243C6.65443 17.3602 9.16756 14.8763 12.2677 14.8763C15.3678 14.8763 17.8809 17.3602 17.8809 20.4243C17.8809 20.6562 17.8665 20.8848 17.8385 21.1092H48.9831C48.9551 20.8848 48.9407 20.6562 48.9407 20.4243C48.9407 17.3602 51.4539 14.8763 54.554 14.8763C57.654 14.8763 60.1672 17.3602 60.1672 20.4243C60.1672 20.9093 60.1042 21.3798 59.9859 21.8282L67.5841 20.4243L68 17.5476L67.5841 15.6298L66.8909 15.0818V12.2736L65.5 11.4722L58.5 10.4722L57.3252 8.98593L64.0489 9.73935L62.7319 8.78045L56.2161 7.68456L49.2151 7.2736L38.6789 1.93113L34.7278 0.972229H28.7666H16.9827L10.1896 1.31469L6.65443 1.65716L5.82263 2.41059L6.65443 3.57497L1.24771 7.68456L1.10907 8.2325H6.23853L6.44648 8.64346L2.842 9.53387L0.762487 10.4243L0.277268 13.2325L0.623853 14.3284L0 15.0818V17.6161L0.277268 18.575L1.24771 19.9448L5.61468 20.9722H6.68147C6.66359 20.792 6.65443 20.6092 6.65443 20.4243ZM63.5637 12.5887C63.2171 12.5887 63.2171 12.9311 63.2171 12.9311V16.2188L63.5637 16.5613H64.2569C64.5341 16.5613 65.158 15.6024 65.158 15.6024V13.4791C65.0425 13.1823 64.7005 12.5887 64.2569 12.5887H63.5637ZM35.7676 2.13661L41.6595 5.69826L41.0357 6.10922L40.7584 6.65716V7.95853L30.2536 7.65486L27.0134 7.5612L16.9541 7.2704L14.6988 7.20521L14.6952 7.20511L11.16 6.38319L11.7146 3.09552L12.5464 2.41059L35.7676 2.13661Z" fill="#D7AD48"/>
<path fill-rule="evenodd" clip-rule="evenodd" d="M6.65443 20.4243C6.65443 17.3602 9.16756 14.8763 12.2677 14.8763C15.3678 14.8763 17.8809 17.3602 17.8809 20.4243C17.8809 20.6562 17.8665 20.8848 17.8385 21.1092H48.9831C48.9551 20.8848 48.9407 20.6562 48.9407 20.4243C48.9407 17.3602 51.4539 14.8763 54.554 14.8763C57.654 14.8763 60.1672 17.3602 60.1672 20.4243C60.1672 20.9093 60.1042 21.3798 59.9859 21.8282L67.5841 20.4243L68 17.5476L67.5841 15.6298L66.8909 15.0818V12.2736L65.5 11.4722L58.5 10.4722L57.3252 8.98593L64.0489 9.73935L62.7319 8.78045L56.2161 7.68456L49.2151 7.2736L38.6789 1.93113L34.7278 0.972229H28.7666H16.9827L10.1896 1.31469L6.65443 1.65716L5.82263 2.41059L6.65443 3.57497L1.24771 7.68456L1.10907 8.2325H6.23853L6.44648 8.64346L2.842 9.53387L0.762487 10.4243L0.277268 13.2325L0.623853 14.3284L0 15.0818V17.6161L0.277268 18.575L1.24771 19.9448L5.61468 20.9722H6.68147C6.66359 20.792 6.65443 20.6092 6.65443 20.4243ZM63.5637 12.5887C63.2171 12.5887 63.2171 12.9311 63.2171 12.9311V16.2188L63.5637 16.5613H64.2569C64.5341 16.5613 65.158 15.6024 65.158 15.6024V13.4791C65.0425 13.1823 64.7005 12.5887 64.2569 12.5887H63.5637ZM35.7676 2.13661L41.6595 5.69826L41.0357 6.10922L40.7584 6.65716V7.95853L30.2536 7.65486L27.0134 7.5612L16.9541 7.2704L14.6988 7.20521L14.6952 7.20511L11.16 6.38319L11.7146 3.09552L12.5464 2.41059L35.7676 2.13661Z" fill="url(#paint2_linear)"/>
<path d="M14.6988 7.20521L16.9541 7.2704L16.844 5.15031L17.6758 2.82154H16.5668L14.6988 7.20521Z" fill="#D7AD48"/>
<path d="M14.6988 7.20521L16.9541 7.2704L16.844 5.15031L17.6758 2.82154H16.5668L14.6988 7.20521Z" fill="url(#paint3_linear)"/>
<path d="M27.0134 7.5612L30.2536 7.65486L29.2518 2.82154H26.895L27.0134 7.5612Z" fill="#D7AD48"/>
<path d="M27.0134 7.5612L30.2536 7.65486L29.2518 2.82154H26.895L27.0134 7.5612Z" fill="url(#paint4_linear)"/>
<defs>
<linearGradient id="paint0_linear" x1="34" y1="25.9722" x2="34" y2="0.972229" gradientUnits="userSpaceOnUse">
<stop stop-color="#949DA7"/>
<stop offset="1" stop-color="#C4CCD3"/>
</linearGradient>
<linearGradient id="paint1_linear" x1="34" y1="25.9722" x2="34" y2="0.972229" gradientUnits="userSpaceOnUse">
<stop stop-color="#949DA7"/>
<stop offset="1" stop-color="#C4CCD3"/>
</linearGradient>
<linearGradient id="paint2_linear" x1="34" y1="25.9722" x2="34" y2="0.972229" gradientUnits="userSpaceOnUse">
<stop stop-color="#949DA7"/>
<stop offset="1" stop-color="#C4CCD3"/>
</linearGradient>
<linearGradient id="paint3_linear" x1="34" y1="25.9722" x2="34" y2="0.972229" gradientUnits="userSpaceOnUse">
<stop stop-color="#949DA7"/>
<stop offset="1" stop-color="#C4CCD3"/>
</linearGradient>
<linearGradient id="paint4_linear" x1="34" y1="25.9722" x2="34" y2="0.972229" gradientUnits="userSpaceOnUse">
<stop stop-color="#949DA7"/>
<stop offset="1" stop-color="#C4CCD3"/>
</linearGradient>
</defs>
</svg>
