<svg width="49" height="49" viewBox="0 0 49 49" fill="none" xmlns="http://www.w3.org/2000/svg">
<path fill-rule="evenodd" clip-rule="evenodd" d="M17.1323 0.027832H31.8677C45.3158 0.027832 48.5 3.21202 48.5 16.6601V31.3955C48.5 44.8436 45.3158 48.0278 31.8677 48.0278H17.1323C3.68419 48.0278 0.5 44.8436 0.5 31.3955V16.6601C0.5 3.21202 3.68419 0.027832 17.1323 0.027832Z" fill="#1877F2"/>
<path d="M33.8423 30.9375L34.9062 24H28.25V19.5C28.25 17.6016 29.1782 15.75 32.1595 15.75H35.1875V9.84375C35.1875 9.84375 32.4407 9.375 29.8156 9.375C24.3314 9.375 20.7501 12.6984 20.7501 18.7125V24H14.6562V30.9375H20.7501V47.7094C21.9735 47.9016 23.225 48 24.5 48C25.775 48 27.0266 47.9016 28.25 47.7094V30.9375H33.8423Z" fill="white"/>
</svg>
