<svg width="28" height="39" viewBox="0 0 28 39" fill="none" xmlns="http://www.w3.org/2000/svg">
<path d="M14.0004 0C6.28111 0 0 6.15489 0 13.7183C0 17.1272 1.29905 20.4006 3.65717 22.9392C3.68384 22.9677 3.708 22.9971 3.728 23.029L3.84216 23.14C3.99131 23.296 4.1288 23.4364 4.27212 23.572C6.28277 25.6132 11.9664 32.8157 14.0004 39C16.0327 32.8157 21.7131 25.6165 23.7095 23.5891C23.8695 23.4356 24.0087 23.2943 24.1453 23.1523L24.2728 23.0282C24.2937 22.9963 24.3162 22.9669 24.3428 22.9383C26.7009 20.3998 28 17.1256 28 13.7174C28 6.15489 21.7197 0 14.0004 0ZM14.0004 21.093C9.78329 21.093 6.35193 17.7322 6.35193 13.5999C6.35193 9.46749 9.78246 6.10671 14.0004 6.10671C18.2167 6.10671 21.6472 9.46749 21.6472 13.5999C21.6472 17.7322 18.2167 21.093 14.0004 21.093Z" fill="#00A3FF"/>
</svg>
