<svg width="236" height="73" viewBox="0 0 236 73" fill="none" xmlns="http://www.w3.org/2000/svg">
<path d="M0 24.4457V66.2896L10.7362 73V58.2514H10.7914V44.4866L34.1359 58.5816L57.9207 44.4866V72.5914L68.2718 66.7303V24.4457L33.9157 45.1475L0 24.4457Z" fill="white"/>
<path d="M0 12.7733V0L34.3561 20.7018L68.2718 0V13.6543L34.3561 33.9157L0 12.7733Z" fill="white"/>
<path d="M104.395 37.1821H98.7129L89.8073 13.655H96.1868L101.637 30.3364H101.77L107.186 13.655H113.467L104.395 37.1821Z" fill="white"/>
<path d="M139.918 25.3188C139.918 27.1797 139.597 28.8797 138.955 30.4201C138.312 31.9595 137.421 33.278 136.28 34.3745C135.139 35.471 133.782 36.3181 132.209 36.9158C130.636 37.5142 128.93 37.8131 127.092 37.8131C125.253 37.8131 123.553 37.5142 121.991 36.9158C120.429 36.3181 119.078 35.471 117.937 34.3745C116.796 33.278 115.903 31.9595 115.261 30.4201C114.619 28.8797 114.298 27.1797 114.298 25.3188C114.298 23.4362 114.619 21.7351 115.261 20.2174C115.904 18.7008 116.796 17.4097 117.937 16.3468C119.078 15.2828 120.429 14.4631 121.991 13.8874C123.553 13.3118 125.253 13.0237 127.092 13.0237C128.93 13.0237 130.636 13.3118 132.209 13.8874C133.782 14.4635 135.139 15.2828 136.28 16.3468C137.421 17.4097 138.312 18.7008 138.955 20.2174C139.597 21.7355 139.918 23.4365 139.918 25.3188ZM133.837 25.3188C133.837 24.3003 133.671 23.3474 133.339 22.4609C133.006 21.5752 132.546 20.8162 131.959 20.1849C131.372 19.553 130.663 19.0549 129.833 18.6889C129.002 18.324 128.087 18.1406 127.091 18.1406C126.094 18.1406 125.185 18.324 124.366 18.6889C123.546 19.0549 122.837 19.5526 122.239 20.1849C121.641 20.8162 121.181 21.5752 120.86 22.4609C120.538 23.3474 120.379 24.3003 120.379 25.3188C120.379 26.3817 120.544 27.362 120.877 28.2593C121.209 29.1565 121.669 29.9268 122.256 30.5688C122.842 31.2117 123.546 31.7159 124.366 32.0804C125.185 32.4464 126.094 32.6287 127.091 32.6287C128.087 32.6287 128.996 32.4464 129.816 32.0804C130.635 31.7155 131.344 31.2117 131.942 30.5688C132.541 29.9268 133.006 29.1569 133.339 28.2593C133.671 27.3624 133.837 26.3821 133.837 25.3188Z" fill="white"/>
<path d="M156.462 19.7691C155.974 19.1498 155.336 18.6568 154.55 18.2908C153.764 17.9248 153.005 17.7425 152.274 17.7425C151.898 17.7425 151.515 17.7761 151.127 17.8421C150.74 17.9082 150.391 18.0363 150.081 18.2236C149.77 18.4131 149.51 18.6564 149.3 18.9552C149.089 19.2541 148.985 19.6367 148.985 20.1012C148.985 20.5008 149.068 20.8328 149.234 21.0981C149.4 21.3644 149.643 21.5972 149.965 21.7961C150.285 21.9954 150.668 22.1776 151.112 22.3444C151.555 22.51 152.053 22.6826 152.607 22.8591C153.404 23.1254 154.235 23.4192 155.099 23.7397C155.962 24.0613 156.75 24.4872 157.458 25.0196C158.167 25.5512 158.754 26.2099 159.22 26.9967C159.685 27.7828 159.917 28.7628 159.917 29.9372C159.917 31.2882 159.669 32.4579 159.17 33.4429C158.671 34.429 158.001 35.2425 157.16 35.8857C156.318 36.5285 155.353 37.0038 154.269 37.3146C153.183 37.6243 152.064 37.7802 150.912 37.7802C149.228 37.7802 147.6 37.4864 146.027 36.8995C144.453 36.3127 143.147 35.4757 142.106 34.39L145.828 30.6024C146.404 31.3113 147.163 31.9043 148.104 32.3804C149.046 32.8568 149.982 33.0943 150.912 33.0943C151.333 33.0943 151.743 33.0499 152.142 32.9611C152.541 32.8734 152.889 32.7294 153.189 32.5291C153.488 32.3298 153.725 32.0645 153.903 31.7321C154.08 31.3997 154.169 31.0005 154.169 30.5349C154.169 30.0921 154.058 29.7163 153.837 29.4059C153.615 29.0952 153.299 28.8133 152.889 28.5578C152.479 28.3033 151.97 28.0716 151.361 27.8604C150.751 27.6504 150.059 27.4226 149.284 27.179C148.53 26.9354 147.794 26.6474 147.074 26.3153C146.354 25.9829 145.712 25.557 145.147 25.0354C144.582 24.5157 144.127 23.8848 143.784 23.142C143.441 22.3996 143.269 21.4973 143.269 20.4333C143.269 19.1267 143.534 18.0074 144.067 17.0773C144.599 16.1465 145.295 15.382 146.16 14.7847C147.024 14.1863 147.998 13.7492 149.084 13.472C150.169 13.1948 151.266 13.0559 152.374 13.0559C153.703 13.0559 155.06 13.3006 156.445 13.7875C157.829 14.2744 159.043 14.9944 160.084 15.9473L156.462 19.7691Z" fill="white"/>
<path d="M175.836 18.5066V37.1818H170.154V18.5066H163.508V13.655H182.483V18.5066H175.836Z" fill="white"/>
<path d="M210.045 25.3188C210.045 27.1797 209.723 28.8797 209.082 30.4201C208.439 31.9595 207.547 33.278 206.406 34.3745C205.266 35.471 203.908 36.3181 202.336 36.9158C200.763 37.5142 199.056 37.8131 197.219 37.8131C195.379 37.8131 193.679 37.5142 192.117 36.9158C190.555 36.3181 189.204 35.471 188.063 34.3745C186.922 33.278 186.03 31.9595 185.388 30.4201C184.745 28.8797 184.425 27.1797 184.425 25.3188C184.425 23.4362 184.745 21.7351 185.388 20.2174C186.03 18.7008 186.922 17.4097 188.063 16.3468C189.204 15.2828 190.555 14.4631 192.117 13.8874C193.679 13.3118 195.379 13.0237 197.219 13.0237C199.057 13.0237 200.763 13.3118 202.336 13.8874C203.908 14.4635 205.265 15.2828 206.406 16.3468C207.547 17.4097 208.439 18.7008 209.082 20.2174C209.723 21.7355 210.045 23.4365 210.045 25.3188ZM203.964 25.3188C203.964 24.3003 203.798 23.3474 203.466 22.4609C203.133 21.5752 202.673 20.8162 202.086 20.1849C201.499 19.553 200.79 19.0549 199.96 18.6889C199.129 18.324 198.214 18.1406 197.218 18.1406C196.221 18.1406 195.312 18.324 194.493 18.6889C193.673 19.0549 192.964 19.5526 192.366 20.1849C191.768 20.8162 191.308 21.5752 190.987 22.4609C190.665 23.3474 190.506 24.3003 190.506 25.3188C190.506 26.3817 190.671 27.362 191.004 28.2593C191.336 29.1565 191.796 29.9268 192.383 30.5688C192.969 31.2117 193.673 31.7159 194.493 32.0804C195.312 32.4464 196.221 32.6287 197.218 32.6287C198.214 32.6287 199.123 32.4464 199.943 32.0804C200.762 31.7155 201.471 31.2117 202.069 30.5688C202.668 29.9268 203.133 29.1569 203.466 28.2593C203.798 27.3624 203.964 26.3821 203.964 25.3188Z" fill="white"/>
<path d="M228.155 37.1821L219.416 26.3496H219.349V37.1821H213.8V13.655H219.349V23.2254H219.45L227.856 13.655H234.967L224.833 24.4876L235.566 37.1821H228.155Z" fill="white"/>
<path d="M135.666 59.2533L135.737 50.2283H135.684L132.368 59.2533H130.207L126.982 50.2283H126.929L127.001 59.2533H124.101V46.4995H128.483L131.387 54.6774H131.459L134.236 46.4995H138.691V59.2533H135.666Z" fill="white"/>
<path d="M154.598 52.8219C154.598 53.8307 154.424 54.7529 154.076 55.5881C153.728 56.4222 153.245 57.1372 152.626 57.7309C152.007 58.3257 151.272 58.7852 150.419 59.1096C149.566 59.4341 148.641 59.5958 147.645 59.5958C146.648 59.5958 145.726 59.4341 144.88 59.1096C144.033 58.7852 143.3 58.3257 142.682 57.7309C142.064 57.1372 141.58 56.4222 141.231 55.5881C140.883 54.7529 140.71 53.8307 140.71 52.8219C140.71 51.8012 140.883 50.8801 141.231 50.0568C141.58 49.2343 142.064 48.5352 142.682 47.9584C143.3 47.3823 144.033 46.9377 144.88 46.6251C145.726 46.3136 146.648 46.1567 147.645 46.1567C148.641 46.1567 149.566 46.3133 150.419 46.6251C151.272 46.9377 152.007 47.3823 152.626 47.9584C153.245 48.5352 153.728 49.2343 154.076 50.0568C154.424 50.8801 154.598 51.8012 154.598 52.8219ZM151.302 52.8219C151.302 52.2697 151.212 51.7539 151.031 51.2728C150.851 50.7935 150.601 50.3813 150.284 50.0391C149.965 49.697 149.581 49.4267 149.131 49.2285C148.68 49.0304 148.185 48.9318 147.645 48.9318C147.105 48.9318 146.612 49.0304 146.168 49.2285C145.723 49.4267 145.338 49.697 145.015 50.0391C144.691 50.3813 144.441 50.7935 144.268 51.2728C144.093 51.7539 144.006 52.2697 144.006 52.8219C144.006 53.3987 144.096 53.9303 144.277 54.4165C144.456 54.9027 144.706 55.3206 145.024 55.6689C145.342 56.0169 145.723 56.2901 146.168 56.4886C146.611 56.6867 147.105 56.7853 147.645 56.7853C148.185 56.7853 148.678 56.6867 149.122 56.4886C149.566 56.2904 149.951 56.0172 150.275 55.6689C150.6 55.321 150.851 54.9027 151.032 54.4165C151.212 53.9303 151.302 53.3987 151.302 52.8219Z" fill="white"/>
<path d="M161.552 49.1296V59.2533H158.472V49.1296H154.869V46.4995H165.155V49.1296H161.552Z" fill="white"/>
<path d="M179.314 52.8219C179.314 53.8307 179.139 54.7529 178.791 55.5881C178.443 56.4222 177.96 57.1372 177.342 57.7309C176.722 58.3257 175.988 58.7852 175.134 59.1096C174.282 59.4341 173.357 59.5958 172.36 59.5958C171.364 59.5958 170.441 59.4341 169.595 59.1096C168.748 58.7852 168.016 58.3257 167.397 57.7309C166.779 57.1372 166.296 56.4222 165.947 55.5881C165.599 54.7529 165.425 53.8307 165.425 52.8219C165.425 51.8012 165.599 50.8801 165.947 50.0568C166.296 49.2343 166.779 48.5352 167.397 47.9584C168.016 47.3823 168.748 46.9377 169.595 46.6251C170.441 46.3136 171.364 46.1567 172.36 46.1567C173.357 46.1567 174.281 46.3133 175.134 46.6251C175.987 46.9377 176.722 47.3823 177.342 47.9584C177.96 48.5352 178.443 49.2343 178.791 50.0568C179.139 50.8801 179.314 51.8012 179.314 52.8219ZM176.017 52.8219C176.017 52.2697 175.927 51.7539 175.747 51.2728C175.566 50.7935 175.317 50.3813 174.999 50.0391C174.681 49.697 174.296 49.4267 173.846 49.2285C173.396 49.0304 172.901 48.9318 172.36 48.9318C171.82 48.9318 171.327 49.0304 170.883 49.2285C170.438 49.4267 170.054 49.697 169.73 50.0391C169.406 50.3813 169.156 50.7935 168.983 51.2728C168.808 51.7539 168.722 52.2697 168.722 52.8219C168.722 53.3987 168.811 53.9303 168.992 54.4165C169.171 54.9027 169.421 55.3206 169.739 55.6689C170.057 56.0169 170.438 56.2901 170.883 56.4886C171.327 56.6867 171.82 56.7853 172.36 56.7853C172.901 56.7853 173.393 56.6867 173.838 56.4886C174.281 56.2904 174.666 56.0172 174.99 55.6689C175.315 55.321 175.567 54.9027 175.747 54.4165C175.927 53.9303 176.017 53.3987 176.017 52.8219Z" fill="white"/>
<path d="M188.177 59.2533L185.408 54.1916H184.358V59.2533H181.35V46.4995H186.214C186.826 46.4995 187.423 46.5616 188.005 46.6879C188.588 46.8143 189.111 47.0283 189.573 47.3279C190.035 47.6278 190.404 48.0241 190.68 48.5171C190.957 49.0091 191.095 49.6216 191.095 50.3542C191.095 51.219 190.861 51.9459 190.393 52.5335C189.924 53.1222 189.275 53.5423 188.447 53.7946L191.779 59.2529H188.177V59.2533ZM188.051 50.4087C188.051 50.1081 187.988 49.8655 187.86 49.6789C187.734 49.4927 187.571 49.3487 187.373 49.2462C187.173 49.1448 186.949 49.0755 186.702 49.039C186.454 49.0036 186.217 48.9849 185.987 48.9849H184.34V51.9582H185.806C186.06 51.9582 186.319 51.9366 186.585 51.8951C186.85 51.8528 187.091 51.7777 187.308 51.6691C187.526 51.5615 187.704 51.406 187.843 51.2006C187.982 50.9963 188.051 50.7321 188.051 50.4087Z" fill="white"/>
<path d="M200.03 49.8139C199.766 49.4776 199.42 49.2105 198.994 49.0123C198.567 48.8142 198.156 48.7145 197.76 48.7145C197.556 48.7145 197.349 48.7333 197.139 48.7687C196.928 48.8052 196.739 48.8741 196.571 48.9759C196.403 49.0784 196.262 49.2105 196.148 49.3722C196.033 49.5349 195.976 49.7421 195.976 49.9933C195.976 50.2102 196.022 50.3896 196.111 50.5336C196.202 50.6787 196.334 50.804 196.508 50.9122C196.682 51.0209 196.889 51.1194 197.13 51.21C197.37 51.2999 197.64 51.3923 197.94 51.489C198.373 51.633 198.823 51.7918 199.291 51.9661C199.76 52.1398 200.186 52.3715 200.571 52.6595C200.954 52.9475 201.273 53.3056 201.525 53.7315C201.778 54.1574 201.903 54.689 201.903 55.326C201.903 56.0587 201.768 56.6918 201.497 57.2263C201.227 57.7609 200.864 58.2016 200.408 58.5506C199.951 58.8985 199.43 59.1569 198.841 59.3248C198.252 59.4922 197.646 59.5771 197.022 59.5771C196.108 59.5771 195.226 59.4172 194.374 59.0999C193.521 58.7812 192.812 58.3279 192.248 57.7399L194.265 55.6859C194.578 56.0706 194.989 56.3919 195.499 56.6492C196.01 56.9076 196.517 57.0368 197.022 57.0368C197.249 57.0368 197.472 57.013 197.688 56.965C197.904 56.9167 198.094 56.8387 198.255 56.7311C198.418 56.6225 198.546 56.4789 198.643 56.2984C198.739 56.1179 198.787 55.9021 198.787 55.6494C198.787 55.4098 198.727 55.2058 198.606 55.0369C198.487 54.8695 198.315 54.7164 198.094 54.5786C197.871 54.4403 197.595 54.3144 197.265 54.1999C196.934 54.0855 196.559 53.9632 196.139 53.83C195.731 53.699 195.331 53.542 194.941 53.3615C194.55 53.1821 194.202 52.9504 193.896 52.6682C193.59 52.3863 193.343 52.0441 193.158 51.6417C192.972 51.2392 192.878 50.7502 192.878 50.1734C192.878 49.4653 193.023 48.8589 193.31 48.354C193.599 47.8501 193.977 47.4351 194.446 47.1113C194.914 46.7868 195.442 46.5493 196.03 46.3992C196.619 46.2494 197.214 46.1743 197.815 46.1743C198.535 46.1743 199.27 46.3064 200.021 46.5706C200.771 46.8348 201.429 47.2253 201.994 47.7411L200.03 49.8139Z" fill="white"/>
</svg>
