<svg width="120" height="47" viewBox="0 0 120 47" fill="none" xmlns="http://www.w3.org/2000/svg">
<path d="M8.1879 36.5594C8.1879 42.0505 12.6548 46.5184 18.1469 46.5184C23.639 46.5184 28.1082 42.0505 28.1082 36.5594C28.1082 31.0673 23.6393 26.5994 18.1469 26.5994C12.6545 26.5994 8.1879 31.0673 8.1879 36.5594ZM23.6018 36.5594C23.6018 39.5664 21.1549 42.012 18.1469 42.012C15.1412 42.012 12.6943 39.5664 12.6943 36.5594C12.6943 33.5524 15.1412 31.1058 18.1469 31.1058C21.1549 31.1058 23.6018 33.5527 23.6018 36.5594Z" fill="#00A3FF"/>
<path d="M91.3368 26.5994C85.8447 26.5994 81.3778 31.0673 81.3778 36.5594C81.3778 42.0505 85.8447 46.5184 91.3368 46.5184C96.829 46.5184 101.296 42.0505 101.296 36.5594C101.296 31.0673 96.8292 26.5994 91.3368 26.5994ZM91.3368 42.0122C88.3311 42.0122 85.8843 39.5666 85.8843 36.5597C85.8843 33.5527 88.3311 31.1061 91.3368 31.1061C94.3425 31.1061 96.7894 33.553 96.7894 36.5597C96.7896 39.5664 94.3428 42.0122 91.3368 42.0122Z" fill="#00A3FF"/>
<path d="M1.919 38.2607C3.17981 38.4455 4.29556 37.5961 4.48251 36.3661C5.05034 32.5914 6.90742 25.9285 9.47972 24.1197C11.6559 22.5895 16.4506 21.5397 20.682 20.6145C22.1455 20.2941 23.5731 19.9815 24.8954 19.6516L84.4918 19.3658C85.735 19.3604 86.7406 18.346 86.7341 17.1015C86.7274 15.8606 85.7197 14.8591 84.4809 14.8591C84.4765 14.8591 84.4742 14.8591 84.4698 14.8591L35.813 15.0926C40.5403 12.7342 46.2783 9.89708 50.3899 8.60576C50.4757 8.57938 50.5593 8.54628 50.6407 8.51008C61.9927 3.39185 87.2159 5.88503 91.8257 6.39649L100.48 14.636C100.827 14.9682 101.274 15.1795 101.752 15.24L111.781 16.5063L115.181 28.2587C114.087 31.4922 112.175 33.7796 110.507 33.7796H106.54C105.294 33.7796 104.287 34.7885 104.287 36.0328C104.287 37.2771 105.294 38.286 106.54 38.286H110.507C114.47 38.286 117.991 34.6993 119.696 28.9253C119.817 28.5127 119.819 28.0739 119.701 27.6612L115.698 13.8305C115.447 12.9658 114.708 12.3341 113.815 12.2209L103.05 10.8621L94.3872 2.61277C94.0373 2.2805 93.5905 2.06821 93.1132 2.00874C91.8699 1.85359 62.576 -1.71319 48.9114 4.34677C44.3346 5.80461 38.2371 8.84649 33.3281 11.2967C30.9647 12.4761 28.9228 13.4939 27.453 14.1398C25.7301 14.8966 22.81 15.5358 19.7185 16.2125C14.8446 17.2786 9.80578 18.3809 6.88802 20.434C1.90839 23.9359 0.203091 34.5067 0.024933 35.7005C-0.158397 36.9303 0.688956 38.0758 1.919 38.2607Z" fill="#00A3FF"/>
<path d="M33.6971 33.7793C32.4515 33.7793 31.4439 34.7883 31.4439 36.0325C31.4439 37.2768 32.4515 38.2857 33.6971 38.2857H75.956C77.2013 38.2857 78.2092 37.2768 78.2092 36.0325C78.2092 34.7883 77.2016 33.7793 75.956 33.7793H33.6971Z" fill="#00A3FF"/>
</svg>
