<svg width="134" height="56" viewBox="0 0 134 56" fill="none" xmlns="http://www.w3.org/2000/svg">
<path d="M23.6763 31.8992C17.0772 31.8992 11.7081 37.2672 11.7081 43.866C11.7081 50.4651 17.0772 55.8339 23.6763 55.8339C30.2754 55.8339 35.6421 50.4648 35.6421 43.866C35.6421 37.2672 30.2754 31.8992 23.6763 31.8992ZM23.6763 51.3277C19.5616 51.3277 16.2146 47.981 16.2146 43.866C16.2146 39.7523 19.5613 36.4056 23.6763 36.4056C27.7889 36.4056 31.1356 39.7523 31.1356 43.866C31.1356 47.981 27.7889 51.3277 23.6763 51.3277Z" fill="#00A3FF"/>
<path d="M104.887 31.8992C98.2876 31.8992 92.9209 37.2672 92.9209 43.866C92.9209 50.4651 98.2876 55.8339 104.887 55.8339C111.486 55.8339 116.855 50.4648 116.855 43.866C116.855 37.2672 111.486 31.8992 104.887 31.8992ZM104.887 51.3277C100.774 51.3277 97.4274 47.981 97.4274 43.866C97.4274 39.7523 100.774 36.4056 104.887 36.4056C109.001 36.4056 112.348 39.7523 112.348 43.866C112.348 47.981 109.001 51.3277 104.887 51.3277Z" fill="#00A3FF"/>
<path d="M133.125 25.6425L130.997 22.3705C129.991 17.4087 128.269 10.5045 125.788 5.87059L125.965 5.8861C126.031 5.89283 126.097 5.89489 126.163 5.89489C127.318 5.89489 128.301 5.01134 128.405 3.8387C128.513 2.59883 127.598 1.50635 126.356 1.39723L119.951 0.83613C119.883 0.829148 119.816 0.826562 119.749 0.826045C112.332 0.285365 65.884 -1.09645 55.6287 1.6703C51.2456 2.85405 46.6952 7.15596 42.6792 10.9516C40.1817 13.3126 37.6006 15.7541 35.9878 16.4626C34.2846 17.2106 28.9246 17.479 24.1937 17.7156C15.381 18.1557 9.40042 18.5891 6.66754 20.5114C3.66187 22.626 1.22608 33.3948 0.0399975 39.6262C-0.0985986 40.3503 0.127921 41.096 0.643002 41.6232L4.72046 45.794C5.58746 46.684 7.01765 46.7016 7.90663 45.8292C8.79561 44.9601 8.81319 43.533 7.94179 42.643L4.69177 39.3193C6.02524 32.6861 8.10676 25.3017 9.25974 24.1971C11.1323 22.8812 18.8118 22.4962 24.4205 22.2156C26.1106 22.1311 27.7339 22.0499 29.2481 21.9511C29.3492 21.9651 29.4516 21.9746 29.5563 21.9746H106.793C107.422 21.9746 108.023 21.7106 108.45 21.2473L115.243 13.8704C116.085 12.955 116.028 11.5303 115.113 10.6863C114.197 9.84694 112.774 9.90307 111.929 10.8184L105.805 17.4679H42.2598C43.3686 16.5001 44.5366 15.3973 45.7749 14.2267C49.4035 10.7962 53.5159 6.90825 56.8034 6.0203C66.1395 3.501 113.353 4.81845 119.434 5.30767C119.476 5.31362 119.517 5.32137 119.559 5.32499L119.906 5.35524C121.671 6.04615 124.89 14.7736 126.664 23.6773C126.719 23.9579 126.829 24.2253 126.985 24.4662L128.981 27.5358C128.926 34.7477 127.986 40.5566 127.058 41.965H121.757C120.511 41.965 119.504 42.974 119.504 44.2183C119.504 45.4625 120.511 46.4715 121.757 46.4715H127.495C128.979 46.4715 133.489 46.4715 133.489 26.8713C133.49 26.4358 133.362 26.0089 133.125 25.6425Z" fill="#00A3FF"/>
<path d="M87.6862 41.9651H40.7032C39.4579 41.9651 38.45 42.974 38.45 44.2183C38.45 45.4626 39.4576 46.4715 40.7032 46.4715H87.6862C88.9315 46.4715 89.9394 45.4626 89.9394 44.2183C89.9394 42.974 88.9315 41.9651 87.6862 41.9651Z" fill="#00A3FF"/>
</svg>
