<svg width="124" height="46" viewBox="0 0 124 46" fill="none" xmlns="http://www.w3.org/2000/svg">
<path d="M8.18823 35.7943C8.18823 41.2854 12.6551 45.7533 18.1472 45.7533C23.6394 45.7533 28.1086 41.2854 28.1086 35.7943C28.1086 30.3021 23.6396 25.8342 18.1472 25.8342C12.6549 25.8342 8.18823 30.3019 8.18823 35.7943ZM23.6021 35.7943C23.6021 38.8012 21.1552 41.2468 18.1472 41.2468C15.1416 41.2468 12.6947 38.801 12.6947 35.7943C12.6947 32.7873 15.1416 30.3407 18.1472 30.3407C21.1552 30.3404 23.6021 32.7873 23.6021 35.7943Z" fill="#00A3FF"/>
<path d="M81.3781 35.7943C81.3781 41.2854 85.845 45.7533 91.3371 45.7533C96.8293 45.7533 101.296 41.2854 101.296 35.7943C101.296 30.3021 96.8293 25.8342 91.3371 25.8342C85.845 25.8342 81.3781 30.3019 81.3781 35.7943ZM96.79 35.7943C96.79 38.8012 94.3431 41.2468 91.3374 41.2468C88.3317 41.2468 85.8848 38.801 85.8848 35.7943C85.8848 32.7873 88.3317 30.3407 91.3374 30.3407C94.3431 30.3407 96.79 32.7873 96.79 35.7943Z" fill="#00A3FF"/>
<path d="M27.4528 13.3743C25.7299 14.1311 22.8098 14.7703 19.7183 15.447C14.8444 16.5131 9.8056 17.6154 6.88784 19.6685C1.9082 23.1704 0.202903 33.7412 0.0247453 34.935C-0.157809 36.1651 0.689282 37.3103 1.91932 37.4952C3.18453 37.6811 4.29795 36.8306 4.48283 35.6006C5.05066 31.8257 6.90775 25.163 9.48006 23.3542C11.6562 21.8237 16.451 20.7742 20.6823 19.849C22.1453 19.5286 23.5724 19.216 24.8942 18.8866L105.908 18.5949C107.152 18.5905 108.157 17.5782 108.153 16.3339C108.148 15.0917 107.14 14.0885 105.9 14.0885C105.897 14.0885 105.895 14.0885 105.891 14.0885L36.021 14.3401C40.6862 12.1153 46.48 9.3506 50.5242 7.7932C62.5406 3.16575 102.331 6.30252 109.579 6.92181L115.986 17.6454L116.382 24.0276C116.407 24.4149 116.53 24.7901 116.743 25.1167L118.517 27.8452C117.408 30.8917 115.573 33.0138 113.967 33.0138H106.54C105.295 33.0138 104.287 34.0228 104.287 35.267C104.287 36.5113 105.295 37.5203 106.54 37.5203H113.967C117.929 37.5203 121.45 33.9336 123.156 28.1596C123.342 27.5281 123.243 26.846 122.883 26.2924L120.843 23.1557L120.451 16.8195C120.429 16.4609 120.321 16.1121 120.136 15.8041L115.08 7.34121C115.118 7.34328 115.157 7.34561 115.194 7.34561C116.363 7.34561 117.351 6.44344 117.439 5.25839C117.531 4.01749 116.6 2.93691 115.359 2.84563L111.121 2.53224C109.02 2.3365 63.034 -1.85293 48.9047 3.58723C44.691 5.21004 38.796 8.02334 34.0563 10.2841C31.4377 11.5348 29.0966 12.6526 27.4528 13.3743Z" fill="#00A3FF"/>
<path d="M33.6977 33.0139C32.4524 33.0139 31.4445 34.0229 31.4445 35.2671C31.4445 36.5114 32.4524 37.5204 33.6977 37.5204H75.9566C77.2019 37.5204 78.2098 36.5114 78.2098 35.2671C78.2098 34.0229 77.2019 33.0139 75.9566 33.0139H33.6977Z" fill="#00A3FF"/>
</svg>
