<svg width="119" height="53" viewBox="0 0 119 53" fill="none" xmlns="http://www.w3.org/2000/svg">
<path d="M20.3383 30.2817C14.254 30.2817 9.30542 35.2316 9.30542 41.3167C9.30542 47.4017 14.254 52.3516 20.3383 52.3516C26.4223 52.3516 31.3732 47.4017 31.3732 41.3167C31.3732 35.2316 26.4223 30.2817 20.3383 30.2817ZM20.3383 47.8454C16.7405 47.8454 13.8119 44.9168 13.8119 41.3169C13.8119 37.7171 16.7405 34.7884 20.3383 34.7884C23.9382 34.7884 26.8668 37.7171 26.8668 41.3169C26.8668 44.9168 23.9379 47.8454 20.3383 47.8454Z" fill="#00A3FF"/>
<path d="M92.8568 30.2817C86.7726 30.2817 81.824 35.2316 81.824 41.3167C81.824 47.4017 86.7726 52.3516 92.8568 52.3516C98.9409 52.3516 103.892 47.4017 103.892 41.3167C103.892 35.2316 98.9411 30.2817 92.8568 30.2817ZM92.8568 47.8454C89.259 47.8454 86.3304 44.9168 86.3304 41.3169C86.3304 37.7171 89.2593 34.7884 92.8568 34.7884C96.4567 34.7884 99.3853 37.7171 99.3853 41.3169C99.3856 44.9168 96.4567 47.8454 92.8568 47.8454Z" fill="#00A3FF"/>
<path d="M117.378 27.7098L115.937 17.1004C115.895 16.8 115.794 16.5106 115.638 16.25C115.519 16.0486 113.295 12.3644 109.541 8.81803L110.331 8.87104C110.383 8.87544 110.434 8.87647 110.485 8.87647C111.66 8.87647 112.65 7.96448 112.731 6.77401C112.815 5.53181 111.875 4.45821 110.634 4.37547L100.561 3.70007C100.558 3.69981 100.555 3.70006 100.553 3.6998C88.3508 0.508211 61.3108 -0.630808 49.1945 4.03233C45.2999 5.53181 41.8342 8.36501 38.7778 10.8657C36.529 12.7052 34.4035 14.4436 32.6056 15.2335C30.8784 15.9917 26.9198 16.8036 23.0911 17.5879C16.8375 18.8706 10.3705 20.1964 7.45716 22.2461C2.58536 25.6732 0.411516 38.4499 0.0264984 40.977C-0.162778 42.207 0.682244 43.3566 1.91228 43.5439C3.15784 43.7386 4.29324 42.8871 4.48019 41.657C5.32082 36.1636 7.60248 27.6526 10.0494 25.9318C12.1971 24.4222 18.7388 23.0813 23.9977 22.003C26.4221 21.5063 28.6626 21.0463 30.552 20.5757L30.5528 20.7388C30.5528 20.7388 80.3701 20.4891 89.3367 20.4891C99.1176 20.4891 101.705 16.8253 102.126 16.0915C102.744 15.0112 102.368 13.6348 101.287 13.0176C100.203 12.3983 98.8295 12.7745 98.2133 13.8559C98.2001 13.8768 96.3055 15.9826 89.337 15.9826C82.7451 15.9826 54.0909 16.1174 39.3552 16.189C40.1038 15.603 40.8612 14.9838 41.632 14.3531C44.5629 11.9558 47.5929 9.47817 50.8142 8.23701C62.5168 3.73316 89.1849 5.25773 99.56 8.03379C99.7182 8.09817 99.8855 8.14497 100.06 8.17212C101.424 8.56282 102.468 8.97577 103.1 9.3988C107.561 12.3771 110.685 16.8845 111.537 18.1927L112.943 28.5367C112.963 28.6831 112.998 28.8271 113.046 28.967L114.364 32.7967C112.982 37.1304 111.31 39.0798 110.225 39.0798H108.322C107.076 39.0798 106.069 40.0888 106.069 41.333C106.069 42.5773 107.076 43.5863 108.322 43.5863H110.225C112.806 43.5863 116.406 41.8184 118.895 33.394C119.027 32.9451 119.018 32.4655 118.864 32.022L117.378 27.7098Z" fill="#00A3FF"/>
<path d="M77.1308 39.0637H35.8291C34.5838 39.0637 33.5759 40.0727 33.5759 41.3169C33.5759 42.5612 34.5838 43.5702 35.8291 43.5702H77.1308C78.3761 43.5702 79.384 42.5612 79.384 41.3169C79.384 40.0727 78.3763 39.0637 77.1308 39.0637Z" fill="#00A3FF"/>
</svg>
