<svg width="110" height="46" viewBox="0 0 110 46" fill="none" xmlns="http://www.w3.org/2000/svg">
    <path d="M8.19037 35.7186C8.19037 41.2097 12.6572 45.6776 18.1494 45.6776C23.6415 45.6776 28.1084 41.2097 28.1084 35.7186C28.1084 30.2265 23.6415 25.7585 18.1494 25.7585C12.6572 25.7585 8.19037 30.2262 8.19037 35.7186ZM23.6019 35.7186C23.6019 38.7256 21.1551 41.1712 18.1494 41.1712C15.1437 41.1712 12.6968 38.7253 12.6968 35.7186C12.6968 32.7116 15.1437 30.265 18.1494 30.265C21.1551 30.265 23.6019 32.7116 23.6019 35.7186Z" fill="#00A3FF"/>
    <path d="M90.9015 45.6776C96.3936 45.6776 100.86 41.2097 100.86 35.7186C100.86 30.2265 96.3936 25.7585 90.9015 25.7585C85.4093 25.7585 80.9424 30.2265 80.9424 35.7186C80.9422 41.2097 85.4091 45.6776 90.9015 45.6776ZM90.9015 30.2647C93.9071 30.2647 96.354 32.7116 96.354 35.7183C96.354 38.7253 93.9071 41.1709 90.9015 41.1709C87.8958 41.1709 85.4489 38.725 85.4489 35.7183C85.4489 32.7116 87.8955 30.2647 90.9015 30.2647Z" fill="#00A3FF"/>
    <path d="M1.91913 37.4196C3.17994 37.6045 4.29569 36.7551 4.48264 35.525C5.05047 31.7503 6.90756 25.0874 9.47986 23.2786C11.656 21.7481 16.4508 20.6999 20.6821 19.7734C22.1461 19.4533 23.5743 19.1407 24.8969 18.8107L90.9102 18.5247C92.1558 18.5193 93.1591 17.506 93.1547 16.2617C93.1503 15.0208 92.1424 14.0183 90.9015 14.0183C90.8991 14.0183 90.8947 14.0183 90.8927 14.0183L35.9256 14.2565C40.6332 11.9626 46.3852 9.17235 50.4624 7.74063C64.3843 2.85563 92.3671 6.89224 92.6487 6.93077C92.7565 6.94732 92.8666 6.95508 92.9765 6.95508C97.659 6.95508 100.603 16.7282 101.263 20.1509C101.323 20.448 101.439 20.7319 101.606 20.9828L104.245 24.9072C105.015 29.3771 104.889 31.9342 103.809 34.2347C103.281 35.3613 103.765 36.7026 104.892 37.2316C105.202 37.3769 105.527 37.4462 105.847 37.4449C106.694 37.4449 107.506 36.9663 107.889 36.1489C109.673 32.35 109.482 28.5476 108.599 23.6463C108.544 23.3394 108.426 23.0467 108.252 22.7881L105.596 18.8384C104.951 15.7996 101.671 2.62808 93.1526 2.45096C90.6134 2.08689 63.5352 -1.62858 48.9707 3.48965C44.5457 5.04214 38.4814 7.99817 33.6075 10.3737C31.1717 11.5608 29.0043 12.6181 27.4529 13.2992C25.73 14.0561 22.8099 14.6953 19.7184 15.3719C14.8445 16.438 9.80566 17.5404 6.8879 19.5934C1.90827 23.0953 0.202968 33.6661 0.0248098 34.86C-0.158003 36.0895 0.689089 37.2347 1.91913 37.4196Z" fill="#00A3FF"/>
    <path d="M77.7739 35.1917C77.7739 33.9474 76.766 32.9385 75.5207 32.9385H33.6996C32.4543 32.9385 31.4464 33.9474 31.4464 35.1917C31.4464 36.436 32.454 37.4449 33.6996 37.4449H75.5204C76.766 37.4449 77.7739 36.436 77.7739 35.1917Z" fill="#00A3FF"/>
</svg>
