<svg width="32" height="32" viewBox="0 0 32 32" fill="none" xmlns="http://www.w3.org/2000/svg">
<path d="M0.873353 13.5749C0.308005 12.0478 -0.101385 10.4882 0.0220815 8.83113C0.100061 7.8109 0.483458 6.94014 1.23076 6.22533C2.04304 5.45853 2.80983 4.65275 3.60912 3.87296C4.64884 2.84624 5.95499 2.85273 6.99471 3.87296C7.63804 4.50329 8.27487 5.14662 8.9117 5.78994C9.52903 6.40728 10.1529 7.02461 10.7702 7.64845C11.8554 8.74665 11.8619 10.0268 10.7767 11.1185C9.9969 11.8983 9.22361 12.6846 8.43082 13.4514C8.22288 13.6528 8.20339 13.8218 8.31386 14.0752C8.83372 15.3229 9.58751 16.4341 10.4323 17.4738C12.1348 19.5662 14.0583 21.4247 16.3522 22.8609C16.8461 23.1663 17.3854 23.3937 17.8988 23.6731C18.1652 23.8161 18.3407 23.7706 18.5551 23.5497C19.3284 22.7504 20.1212 21.9641 20.914 21.1778C21.9537 20.1511 23.2533 20.1446 24.2931 21.1778C25.5667 22.4385 26.8339 23.7056 28.0945 24.9793C29.1538 26.045 29.1473 27.3512 28.0816 28.4234C27.3602 29.1512 26.5999 29.84 25.9241 30.6003C24.9364 31.705 23.6887 32.0689 22.2721 31.9909C20.2057 31.8804 18.3017 31.1916 16.4627 30.3014C12.3818 28.3194 8.8987 25.5706 5.98098 22.1006C3.82356 19.5264 2.04304 16.733 0.873353 13.5749ZM32 15.9012C32 7.13508 24.8649 0 16.0988 0V3.02819C23.1949 3.02819 28.9718 8.80514 28.9718 15.9012H32ZM23.2923 15.9012H26.3205C26.3205 10.2672 21.7328 5.67948 16.0988 5.67948V8.70766C18.0223 8.70766 19.8288 9.45496 21.1869 10.8131C22.545 12.1712 23.2923 13.9769 23.2923 15.9012Z" fill="#00A3FF"/>
</svg>
