<svg width="33" height="33" viewBox="0 0 33 33" fill="none" xmlns="http://www.w3.org/2000/svg">
<path d="M29.25 8.97217H3.25C2.69772 8.97217 2.25 9.41988 2.25 9.97217V23.9722C2.25 24.5245 2.69772 24.9722 3.25 24.9722H29.25C29.8023 24.9722 30.25 24.5245 30.25 23.9722V9.97217C30.25 9.41988 29.8023 8.97217 29.25 8.97217Z" stroke="white" stroke-width="2" stroke-linecap="round" stroke-linejoin="round"/>
<path d="M16.25 20.9722C18.4591 20.9722 20.25 19.1813 20.25 16.9722C20.25 14.763 18.4591 12.9722 16.25 12.9722C14.0409 12.9722 12.25 14.763 12.25 16.9722C12.25 19.1813 14.0409 20.9722 16.25 20.9722Z" stroke="white" stroke-width="2" stroke-linecap="round" stroke-linejoin="round"/>
<path d="M22.25 8.97217L30.25 15.9722" stroke="white" stroke-width="2" stroke-linecap="round" stroke-linejoin="round"/>
<path d="M22.25 24.9722L30.25 17.9722" stroke="white" stroke-width="2" stroke-linecap="round" stroke-linejoin="round"/>
<path d="M10.25 8.97217L2.25 15.9722" stroke="white" stroke-width="2" stroke-linecap="round" stroke-linejoin="round"/>
<path d="M10.25 24.9722L2.25 17.9722" stroke="white" stroke-width="2" stroke-linecap="round" stroke-linejoin="round"/>
</svg>
