<svg width="33" height="33" viewBox="0 0 33 33" fill="none" xmlns="http://www.w3.org/2000/svg">
<path d="M16.25 27.9722C16.25 27.9722 3.75 20.9722 3.75 12.4722C3.75025 10.9698 4.27082 9.51397 5.22318 8.35207C6.17555 7.19018 7.50093 6.39398 8.97399 6.09885C10.447 5.80373 11.9769 6.02789 13.3033 6.73322C14.6298 7.43855 15.671 8.58152 16.25 9.9678L16.25 9.96781C16.829 8.58153 17.8702 7.43856 19.1967 6.73322C20.5231 6.02789 22.0529 5.80373 23.526 6.09885C24.9991 6.39398 26.3245 7.19018 27.2768 8.35207C28.2292 9.51397 28.7497 10.9698 28.75 12.4722C28.75 20.9722 16.25 27.9722 16.25 27.9722Z" stroke="white" stroke-width="2" stroke-linecap="round" stroke-linejoin="round"/>
</svg>
