<svg width="33" height="33" viewBox="0 0 33 33" fill="none" xmlns="http://www.w3.org/2000/svg">
<path d="M22.25 25.9722C22.25 26.7678 21.9339 27.5309 21.3713 28.0935C20.8087 28.6561 20.0456 28.9722 19.25 28.9722C18.4544 28.9722 17.6913 28.6561 17.1287 28.0935C16.5661 27.5309 16.25 26.7678 16.25 25.9722V17.9722" stroke="white" stroke-width="2" stroke-linecap="round" stroke-linejoin="round"/>
<path d="M4.2916 17.9722C4.15285 17.9719 4.01567 17.9428 3.88874 17.8868C3.76181 17.8308 3.64789 17.749 3.55419 17.6467C3.46049 17.5443 3.38904 17.4237 3.34438 17.2923C3.29972 17.1609 3.28281 17.0217 3.29472 16.8835C3.56785 13.6355 5.05105 10.6087 7.45044 8.40258C9.84983 6.19649 12.9904 4.97217 16.2498 4.97217C19.5092 4.97217 22.6497 6.19649 25.0491 8.40258C27.4485 10.6087 28.9317 13.6355 29.2048 16.8835C29.2167 17.0217 29.1998 17.1609 29.1552 17.2923C29.1105 17.4237 29.0391 17.5443 28.9454 17.6467C28.8517 17.749 28.7377 17.8308 28.6108 17.8868C28.4839 17.9428 28.3467 17.9719 28.208 17.9722H4.2916Z" stroke="white" stroke-width="2" stroke-linecap="round" stroke-linejoin="round"/>
<path d="M11.25 17.9722C11.25 8.97217 16.25 4.97217 16.25 4.97217C16.25 4.97217 21.25 8.97217 21.25 17.9722" stroke="white" stroke-width="2" stroke-linecap="round" stroke-linejoin="round"/>
</svg>
