<svg width="26" height="27" viewBox="0 0 26 27" fill="none" xmlns="http://www.w3.org/2000/svg">
<path d="M2.6786 20.0947C1.18768 17.5814 0.665544 14.6102 1.21024 11.7392C1.75494 8.8681 3.329 6.29463 5.63685 4.502C7.9447 2.70938 10.8276 1.8209 13.7442 2.00341C16.6607 2.18592 19.4103 3.42687 21.4767 5.49322C23.5431 7.55957 24.784 10.3092 24.9666 13.2258C25.1491 16.1423 24.2606 19.0252 22.468 21.3331C20.6754 23.6409 18.1019 25.215 15.2309 25.7597C12.3598 26.3044 9.38866 25.7823 6.87532 24.2914L6.87534 24.2913L2.73077 25.4754C2.5593 25.5244 2.37784 25.5267 2.20521 25.4819C2.03257 25.4372 1.87504 25.3471 1.74894 25.221C1.62283 25.0949 1.53275 24.9374 1.48802 24.7648C1.44328 24.5921 1.44553 24.4107 1.49452 24.2392L2.67869 20.0946L2.6786 20.0947Z" stroke="#D7AD48" stroke-width="2" stroke-linecap="round" stroke-linejoin="round"/>
<path d="M13 15.47C13.8284 15.47 14.5 14.7984 14.5 13.97C14.5 13.1415 13.8284 12.47 13 12.47C12.1716 12.47 11.5 13.1415 11.5 13.97C11.5 14.7984 12.1716 15.47 13 15.47Z" fill="#D7AD48"/>
<path d="M7 15.47C7.82843 15.47 8.5 14.7984 8.5 13.97C8.5 13.1415 7.82843 12.47 7 12.47C6.17157 12.47 5.5 13.1415 5.5 13.97C5.5 14.7984 6.17157 15.47 7 15.47Z" fill="#D7AD48"/>
<path d="M19 15.47C19.8284 15.47 20.5 14.7984 20.5 13.97C20.5 13.1415 19.8284 12.47 19 12.47C18.1716 12.47 17.5 13.1415 17.5 13.97C17.5 14.7984 18.1716 15.47 19 15.47Z" fill="#D7AD48"/>
</svg>
