<svg width="35" height="35" viewBox="0 0 35 35" fill="none" xmlns="http://www.w3.org/2000/svg">
<path fill-rule="evenodd" clip-rule="evenodd" d="M32.7547 19.01L29.3449 18.6655C29.3852 18.2667 29.406 17.8611 29.406 17.4496C29.406 17.0381 29.3852 16.6325 29.3449 16.2337L32.7547 15.8891C32.8066 16.4022 32.8331 16.9228 32.8331 17.4496C32.8331 17.9764 32.8066 18.4969 32.7547 19.01ZM29.3886 7.76434L26.7325 9.93014C26.22 9.30163 25.6446 8.72624 25.0161 8.21374L27.1819 5.55771C27.99 6.21663 28.7296 6.95627 29.3886 7.76434ZM19.0572 2.19157C18.544 2.13972 18.0235 2.11316 17.4967 2.11316C16.9699 2.11316 16.4493 2.13972 15.9362 2.19157L16.2808 5.60134C16.6796 5.56103 17.0852 5.54029 17.4967 5.54029C17.9082 5.54029 18.3138 5.56103 18.7126 5.60134L19.0572 2.19157ZM7.81146 5.55771L9.97726 8.21374C9.34875 8.72624 8.77336 9.30163 8.26086 9.93014L5.60483 7.76434C6.26374 6.95627 7.00339 6.21663 7.81146 5.55771ZM2.23869 15.8891C2.18684 16.4022 2.16028 16.9228 2.16028 17.4496C2.16028 17.9764 2.18684 18.4969 2.23869 19.01L5.64845 18.6655C5.60815 18.2667 5.58741 17.8611 5.58741 17.4496C5.58741 17.0381 5.60815 16.6325 5.64845 16.2337L2.23869 15.8891Z" fill="#D7AD48"/>
<path d="M2.25139 25.0837C0.953311 22.4914 0.337669 19.611 0.462634 16.7146C0.587604 13.8182 1.44905 11.0015 2.96558 8.53064C4.48211 6.05982 6.60361 4.01651 9.12961 2.59379C11.6556 1.17108 14.5027 0.415962 17.4017 0.3998C20.3008 0.383639 23.1561 1.10697 25.6978 2.50143C28.2395 3.89589 30.3836 5.91543 31.9276 8.36918C33.4716 10.8229 34.3644 13.6299 34.5217 16.5247C34.6789 19.4195 34.0954 22.3067 32.8263 24.9132L30.5082 23.7846C31.5854 21.5722 32.0806 19.1216 31.9472 16.6645C31.8137 14.2075 31.0559 11.825 29.7454 9.7423C28.4349 7.6596 26.615 5.94545 24.4576 4.76186C22.3003 3.57827 19.8768 2.96432 17.4161 2.97804C14.9554 2.99175 12.5389 3.63268 10.3949 4.84026C8.25086 6.04783 6.45017 7.78216 5.16297 9.87934C3.87577 11.9765 3.14459 14.3673 3.03851 16.8257C2.93244 19.2841 3.45499 21.729 4.55678 23.9292L2.25139 25.0837Z" fill="#D7AD48"/>
<rect x="27.1792" y="11.9374" width="2.57827" height="15.3446" rx="1.28914" transform="rotate(65.8178 27.1792 11.9374)" fill="#D7AD48"/>
<circle cx="17.4269" cy="17.6422" r="2.84051" transform="rotate(65.8178 17.4269 17.6422)" fill="#D7AD48"/>
</svg>
