<svg style="width:0;height:0" xmlns="http://www.w3.org/2000/svg">
  <symbol id="svg-russia" viewBox="0 0 512 512">
    <path style="fill:#F5F5F5;" d="M512,200.093H0V97.104c0-4.875,3.953-8.828,8.828-8.828h494.345c4.875,0,8.828,3.953,8.828,8.828
	L512,200.093L512,200.093z"/>
    <path style="fill:#FF4B55;" d="M503.172,423.725H8.828c-4.875,0-8.828-3.953-8.828-8.828V311.909h512v102.988
	C512,419.773,508.047,423.725,503.172,423.725z"/>
    <rect y="200.091" style="fill:#41479B;" width="512" height="111.81"/>
  </symbol>
  <symbol id="svg-china" viewBox="0 0 512 512">
    <path style="fill:#FF4B55;" d="M503.172,423.725H8.828c-4.875,0-8.828-3.953-8.828-8.828V97.104c0-4.875,3.953-8.828,8.828-8.828
	h494.345c4.875,0,8.828,3.953,8.828,8.828v317.793C512,419.773,508.047,423.725,503.172,423.725z"/>
    <g>
      <path style="fill:#FFE15A;" d="M85.007,140.733l8.416,25.234l26.6,0.206c3.444,0.026,4.872,4.422,2.101,6.467l-21.398,15.801
		l8.023,25.362c1.038,3.284-2.7,5.999-5.502,3.997l-21.64-15.469l-21.64,15.468c-2.802,2.003-6.54-0.714-5.502-3.997l8.023-25.362
		l-21.398-15.8c-2.771-2.046-1.343-6.441,2.101-6.467l26.6-0.206l8.416-25.234C79.297,137.465,83.918,137.465,85.007,140.733z"/>
      <path style="fill:#FFE15A;" d="M181.599,146.951l6.035,8.23l9.739-3.046c1.261-0.394,2.298,1.044,1.526,2.115l-5.962,8.281
		l5.906,8.321c0.765,1.077-0.282,2.508-1.54,2.105l-9.719-3.111l-6.089,8.189c-0.788,1.06-2.473,0.506-2.478-0.814l-0.045-10.205
		l-9.67-3.261c-1.251-0.423-1.246-2.195,0.009-2.609l9.69-3.196l0.114-10.204C179.129,146.427,180.818,145.886,181.599,146.951z"/>
      <path style="fill:#FFE15A;" d="M144.857,122.421l10.145,1.102l4.328-9.241c0.561-1.196,2.321-0.991,2.591,0.302l2.086,9.988
		l10.126,1.26c1.311,0.163,1.66,1.901,0.513,2.558l-8.855,5.07l1.931,10.02c0.25,1.298-1.295,2.166-2.274,1.279l-7.559-6.855
		l-8.932,4.932c-1.156,0.639-2.461-0.563-1.919-1.768l4.183-9.308l-7.452-6.972C142.805,123.89,143.544,122.279,144.857,122.421z"/>
      <path style="fill:#FFE15A;" d="M160.895,221.314l-6.035,8.23l-9.739-3.046c-1.261-0.394-2.298,1.044-1.526,2.115l5.962,8.281
		l-5.906,8.321c-0.765,1.077,0.282,2.508,1.54,2.105l9.719-3.111l6.089,8.189c0.788,1.06,2.473,0.506,2.478-0.814l0.045-10.205
		l9.67-3.261c1.252-0.423,1.246-2.195-0.009-2.609l-9.69-3.196l-0.114-10.204C163.363,220.791,161.676,220.248,160.895,221.314z"/>
      <path style="fill:#FFE15A;" d="M197.635,198.263l-10.145,1.102l-4.328-9.241c-0.561-1.196-2.321-0.991-2.591,0.302l-2.087,9.988
		l-10.126,1.26c-1.311,0.163-1.66,1.901-0.513,2.558l8.855,5.07l-1.931,10.02c-0.25,1.298,1.295,2.166,2.274,1.279l7.559-6.855
		l8.932,4.932c1.156,0.639,2.461-0.563,1.919-1.768l-4.183-9.308l7.452-6.972C199.689,199.732,198.95,198.121,197.635,198.263z"/>
    </g>
  </symbol>
  <symbol id="svg-france" viewBox="0 0 512 512">
    <path style="fill:#41479B;" d="M170.667,423.721H8.828c-4.875,0-8.828-3.953-8.828-8.828V97.1c0-4.875,3.953-8.828,8.828-8.828
	h161.839V423.721z"/>
    <rect x="170.67" y="88.277" style="fill:#F5F5F5;" width="170.67" height="335.45"/>
    <path style="fill:#FF4B55;" d="M503.172,423.721H341.333V88.273h161.839c4.875,0,8.828,3.953,8.828,8.828v317.793
	C512,419.77,508.047,423.721,503.172,423.721z"/>
  </symbol>
  <symbol id="svg-germany" viewBox="0 0 512 512">
    <path style="fill:#464655;" d="M512,200.093H0V97.104c0-4.875,3.953-8.828,8.828-8.828h494.345c4.875,0,8.828,3.953,8.828,8.828
	L512,200.093L512,200.093z"/>
    <path style="fill:#FFE15A;" d="M503.172,423.725H8.828c-4.875,0-8.828-3.953-8.828-8.828V311.909h512v102.988
	C512,419.773,508.047,423.725,503.172,423.725z"/>
    <rect y="200.091" style="fill:#FF4B55;" width="512" height="111.81"/>
  </symbol>
  <symbol id="svg-japan" viewBox="0 0 512 512">
    <path style="fill:#F5F5F5;" d="M503.172,423.725H8.828c-4.875,0-8.828-3.953-8.828-8.828V97.104c0-4.875,3.953-8.828,8.828-8.828
	h494.345c4.875,0,8.828,3.953,8.828,8.828v317.793C512,419.773,508.047,423.725,503.172,423.725z"/>
    <circle style="fill:#FF4B55;" cx="256" cy="256.001" r="97.1"/>
  </symbol>
  <symbol id="svg-korea" viewBox="0 0 512 512">
    <path style="fill:#F5F5F5;" d="M503.172,423.725H8.828c-4.875,0-8.828-3.953-8.828-8.828V97.104c0-4.875,3.953-8.828,8.828-8.828
	h494.345c4.875,0,8.828,3.953,8.828,8.828v317.793C512,419.773,508.047,423.725,503.172,423.725z"/>
    <path style="fill:#FF4B55;" d="M305.009,182.533c-40.563-27.041-95.35-15.986-122.374,24.506
	c-13.555,20.211-8.045,47.674,12.235,61.195c20.265,13.521,47.64,8.03,61.161-12.252c13.521-20.281,40.914-25.704,61.178-12.254
	c20.298,13.521,25.757,40.984,12.217,61.195C356.468,264.363,345.537,209.575,305.009,182.533"/>
    <path style="fill:#41479B;" d="M182.634,207.04c-13.555,20.211-8.045,47.674,12.235,61.195c20.265,13.521,47.64,8.03,61.161-12.252
	c13.521-20.281,40.914-25.704,61.178-12.254c20.298,13.521,25.757,40.984,12.217,61.195
	c-27.006,40.632-81.775,51.549-122.338,24.507C166.561,302.391,155.593,247.603,182.634,207.04"/>
    <g>
      <path style="fill:#464655;" d="M349.92,149.191l16.035,24.102c1.347,2.025,0.802,4.759-1.219,6.112l-4.066,2.723
		c-2.029,1.358-4.775,0.812-6.129-1.22l-16.055-24.096c-1.351-2.027-0.803-4.766,1.223-6.119l4.086-2.728
		C345.825,146.61,348.568,147.159,349.92,149.191z"/>
      <path style="fill:#464655;" d="M374.66,186.352l16.087,24.087c1.358,2.034,0.803,4.786-1.237,6.134l-4.084,2.699
		c-2.026,1.34-4.754,0.789-6.103-1.23l-16.078-24.062c-1.354-2.026-0.81-4.767,1.217-6.122l4.074-2.724
		C370.563,183.779,373.305,184.324,374.66,186.352z"/>
      <path style="fill:#464655;" d="M367.089,137.733l40.829,61.273c1.352,2.028,0.803,4.768-1.225,6.12l-4.102,2.734
		c-2.028,1.353-4.769,0.804-6.121-1.224l-40.843-61.269c-1.353-2.029-0.803-4.771,1.227-6.122l4.115-2.739
		C362.998,135.157,365.737,135.705,367.089,137.733z"/>
      <path style="fill:#464655;" d="M384.211,126.293l16.07,24.149c1.354,2.034,0.798,4.78-1.241,6.127l-4.086,2.7
		c-2.028,1.34-4.757,0.789-6.105-1.234l-16.082-24.117c-1.353-2.028-0.804-4.769,1.224-6.121l4.099-2.732
		C380.117,123.712,382.859,124.261,384.211,126.293z"/>
      <path style="fill:#464655;" d="M408.967,163.532l16.045,24.099c1.35,2.026,0.803,4.762-1.22,6.115l-4.075,2.724
		c-2.029,1.357-4.775,0.809-6.127-1.223l-16.045-24.099c-1.349-2.026-0.803-4.762,1.22-6.115l4.075-2.724
		C404.868,160.952,407.614,161.499,408.967,163.532z"/>
      <path style="fill:#464655;" d="M132.721,293.983l40.824,61.207c1.352,2.027,0.806,4.767-1.222,6.12l-4.088,2.73
		c-2.028,1.354-4.769,0.807-6.123-1.222l-40.824-61.207c-1.352-2.027-0.806-4.767,1.222-6.12l4.088-2.73
		C128.626,291.407,131.368,291.955,132.721,293.983z"/>
      <path style="fill:#464655;" d="M115.582,305.432l16.028,24.041c1.351,2.026,0.806,4.761-1.217,6.116l-4.066,2.722
		c-2.027,1.357-4.771,0.812-6.126-1.217l-16.047-24.035c-1.354-2.027-0.808-4.768,1.22-6.122l4.086-2.728
		C111.487,302.856,114.229,303.403,115.582,305.432z"/>
      <path style="fill:#464655;" d="M140.351,342.606l16.046,24.102c1.35,2.026,0.803,4.763-1.222,6.115l-4.078,2.726
		c-2.029,1.356-4.772,0.809-6.126-1.221l-16.056-24.097c-1.351-2.027-0.803-4.766,1.222-6.119l4.088-2.73
		C136.255,340.026,138.998,340.575,140.351,342.606z"/>
      <path style="fill:#464655;" d="M98.442,316.877l40.798,61.21c1.351,2.026,0.804,4.764-1.219,6.118l-4.077,2.726
		c-2.028,1.356-4.771,0.81-6.125-1.22l-40.822-61.202c-1.353-2.028-0.804-4.769,1.224-6.122l4.102-2.734
		C94.349,314.301,97.09,314.849,98.442,316.877z"/>
      <path style="fill:#464655;" d="M121.294,210.443l40.818-61.257c1.353-2.03,4.095-2.578,6.124-1.224l4.087,2.729
		c2.027,1.353,2.573,4.093,1.222,6.12l-40.834,61.223c-1.35,2.023-4.081,2.573-6.108,1.231l-4.071-2.695
		C120.494,215.222,119.94,212.475,121.294,210.443z"/>
      <path style="fill:#464655;" d="M104.147,199.01l40.825-61.269c1.353-2.03,4.097-2.578,6.126-1.222l4.077,2.726
		c2.024,1.353,2.57,4.089,1.22,6.116l-40.814,61.272c-1.353,2.03-4.095,2.579-6.124,1.224l-4.088-2.729
		C103.343,203.776,102.796,201.037,104.147,199.01z"/>
      <path style="fill:#464655;" d="M86.99,187.626l40.829-61.33c1.353-2.031,4.098-2.58,6.127-1.224l4.077,2.726
		c2.024,1.353,2.57,4.087,1.222,6.114l-40.804,61.339c-1.351,2.031-4.094,2.581-6.123,1.228l-4.102-2.734
		C86.189,192.393,85.641,189.654,86.99,187.626z"/>
      <path style="fill:#464655;" d="M338.493,355.19l16.047-24.035c1.355-2.029,4.099-2.574,6.126-1.217l4.066,2.723
		c2.023,1.354,2.567,4.09,1.217,6.116l-16.028,24.04c-1.353,2.029-4.095,2.577-6.123,1.223l-4.086-2.728
		C337.685,359.958,337.139,357.218,338.493,355.19z"/>
      <path style="fill:#464655;" d="M363.243,318.142l16.073-24.154c1.352-2.03,4.094-2.58,6.123-1.227l4.096,2.73
		c2.029,1.353,2.577,4.096,1.223,6.124l-16.107,24.116c-1.351,2.023-4.082,2.571-6.109,1.227l-4.062-2.692
		C362.445,322.917,361.891,320.173,363.243,318.142z"/>
      <path style="fill:#464655;" d="M355.626,366.699l16.057-24.098c1.352-2.029,4.093-2.578,6.122-1.225l4.104,2.737
		c2.027,1.352,2.575,4.09,1.225,6.119l-16.047,24.1c-1.351,2.029-4.09,2.579-6.12,1.228l-4.115-2.739
		C354.824,371.47,354.274,368.728,355.626,366.699z"/>
      <path style="fill:#464655;" d="M380.403,329.464l16.066-24.042c1.354-2.025,4.092-2.571,6.119-1.22l4.102,2.734
		c2.029,1.353,2.577,4.096,1.221,6.124l-16.065,24.042c-1.353,2.025-4.092,2.571-6.118,1.22l-4.103-2.734
		C379.594,334.237,379.047,331.493,380.403,329.464z"/>
      <path style="fill:#464655;" d="M372.771,378.082l16.075-24.056c1.35-2.019,4.077-2.569,6.103-1.23l4.086,2.7
		c2.039,1.348,2.595,4.097,1.239,6.131l-16.063,24.088c-1.352,2.028-4.093,2.575-6.121,1.224l-4.099-2.732
		C371.962,382.853,371.415,380.11,372.771,378.082z"/>
      <path style="fill:#464655;" d="M397.554,340.97l16.035-24.085c1.353-2.031,4.098-2.58,6.127-1.223l4.072,2.722
		c2.025,1.354,2.57,4.093,1.218,6.119l-16.049,24.053c-1.349,2.024-4.083,2.573-6.11,1.229l-4.06-2.69
		C396.754,345.747,396.201,343.002,397.554,340.97z"/>
    </g>
  </symbol>
  <symbol id="svg-america" viewBox="0 0 512 512">
    <path style="fill:#F5F5F5;" d="M503.172,423.725H8.828c-4.875,0-8.828-3.953-8.828-8.828V97.104c0-4.875,3.953-8.828,8.828-8.828
	h494.345c4.875,0,8.828,3.953,8.828,8.828v317.793C512,419.773,508.047,423.725,503.172,423.725z"/>
    <g>
      <path style="fill:#FF4B55;" d="M512,114.081H0V97.104c0-4.875,3.953-8.828,8.828-8.828h494.345c4.875,0,8.828,3.953,8.828,8.828
		L512,114.081L512,114.081z"/>
      <rect y="191.491" style="fill:#FF4B55;" width="512" height="25.804"/>
      <rect y="139.881" style="fill:#FF4B55;" width="512" height="25.804"/>
      <path style="fill:#FF4B55;" d="M512,268.903H8.828c-4.875,0-8.828-3.953-8.828-8.828v-16.977h512V268.903z"/>
      <rect y="346.321" style="fill:#FF4B55;" width="512" height="25.804"/>
      <path style="fill:#FF4B55;" d="M503.172,423.725H8.828c-4.875,0-8.828-3.953-8.828-8.828v-16.976h512v16.977
		C512,419.773,508.047,423.725,503.172,423.725z"/>
      <rect y="294.711" style="fill:#FF4B55;" width="512" height="25.804"/>
    </g>
    <path style="fill:#41479B;" d="M229.517,88.277H8.828C3.953,88.277,0,92.229,0,97.104v162.97c0,4.875,3.953,8.828,8.828,8.828
	h220.69c4.875,0,8.828-3.953,8.828-8.828V97.104C238.345,92.229,234.392,88.277,229.517,88.277z"/>
    <g>
      <path style="fill:#F5F5F5;" d="M24.789,108.538l1.954,5.86l6.177,0.047c0.8,0.007,1.131,1.027,0.488,1.502l-4.969,3.67l1.864,5.889
		c0.242,0.762-0.627,1.394-1.278,0.928L24,122.843l-5.025,3.592c-0.651,0.465-1.518-0.166-1.278-0.928l1.864-5.889l-4.969-3.67
		c-0.643-0.476-0.312-1.495,0.488-1.502l6.177-0.047l1.954-5.86C23.463,107.779,24.535,107.779,24.789,108.538z"/>
      <path style="fill:#F5F5F5;" d="M24.789,139.192l1.954,5.86l6.177,0.047c0.8,0.007,1.131,1.027,0.488,1.502l-4.969,3.67l1.864,5.889
		c0.242,0.762-0.627,1.394-1.278,0.928L24,153.497l-5.025,3.592c-0.651,0.465-1.518-0.166-1.278-0.928l1.864-5.889l-4.969-3.67
		c-0.643-0.476-0.312-1.495,0.488-1.502l6.177-0.047l1.954-5.86C23.463,138.434,24.535,138.434,24.789,139.192z"/>
      <path style="fill:#F5F5F5;" d="M24.789,169.846l1.954,5.86l6.177,0.047c0.8,0.007,1.131,1.027,0.488,1.502l-4.969,3.67l1.864,5.889
		c0.242,0.762-0.627,1.394-1.278,0.928L24,184.151l-5.025,3.592c-0.651,0.465-1.518-0.166-1.278-0.928l1.864-5.889l-4.969-3.67
		c-0.643-0.476-0.312-1.495,0.488-1.502l6.177-0.047l1.954-5.86C23.463,169.088,24.535,169.088,24.789,169.846z"/>
      <path style="fill:#F5F5F5;" d="M24.789,200.501l1.954,5.86l6.177,0.047c0.8,0.007,1.131,1.027,0.488,1.502l-4.969,3.67l1.864,5.889
		c0.242,0.762-0.627,1.394-1.278,0.928L24,214.806l-5.025,3.592c-0.651,0.465-1.518-0.166-1.278-0.928l1.864-5.889l-4.969-3.67
		c-0.643-0.476-0.312-1.495,0.488-1.502l6.177-0.047l1.954-5.86C23.463,199.742,24.535,199.742,24.789,200.501z"/>
      <path style="fill:#F5F5F5;" d="M24.789,231.155l1.954,5.86l6.177,0.047c0.8,0.007,1.131,1.027,0.488,1.502l-4.969,3.67l1.864,5.889
		c0.242,0.762-0.627,1.394-1.278,0.928L24,245.46l-5.025,3.592c-0.651,0.465-1.518-0.166-1.278-0.928l1.864-5.889l-4.969-3.67
		c-0.643-0.476-0.312-1.495,0.488-1.502l6.177-0.047l1.954-5.86C23.463,230.395,24.535,230.395,24.789,231.155z"/>
      <path style="fill:#F5F5F5;" d="M48.582,123.567l1.954,5.86l6.177,0.047c0.8,0.007,1.131,1.027,0.488,1.502l-4.969,3.67l1.864,5.889
		c0.242,0.762-0.627,1.394-1.278,0.928l-5.025-3.592l-5.025,3.592c-0.651,0.465-1.518-0.166-1.278-0.928l1.864-5.889l-4.969-3.67
		c-0.643-0.476-0.312-1.495,0.488-1.502l6.177-0.047l1.954-5.86C47.255,122.809,48.329,122.809,48.582,123.567z"/>
      <path style="fill:#F5F5F5;" d="M48.582,154.222l1.954,5.86l6.177,0.047c0.8,0.007,1.131,1.027,0.488,1.502l-4.969,3.67l1.864,5.889
		c0.242,0.762-0.627,1.394-1.278,0.928l-5.025-3.592l-5.025,3.592c-0.651,0.465-1.518-0.165-1.278-0.928l1.864-5.889l-4.969-3.67
		c-0.643-0.476-0.312-1.495,0.488-1.502l6.177-0.047l1.954-5.86C47.255,153.463,48.329,153.463,48.582,154.222z"/>
      <path style="fill:#F5F5F5;" d="M48.582,184.876l1.954,5.86l6.177,0.047c0.8,0.007,1.131,1.027,0.488,1.502l-4.969,3.67l1.864,5.889
		c0.242,0.762-0.627,1.394-1.278,0.928l-5.025-3.592l-5.025,3.592c-0.651,0.465-1.518-0.166-1.278-0.928l1.864-5.889l-4.969-3.67
		c-0.643-0.476-0.312-1.495,0.488-1.502l6.177-0.047l1.954-5.86C47.255,184.117,48.329,184.117,48.582,184.876z"/>
      <path style="fill:#F5F5F5;" d="M48.582,215.53l1.954,5.86l6.177,0.047c0.8,0.007,1.131,1.027,0.488,1.502l-4.969,3.67l1.864,5.889
		c0.242,0.762-0.627,1.394-1.278,0.928l-5.025-3.592l-5.025,3.592c-0.651,0.465-1.518-0.166-1.278-0.928l1.864-5.889l-4.969-3.67
		c-0.643-0.476-0.312-1.495,0.488-1.502l6.177-0.047l1.954-5.86C47.255,214.772,48.329,214.772,48.582,215.53z"/>
      <path style="fill:#F5F5F5;" d="M72.375,108.538l1.954,5.86l6.177,0.047c0.8,0.007,1.131,1.027,0.488,1.502l-4.969,3.67l1.864,5.889
		c0.242,0.762-0.627,1.394-1.278,0.928l-5.025-3.592l-5.025,3.592c-0.651,0.465-1.518-0.166-1.278-0.928l1.864-5.889l-4.969-3.67
		c-0.643-0.476-0.312-1.495,0.488-1.502l6.177-0.047l1.954-5.86C71.049,107.779,72.122,107.779,72.375,108.538z"/>
      <path style="fill:#F5F5F5;" d="M72.375,139.192l1.954,5.86l6.177,0.047c0.8,0.007,1.131,1.027,0.488,1.502l-4.969,3.67l1.864,5.889
		c0.242,0.762-0.627,1.394-1.278,0.928l-5.025-3.592l-5.025,3.592c-0.651,0.465-1.518-0.166-1.278-0.928l1.864-5.889l-4.969-3.67
		c-0.643-0.476-0.312-1.495,0.488-1.502l6.177-0.047l1.954-5.86C71.049,138.434,72.122,138.434,72.375,139.192z"/>
      <path style="fill:#F5F5F5;" d="M72.375,169.846l1.954,5.86l6.177,0.047c0.8,0.007,1.131,1.027,0.488,1.502l-4.969,3.67l1.864,5.889
		c0.242,0.762-0.627,1.394-1.278,0.928l-5.025-3.592l-5.025,3.592c-0.651,0.465-1.518-0.166-1.278-0.928l1.864-5.889l-4.969-3.67
		c-0.643-0.476-0.312-1.495,0.488-1.502l6.177-0.047l1.954-5.86C71.049,169.088,72.122,169.088,72.375,169.846z"/>
      <path style="fill:#F5F5F5;" d="M72.375,200.501l1.954,5.86l6.177,0.047c0.8,0.007,1.131,1.027,0.488,1.502l-4.969,3.67l1.864,5.889
		c0.242,0.762-0.627,1.394-1.278,0.928l-5.025-3.592l-5.025,3.592c-0.651,0.465-1.518-0.166-1.278-0.928l1.864-5.889l-4.969-3.67
		c-0.643-0.476-0.312-1.495,0.488-1.502l6.177-0.047l1.954-5.86C71.049,199.742,72.122,199.742,72.375,200.501z"/>
      <path style="fill:#F5F5F5;" d="M72.375,231.155l1.954,5.86l6.177,0.047c0.8,0.007,1.131,1.027,0.488,1.502l-4.969,3.67l1.864,5.889
		c0.242,0.762-0.627,1.394-1.278,0.928l-5.025-3.592l-5.025,3.592c-0.651,0.465-1.518-0.166-1.278-0.928l1.864-5.889l-4.969-3.67
		c-0.643-0.476-0.312-1.495,0.488-1.502l6.177-0.047l1.954-5.86C71.049,230.395,72.122,230.395,72.375,231.155z"/>
      <path style="fill:#F5F5F5;" d="M96.169,123.567l1.954,5.86l6.177,0.047c0.8,0.007,1.131,1.027,0.488,1.502l-4.969,3.67l1.864,5.889
		c0.242,0.762-0.627,1.394-1.278,0.928l-5.025-3.592l-5.025,3.592c-0.651,0.465-1.518-0.166-1.278-0.928l1.864-5.889l-4.969-3.67
		c-0.643-0.476-0.312-1.495,0.488-1.502l6.177-0.047l1.954-5.86C94.842,122.809,95.916,122.809,96.169,123.567z"/>
      <path style="fill:#F5F5F5;" d="M96.169,154.222l1.954,5.86l6.177,0.047c0.8,0.007,1.131,1.027,0.488,1.502l-4.969,3.67l1.864,5.889
		c0.242,0.762-0.627,1.394-1.278,0.928l-5.025-3.592l-5.025,3.592c-0.651,0.465-1.518-0.165-1.278-0.928l1.864-5.889l-4.969-3.67
		c-0.643-0.476-0.312-1.495,0.488-1.502l6.177-0.047l1.954-5.86C94.842,153.463,95.916,153.463,96.169,154.222z"/>
      <path style="fill:#F5F5F5;" d="M96.169,184.876l1.954,5.86l6.177,0.047c0.8,0.007,1.131,1.027,0.488,1.502l-4.969,3.67l1.864,5.889
		c0.242,0.762-0.627,1.394-1.278,0.928l-5.025-3.592l-5.025,3.592c-0.651,0.465-1.518-0.166-1.278-0.928l1.864-5.889l-4.969-3.67
		c-0.643-0.476-0.312-1.495,0.488-1.502l6.177-0.047l1.954-5.86C94.842,184.117,95.916,184.117,96.169,184.876z"/>
      <path style="fill:#F5F5F5;" d="M96.169,215.53l1.954,5.86l6.177,0.047c0.8,0.007,1.131,1.027,0.488,1.502l-4.969,3.67l1.864,5.889
		c0.242,0.762-0.627,1.394-1.278,0.928l-5.025-3.592l-5.025,3.592c-0.651,0.465-1.518-0.166-1.278-0.928l1.864-5.889l-4.969-3.67
		c-0.643-0.476-0.312-1.495,0.488-1.502l6.177-0.047l1.954-5.86C94.842,214.772,95.916,214.772,96.169,215.53z"/>
      <path style="fill:#F5F5F5;" d="M119.962,108.538l1.954,5.86l6.177,0.047c0.8,0.007,1.131,1.027,0.488,1.502l-4.969,3.67
		l1.864,5.889c0.242,0.762-0.627,1.394-1.278,0.928l-5.026-3.592l-5.025,3.592c-0.651,0.465-1.518-0.166-1.278-0.928l1.864-5.889
		l-4.969-3.67c-0.643-0.476-0.312-1.495,0.488-1.502l6.177-0.047l1.954-5.86C118.636,107.779,119.709,107.779,119.962,108.538z"/>
      <path style="fill:#F5F5F5;" d="M119.962,139.192l1.954,5.86l6.177,0.047c0.8,0.007,1.131,1.027,0.488,1.502l-4.969,3.67
		l1.864,5.889c0.242,0.762-0.627,1.394-1.278,0.928l-5.026-3.592l-5.025,3.592c-0.651,0.465-1.518-0.166-1.278-0.928l1.864-5.889
		l-4.969-3.67c-0.643-0.476-0.312-1.495,0.488-1.502l6.177-0.047l1.954-5.86C118.636,138.434,119.709,138.434,119.962,139.192z"/>
      <path style="fill:#F5F5F5;" d="M119.962,169.846l1.954,5.86l6.177,0.047c0.8,0.007,1.131,1.027,0.488,1.502l-4.969,3.67
		l1.864,5.889c0.242,0.762-0.627,1.394-1.278,0.928l-5.026-3.592l-5.025,3.592c-0.651,0.465-1.518-0.166-1.278-0.928l1.864-5.889
		l-4.969-3.67c-0.643-0.476-0.312-1.495,0.488-1.502l6.177-0.047l1.954-5.86C118.636,169.088,119.709,169.088,119.962,169.846z"/>
      <path style="fill:#F5F5F5;" d="M119.962,200.501l1.954,5.86l6.177,0.047c0.8,0.007,1.131,1.027,0.488,1.502l-4.969,3.67
		l1.864,5.889c0.242,0.762-0.627,1.394-1.278,0.928l-5.026-3.592l-5.025,3.592c-0.651,0.465-1.518-0.166-1.278-0.928l1.864-5.889
		l-4.969-3.67c-0.643-0.476-0.312-1.495,0.488-1.502l6.177-0.047l1.954-5.86C118.636,199.742,119.709,199.742,119.962,200.501z"/>
      <path style="fill:#F5F5F5;" d="M119.962,231.155l1.954,5.86l6.177,0.047c0.8,0.007,1.131,1.027,0.488,1.502l-4.969,3.67
		l1.864,5.889c0.242,0.762-0.627,1.394-1.278,0.928l-5.026-3.592l-5.025,3.592c-0.651,0.465-1.518-0.166-1.278-0.928l1.864-5.889
		l-4.969-3.67c-0.643-0.476-0.312-1.495,0.488-1.502l6.177-0.047l1.954-5.86C118.636,230.395,119.709,230.395,119.962,231.155z"/>
      <path style="fill:#F5F5F5;" d="M143.755,123.567l1.954,5.86l6.177,0.047c0.8,0.007,1.131,1.027,0.488,1.502l-4.969,3.67
		l1.864,5.889c0.242,0.762-0.627,1.394-1.278,0.928l-5.025-3.592l-5.025,3.592c-0.651,0.465-1.518-0.166-1.278-0.928l1.864-5.889
		l-4.969-3.67c-0.643-0.476-0.312-1.495,0.488-1.502l6.177-0.047l1.954-5.86C142.43,122.809,143.502,122.809,143.755,123.567z"/>
      <path style="fill:#F5F5F5;" d="M143.755,154.222l1.954,5.86l6.177,0.047c0.8,0.007,1.131,1.027,0.488,1.502l-4.969,3.67
		l1.864,5.889c0.242,0.762-0.627,1.394-1.278,0.928l-5.025-3.592l-5.025,3.592c-0.651,0.465-1.518-0.165-1.278-0.928l1.864-5.889
		l-4.969-3.67c-0.643-0.476-0.312-1.495,0.488-1.502l6.177-0.047l1.954-5.86C142.43,153.463,143.502,153.463,143.755,154.222z"/>
      <path style="fill:#F5F5F5;" d="M143.755,184.876l1.954,5.86l6.177,0.047c0.8,0.007,1.131,1.027,0.488,1.502l-4.969,3.67
		l1.864,5.889c0.242,0.762-0.627,1.394-1.278,0.928l-5.025-3.592l-5.025,3.592c-0.651,0.465-1.518-0.166-1.278-0.928l1.864-5.889
		l-4.969-3.67c-0.643-0.476-0.312-1.495,0.488-1.502l6.177-0.047l1.954-5.86C142.43,184.117,143.502,184.117,143.755,184.876z"/>
      <path style="fill:#F5F5F5;" d="M143.755,215.53l1.954,5.86l6.177,0.047c0.8,0.007,1.131,1.027,0.488,1.502l-4.969,3.67l1.864,5.889
		c0.242,0.762-0.627,1.394-1.278,0.928l-5.025-3.592l-5.025,3.592c-0.651,0.465-1.518-0.166-1.278-0.928l1.864-5.889l-4.969-3.67
		c-0.643-0.476-0.312-1.495,0.488-1.502l6.177-0.047l1.954-5.86C142.43,214.772,143.502,214.772,143.755,215.53z"/>
      <path style="fill:#F5F5F5;" d="M167.549,108.538l1.954,5.86l6.177,0.047c0.8,0.007,1.131,1.027,0.488,1.502l-4.969,3.67
		l1.864,5.889c0.242,0.762-0.627,1.394-1.278,0.928l-5.025-3.592l-5.025,3.592c-0.651,0.465-1.518-0.166-1.278-0.928l1.864-5.889
		l-4.969-3.67c-0.643-0.476-0.312-1.495,0.488-1.502l6.177-0.047l1.954-5.86C166.222,107.779,167.296,107.779,167.549,108.538z"/>
      <path style="fill:#F5F5F5;" d="M167.549,139.192l1.954,5.86l6.177,0.047c0.8,0.007,1.131,1.027,0.488,1.502l-4.969,3.67
		l1.864,5.889c0.242,0.762-0.627,1.394-1.278,0.928l-5.025-3.592l-5.025,3.592c-0.651,0.465-1.518-0.166-1.278-0.928l1.864-5.889
		l-4.969-3.67c-0.643-0.476-0.312-1.495,0.488-1.502l6.177-0.047l1.954-5.86C166.222,138.434,167.296,138.434,167.549,139.192z"/>
      <path style="fill:#F5F5F5;" d="M167.549,169.846l1.954,5.86l6.177,0.047c0.8,0.007,1.131,1.027,0.488,1.502l-4.969,3.67
		l1.864,5.889c0.242,0.762-0.627,1.394-1.278,0.928l-5.025-3.592l-5.025,3.592c-0.651,0.465-1.518-0.166-1.278-0.928l1.864-5.889
		l-4.969-3.67c-0.643-0.476-0.312-1.495,0.488-1.502l6.177-0.047l1.954-5.86C166.222,169.088,167.296,169.088,167.549,169.846z"/>
      <path style="fill:#F5F5F5;" d="M167.549,200.501l1.954,5.86l6.177,0.047c0.8,0.007,1.131,1.027,0.488,1.502l-4.969,3.67
		l1.864,5.889c0.242,0.762-0.627,1.394-1.278,0.928l-5.025-3.592l-5.025,3.592c-0.651,0.465-1.518-0.166-1.278-0.928l1.864-5.889
		l-4.969-3.67c-0.643-0.476-0.312-1.495,0.488-1.502l6.177-0.047l1.954-5.86C166.222,199.742,167.296,199.742,167.549,200.501z"/>
      <path style="fill:#F5F5F5;" d="M167.549,231.155l1.954,5.86l6.177,0.047c0.8,0.007,1.131,1.027,0.488,1.502l-4.969,3.67
		l1.864,5.889c0.242,0.762-0.627,1.394-1.278,0.928l-5.025-3.592l-5.025,3.592c-0.651,0.465-1.518-0.166-1.278-0.928l1.864-5.889
		l-4.969-3.67c-0.643-0.476-0.312-1.495,0.488-1.502l6.177-0.047l1.954-5.86C166.222,230.395,167.296,230.395,167.549,231.155z"/>
      <path style="fill:#F5F5F5;" d="M191.342,123.567l1.954,5.86l6.177,0.047c0.8,0.007,1.131,1.027,0.488,1.502l-4.969,3.67
		l1.864,5.889c0.242,0.762-0.627,1.394-1.278,0.928l-5.025-3.592l-5.025,3.592c-0.651,0.465-1.518-0.166-1.278-0.928l1.864-5.889
		l-4.969-3.67c-0.643-0.476-0.312-1.495,0.488-1.502l6.177-0.047l1.954-5.86C190.016,122.809,191.09,122.809,191.342,123.567z"/>
      <path style="fill:#F5F5F5;" d="M191.342,154.222l1.954,5.86l6.177,0.047c0.8,0.007,1.131,1.027,0.488,1.502l-4.969,3.67
		l1.864,5.889c0.242,0.762-0.627,1.394-1.278,0.928l-5.025-3.592l-5.025,3.592c-0.651,0.465-1.518-0.165-1.278-0.928l1.864-5.889
		l-4.969-3.67c-0.643-0.476-0.312-1.495,0.488-1.502l6.177-0.047l1.954-5.86C190.016,153.463,191.09,153.463,191.342,154.222z"/>
      <path style="fill:#F5F5F5;" d="M191.342,184.876l1.954,5.86l6.177,0.047c0.8,0.007,1.131,1.027,0.488,1.502l-4.969,3.67
		l1.864,5.889c0.242,0.762-0.627,1.394-1.278,0.928l-5.025-3.592l-5.025,3.592c-0.651,0.465-1.518-0.166-1.278-0.928l1.864-5.889
		l-4.969-3.67c-0.643-0.476-0.312-1.495,0.488-1.502l6.177-0.047l1.954-5.86C190.016,184.117,191.09,184.117,191.342,184.876z"/>
      <path style="fill:#F5F5F5;" d="M191.342,215.53l1.954,5.86l6.177,0.047c0.8,0.007,1.131,1.027,0.488,1.502l-4.969,3.67l1.864,5.889
		c0.242,0.762-0.627,1.394-1.278,0.928l-5.025-3.592l-5.025,3.592c-0.651,0.465-1.518-0.166-1.278-0.928l1.864-5.889l-4.969-3.67
		c-0.643-0.476-0.312-1.495,0.488-1.502l6.177-0.047l1.954-5.86C190.016,214.772,191.09,214.772,191.342,215.53z"/>
      <path style="fill:#F5F5F5;" d="M215.136,108.538l1.954,5.86l6.177,0.047c0.8,0.007,1.131,1.027,0.488,1.502l-4.969,3.67
		l1.864,5.889c0.242,0.762-0.627,1.394-1.278,0.928l-5.025-3.592l-5.025,3.592c-0.651,0.465-1.518-0.166-1.278-0.928l1.864-5.889
		l-4.969-3.67c-0.643-0.476-0.312-1.495,0.488-1.502l6.177-0.047l1.954-5.86C213.81,107.779,214.882,107.779,215.136,108.538z"/>
      <path style="fill:#F5F5F5;" d="M215.136,139.192l1.954,5.86l6.177,0.047c0.8,0.007,1.131,1.027,0.488,1.502l-4.969,3.67
		l1.864,5.889c0.242,0.762-0.627,1.394-1.278,0.928l-5.025-3.592l-5.025,3.592c-0.651,0.465-1.518-0.166-1.278-0.928l1.864-5.889
		l-4.969-3.67c-0.643-0.476-0.312-1.495,0.488-1.502l6.177-0.047l1.954-5.86C213.81,138.434,214.882,138.434,215.136,139.192z"/>
      <path style="fill:#F5F5F5;" d="M215.136,169.846l1.954,5.86l6.177,0.047c0.8,0.007,1.131,1.027,0.488,1.502l-4.969,3.67
		l1.864,5.889c0.242,0.762-0.627,1.394-1.278,0.928l-5.025-3.592l-5.025,3.592c-0.651,0.465-1.518-0.166-1.278-0.928l1.864-5.889
		l-4.969-3.67c-0.643-0.476-0.312-1.495,0.488-1.502l6.177-0.047l1.954-5.86C213.81,169.088,214.882,169.088,215.136,169.846z"/>
      <path style="fill:#F5F5F5;" d="M215.136,200.501l1.954,5.86l6.177,0.047c0.8,0.007,1.131,1.027,0.488,1.502l-4.969,3.67
		l1.864,5.889c0.242,0.762-0.627,1.394-1.278,0.928l-5.025-3.592l-5.025,3.592c-0.651,0.465-1.518-0.166-1.278-0.928l1.864-5.889
		l-4.969-3.67c-0.643-0.476-0.312-1.495,0.488-1.502l6.177-0.047l1.954-5.86C213.81,199.742,214.882,199.742,215.136,200.501z"/>
      <path style="fill:#F5F5F5;" d="M215.136,231.155l1.954,5.86l6.177,0.047c0.8,0.007,1.131,1.027,0.488,1.502l-4.969,3.67
		l1.864,5.889c0.242,0.762-0.627,1.394-1.278,0.928l-5.025-3.592l-5.025,3.592c-0.651,0.465-1.518-0.166-1.278-0.928l1.864-5.889
		l-4.969-3.67c-0.643-0.476-0.312-1.495,0.488-1.502l6.177-0.047l1.954-5.86C213.81,230.395,214.882,230.395,215.136,231.155z"/>
    </g>
  </symbol>
</svg>