<svg style="width:0;height:0" xmlns="http://www.w3.org/2000/svg"><symbol id="svg-fb" viewBox="0 0 11 22"><path d="M6.875 7.563v-2.75c0-.76.616-1.375 1.375-1.375h1.375V0h-2.75A4.125 4.125 0 0 0 2.75 4.125v3.438H0V11h2.75v11h4.125V11h2.75L11 7.562H6.875z"/></symbol><symbol id="svg-youtube" viewBox="0 0 20 14"><path d="M19.15 1.35C18.608.366 18.019.185 16.82.116 15.623.034 12.611 0 10.002 0 7.39 0 4.376.034 3.18.116 1.984.186 1.394.366.846 1.349.288 2.33 0 4.021 0 6.996v.01c0 2.963.287 4.666.846 5.637.548.983 1.136 1.161 2.333 1.244 1.197.071 4.21.113 6.823.113 2.61 0 5.62-.042 6.82-.112 1.198-.083 1.787-.26 2.33-1.243.563-.971.848-2.674.848-5.637v-.011c0-2.976-.285-4.667-.85-5.648zM7.5 10.817V3.182L13.75 7 7.5 10.818z"/></symbol><symbol id="svg-vk" viewBox="0 0 19 11"><path d="M18.83 9.811c-.05-.086-.366-.783-1.886-2.215-1.592-1.499-1.378-1.255.539-3.847C18.65 2.17 19.117 1.206 18.97.794c-.14-.393-.998-.289-.998-.289l-2.855.017s-.211-.029-.37.066c-.152.094-.25.311-.25.311s-.453 1.222-1.057 2.26c-1.272 2.193-1.781 2.308-1.989 2.172-.483-.317-.362-1.275-.362-1.954 0-2.125.317-3.01-.619-3.24-.31-.075-.539-.126-1.333-.134-1.02-.011-1.883.003-2.37.245-.326.162-.577.522-.424.543.19.025.617.116.844.43.293.403.282 1.312.282 1.312s.169 2.5-.393 2.811c-.386.214-.914-.221-2.048-2.21-.581-1.02-1.02-2.146-1.02-2.146s-.085-.21-.236-.322c-.183-.136-.44-.18-.44-.18L.62.505S.212.516.062.695c-.133.16-.01.49-.01.49s2.125 5.046 4.531 7.59c2.208 2.332 4.714 2.179 4.714 2.179h1.135s.343-.039.518-.23c.161-.176.155-.507.155-.507s-.022-1.546.686-1.773c.697-.225 1.592 1.494 2.541 2.155.717.5 1.262.39 1.262.39l2.538-.035s1.328-.084.699-1.143z"/></symbol><symbol id="svg-twitter" viewBox="0 0 18 14"><path d="M18 1.657a7.963 7.963 0 0 1-2.126.558A3.544 3.544 0 0 0 17.497.263c-.713.407-1.5.694-2.34.855A3.777 3.777 0 0 0 12.462 0c-2.043 0-3.688 1.587-3.688 3.533 0 .28.025.55.085.806-3.067-.143-5.782-1.55-7.606-3.695A3.441 3.441 0 0 0 .748 2.43c0 1.223.658 2.307 1.64 2.935A3.77 3.77 0 0 1 .72 4.93v.039C.72 6.686 2 8.11 3.677 8.439c-.3.08-.628.117-.968.117-.236 0-.475-.013-.699-.06.479 1.399 1.835 2.427 3.449 2.46a7.627 7.627 0 0 1-4.576 1.507c-.302 0-.593-.013-.883-.048A10.729 10.729 0 0 0 5.661 14c6.79 0 10.503-5.385 10.503-10.052 0-.156-.006-.307-.014-.457A7.197 7.197 0 0 0 18 1.657z"/></symbol><symbol id="svg-envelope" viewBox="0 0 24 19"><path d="M21.07 0H2.935A2.937 2.937 0 0 0 0 2.935V15.33a2.937 2.937 0 0 0 2.935 2.934h18.13A2.937 2.937 0 0 0 24 15.33V2.94A2.934 2.934 0 0 0 21.07 0zm1.594 15.33c0 .879-.715 1.594-1.594 1.594H2.935A1.596 1.596 0 0 1 1.34 15.33V2.94c0-.88.715-1.594 1.594-1.594h18.13c.88 0 1.594.715 1.594 1.594v12.39h.005z" fill="#fff"/><path d="M15.136 8.978l5.87-5.264a.674.674 0 0 0 .05-.948.674.674 0 0 0-.95-.05l-8.094 7.265-1.579-1.41c-.005-.005-.01-.01-.01-.015a.989.989 0 0 0-.109-.094l-6.426-5.75a.67.67 0 0 0-.948.054.67.67 0 0 0 .054.948l5.94 5.309-5.915 5.537a.673.673 0 0 0 .919.983l6.004-5.616 1.628 1.455a.67.67 0 0 0 .894-.005l1.674-1.5 5.969 5.671a.67.67 0 0 0 .924-.973l-5.895-5.597z" fill="#fff"/></symbol><symbol id="svg-map-pointer" viewBox="0 0 20 24"><path d="M9.62 0C4.317 0 0 4.317 0 9.62a9.468 9.468 0 0 0 .236 2.128c.146.65.363 1.289.645 1.897 1.036 2.44 3.315 6.189 8.316 10.204a.683.683 0 0 0 .856 0c4.996-4.015 7.28-7.764 8.317-10.204a9.365 9.365 0 0 0 .71-2.219c.11-.593.17-1.202.17-1.806C19.24 4.317 14.923 0 9.62 0zm8.11 11.19c0 .01-.004.02-.004.03-.005.025-.02.1-.046.216v.01a7.984 7.984 0 0 1-.558 1.64c-.005.006-.005.016-.01.02-.94 2.23-3.004 5.631-7.492 9.34-4.488-3.709-6.55-7.11-7.492-9.34-.005-.004-.005-.014-.01-.02a8.52 8.52 0 0 1-.558-1.64v-.01c-.03-.115-.04-.19-.046-.216 0-.01-.005-.02-.005-.035a8.216 8.216 0 0 1-.15-1.57c0-4.553 3.708-8.262 8.261-8.262 4.554 0 8.262 3.709 8.262 8.262 0 .533-.05 1.062-.151 1.575z" fill="#fff"/><path d="M9.62 3.618a6.118 6.118 0 0 0-6.108 6.108 6.118 6.118 0 0 0 6.108 6.108 6.118 6.118 0 0 0 6.108-6.108A6.118 6.118 0 0 0 9.62 3.618zm0 10.857a4.755 4.755 0 0 1-4.75-4.75 4.758 4.758 0 0 1 4.75-4.749 4.758 4.758 0 0 1 4.75 4.75 4.755 4.755 0 0 1-4.75 4.75z" fill="#fff"/></symbol></svg>