<svg style="width:0;height:0" xmlns="http://www.w3.org/2000/svg"><symbol id="svg-main-1" viewBox="0 0 312 312" fill="none"><circle cx="98" cy="98" r="96.5" transform="translate(58 58)" stroke="#EB5757" stroke-width="3"/><circle opacity=".15" cx="156" cy="156" r="155.5" stroke="#555D68"/><circle opacity=".3" cx="85" cy="85" r="81" transform="translate(71 71)" stroke="#555D68" stroke-width="8"/><path d="M274 156c0 65.17-52.83 118-118 118S38 221.17 38 156 90.83 38 156 38s118 52.83 118 118z" stroke="#F6F6F6" stroke-width="2"/><path d="M49.375 40.625a1.563 1.563 0 1 0 .001 3.126 1.563 1.563 0 0 0-.001-3.126z" transform="translate(116 116)" fill="#EB5757"/><path d="M.388 36.968l.013.015.001.003 38.439 42.5c.286.316.72.514 1.159.514.437 0 .87-.195 1.159-.514l38.438-42.5.002-.003c.005-.004.008-.01.013-.015.5-.57.514-1.406.059-1.989l-.012-.018-12.5-15.625a1.563 1.563 0 0 0-1.22-.586H14.061c-.475 0-.924.216-1.22.586L.341 34.961l-.013.018a1.562 1.562 0 0 0 .06 1.99zM31.51 21.875H48.49l7.5 12.5H24.01l7.5-12.5zM23.646 37.5h32.707L40 74.567 23.646 37.5zm36.123 0h15.15L45.34 70.203 59.769 37.5zm-39.538 0l14.428 32.703L5.08 37.5h15.15zm54.956-3.125H59.635l-7.5-12.5h13.052l10 12.5zm-60.375-12.5h13.053l-7.5 12.5H4.811l10-12.5z" transform="translate(116 116)" fill="#EB5757"/><path d="M43.125 40.625H31.528a1.562 1.562 0 1 0 0 3.125h11.597a1.563 1.563 0 1 0 0-3.125zM40 12.5c.863 0 1.562-.7 1.562-1.563V1.563a1.563 1.563 0 0 0-3.125 0v9.374c0 .864.7 1.563 1.563 1.563zM50.48 12.042l6.25-6.25a1.563 1.563 0 0 0-2.21-2.21l-6.25 6.25a1.563 1.563 0 0 0 2.21 2.21zM29.52 12.042a1.563 1.563 0 0 0 2.21-2.21l-6.25-6.25a1.563 1.563 0 0 0-2.21 2.21l6.25 6.25z" transform="translate(116 116)" fill="#EB5757"/></symbol><symbol id="svg-main-2" viewBox="0 0 312 312" fill="none"><path d="M156 252.5c53.295 0 96.5-43.205 96.5-96.5S209.295 59.5 156 59.5 59.5 102.705 59.5 156s43.205 96.5 96.5 96.5z" stroke="#EB5757" stroke-width="3"/><path opacity=".15" d="M155.5 311c85.88 0 155.5-69.62 155.5-155.5S241.38 0 155.5 0 0 69.62 0 155.5 69.62 311 155.5 311z" transform="translate(.5 .5)" stroke="#555D68"/><path opacity=".3" d="M156 237c44.735 0 81-36.265 81-81s-36.265-81-81-81-81 36.265-81 81 36.265 81 81 81z" stroke="#555D68" stroke-width="8"/><path d="M274 156c0 65.17-52.83 118-118 118S38 221.17 38 156 90.83 38 156 38s118 52.83 118 118z" stroke="#F6F6F6" stroke-width="2"/><path d="M1.25 2.502A1.25 1.25 0 1 0 1.248 0a1.25 1.25 0 0 0 .002 2.502z" transform="translate(152.238 138.012)" fill="#EB5757"/><path d="M4.059 41.902L.039 59.373a1.564 1.564 0 0 0 1.524 1.914h76.874a1.562 1.562 0 0 0 1.523-1.914l-4.019-17.471a4.66 4.66 0 0 0-4.516-3.44h-5.181l-3.74-16.26c-.417-1.818-2.24-3.44-4.516-3.44h-4.26C53.175 16.485 50.556 5.694 50 3.421 49.554 1.592 47.75 0 45.488 0H34.513C32.26 0 30.45 1.583 30 3.422l-3.729 15.34h-4.26c-2.308 0-4.107 1.66-4.515 3.44l-3.74 16.259H8.574c-2.309 0-4.107 1.66-4.516 3.44zM3.526 58.16L7.09 42.661a1.553 1.553 0 0 1 1.484-1.073h11.913c.68 0 1.272.43 1.484 1.073l3.565 15.5H3.526zM27.5 52.755l-2.496-10.852c-.027-.119-.063-.207-.1-.314h5.192c-.038.109-.073.195-.1.314L27.5 52.754zm1.963 5.407l3.565-15.5a1.553 1.553 0 0 1 1.485-1.073h10.974c.682 0 1.273.43 1.485 1.073l3.565 15.5H29.463zM52.5 52.754l-2.496-10.852c-.027-.119-.063-.207-.1-.314h5.192c-.038.109-.072.195-.1.314L52.5 52.754zM72.91 42.66l3.565 15.5H54.463l3.565-15.5a1.553 1.553 0 0 1 1.485-1.073h11.912c.681 0 1.273.43 1.485 1.073zm-13.438-19.7l3.565 15.5H41.963l3.565-15.5a1.553 1.553 0 0 1 1.485-1.072h10.974c.682 0 1.273.43 1.485 1.073zM40 33.055l-2.496-10.852c-.027-.118-.063-.206-.1-.314h5.192c-.038.11-.072.196-.1.314L40 33.054zM33.026 4.208a1.553 1.553 0 0 1 1.487-1.08h10.974c.685 0 1.278.432 1.488 1.08l.497 2.046H43.11a1.563 1.563 0 0 0 0 3.127h5.122l2.28 9.38H29.488l3.538-14.553zM20.528 22.962a1.553 1.553 0 0 1 1.485-1.073h10.974c.682 0 1.273.43 1.485 1.073l3.565 15.499H16.963l3.565-15.5z" transform="translate(116 126)" fill="#EB5757"/><path d="M3.417 8.641l1.513 2.767a1.25 1.25 0 0 0 2.193 0l1.513-2.767 2.766-1.514a1.25 1.25 0 0 0 0-2.194L8.636 3.418 7.123.651a1.25 1.25 0 0 0-2.194 0L3.417 3.418.65 4.932a1.25 1.25 0 0 0 0 2.195l2.767 1.514zm1.52-3.204a1.25 1.25 0 0 0 .497-.497l.592-1.083.592 1.083c.115.21.287.382.497.497l1.083.593-1.083.592a1.25 1.25 0 0 0-.497.497l-.592 1.083-.592-1.083a1.25 1.25 0 0 0-.497-.497L3.855 6.03l1.082-.593z" transform="translate(149.974 118)" fill="#EB5757"/><path d="M3.417 8.64L4.93 11.41a1.25 1.25 0 0 0 2.193 0l1.513-2.768 2.766-1.514a1.25 1.25 0 0 0 0-2.195L8.636 3.42 7.123.65a1.25 1.25 0 0 0-2.194 0L3.417 3.419.65 4.932a1.25 1.25 0 0 0 0 2.195l2.766 1.514zm1.52-3.203a1.25 1.25 0 0 0 .497-.497l.592-1.083.592 1.083c.115.21.287.382.497.497l1.083.593-1.083.592a1.25 1.25 0 0 0-.497.497l-.592 1.083-.592-1.083a1.25 1.25 0 0 0-.497-.497L3.855 6.03l1.082-.593z" transform="translate(164.974 125.69)" fill="#EB5757"/><path d="M3.417 8.64L4.93 11.41a1.25 1.25 0 0 0 2.193 0l1.513-2.768 2.766-1.514a1.25 1.25 0 0 0 0-2.195L8.636 3.42 7.123.65a1.25 1.25 0 0 0-2.194 0L3.417 3.419.65 4.932a1.25 1.25 0 0 0 0 2.195l2.767 1.514zm1.52-3.203a1.25 1.25 0 0 0 .497-.497l.592-1.083.592 1.083c.115.21.287.382.497.497l1.083.593-1.083.592a1.25 1.25 0 0 0-.497.497l-.592 1.083-.592-1.083a1.25 1.25 0 0 0-.497-.497L3.855 6.03l1.082-.593z" transform="translate(134.974 125.69)" fill="#EB5757"/></symbol><symbol id="svg-main-3" viewBox="0 0 312 312" fill="none"><path d="M156 252.5c53.295 0 96.5-43.205 96.5-96.5S209.295 59.5 156 59.5 59.5 102.705 59.5 156s43.205 96.5 96.5 96.5z" stroke="#EB5757" stroke-width="3"/><path opacity=".15" d="M155.5 311c85.88 0 155.5-69.62 155.5-155.5S241.38 0 155.5 0 0 69.62 0 155.5 69.62 311 155.5 311z" transform="translate(.5 .5)" stroke="#555D68"/><path opacity=".3" d="M156 237c44.735 0 81-36.265 81-81s-36.265-81-81-81-81 36.265-81 81 36.265 81 81 81z" stroke="#555D68" stroke-width="8"/><path d="M274 156c0 65.17-52.83 118-118 118S38 221.17 38 156 90.83 38 156 38s118 52.83 118 118z" stroke="#F6F6F6" stroke-width="2"/><path d="M1.563 3.125A1.563 1.563 0 1 0 1.56-.001a1.563 1.563 0 0 0 .002 3.126z" transform="translate(154.438 132.562)" fill="#EB5757"/><path d="M75.313 0H4.686A4.693 4.693 0 0 0 0 4.688v70.624A4.693 4.693 0 0 0 4.688 80h70.624A4.693 4.693 0 0 0 80 75.312V4.689A4.693 4.693 0 0 0 75.312 0zm1.562 75.313c0 .861-.7 1.562-1.563 1.562H4.689c-.862 0-1.563-.7-1.563-1.563V4.689c0-.862.7-1.563 1.563-1.563h70.624c.862 0 1.563.7 1.563 1.563v70.624z" transform="translate(116 116)" fill="#EB5757"/><path d="M57.813 0H1.563C.7 0 0 .7 0 1.563v56.25c0 .862.7 1.562 1.563 1.562h56.25c.862 0 1.562-.7 1.562-1.563V1.563C59.375.7 58.675 0 57.812 0zM56.25 3.125v25H31.24l-.006-14.063a1.55 1.55 0 0 0-1.547-1.562c-.863 0-1.562.7-1.562 1.563l.006 14.062H3.125v-25H56.25zM3.125 31.25h25.007l.008 25H3.125v-25zm28.124 25l-.008-25H56.25v25h-25z" transform="translate(126.312 126.312)" fill="#EB5757"/><path d="M1.563 9.375H6.25v4.688a1.563 1.563 0 0 0 3.125 0V9.375h4.688a1.563 1.563 0 0 0 0-3.125H9.375V1.562a1.563 1.563 0 0 0-3.125 0V6.25H1.562a1.563 1.563 0 0 0 0 3.125z" transform="translate(134.125 134.125)" fill="#EB5757"/><path d="M1.563 3.125h12.5a1.563 1.563 0 0 0 0-3.125h-12.5a1.563 1.563 0 0 0 0 3.125z" transform="translate(162.266 140.375)" fill="#EB5757"/><path d="M14.063 0h-12.5a1.563 1.563 0 0 0 0 3.125h12.5a1.563 1.563 0 0 0 0-3.125z" transform="translate(162.266 165.375)" fill="#EB5757"/><path d="M14.063 0h-12.5a1.563 1.563 0 0 0 0 3.125h12.5a1.563 1.563 0 0 0 0-3.125z" transform="translate(162.266 171.625)" fill="#EB5757"/><path d="M11.505 9.297L8.191 5.982l3.314-3.315a1.563 1.563 0 0 0-2.21-2.21L5.98 3.773 2.668.458a1.562 1.562 0 1 0-2.21 2.21l3.314 3.314L.458 9.297a1.563 1.563 0 1 0 2.21 2.21L5.98 8.192l3.314 3.315a1.563 1.563 0 0 0 2.21-2.21z" transform="translate(135.972 164.094)" fill="#EB5757"/></symbol><symbol id="svg-tradein-1" viewBox="0 0 300 300" fill="none"><circle cx="94.231" cy="94.231" r="92.731" transform="translate(55.77 55.77)" stroke="#EB5757" stroke-width="3"/><circle opacity=".15" cx="150" cy="150" r="149.5" stroke="#555D68"/><circle opacity=".3" cx="81.731" cy="81.731" r="77.731" transform="translate(68.27 68.27)" stroke="#555D68" stroke-width="8"/><path d="M263.423 150c0 62.642-50.781 113.423-113.423 113.423S36.577 212.642 36.577 150 87.358 36.577 150 36.577 263.423 87.358 263.423 150z" stroke="#F6F6F6" stroke-width="2"/><path d="M60.645 42.58a3.876 3.876 0 0 0-3.87 3.872 3.876 3.876 0 0 0 3.87 3.87 3.876 3.876 0 0 0 3.871-3.87 3.876 3.876 0 0 0-3.87-3.871zm0 5.162c-.71 0-1.29-.578-1.29-1.29 0-.713.58-1.29 1.29-1.29.711 0 1.29.577 1.29 1.29 0 .712-.579 1.29-1.29 1.29zM19.355 42.58a3.876 3.876 0 0 0-3.871 3.872 3.876 3.876 0 0 0 3.87 3.87 3.876 3.876 0 0 0 3.872-3.87 3.876 3.876 0 0 0-3.871-3.871zm0 5.162c-.711 0-1.29-.578-1.29-1.29 0-.713.579-1.29 1.29-1.29a1.292 1.292 0 0 1 0 2.58z" transform="translate(110 110)" fill="#EB5757"/><path d="M68.793 50.323H80v-9.766c0-3.209-2.3-5.89-5.47-6.376l-3.184-.49 2.737-2.723h4.627v-2.58h-5.696l-4.237 4.235-.582.567a29.29 29.29 0 0 1-11.137-4.443 25.097 25.097 0 0 0-13.97-4.23 25.142 25.142 0 0 0-13.521 3.937l-2.12 1.349a23.934 23.934 0 0 1-12.865 3.745c-3.057 0-5.988.94-8.475 2.716A14.609 14.609 0 0 0 0 48.13v2.193h11.207a9.076 9.076 0 0 0 3.52 3.87H5.16v2.581H74.84v-2.58h-9.565a9.076 9.076 0 0 0 3.52-3.871zm-58.367-2.581H2.587a12.028 12.028 0 0 1 5.02-9.378 11.95 11.95 0 0 1 6.975-2.235c5.055 0 9.983-1.435 14.249-4.15l2.12-1.348a22.564 22.564 0 0 1 12.137-3.534 22.54 22.54 0 0 1 12.54 3.796 31.893 31.893 0 0 0 12.755 4.952l5.755.887a3.844 3.844 0 0 1 2.808 1.978h-2.107v2.58h2.58v1.29h-2.58v2.581h2.58v2.58h-7.845c.06-.422.103-.85.103-1.29 0-4.979-4.051-9.032-9.032-9.032-4.98 0-9.032 4.053-9.032 9.033 0 .438.043.867.103 1.29H28.284c.06-.423.103-.852.103-1.29 0-4.98-4.052-9.033-9.032-9.033s-9.032 4.053-9.032 9.033c0 .438.042.867.103 1.29zm8.929 5.161a6.459 6.459 0 0 1-6.452-6.451A6.459 6.459 0 0 1 19.355 40a6.459 6.459 0 0 1 6.451 6.452 6.459 6.459 0 0 1-6.451 6.451zm4.628 1.29a9.076 9.076 0 0 0 3.52-3.87h24.994a9.076 9.076 0 0 0 3.52 3.87H23.983zm36.662-1.29a6.459 6.459 0 0 1-6.452-6.451A6.459 6.459 0 0 1 60.645 40a6.459 6.459 0 0 1 6.452 6.452 6.459 6.459 0 0 1-6.452 6.451z" transform="translate(110 110)" fill="#EB5757"/><path d="M54.91 33.765c-3.838-2.559-8.258-4.088-11.822-4.088a19.996 19.996 0 0 0-10.751 3.13l-2.12 1.35c-.214.136-.43.301-.645.469-.177.137-.353.28-.533.382l-1.062.605L30.17 40h22.133l3.68-5.519-1.073-.716zm-3.987 3.654H31.765l-.442-.886c.094-.072.187-.14.28-.199l2.118-1.35a17.415 17.415 0 0 1 9.367-2.726c3.153 0 6.688 1.432 9.297 2.97l-1.462 2.191zM52.903 10.323H27.097v2.58h25.806v-2.58zM65.806 5.161H40v2.581h25.806v-2.58zM78.71 0H52.903v2.58H78.71V0zM40 77.42H14.194V80H40v-2.58zM52.903 72.258H27.097v2.58h25.806v-2.58zM65.806 67.097H40v2.58h25.806v-2.58zM80 54.194h-2.58v2.58H80v-2.58zM2.58 54.194H0v2.58h2.58v-2.58z" transform="translate(110 110)" fill="#EB5757"/></symbol><symbol id="svg-tradein-2" viewBox="0 0 300 300" fill="none"><path d="M150 242.731c51.214 0 92.731-41.517 92.731-92.73 0-51.215-41.517-92.732-92.731-92.732-51.214 0-92.73 41.517-92.73 92.731 0 51.214 41.516 92.731 92.73 92.731z" stroke="#EB5757" stroke-width="3"/><path opacity=".15" d="M149.5 299c82.567 0 149.5-66.933 149.5-149.5S232.067 0 149.5 0 0 66.933 0 149.5 66.933 299 149.5 299z" transform="translate(.5 .5)" stroke="#555D68"/><path opacity=".3" d="M150 227.731c42.93 0 77.731-34.802 77.731-77.731 0-42.93-34.802-77.73-77.73-77.73-42.93 0-77.732 34.8-77.732 77.73 0 42.93 34.802 77.731 77.731 77.731z" stroke="#555D68" stroke-width="8"/><path d="M263.423 150c0 62.642-50.781 113.423-113.423 113.423S36.577 212.642 36.577 150 87.358 36.577 150 36.577 263.423 87.358 263.423 150z" stroke="#F6F6F6" stroke-width="2"/><path d="M80 40C80 17.945 62.056 0 40 0a39.882 39.882 0 0 0-19.625 5.161h-4.891V0H7.742v16.37C2.684 23.26 0 31.416 0 40c0 22.057 17.945 40 40 40 4.915 0 9.712-.884 14.26-2.62A16.658 16.658 0 0 0 63.227 80c4.023 0 7.915-1.447 10.957-4.072l-1.686-1.954a14.19 14.19 0 0 1-9.271 3.445c-7.826 0-14.194-6.367-14.194-14.193S55.4 49.032 63.226 49.032c7.826 0 14.193 6.368 14.193 14.194a14.04 14.04 0 0 1-3.129 8.891l2.012 1.618A16.83 16.83 0 0 0 80 63.226c0-3.3-.972-6.37-2.623-8.968A39.841 39.841 0 0 0 80 40zM20.645 12.903h2.58v18.065h-2.58V12.903zm-5.161-5.161h2.58v23.226h-2.58V7.742zM10.323 2.58h2.58v28.387h-2.58V2.58zM38.71 77.387C19.102 76.717 3.283 60.898 2.613 41.29H38.71v36.097zm0-38.677H2.632c.21-6.282 1.955-12.284 5.11-17.635v12.473h28.387V20.645h-5.161v-5.161h-5.162v-5.161h-5.16V7.99A37.258 37.258 0 0 1 38.71 2.626V38.71zm-12.904-7.742V18.064h2.581v12.904h-2.58zm5.162 0v-7.742h2.58v7.742h-2.58zm46.42 7.742H66.34l9.489-9.49a37.229 37.229 0 0 1 1.557 9.49zm-6.503-19.807L56.473 33.315l1.825 1.824 14-14a37.37 37.37 0 0 1 2.595 5.37l-12.201 12.2h-7.964l1.668-1.668-1.824-1.824-3.493 3.493h-7.964l24.223-24.224a37.86 37.86 0 0 1 3.547 4.417zM41.29 2.613c3.288.112 6.469.646 9.49 1.557l-9.49 9.49V2.612zm0 26.308L56.972 13.24l-1.825-1.825L41.29 25.273v-7.964l12.202-12.2a37.095 37.095 0 0 1 5.369 2.594L56.78 9.78l1.825 1.824 2.49-2.49a37.72 37.72 0 0 1 4.417 3.547L41.29 36.885v-7.964zm21.936 17.53c-9.25 0-16.774 7.526-16.774 16.775 0 4.853 2.084 9.217 5.388 12.282a37.194 37.194 0 0 1-10.55 1.882v-36.1h36.1a37.226 37.226 0 0 1-1.886 10.546c-3.065-3.303-7.428-5.384-12.278-5.384z" transform="translate(110 110)" fill="#EB5757"/><path d="M15.484 0L0 15.484l1.825 1.825L17.309 1.825 15.484 0z" transform="translate(125.867 156.829)" fill="#EB5757"/><path d="M3.87 0A3.876 3.876 0 0 0 0 3.871a3.876 3.876 0 0 0 3.87 3.87 3.876 3.876 0 0 0 3.872-3.87A3.876 3.876 0 0 0 3.87 0zm0 5.161c-.71 0-1.29-.578-1.29-1.29 0-.712.58-1.29 1.29-1.29.712 0 1.291.578 1.291 1.29 0 .712-.58 1.29-1.29 1.29z" transform="translate(135.807 166.774)" fill="#EB5757"/><path d="M3.87 0A3.876 3.876 0 0 0 0 3.871a3.876 3.876 0 0 0 3.87 3.87 3.876 3.876 0 0 0 3.872-3.87A3.876 3.876 0 0 0 3.87 0zm0 5.161c-.71 0-1.29-.578-1.29-1.29a1.292 1.292 0 0 1 2.581 0c0 .712-.58 1.29-1.29 1.29z" transform="translate(125.484 156.452)" fill="#EB5757"/><path d="M5.161 10.323a2.583 2.583 0 0 1-2.58-2.581 2.583 2.583 0 0 1 2.58-2.58 2.583 2.583 0 0 1 2.58 2.58h2.582c0-2.399-1.652-4.401-3.871-4.978V0H3.87v2.764C1.651 3.34 0 5.344 0 7.742a5.167 5.167 0 0 0 5.161 5.161 2.583 2.583 0 0 1 2.58 2.58 2.583 2.583 0 0 1-2.58 2.581 2.583 2.583 0 0 1-2.58-2.58H0c0 2.399 1.652 4.401 3.871 4.978v2.764h2.58v-2.764c2.22-.577 3.872-2.58 3.872-4.978a5.166 5.166 0 0 0-5.162-5.161z" transform="translate(168.064 161.613)" fill="#EB5757"/><path d="M2.58 0H0v2.58h2.58V0z" transform="translate(182.258 171.936)" fill="#EB5757"/><path d="M2.58 0H0v2.58h2.58V0z" transform="translate(161.613 171.936)" fill="#EB5757"/></symbol><symbol id="svg-tradein-3" viewBox="0 0 300 300" fill="none"><path d="M150 242.731c51.214 0 92.731-41.517 92.731-92.73 0-51.215-41.517-92.732-92.73-92.732-51.215 0-92.732 41.517-92.732 92.731 0 51.214 41.517 92.731 92.731 92.731z" stroke="#EB5757" stroke-width="3"/><path opacity=".15" d="M149.5 299c82.567 0 149.5-66.933 149.5-149.5S232.067 0 149.5 0 0 66.933 0 149.5 66.933 299 149.5 299z" transform="translate(.5 .5)" stroke="#555D68"/><path opacity=".3" d="M150 227.731c42.93 0 77.731-34.802 77.731-77.731 0-42.93-34.802-77.73-77.73-77.73-42.93 0-77.732 34.8-77.732 77.73 0 42.93 34.802 77.731 77.731 77.731z" stroke="#555D68" stroke-width="8"/><path d="M263.423 150c0 62.642-50.781 113.423-113.423 113.423S36.577 212.642 36.577 150 87.358 36.577 150 36.577 263.423 87.358 263.423 150z" stroke="#F6F6F6" stroke-width="2"/><path d="M73.333 0H6.667A6.674 6.674 0 0 0 0 6.667v46.666A6.674 6.674 0 0 0 6.667 60h22.402l-2.181 12h-5.239a3.98 3.98 0 0 0-3.578 2.21 3.978 3.978 0 0 0 .174 3.893A3.974 3.974 0 0 0 21.648 80h36.703c1.396 0 2.668-.71 3.402-1.897.735-1.188.8-2.643.175-3.892A3.972 3.972 0 0 0 58.352 72h-5.239l-2.181-12h22.401A6.674 6.674 0 0 0 80 53.333V6.667A6.674 6.674 0 0 0 73.333 0zM58.352 74.667c.508 0 .965.282 1.193.737.3.6.059 1.107-.057 1.297-.12.19-.465.632-1.136.632H21.648c-.67 0-1.017-.442-1.135-.633a1.312 1.312 0 0 1-.057-1.297 1.326 1.326 0 0 1 1.192-.736h17.019a1.334 1.334 0 0 0 0-2.667h-9.07l2.182-12H48.22l2.183 12h-3.736a1.334 1.334 0 0 0 0 2.667h11.685zm18.981-21.334c0 2.206-1.794 4-4 4H6.667c-2.206 0-4-1.794-4-4v-4h74.666v4zm0-6.666H2.667v-40c0-2.206 1.794-4 4-4h66.666c2.206 0 4 1.794 4 4v40z" transform="translate(110 110)" fill="#EB5757"/><path d="M30.667 14.667H17.333V1.333C17.333.597 16.736 0 16 0 7.177 0 0 7.177 0 16s7.177 16 16 16 16-7.177 16-16c0-.736-.597-1.333-1.333-1.333zM16 29.333C8.648 29.333 2.667 23.352 2.667 16c0-6.901 5.272-12.596 12-13.267V16c0 .736.597 1.333 1.333 1.333h13.267c-.671 6.728-6.366 12-13.267 12z" transform="translate(115.333 122)" fill="#EB5757"/><path d="M1.333 0C.597 0 0 .597 0 1.333V16c0 .736.597 1.333 1.333 1.333H16c.736 0 1.333-.597 1.333-1.333 0-8.823-7.177-16-16-16zm1.334 14.667V2.733C8.956 3.36 13.973 8.377 14.6 14.667H2.667z" transform="translate(135.333 116.667)" fill="#EB5757"/><path d="M28 0H1.333C.597 0 0 .597 0 1.333v36c0 .736.597 1.334 1.333 1.334H28c.736 0 1.333-.598 1.333-1.334v-36C29.333.597 28.736 0 28 0zm-1.333 36h-24V2.667h24V36z" transform="translate(155.333 115.333)" fill="#EB5757"/><path d="M9.333 0h-8a1.334 1.334 0 0 0 0 2.667h8a1.334 1.334 0 0 0 0-2.667z" transform="translate(160.667 122)" fill="#EB5757"/><path d="M17.333 0h-16a1.334 1.334 0 0 0 0 2.667h16a1.334 1.334 0 0 0 0-2.667z" transform="translate(160.667 127.333)" fill="#EB5757"/><path d="M9.333 0h-8a1.334 1.334 0 0 0 0 2.667h8a1.334 1.334 0 0 0 0-2.667z" transform="translate(160.667 132.667)" fill="#EB5757"/><path d="M17.333 0h-16a1.334 1.334 0 0 0 0 2.667h16a1.334 1.334 0 0 0 0-2.667z" transform="translate(160.667 138)" fill="#EB5757"/><path d="M9.333 0h-8a1.334 1.334 0 0 0 0 2.667h8a1.334 1.334 0 0 0 0-2.667z" transform="translate(160.667 143.333)" fill="#EB5757"/><path d="M6.667 0H1.333a1.334 1.334 0 0 0 0 2.667h5.334a1.334 1.334 0 0 0 0-2.667z" transform="translate(146 162)" fill="#EB5757"/></symbol><symbol id="svg-tradein-4" viewBox="0 0 300 300" fill="none"><path d="M150 242.731c51.214 0 92.731-41.517 92.731-92.73 0-51.215-41.517-92.732-92.73-92.732-51.215 0-92.732 41.517-92.732 92.731 0 51.214 41.517 92.731 92.731 92.731z" stroke="#EB5757" stroke-width="3"/><path opacity=".15" d="M149.5 299c82.567 0 149.5-66.933 149.5-149.5S232.067 0 149.5 0 0 66.933 0 149.5 66.933 299 149.5 299z" transform="translate(.5 .5)" stroke="#555D68"/><path opacity=".3" d="M150 227.731c42.93 0 77.731-34.802 77.731-77.731 0-42.93-34.802-77.73-77.73-77.73-42.93 0-77.732 34.8-77.732 77.73 0 42.93 34.802 77.731 77.731 77.731z" stroke="#555D68" stroke-width="8"/><path d="M263.423 150c0 62.642-50.781 113.423-113.423 113.423S36.577 212.642 36.577 150 87.358 36.577 150 36.577 263.423 87.358 263.423 150z" stroke="#F6F6F6" stroke-width="2"/><path d="M1.74 4.348c.956 0 1.738-.783 1.738-1.74V1.74C3.478.783 2.696 0 1.74 0 .783 0 0 .783 0 1.74v.869c0 .956.783 1.739 1.74 1.739z" transform="translate(148.261 118.696)" fill="#EB5757"/><path d="M1.74 0C.782 0 0 .783 0 1.74v.869c0 .956.783 1.739 1.74 1.739.956 0 1.738-.783 1.738-1.74V1.74C3.478.783 2.696 0 1.74 0z" transform="translate(148.261 176.957)" fill="#EB5757"/><path d="M2.609 0h-.87C.783 0 0 .783 0 1.74c0 .956.783 1.738 1.74 1.738h.869c.956 0 1.739-.782 1.739-1.739C4.348.783 3.565 0 2.608 0z" transform="translate(118.696 148.261)" fill="#EB5757"/><path d="M2.609 0h-.87C.783 0 0 .783 0 1.74c0 .956.783 1.738 1.74 1.738h.869c.956 0 1.739-.782 1.739-1.739C4.348.783 3.565 0 2.608 0z" transform="translate(176.957 148.261)" fill="#EB5757"/><path d="M2.957.522c-.696-.696-1.74-.696-2.435 0-.696.695-.696 1.739 0 2.434l.608.61c.348.347.783.521 1.218.521.435 0 .87-.174 1.217-.522.696-.695.696-1.739 0-2.435L2.957.522z" transform="translate(127.391 127.391)" fill="#EB5757"/><path d="M1.13.522l-.608.608c-.696.696-.696 1.74 0 2.435.348.348.782.522 1.217.522.435 0 .87-.174 1.218-.522l.608-.609c.696-.695.696-1.739 0-2.434-.695-.696-1.739-.696-2.435 0z" transform="translate(127.391 168.522)" fill="#EB5757"/><path d="M1.13.522l-.608.608c-.696.696-.696 1.74 0 2.435.348.348.782.522 1.217.522.435 0 .87-.174 1.217-.522l.61-.608c.695-.696.695-1.74 0-2.435-.696-.696-1.74-.696-2.436 0z" transform="translate(168.522 127.391)" fill="#EB5757"/><path d="M3.478 17.565V1.74C3.478.783 2.696 0 1.74 0 .783 0 0 .783 0 1.74v16.52c0 .436.174.87.522 1.218l19.043 19.044c.348.348.783.522 1.218.522.434 0 .87-.174 1.217-.522.696-.696.696-1.74 0-2.435L3.478 17.565z" transform="translate(148.261 131.739)" fill="#EB5757"/><path d="M40 0C17.913 0 0 17.913 0 40s17.913 40 40 40 40-17.913 40-40S62.087 0 40 0zm0 76.522C19.826 76.522 3.478 60.174 3.478 40S19.826 3.478 40 3.478 76.522 19.826 76.522 40 60.174 76.522 40 76.522z" transform="translate(110 110)" fill="#EB5757"/></symbol><symbol id="svg-credit-1" viewBox="0 0 300 300" fill="none"><circle cx="94.231" cy="94.231" r="92.731" transform="translate(55.77 55.77)" stroke="#EB5757" stroke-width="3"/><circle opacity=".15" cx="150" cy="150" r="149.5" stroke="#555D68"/><circle opacity=".3" cx="81.731" cy="81.731" r="77.731" transform="translate(68.27 68.27)" stroke="#555D68" stroke-width="8"/><path d="M263.423 150c0 62.642-50.781 113.423-113.423 113.423S36.577 212.642 36.577 150 87.358 36.577 150 36.577 263.423 87.358 263.423 150z" stroke="#F6F6F6" stroke-width="2"/><path d="M36.76 14.066a6.65 6.65 0 0 0-6.642 6.643v4.689a6.65 6.65 0 0 0 6.643 6.642 6.65 6.65 0 0 0 6.642-6.642v-4.69a6.65 6.65 0 0 0-6.642-6.642zm0 15.63a4.303 4.303 0 0 1-4.28-3.913 6.611 6.611 0 0 0 4.28 1.568c1.63 0 3.124-.59 4.28-1.568a4.303 4.303 0 0 1-4.28 3.912zm0-4.69a4.303 4.303 0 0 1-4.297-4.297 4.303 4.303 0 0 1 4.298-4.299 4.303 4.303 0 0 1 4.298 4.299 4.303 4.303 0 0 1-4.298 4.298z" transform="translate(110 118)" fill="#EB5757"/><path d="M36.76 17.974c-.647 0-1.172.524-1.172 1.172v3.126a1.172 1.172 0 0 0 2.345 0v-3.126c0-.648-.525-1.172-1.172-1.172zM57.86 0c-5.817 0-10.55 4.732-10.55 10.55v4.688c0 5.817 4.733 10.55 10.55 10.55 5.81 0 10.538-4.723 10.549-10.53V10.55C68.41 4.732 63.677 0 57.86 0zm0 23.444c-3.715 0-6.859-2.482-7.866-5.874a10.525 10.525 0 0 0 7.866 3.53c3.123 0 5.932-1.366 7.865-3.53-1.007 3.392-4.151 5.874-7.865 5.874zm0-4.689c-4.525 0-8.206-3.68-8.206-8.205s3.682-8.205 8.206-8.205c4.524 0 8.205 3.68 8.205 8.205 0 4.524-3.68 8.205-8.205 8.205z" transform="translate(110 118)" fill="#EB5757"/><path d="M57.86 6.252c-.647 0-1.172.524-1.172 1.171l-.001 6.253a1.172 1.172 0 0 0 2.344 0l.002-6.252c0-.647-.525-1.172-1.172-1.172zM79.325 39.666a5.87 5.87 0 0 0-7.97-2.166c-.508.25-6.992 3.437-12.337 5.686a1.172 1.172 0 0 0 .91 2.161c5.603-2.358 12.429-5.727 12.497-5.76a1.26 1.26 0 0 0 .066-.036 3.522 3.522 0 0 1 4.804 1.288c1.123 1.941-.63 4.073-1.488 4.943-5.82 4.695-21.924 16.733-27.337 16.733-6 0-22.835-3.566-26.953-4.459V38.91c8.164-1.2 12.49.305 21.552 3.463 2.758.96 5.881 2.05 9.678 3.263.566.247 2.136 1.13 1.537 3.128-.363 1.214-1.536 2.374-3.253 2.052-2.308-.433-15.889-2.275-16.466-2.353a1.172 1.172 0 1 0-.314 2.323c.14.02 14.098 1.912 16.347 2.335.35.065.688.096 1.016.096 2.489 0 4.319-1.786 4.916-3.78.629-2.099-.024-4.755-2.896-5.97a.205.205 0 0 0-.012-.006l-.01-.005c-.017-.007-.033-.012-.049-.017l-.048-.019c-3.793-1.211-6.917-2.3-9.674-3.26-9.038-3.15-13.802-4.807-22.324-3.617v-.98c0-.648-.524-1.173-1.172-1.173H16.83V33.22c0-.648-.525-1.172-1.172-1.172H1.171C.525 32.047 0 32.57 0 33.218v25.78a1.172 1.172 0 1 0 2.344 0V34.39h12.141v28.124h-2.343v-1.171a1.172 1.172 0 1 0-2.344 0v1.171H1.172a1.172 1.172 0 1 0 0 2.345h14.486c.647 0 1.172-.525 1.172-1.172v-1.232h3.515c.648 0 1.172-.524 1.172-1.172v-.828c4.905 1.06 20.867 4.404 26.953 4.404 3.204 0 8.884-2.855 17.366-8.725a221.05 221.05 0 0 0 11.494-8.57 1.17 1.17 0 0 0 .092-.083c2.547-2.55 3.258-5.472 1.903-7.816zM19.173 58.98V60.112H16.83V36.734h2.343v22.247z" transform="translate(110 118)" fill="#EB5757"/></symbol><symbol id="svg-credit-2" viewBox="0 0 300 300" fill="none"><circle cx="94.231" cy="94.231" r="92.731" transform="translate(55.77 55.77)" stroke="#EB5757" stroke-width="3"/><circle opacity=".15" cx="150" cy="150" r="149.5" stroke="#555D68"/><circle opacity=".3" cx="81.731" cy="81.731" r="77.731" transform="translate(68.27 68.27)" stroke="#555D68" stroke-width="8"/><path d="M263.423 150c0 62.642-50.781 113.423-113.423 113.423S36.577 212.642 36.577 150 87.358 36.577 150 36.577 263.423 87.358 263.423 150z" stroke="#F6F6F6" stroke-width="2"/><path d="M22.892 22.863l-.777-9.288a1.175 1.175 0 0 0-1.173-1.075h-1.176v-1.172a3.527 3.527 0 0 0-3.53-3.515 3.527 3.527 0 0 0-3.53 3.515V12.5H11.53c-.604 0-1.11.456-1.17 1.055l-.942 9.375c-.033.33.076.658.299.903.223.246.54.386.872.386H21.73a1.174 1.174 0 0 0 1.162-1.357zM15.06 11.328a1.175 1.175 0 1 1 2.353 0V12.5H15.06v-1.172zm-3.171 10.547l.706-7.031h7.265l.588 7.031h-8.559z" transform="translate(123 110)" fill="#EB5757"/><path d="M54.112 10.43c-.003-.029-.008-.057-.013-.085l-.004-.03a1.085 1.085 0 0 0-.025-.097l-.004-.013a1.16 1.16 0 0 0-.034-.096l-.004-.011a1.114 1.114 0 0 0-.042-.089l-.008-.015a1.133 1.133 0 0 0-.046-.078l-.013-.02a1.225 1.225 0 0 0-.052-.071c-.006-.007-.01-.015-.017-.022a1.178 1.178 0 0 0-.077-.085L44.362.343a1.17 1.17 0 0 0-.086-.077L44.252.25a1.127 1.127 0 0 0-.068-.051L44.16.184a1.233 1.233 0 0 0-.076-.045L44.067.13a1.18 1.18 0 0 0-.086-.04l-.013-.005a1.178 1.178 0 0 0-.095-.034l-.015-.003a1.196 1.196 0 0 0-.097-.025l-.03-.004A1.136 1.136 0 0 0 43.53 0H1.178C.527 0 0 .525 0 1.172v70.855c0 .648.527 1.172 1.177 1.172h26.667c.65 0 1.177-.524 1.177-1.172 0-.647-.527-1.171-1.177-1.171H2.354V2.344h39.999v8.203c0 .647.527 1.171 1.176 1.171h8.236v59.138H45.1c-.65 0-1.176.524-1.176 1.171 0 .648.526 1.172 1.176 1.172h7.841c.65 0 1.177-.524 1.177-1.172v-61.48c0-.04-.002-.079-.006-.117zm-9.406-1.055V4l5.395 5.374h-5.395z" transform="translate(123 110)" fill="#EB5757"/><path d="M43.53 33.358H10.587c-.65 0-1.176.525-1.176 1.172 0 .647.527 1.172 1.176 1.172H43.53c.65 0 1.176-.525 1.176-1.172 0-.647-.527-1.172-1.177-1.172zM43.53 39.61H10.587c-.65 0-1.176.524-1.176 1.172 0 .647.527 1.171 1.176 1.171H43.53c.65 0 1.176-.524 1.176-1.171 0-.648-.527-1.172-1.177-1.172zM43.53 45.86H10.587c-.65 0-1.176.524-1.176 1.172 0 .647.527 1.171 1.176 1.171H43.53c.65 0 1.176-.524 1.176-1.172 0-.647-.527-1.171-1.177-1.171zM24.706 52.11H10.589c-.65 0-1.177.524-1.177 1.172 0 .647.527 1.171 1.176 1.171h14.118c.65 0 1.177-.524 1.177-1.172 0-.647-.527-1.171-1.177-1.171zM44.708 63.438c0-4.524-3.695-8.203-8.236-8.203s-8.236 3.68-8.236 8.203a8.179 8.179 0 0 0 3.138 6.435v8.955l.002.037c0 .024.002.048.004.072l.006.05.01.064.012.052.015.059.019.054c.006.018.012.036.02.053.007.02.016.037.024.055l.024.05.032.055.026.043c.013.02.028.039.042.058l.022.03.005.006c.026.032.054.063.084.093l.026.023.067.059.042.031a1.157 1.157 0 0 0 .168.103l.045.021c.024.011.048.02.073.03l.04.015c.029.009.057.016.086.023l.034.01c.032.006.064.01.097.015l.027.004c.038.004.077.006.117.007h.012c.058 0 .114-.006.169-.014l.035-.005c.056-.01.11-.024.163-.042l.03-.01a1.18 1.18 0 0 0 .163-.072l.005-.003c.055-.03.107-.066.156-.104l.01-.007 3.187-2.54 3.186 2.54.01.007c.05.038.102.073.157.104l.005.003c.052.028.107.052.163.072l.029.01c.052.018.107.032.163.042l.035.005c.056.008.112.013.169.014h.012c.04 0 .079-.003.118-.007.009 0 .017-.003.026-.004.033-.004.066-.01.097-.016l.034-.009a1.12 1.12 0 0 0 .086-.023l.04-.015c.024-.01.05-.019.074-.03l.044-.021a1.165 1.165 0 0 0 .168-.103l.043-.031c.023-.019.045-.039.066-.059l.026-.023c.03-.03.058-.06.084-.093l.005-.006.022-.03c.015-.02.029-.038.042-.058.01-.014.017-.029.026-.043.011-.018.023-.037.033-.056l.023-.049.025-.055.02-.053c.006-.018.013-.036.018-.055.006-.019.01-.038.015-.058l.013-.053.01-.064.006-.05c.002-.023.003-.047.003-.071l.002-.037v-8.955a8.18 8.18 0 0 0 3.137-6.435zm-7.484 11.364l-.016-.014-.027-.019a1.203 1.203 0 0 0-.063-.045l-.039-.024c-.02-.012-.04-.024-.06-.034-.016-.009-.033-.016-.05-.024l-.053-.024-.058-.02-.048-.017a1.23 1.23 0 0 0-.062-.016l-.049-.011a1.165 1.165 0 0 0-.113-.017l-.056-.003-.06-.002-.049.002c-.021 0-.043.002-.065.004l-.044.005a1.355 1.355 0 0 0-.178.039l-.043.014a1.193 1.193 0 0 0-.063.023l-.05.022-.053.025c-.02.01-.039.022-.058.034l-.04.024c-.022.014-.043.03-.064.046l-.026.018-.016.014-1.994 1.588v-5.219a8.224 8.224 0 0 0 5.49 0v5.219l-1.993-1.588zm-.752-5.505c-3.244 0-5.883-2.628-5.883-5.86 0-3.23 2.64-5.859 5.883-5.859 3.244 0 5.883 2.629 5.883 5.86 0 3.23-2.639 5.86-5.883 5.86z" transform="translate(123 110)" fill="#EB5757"/><path d="M36.472 59.922a3.527 3.527 0 0 0-3.53 3.516 3.527 3.527 0 0 0 3.53 3.515 3.527 3.527 0 0 0 3.53-3.515 3.527 3.527 0 0 0-3.53-3.516zm0 4.688a1.176 1.176 0 0 1-1.176-1.172 1.175 1.175 0 1 1 2.353 0c0 .646-.528 1.172-1.177 1.172z" transform="translate(123 110)" fill="#EB5757"/></symbol><symbol id="svg-credit-3" viewBox="0 0 300 300" fill="none"><circle cx="94.231" cy="94.231" r="92.731" transform="translate(55.77 55.77)" stroke="#EB5757" stroke-width="3"/><circle opacity=".15" cx="150" cy="150" r="149.5" stroke="#555D68"/><circle opacity=".3" cx="81.731" cy="81.731" r="77.731" transform="translate(68.27 68.27)" stroke="#555D68" stroke-width="8"/><path d="M263.423 150c0 62.642-50.781 113.423-113.423 113.423S36.577 212.642 36.577 150 87.358 36.577 150 36.577 263.423 87.358 263.423 150z" stroke="#F6F6F6" stroke-width="2"/><path d="M73.048 71.406H61.72V7.422C61.72 3.33 58.39 0 54.298 0H7.422C3.33 0 0 3.33 0 7.422c0 .647.525 1.172 1.172 1.172h46.876c.647 0 1.172-.525 1.172-1.172 0-2.8 2.278-5.078 5.078-5.078 2.8 0 5.078 2.278 5.078 5.078v65.156c0 1.963.768 3.75 2.017 5.078H19.922a5.084 5.084 0 0 1-5.078-5.078v-59.14a1.172 1.172 0 1 0-2.344 0v59.14c0 4.093 3.33 7.422 7.422 7.422h46.876c4.092 0 7.422-3.33 7.422-7.422 0-.647-.525-1.172-1.172-1.172zM46.969 6.25H2.482a5.086 5.086 0 0 1 4.94-3.906h41.47A7.401 7.401 0 0 0 46.97 6.25zm19.829 71.406a5.086 5.086 0 0 1-4.94-3.906h9.88a5.086 5.086 0 0 1-4.94 3.906z" transform="translate(113 110)" fill="#EB5757"/><path d="M6.688.343a1.172 1.172 0 0 0-1.657 0L2.735 2.64 2 1.905A1.172 1.172 0 0 0 .343 3.563l1.563 1.562a1.167 1.167 0 0 0 1.036.324l.052-.01c.208-.048.407-.152.57-.314L6.687 2c.458-.457.458-1.2 0-1.657z" transform="translate(134.875 153.516)" fill="#EB5757"/><path d="M18.359 0H1.172a1.172 1.172 0 0 0 0 2.344h17.187a1.172 1.172 0 1 0 0-2.344z" transform="translate(144.25 155.078)" fill="#EB5757"/><path d="M6.688.343a1.172 1.172 0 0 0-1.657 0L2.735 2.64 2 1.905A1.172 1.172 0 0 0 .343 3.563l1.563 1.562a1.167 1.167 0 0 0 1.036.324l.052-.01c.208-.048.407-.152.57-.314L6.687 2c.458-.457.458-1.2 0-1.657z" transform="translate(134.875 162.89)" fill="#EB5757"/><path d="M10.545 0H1.172a1.172 1.172 0 1 0 0 2.344h9.373a1.172 1.172 0 1 0 0-2.344z" transform="translate(144.25 164.453)" fill="#EB5757"/><path d="M21.094 21.483c0-.022-.002-.042-.003-.062l-.004-.062v-.003L19.526 7.304V7.3l-.001-.008-.006-.035c-.004-.026-.007-.053-.013-.08l-.01-.04c-.006-.024-.012-.048-.02-.072l-.018-.049c-.007-.02-.013-.039-.021-.057l-.028-.057-.022-.045-.036-.06-.023-.036c-.013-.02-.028-.038-.042-.057l-.026-.033c-.014-.017-.03-.034-.046-.05l-.03-.033-.047-.043-.038-.033-.046-.034-.045-.033-.046-.028-.051-.03-.047-.023c-.018-.008-.037-.018-.056-.025-.016-.008-.034-.013-.051-.02l-.055-.019c-.02-.006-.04-.01-.061-.015-.017-.004-.033-.01-.05-.013l-.071-.01-.045-.007-.075-.004-.04-.002H14.844V4.297A4.303 4.303 0 0 0 10.547 0 4.302 4.302 0 0 0 6.25 4.297V6.25H2.734l-.049.003c-.021 0-.043.001-.064.003-.022.002-.044.006-.066.01-.015.002-.032.003-.048.007a1.081 1.081 0 0 0-.08.02l-.03.007c-.03.01-.061.02-.091.032l-.014.005a1.252 1.252 0 0 0-.095.044l-.007.004a1.105 1.105 0 0 0-.179.116l-.01.007a1.14 1.14 0 0 0-.07.062l-.015.014c-.02.02-.04.04-.058.062l-.02.022-.047.06-.022.03c-.014.02-.026.041-.039.062l-.02.035c-.012.022-.023.043-.033.065-.006.013-.013.025-.018.038-.01.023-.019.047-.027.07l-.014.037a1.117 1.117 0 0 0-.02.08l-.01.033-.013.082-.005.033-.001.008v.003L.007 21.356v.003l-.004.062-.003.06v.004l.002.036c0 .027.001.054.004.08.001.014.004.027.006.04.003.025.006.05.011.075l.012.048.016.063.02.055c.005.017.011.035.018.051.008.02.018.039.027.058l.021.044c.01.02.022.038.033.056l.025.041.036.05.031.042.037.042.039.042.037.035c.015.014.03.029.046.042l.038.03.052.038.041.026.055.034.049.023c.017.01.035.018.053.026.02.009.04.015.06.023l.047.017c.024.008.049.014.073.02l.04.01c.026.005.053.01.08.013l.034.006h.003a1.2 1.2 0 0 0 .113.006h18.776c.038 0 .076-.003.113-.006h.003l.035-.006.08-.013.039-.01c.024-.006.049-.012.073-.02l.048-.017c.02-.008.04-.014.059-.023l.053-.026c.017-.008.033-.015.049-.024.019-.01.036-.022.055-.033l.04-.026c.019-.012.036-.026.053-.039l.038-.029c.016-.013.03-.028.046-.042l.037-.035.039-.042.037-.042.031-.042c.012-.016.025-.032.036-.05l.025-.041c.011-.018.023-.037.033-.056.008-.014.014-.03.021-.044.01-.019.02-.038.027-.058l.02-.051.019-.055.016-.063.011-.048c.005-.024.008-.05.012-.075l.006-.04.004-.08.001-.036v-.002zM8.594 4.297c0-1.077.876-1.953 1.953-1.953S12.5 3.22 12.5 4.297V6.25H8.594V4.297zM2.48 20.313L3.783 8.594H6.25v.39a1.172 1.172 0 1 0 2.344 0v-.39H12.5v.39a1.172 1.172 0 1 0 2.344 0v-.39h2.467l1.302 11.72H2.48z" transform="translate(139.563 123.828)" fill="#EB5757"/></symbol><symbol id="svg-credit-4" viewBox="0 0 300 300" fill="none"><circle cx="94.231" cy="94.231" r="92.731" transform="translate(55.77 55.77)" stroke="#EB5757" stroke-width="3"/><circle opacity=".15" cx="150" cy="150" r="149.5" stroke="#555D68"/><circle opacity=".3" cx="81.731" cy="81.731" r="77.731" transform="translate(68.27 68.27)" stroke="#555D68" stroke-width="8"/><path d="M263.423 150c0 62.642-50.781 113.423-113.423 113.423S36.577 212.642 36.577 150 87.358 36.577 150 36.577 263.423 87.358 263.423 150z" stroke="#F6F6F6" stroke-width="2"/><path d="M6.25 0A6.257 6.257 0 0 0 0 6.25a6.257 6.257 0 0 0 6.25 6.25 6.257 6.257 0 0 0 6.25-6.25A6.257 6.257 0 0 0 6.25 0zm0 10A3.754 3.754 0 0 1 2.5 6.25 3.754 3.754 0 0 1 6.25 2.5 3.754 3.754 0 0 1 10 6.25 3.754 3.754 0 0 1 6.25 10z" transform="translate(116.25 153.324)" fill="#EB5757"/><path d="M78.75 48.824c0-5.502-2.979-10.321-7.407-12.932l-.034-2.263c.374.126.775.195 1.191.195h3.75a3.754 3.754 0 0 0 3.75-3.75 3.754 3.754 0 0 0-3.75-3.75H72.5a3.754 3.754 0 0 0-3.74 4.003l.065 4.381a14.858 14.858 0 0 0-1.525-.459L62.737 19.8a13.862 13.862 0 0 0-13.27-9.725H41.23V0h-2.426v10.074h-8.272c-6.1 0-11.432 3.909-13.27 9.725L12.7 34.25c-.467.115-.926.25-1.376.407l-.073-4.602a3.754 3.754 0 0 0-3.75-3.73H3.75A3.754 3.754 0 0 0 0 30.074a3.754 3.754 0 0 0 3.75 3.75H7.5c.459 0 .899-.083 1.306-.235l.035 2.197c-4.53 2.584-7.59 7.46-7.59 13.038v7.5H0v7.5h8.75v-2.5H2.5v-2.5h6.25v-2.5h-5v-7.5c0-6.718 5.326-12.215 11.986-12.49a26.273 26.273 0 0 0 9.145 11.435 26.024 26.024 0 0 0 13.923 4.777v2.602h2.426v-2.604a26.022 26.022 0 0 0 13.888-4.774 26.273 26.273 0 0 0 9.146-11.436c6.655.27 11.986 5.77 11.986 12.49v7.5h-5v2.5h6.25v2.5h-6.25v2.5H80v-7.5h-1.25v-7.5zM7.5 31.324H3.75c-.69 0-1.25-.56-1.25-1.25s.56-1.25 1.25-1.25H7.5c.69 0 1.25.56 1.25 1.25s-.56 1.25-1.25 1.25zm23.032-18.75h18.936c1.926 0 3.76.477 5.372 1.334H25.16a11.419 11.419 0 0 1 5.372-1.334zm33.22 21.25l-1.2-.001-.305.812a23.78 23.78 0 0 1-8.572 11.094A23.555 23.555 0 0 1 40 50.074a23.555 23.555 0 0 1-13.676-4.346 23.779 23.779 0 0 1-8.572-11.096l-.307-.817-1.195.01c-.269 0-.536.007-.802.02l4.199-13.293a11.435 11.435 0 0 1 2.408-4.218h16.749v2.49h-1.93a3.129 3.129 0 0 0-3.124 3.125 3.129 3.129 0 0 0 3.125 3.125h6.25a3.129 3.129 0 0 0 3.125-3.125 3.129 3.129 0 0 0-3.125-3.125H41.23v-2.49h16.715a11.436 11.436 0 0 1 2.408 4.218l4.198 13.294a15.015 15.015 0 0 0-.8-.022zm-20.627-12.5a.626.626 0 0 1 0 1.25h-6.25a.626.626 0 0 1 0-1.25h6.25zm28.13 8.66a1.25 1.25 0 0 1 1.245-1.16h3.75c.69 0 1.25.56 1.25 1.25s-.56 1.25-1.25 1.25H72.5a1.252 1.252 0 0 1-1.242-1.112l-.004-.229z" transform="translate(110 112)" fill="#EB5757"/><path d="M0 0v10h7.5V0H0zm5 7.5H2.5v-5H5v5z" transform="translate(120 168.324)" fill="#EB5757"/><path d="M0 0v10h7.5V0H0zm5 7.5H2.5v-5H5v5z" transform="translate(172.5 168.324)" fill="#EB5757"/><path d="M42.534 0H0v2.426h42.534V0z" transform="translate(128.75 168.28)" fill="#EB5757"/><path d="M8.571 2.587v2.426H2.426V0H0v7.44h10.997V2.586H8.571z" transform="translate(113.871 177.013)" fill="#EB5757"/><path d="M8.733 0v5.013H2.426V2.588H0v4.851h11.16V0H8.732z" transform="translate(175.003 177.013)" fill="#EB5757"/><path d="M0 0v2.426h20.054v8.894h2.426V2.426h20.054V0H0z" transform="translate(128.75 145.8)" fill="#EB5757"/><path d="M7.5 0C3.365 0 0 3.457 0 7.5h2.5c0-2.75 2.243-5 5-5s5 2.25 5 5H15C15 3.457 11.636 0 7.5 0z" transform="translate(155 137.006)" fill="#EB5757"/><path d="M2.426 0H0v2.426h2.426V0z" transform="translate(121.311 158.253)" fill="#EB5757"/><path d="M6.25 0A6.257 6.257 0 0 0 0 6.25a6.257 6.257 0 0 0 6.25 6.25 6.257 6.257 0 0 0 6.25-6.25A6.257 6.257 0 0 0 6.25 0zm0 10A3.754 3.754 0 0 1 2.5 6.25 3.754 3.754 0 0 1 6.25 2.5 3.754 3.754 0 0 1 10 6.25 3.754 3.754 0 0 1 6.25 10z" transform="translate(171.25 153.324)" fill="#EB5757"/><path d="M2.426 0H0v2.426h2.426V0z" transform="translate(176.297 158.253)" fill="#EB5757"/><path d="M0 0v7.5h20V0H0zm17.5 5h-15V2.5h15V5z" transform="translate(140 173.324)" fill="#EB5757"/><path d="M10.027 0H0v2.426h10.027V0z" transform="translate(161.257 173.455)" fill="#EB5757"/><path d="M10.027 0H0v2.426h10.027V0z" transform="translate(128.75 173.455)" fill="#EB5757"/><path d="M2.588 0H0v2.426h2.588V0z" transform="translate(148.642 158.253)" fill="#EB5757"/><path d="M12.453 0H0v2.426h12.453V0z" transform="translate(135.058 149.682)" fill="#EB5757"/><path d="M12.453 0H0v2.426h12.453V0z" transform="translate(152.524 149.682)" fill="#EB5757"/><path d="M4.42 0H0v2.5h4.42V0z" transform="rotate(-45 228.694 -91.402)" fill="#EB5757"/><path d="M7.955 0H0v2.5h7.955V0z" transform="rotate(-45 238.372 -89.163)" fill="#EB5757"/></symbol></svg>