<svg xmlns="http://www.w3.org/2000/svg"><symbol id="svg-nav-top" viewBox="0 0 511.998 511.998"><path d="M486.274 152.691l-133.61-133.61c-25.445-25.442-66.842-25.442-92.286 0l-133.61 133.61c-12.325 12.326-19.113 28.712-19.113 46.143 0 17.997 7.174 34.762 20.2 47.206 25.42 24.284 66.681 23.456 91.981-1.844l14.887-14.887C208.75 307.358 141.898 367.077 59.431 382.62c-30.605 5.768-52.819 32.718-52.819 64.08 0 19.481 8.6 37.789 23.593 50.227 11.855 9.835 26.576 15.071 41.693 15.071 4.043 0 8.116-.375 12.166-1.133 71.008-13.345 135.806-47.661 187.384-99.241 52.449-52.449 86.645-117.627 99.646-189.54l22.083 22.084c12.161 12.16 28.317 19.127 45.489 19.616 17.356.498 33.832-5.732 46.298-17.532 12.922-12.233 20.174-28.752 20.418-46.516.243-17.771-6.543-34.479-19.108-47.045zm-15.333 78.744c-17.461 16.529-45.874 15.77-63.337-1.694l-36.346-36.346a10.198 10.198 0 0 0-17.335 5.961c-9.313 75.35-42.82 143.761-96.899 197.84-48.661 48.663-109.772 81.035-176.726 93.616-13.217 2.486-26.73-1.01-37.07-9.586a44.731 44.731 0 0 1-16.217-34.527c0-21.562 15.224-40.081 36.2-44.034 102.72-19.362 183.188-101.655 200.236-204.78a10.198 10.198 0 0 0-17.275-8.874l-40.758 40.759c-17.528 17.525-45.997 18.206-63.464 1.519-8.958-8.558-13.891-20.084-13.891-32.455 0-11.981 4.665-23.246 13.139-31.718L274.806 33.505c17.489-17.489 45.946-17.489 63.435 0l133.61 133.609c8.637 8.637 13.302 20.122 13.134 32.339-.168 12.211-5.156 23.569-14.044 31.982z"/><path d="M302.691 39.799c-3.985-3.982-10.442-3.982-14.426 0l-74.153 74.154c-3.983 3.984-3.983 10.443 0 14.426a10.17 10.17 0 0 0 7.212 2.988c2.61 0 5.22-.997 7.213-2.988l74.153-74.154c3.984-3.985 3.984-10.443.001-14.426zm-99.092 99.269c-3.985-3.982-10.442-3.982-14.426 0l-5.665 5.665c-3.983 3.984-3.983 10.443 0 14.426 1.992 1.991 4.601 2.988 7.212 2.988s5.22-.996 7.213-2.988l5.665-5.665c3.984-3.985 3.984-10.443.001-14.426z"/></symbol><symbol id="svg-nav-hits" viewBox="0 0 512 512"><path d="M216 449c-5.52 0-10 4.48-10 10s4.48 10 10 10 10-4.48 10-10-4.48-10-10-10zm60-100h-10v-70c0-5.523-4.477-10-10-10h-20c-5.523 0-10 4.477-10 10s4.477 10 10 10h10v60h-10c-5.523 0-10 4.477-10 10s4.477 10 10 10h40c5.523 0 10-4.477 10-10s-4.477-10-10-10zm-163 60c5.523 0 10-4.477 10-10v-40c0-5.523-4.477-10-10-10H73c-5.523 0-10 4.477-10 10s4.477 10 10 10h30v20H73c-5.523 0-10 4.477-10 10v40c0 5.523 4.477 10 10 10h40c5.523 0 10-4.477 10-10s-4.477-10-10-10H83v-20h30zm326-40h-40c-5.523 0-10 4.477-10 10s4.477 10 10 10h30v20h-30c-5.523 0-10 4.477-10 10s4.477 10 10 10h30v20h-30c-5.523 0-10 4.477-10 10s4.477 10 10 10h40c5.523 0 10-4.477 10-10v-80c0-5.523-4.477-10-10-10z"/><path d="M502 329H346v-93c0-5.523-4.477-10-10-10H176c-5.523 0-10 4.477-10 10v53H10c-5.523 0-10 4.477-10 10v203c0 5.522 4.477 10 10 10h492c5.523 0 10-4.478 10-10V339c0-5.523-4.477-10-10-10zM166 492H20V309h146v183zm160 0H186V246h140v246zm166 0H346V349h146v143zM355.271 76.209a10.001 10.001 0 0 0-8.073-6.806l-56.935-8.271-25.576-55.328a10 10 0 0 0-18.154-.001l-25.585 55.331-56.936 8.271a10.001 10.001 0 0 0-5.542 17.057l41.35 40.305-9.799 59.91a10.002 10.002 0 0 0 14.522 10.466l51.065-26.853 51.055 26.852a9.995 9.995 0 0 0 10.501-.738 10 10 0 0 0 4.023-9.728l-9.799-59.91 41.35-40.305a9.998 9.998 0 0 0 2.533-10.252zm-61.571 39.87a10 10 0 0 0-2.889 8.775l7.4 45.242-37.947-19.957a10.002 10.002 0 0 0-9.309 0l-37.957 19.959 7.4-45.244a9.998 9.998 0 0 0-2.889-8.775L186.94 86.283l42.247-6.137a10 10 0 0 0 7.639-5.699l18.782-40.618 18.774 40.616a9.999 9.999 0 0 0 7.64 5.7l42.247 6.137-30.569 29.797z"/><path d="M296 449h-40c-5.523 0-10 4.477-10 10s4.477 10 10 10h40c5.523 0 10-4.477 10-10s-4.477-10-10-10z"/></symbol><symbol id="svg-nav-specials" viewBox="0 0 470 470"><path d="M429.591 418.378L367.368 268.16a7.5 7.5 0 1 0-13.858 5.74l56.251 135.801-51.309-14.867a7.497 7.497 0 0 0-8.656 3.586l-25.769 46.793-60.357-145.716c69.663-13.434 122.447-74.853 122.447-148.378C386.118 67.792 318.327 0 235 0S83.881 67.792 83.881 151.119c0 33.751 11.124 64.951 29.896 90.133L40.409 418.378a7.5 7.5 0 0 0 9.017 10.074l60.533-17.541 30.4 55.207a7.502 7.502 0 0 0 13.499-.748l58.136-140.353a7.5 7.5 0 1 0-13.858-5.74l-52.165 125.936-25.767-46.793a7.5 7.5 0 0 0-8.657-3.586l-51.308 14.867 64.397-155.469c27.598 29.52 66.86 48.005 110.364 48.005 4.491 0 8.933-.209 13.325-.594l67.818 163.727a7.498 7.498 0 0 0 13.498.748l30.401-55.207 60.533 17.541a7.499 7.499 0 0 0 9.016-10.074zM98.881 151.119C98.881 76.063 159.944 15 235 15s136.118 61.063 136.118 136.119S310.056 287.237 235 287.237 98.881 226.175 98.881 151.119z"/><path d="M321.659 122.961a7.5 7.5 0 0 0-5.892-5.079l-50.467-8.469-23.649-45.379a7.5 7.5 0 0 0-13.302 0l-23.65 45.379-50.466 8.469a7.499 7.499 0 0 0-4.111 12.651l35.85 36.515-7.54 50.614a7.5 7.5 0 0 0 10.761 7.819L235 202.669l45.806 22.812a7.496 7.496 0 0 0 7.752-.645 7.5 7.5 0 0 0 3.01-7.173l-7.539-50.614 35.85-36.516a7.5 7.5 0 0 0 1.78-7.572zm-50.951 36.244a7.498 7.498 0 0 0-2.066 6.359l5.97 40.074-36.268-18.061a7.506 7.506 0 0 0-6.687 0l-36.268 18.061 5.97-40.074a7.497 7.497 0 0 0-2.066-6.359l-28.385-28.912 39.957-6.706a7.499 7.499 0 0 0 5.41-3.93L235 83.728l18.725 35.93a7.5 7.5 0 0 0 5.41 3.93l39.958 6.706-28.385 28.911z"/><path d="M348.612 158.684c-4.107-.549-7.877 2.343-8.42 6.45-6.957 52.507-52.18 92.104-105.192 92.104-58.514 0-106.119-47.604-106.119-106.119S176.486 45 235 45c53.013 0 98.235 39.596 105.192 92.104.543 4.107 4.32 7.001 8.42 6.45a7.5 7.5 0 0 0 6.449-8.42C347.121 75.198 295.506 30 235 30c-66.785 0-121.119 54.333-121.119 121.119S168.215 272.237 235 272.237c60.506 0 112.121-45.198 120.062-105.134a7.5 7.5 0 0 0-6.45-8.419z"/></symbol><symbol id="svg-nav-safe" viewBox="0 0 512 512"><path d="M478 27H34C15.252 27 0 42.252 0 61v390c0 18.748 15.252 34 34 34h294c5.523 0 10-4.477 10-10s-4.477-10-10-10H34c-7.72 0-14-6.28-14-14V61c0-7.72 6.28-14 14-14h444c7.72 0 14 6.28 14 14v390c0 7.72-6.28 14-14 14h-75c-5.523 0-10 4.477-10 10s4.477 10 10 10h75c18.748 0 34-15.252 34-34V61c0-18.748-15.252-34-34-34z"/><path d="M373.07 467.93c-1.86-1.86-4.44-2.93-7.07-2.93s-5.21 1.07-7.07 2.93c-1.86 1.86-2.93 4.44-2.93 7.07s1.07 5.21 2.93 7.07c1.86 1.86 4.44 2.93 7.07 2.93s5.21-1.07 7.07-2.93c1.86-1.86 2.93-4.44 2.93-7.07s-1.07-5.21-2.93-7.07zm-193.29-390c-1.86-1.86-4.44-2.93-7.07-2.93s-5.21 1.07-7.07 2.93-2.93 4.44-2.93 7.07 1.07 5.21 2.93 7.07 4.44 2.93 7.07 2.93 5.21-1.07 7.07-2.93 2.93-4.44 2.93-7.07-1.07-5.21-2.93-7.07z"/><path d="M454 245.08c5.523 0 10-4.477 10-10v-80c0-5.523-4.477-10-10-10h-10V85c0-5.523-4.477-10-10-10H213c-5.523 0-10 4.477-10 10s4.477 10 10 10h211v50.08h-10c-5.523 0-10 4.477-10 10v80c0 5.523 4.477 10 10 10h10v32h-10c-5.523 0-10 4.477-10 10v80c0 5.523 4.477 10 10 10h10V417H68v-91h30c5.523 0 10-4.477 10-10V196c0-5.523-4.477-10-10-10H68V95h64c5.523 0 10-4.477 10-10s-4.477-10-10-10H58c-5.523 0-10 4.477-10 10v342c0 5.523 4.477 10 10 10h376c5.523 0 10-4.477 10-10v-49.92h10c5.523 0 10-4.477 10-10v-80c0-5.523-4.477-10-10-10h-10v-32h10zM68 206h20v100H68V206zm376 151.08h-20v-60h20v60zm-20-132v-60h20v60h-20z"/><path d="M245.92 142c-62.906 0-114.082 51.14-114.082 114s51.177 114 114.082 114 114.082-51.14 114.082-114-51.176-114-114.082-114zm0 208c-51.877 0-94.082-42.168-94.082-94s42.205-94 94.082-94c51.877 0 94.082 42.168 94.082 94s-42.205 94-94.082 94z"/><path d="M318.338 246h-7.177c-1.64-10.746-5.889-20.641-12.066-29.034l5.104-5.103c3.905-3.905 3.905-10.237 0-14.143-3.905-3.904-10.237-3.904-14.143 0l-5.104 5.103c-8.393-6.177-18.289-10.426-29.034-12.066v-7.177c0-5.523-4.477-10-10-10s-10 4.477-10 10v7.177c-10.746 1.64-20.641 5.889-29.034 12.066l-5.104-5.103c-3.905-3.904-10.237-3.904-14.143 0-3.905 3.905-3.905 10.237 0 14.143l5.104 5.103c-6.177 8.393-10.426 18.289-12.066 29.034H173.5c-5.523 0-10 4.477-10 10s4.477 10 10 10h7.177c1.64 10.746 5.889 20.641 12.066 29.034l-5.104 5.103c-3.905 3.905-3.905 10.237 0 14.143a9.972 9.972 0 0 0 7.071 2.929 9.97 9.97 0 0 0 7.071-2.929l5.104-5.103c8.393 6.177 18.289 10.426 29.034 12.066v7.177c0 5.523 4.477 10 10 10s10-4.477 10-10v-7.177c10.746-1.64 20.641-5.889 29.034-12.066l5.104 5.103c1.953 1.952 4.512 2.929 7.071 2.929s5.119-.977 7.071-2.929c3.905-3.905 3.905-10.237 0-14.143l-5.104-5.103c6.177-8.393 10.426-18.289 12.066-29.034h7.177c5.523 0 10-4.477 10-10s-4.477-10-10-10zm-72.418 56c-25.364 0-46-20.636-46-46s20.636-46 46-46 46 20.636 46 46-20.636 46-46 46z"/></symbol><symbol id="svg-nav-advantages" viewBox="0 0 512 512"><path d="M235.901 180.154c5.52 0 10-4.48 10-10s-4.48-10-10-10-10 4.48-10 10 4.48 10 10 10z"/><path d="M25.976 387.851L.255 499.601A9.997 9.997 0 0 0 10 511.844h492a10 10 0 0 0 9.745-12.243l-25.72-111.75a9.212 9.212 0 0 0-.168-.633c-3.838-12.785-15.387-21.375-28.737-21.375h-33.16L400.026 261.85c-2.667-11.628-14.339-22.007-28.905-22.007h-27.26c-3.539-14.552-20.306-83.572-23.863-98.112-2.853-11.711-14.4-21.888-28.877-21.888h-70.239c-14.409 0-26.003 10.125-28.877 21.887l-23.863 98.113h-27.26c-14.778 0-26.288 10.62-28.905 22.007L88.04 365.844H54.881c-14.778 0-26.288 10.62-28.905 22.007zm-3.412 103.993l22.816-99.135c1.356-4.118 5.141-6.865 9.501-6.865h76.239c4.36 0 8.145 2.748 9.501 6.866l22.816 99.134H22.564zM176 457.26l-15.975-69.409c-.174-.758-.4-1.322-.641-2.007h33.233c-.245.695-.467 1.249-.641 2.007L176 457.26zm12.564 34.584l22.816-99.135c1.356-4.118 5.141-6.865 9.501-6.865h70.239c4.36 0 8.145 2.748 9.501 6.866l22.816 99.134H188.564zM336 457.26l-15.975-69.409c-.174-.758-.4-1.322-.641-2.007h33.233c-.245.695-.467 1.249-.641 2.007L336 457.26zm130.621-64.55l22.816 99.134H348.564l22.816-99.135c1.356-4.118 5.141-6.865 9.501-6.865h76.239c4.361 0 8.145 2.748 9.501 6.866zm-86-126.001l22.816 99.135H268.563l22.817-99.134c1.355-4.118 5.14-6.866 9.501-6.866h70.239c4.361 0 8.145 2.748 9.501 6.865zM256 331.26l-15.975-69.409c-.174-.758-.4-1.322-.641-2.007h33.233c-.245.695-.467 1.249-.641 2.007L256 331.26zm-44.636-184.501c1.342-4.145 5.139-6.915 9.517-6.915h70.239c4.378 0 8.175 2.769 9.517 6.914l3.183 13.086h-27.919c-5.522 0-10 4.477-10 10s4.478 10 10 10h32.783l14.593 60H188.724l22.64-93.085zM131.38 266.71c1.356-4.118 5.141-6.866 9.501-6.866h70.239c4.361 0 8.146 2.748 9.501 6.866l22.816 99.134H108.563l22.817-99.134zM235.123 69.243l12.104 22.122a9.999 9.999 0 0 0 17.544 0l12.105-22.122 22.131-12.105a10 10 0 0 0 0-17.546l-22.13-12.105-12.105-22.13a10 10 0 0 0-17.546 0l-12.104 22.13-22.131 12.105a10 10 0 0 0 0 17.546l22.132 12.105zm12.166-25.616a9.996 9.996 0 0 0 3.975-3.975l4.736-8.66 4.737 8.66a10.002 10.002 0 0 0 3.975 3.975l8.66 4.737-8.66 4.736a10.001 10.001 0 0 0-3.974 3.973L256 65.732l-4.737-8.658a9.995 9.995 0 0 0-3.974-3.973l-8.66-4.736 8.66-4.738zm107.833 87.095l12.104 22.131a10 10 0 0 0 17.546 0l12.105-22.131 22.13-12.104a10 10 0 0 0 0-17.546l-22.13-12.104-12.105-22.131a10 10 0 0 0-17.546 0l-12.104 22.131-22.131 12.104a10 10 0 0 0 0 17.546l22.131 12.104zm12.167-25.614a9.996 9.996 0 0 0 3.975-3.975l4.736-8.66 4.737 8.66a10.002 10.002 0 0 0 3.975 3.975l8.659 4.736-8.659 4.736a9.996 9.996 0 0 0-3.975 3.975l-4.737 8.66-4.736-8.66a10.002 10.002 0 0 0-3.975-3.975l-8.66-4.736 8.66-4.736zm-252.167 25.614l12.104 22.131a10 10 0 0 0 17.546 0l12.105-22.131 22.13-12.104a10 10 0 0 0 0-17.546l-22.13-12.104-12.105-22.131a10 10 0 0 0-17.546 0l-12.104 22.131-22.131 12.104a10 10 0 0 0 0 17.546l22.131 12.104zm12.167-25.614a9.996 9.996 0 0 0 3.975-3.975l4.736-8.66 4.737 8.66a10.002 10.002 0 0 0 3.975 3.975l8.659 4.736-8.659 4.736a9.996 9.996 0 0 0-3.975 3.975l-4.737 8.66-4.736-8.66a10.002 10.002 0 0 0-3.975-3.975l-8.66-4.736 8.66-4.736z"/></symbol><symbol id="svg-nav-news" viewBox="0 0 442 442"><path d="M171 336H70c-5.523 0-10 4.477-10 10s4.477 10 10 10h101c5.523 0 10-4.477 10-10s-4.477-10-10-10zm151 0H221c-5.523 0-10 4.477-10 10s4.477 10 10 10h101c5.522 0 10-4.477 10-10s-4.478-10-10-10zm0-250H70c-5.523 0-10 4.477-10 10s4.477 10 10 10h252c5.522 0 10-4.477 10-10s-4.478-10-10-10zm0 50H221c-5.523 0-10 4.477-10 10s4.477 10 10 10h101c5.522 0 10-4.477 10-10s-4.478-10-10-10zm0 50H221c-5.523 0-10 4.477-10 10s4.477 10 10 10h101c5.522 0 10-4.477 10-10s-4.478-10-10-10zm0 50H221c-5.523 0-10 4.477-10 10s4.477 10 10 10h101c5.522 0 10-4.477 10-10s-4.478-10-10-10zm0 50H221c-5.523 0-10 4.477-10 10s4.477 10 10 10h101c5.522 0 10-4.477 10-10s-4.478-10-10-10zm-151 0H70c-5.523 0-10 4.477-10 10s4.477 10 10 10h101c5.523 0 10-4.477 10-10s-4.477-10-10-10zm0-150H70c-5.523 0-10 4.477-10 10v101c0 5.523 4.477 10 10 10h101c5.523 0 10-4.477 10-10V146c0-5.523-4.477-10-10-10zm-10 101H80v-81h81v81z"/><path d="M422 76h-30V46c0-11.028-8.972-20-20-20H20C8.972 26 0 34.972 0 46v320c0 27.57 22.43 50 50 50h342c27.57 0 50-22.43 50-50V96c0-11.028-8.972-20-20-20zm0 290c0 16.542-13.458 30-30 30H50c-16.542 0-30-13.458-30-30V46h352v305c0 13.785 11.215 25 25 25 5.522 0 10-4.477 10-10s-4.478-10-10-10c-2.757 0-5-2.243-5-5V96h30v270z"/></symbol><symbol id="svg-nav-tradein" viewBox="0 0 373.674 373.674"><path d="M34.478 96.522c11.519 5.077 26.635 7.873 42.565 7.873 15.931 0 31.049-2.796 42.567-7.873 18.706-8.244 21.499-19.451 21.499-25.397s-2.793-17.152-21.499-25.396c-11.519-5.077-26.637-7.873-42.567-7.873s-31.046 2.796-42.565 7.873c-18.706 8.244-21.499 19.45-21.499 25.396s2.792 17.153 21.499 25.397zm42.565-40.667c28.126 0 46.066 10.026 46.066 15.27s-17.94 15.271-46.066 15.271c-28.125 0-46.064-10.027-46.064-15.271s17.938-15.27 46.064-15.27zm56.923 59.379a9 9 0 0 1 .197 12.727c-10.452 10.781-32.339 17.479-57.121 17.479-24.782 0-46.669-6.697-57.119-17.479a9 9 0 0 1 12.925-12.528c5.605 5.783 21.826 12.007 44.194 12.007s38.59-6.225 44.197-12.008a9.002 9.002 0 0 1 12.727-.198zm8.229 94.805h10.123c4.971 0 9 4.029 9 9s-4.029 9-9 9h-10.123a9 9 0 0 1 0-18zm20.393-135.282a8.983 8.983 0 0 1-.64-3.63 8.968 8.968 0 0 1 1.967-5.902c2.251-2.814 4.802-6.006 7.261-8.986 2.196-2.664 4.198-5.063 6.021-7.248 1.49-1.785 2.859-3.426 4.118-4.952a9 9 0 0 1 13.888 11.449 1081.18 1081.18 0 0 1-4.187 5.036l-1.572 1.884h40.02c4.971 0 9 4.029 9 9s-4.029 9-9 9h-39.551l1.133 1.358c1.503 1.801 2.885 3.457 4.157 4.999a9 9 0 0 1-1.218 12.669 8.963 8.963 0 0 1-5.721 2.057 8.982 8.982 0 0 1-6.949-3.274c-1.25-1.517-2.61-3.146-4.089-4.918-1.831-2.194-3.843-4.604-6.053-7.286-2.283-2.77-4.619-5.683-7.213-8.926a9 9 0 0 1-1.318-2.195l-.009-.022-.001-.004a.154.154 0 0 0-.008-.019l-.003-.008-.006-.015-.005-.012a.049.049 0 0 1-.004-.011l-.007-.016-.002-.006-.009-.021v-.001zM63.827 272.53a9 9 0 0 1-9 9H34.334c-4.971 0-9-4.029-9-9s4.029-9 9-9h20.493a9 9 0 0 1 9 9zm258.305 20.834c0 4.971-4.029 9-9 9s-9.011-4.029-9.011-9 4.018-9 8.988-9h.023a9 9 0 0 1 9 9zM63.827 240.206a9 9 0 0 1-9 9H9c-4.971 0-9-4.029-9-9s4.029-9 9-9h45.827a9 9 0 0 1 9 9zm178.111 44.156h-51.964c-4.14-19.102-21.173-33.454-41.496-33.454-19.176 0-35.423 12.778-40.673 30.269-.597-.593-1.055-1.221-1.363-1.84a4.724 4.724 0 0 1-.518-2.123v-60.013c0-4.971-4.029-9-9-9s-9 4.029-9 9v60.013c0 3.54.813 6.962 2.409 10.156 3.196 6.421 9.144 11.234 16.357 13.52 3.562 19.833 20.945 34.93 41.787 34.93 20.324 0 37.359-14.354 41.497-33.457h51.963a9 9 0 0 0 9-9 9 9 0 0 0-8.999-9.001zm-93.46 33.457c-13.439 0-24.381-10.897-24.455-24.32a9.409 9.409 0 0 0 0-.336c.107-13.394 11.036-24.255 24.454-24.255 13.485 0 24.457 10.971 24.457 24.456.001 13.484-10.971 24.455-24.456 24.455zm225.125-81.868c-.574-25.425-6.373-30.563-27.946-49.676-2.451-2.172-5.143-4.557-8.099-7.21-1.965-1.763-3.937-3.646-6.024-5.641-3.273-3.127-6.657-6.361-10.408-9.501a3856.605 3856.605 0 0 1-8.24-6.926c-33.525-28.23-47.402-39.915-82.138-39.915h-62.132a9 9 0 0 0-9 9 9 9 0 0 0 9 9h62.132c28.167 0 37.144 7.56 70.544 35.684 2.617 2.204 5.368 4.521 8.277 6.958 3.3 2.762 6.467 5.788 9.53 8.715 2.096 2.002 4.262 4.072 6.438 6.023 2.987 2.681 5.707 5.091 8.184 7.285 4.771 4.227 8.485 7.517 11.379 10.293H217.26c-1.934-.684-9.033-4.986-22.394-18.276-10.608-10.552-17.927-19.531-19.15-21.724a8.997 8.997 0 0 0-11.663-4.678 9 9 0 0 0-4.887 11.752c2.578 6.247 16.598 21.08 23.65 28.05 23.148 22.876 30.713 22.876 33.944 22.876h138.454c.23 2.333.319 5.03.394 8.317.107 4.704.061 14.784.027 22.145l-.023 5.125c-.018 3.827-.039 8.196-.039 13.586 0 1.395-.671 2.743-1.8 3.887-5.275-17.45-21.503-30.192-40.652-30.192-23.411 0-42.457 19.046-42.457 42.456s19.046 42.455 42.457 42.455c20.86 0 38.255-15.123 41.798-34.98 10.912-3.544 18.653-12.863 18.653-23.625 0-5.355.021-9.696.039-13.5l.023-5.129c.036-7.88.081-17.687-.031-22.634zm-36.025 57.433c-.011 13.476-10.978 24.436-24.457 24.436-13.485 0-24.457-10.971-24.457-24.455 0-13.485 10.971-24.456 24.457-24.456 13.455 0 24.406 10.919 24.457 24.361a2.166 2.166 0 0 0 0 .114zm-180.088-.02c0 4.971-4.029 9-9 9s-9.012-4.029-9.012-9 4.018-9 8.988-9h.023a9 9 0 0 1 9.001 9zm-23.326-123.567c-10.451 10.78-32.338 17.478-57.121 17.478-24.784 0-46.671-6.697-57.119-17.479a9.001 9.001 0 0 1 12.926-12.528c5.604 5.782 21.824 12.006 44.193 12.006s38.591-6.224 44.196-12.007c3.46-3.567 9.158-3.658 12.727-.197a9 9 0 0 1 .198 12.727z"/></symbol><symbol id="svg-nav-credit" viewBox="0 0 47.001 47.001"><path d="M46.907 20.12a.989.989 0 0 0-.896-.569h-2.927C41.223 9.452 32.355 1.775 21.726 1.775 9.747 1.775 0 11.522 0 23.501s9.746 21.725 21.726 21.725c7.731 0 14.941-4.161 18.816-10.857a1.975 1.975 0 0 0-.722-2.699 1.971 1.971 0 0 0-2.697.72c-3.172 5.481-9.072 8.887-15.397 8.887-9.801 0-17.776-7.974-17.776-17.774 0-9.802 7.975-17.776 17.776-17.776 8.442 0 15.515 5.921 17.317 13.825h-2.904a.99.99 0 0 0-.896.569.985.985 0 0 0 .136 1.051l4.938 5.925a.988.988 0 0 0 1.517 0l4.938-5.925a.987.987 0 0 0 .135-1.052z"/><path d="M21.726 6.713a1.975 1.975 0 0 0-1.975 1.975v11.984a3.451 3.451 0 0 0-1.481 2.83 3.461 3.461 0 0 0 3.457 3.457c.522 0 1.014-.125 1.458-.334l6.87 3.965a1.974 1.974 0 0 0 1.974-3.419L25.152 23.2a3.44 3.44 0 0 0-1.449-2.526V8.688a1.979 1.979 0 0 0-1.977-1.975zm0 18.269a1.483 1.483 0 0 1-1.481-1.48c0-.816.665-1.481 1.481-1.481s1.481.665 1.481 1.481c0 .815-.665 1.48-1.481 1.48z"/></symbol><symbol id="svg-nav-descr" viewBox="0 0 363.574 363.574"><path d="M128.515 358.621a9 9 0 0 1-8.045 4.954 8.96 8.96 0 0 1-4.041-.964c-27.744-13.974-50.713-36.944-64.679-64.681a9 9 0 0 1 16.077-8.095c12.242 24.313 32.378 44.45 56.698 56.699a9.002 9.002 0 0 1 3.99 12.087zM354.13 1.936a8.998 8.998 0 0 0-7.667-1.688L181.787 39.599 17.111.248A8.999 8.999 0 0 0 6.02 9.001v208.458a8.999 8.999 0 0 0 6.909 8.753l32.533 7.773a9 9 0 0 0 4.182-17.508l-25.624-6.122V20.405l148.768 35.55v46.036c0 4.971 4.029 9 9 9s9-4.029 9-9V55.955l148.768-35.55v189.951l-29.351 7.014a9 9 0 1 0 4.184 17.506l36.259-8.664a8.999 8.999 0 0 0 6.908-8.753V9.001a9.004 9.004 0 0 0-3.426-7.065zm-65.522 230.637c0 58.904-47.92 106.825-106.821 106.825-58.904 0-106.826-47.921-106.826-106.825 0-58.903 47.922-106.825 106.826-106.825 58.901 0 106.821 47.922 106.821 106.825zm-115.821 29.952c-10.02-3.016-17.936-10.932-20.952-20.952H93.414c4.226 41.809 37.564 75.147 79.373 79.373v-58.421zm9-16.68c7.316 0 13.27-5.954 13.27-13.271 0-7.317-5.953-13.271-13.27-13.271-7.318 0-13.272 5.954-13.272 13.271 0 7.317 5.954 13.271 13.272 13.271zm88.369-4.272h-58.419c-3.016 10.019-10.933 17.935-20.95 20.952v58.421c41.807-4.226 75.144-37.564 79.369-79.373zm0-18c-4.524-44.768-42.43-79.825-88.369-79.825-45.941 0-83.849 35.057-88.373 79.825h58.421c3.874-12.871 15.835-22.271 29.952-22.271 14.115 0 26.076 9.4 29.95 22.271h58.419zm37.676-44.271a8.998 8.998 0 0 0 3.99-12.086c-13.97-27.742-36.94-50.713-64.679-64.681a8.998 8.998 0 0 0-12.086 3.99c-2.235 4.439-.449 9.851 3.99 12.086 24.315 12.244 44.451 32.381 56.698 56.7a9 9 0 0 0 12.087 3.991z"/></symbol><symbol id="svg-nav-models" viewBox="0 0 373.678 373.678"><path d="M115.717 175.626H75.269a8.857 8.857 0 0 1-.461 0H34.362a8.857 8.857 0 0 1-.461 0h-15.36c-4.971 0-9-4.029-9-9s4.029-9 9-9h6.591v-46.972c0-4.971 4.029-9 9-9s9 4.029 9 9v46.972h22.906V38.282c0-4.971 4.029-9 9-9s9 4.029 9 9v119.344h22.909V85.745c0-4.971 4.029-9 9-9s9 4.029 9 9v71.881h6.595c4.971 0 9 4.029 9 9s-4.029 9-9 9h-15.364a8.762 8.762 0 0 1-.461 0zm-60.888 96.481H34.332c-4.971 0-9 4.029-9 9s4.029 9 9 9h20.497c4.971 0 9-4.029 9-9s-4.029-9-9-9zm78.364-44.492a9 9 0 0 0 9 9h10.125c4.971 0 9-4.029 9-9s-4.029-9-9-9h-10.125a9 9 0 0 0-9 9zm-78.364 12.167H9c-4.971 0-9 4.029-9 9s4.029 9 9 9h45.829c4.971 0 9-4.029 9-9s-4.029-9-9-9zm258.306 53.158h-.023c-4.971 0-8.988 4.029-8.988 9s4.041 9 9.012 9 9-4.029 9-9-4.031-9-9.001-9zm60.501-25.864l-.027 6.079c-.017 3.595-.036 7.681-.036 12.635 0 10.762-7.74 20.081-18.651 23.625-3.541 19.859-20.938 34.98-41.802 34.98-23.409 0-42.453-19.045-42.453-42.455s19.044-42.456 42.453-42.456c19.15 0 35.38 12.741 40.655 30.191 1.127-1.144 1.798-2.492 1.798-3.886 0-4.987.02-9.101.036-12.72l.028-6.08c.034-7.33.082-17.368-.026-22.05-.075-3.29-.163-5.988-.395-8.323H216.76c-3.23 0-10.795 0-33.942-22.876-7.053-6.97-21.072-21.802-23.649-28.05a9 9 0 0 1 4.887-11.752 8.997 8.997 0 0 1 11.663 4.678c1.224 2.193 8.542 11.172 19.149 21.724 13.359 13.29 20.458 17.593 22.393 18.276h127.841c-2.896-2.776-6.609-6.066-11.382-10.294a1668.309 1668.309 0 0 1-8.183-7.284c-2.173-1.951-4.338-4.019-6.431-6.019-3.066-2.93-6.237-5.959-9.536-8.725a4178.197 4178.197 0 0 1-8.282-6.96c-33.397-28.119-42.373-35.677-70.537-35.677h-75.437c-4.971 0-9-4.029-9-9s4.029-9 9-9h75.437c34.732 0 48.607 11.683 82.131 39.907 2.608 2.196 5.352 4.506 8.25 6.934 3.749 3.144 7.135 6.377 10.408 9.505 2.087 1.993 4.058 3.876 6.021 5.64 2.952 2.649 5.644 5.034 8.095 7.205 21.576 19.114 27.375 24.252 27.95 49.678.114 4.928.068 14.699.03 22.55zm-36.056 34.771c-.051-13.441-11.004-24.362-24.461-24.362-13.483 0-24.453 10.971-24.453 24.456 0 13.484 10.97 24.455 24.453 24.455 13.482 0 24.451-10.96 24.461-24.438v-.111zm-189.089-8.907h-.022c-4.971 0-8.988 4.029-8.988 9s4.04 9 9.011 9 9-4.029 9-9-4.03-9-9.001-9zm102.449 8.999a9 9 0 0 1-9 9h-51.964c-4.138 19.103-21.172 33.457-41.496 33.457-20.843 0-38.227-15.098-41.789-34.93-7.215-2.285-13.163-7.1-16.356-13.521-1.6-3.211-2.412-6.629-2.412-10.154v-83.823c0-4.971 4.029-9 9-9s9 4.029 9 9v83.823c0 .715.177 1.432.526 2.133.306.616.763 1.241 1.356 1.831 5.25-17.49 21.498-30.27 40.675-30.27 20.322 0 37.355 14.353 41.496 33.454h51.964a9 9 0 0 1 9 9zm-78.003.001c0-13.485-10.971-24.456-24.456-24.456-13.396 0-24.313 10.826-24.455 24.189.003.155.003.311-.001.468.107 13.393 11.037 24.254 24.456 24.254 13.485.001 24.456-10.97 24.456-24.455z"/></symbol><symbol id="svg-nav-photos" viewBox="0 0 416 416"><path d="M360 68H144c0-13.233-10.767-24-24-24H88c-13.233 0-24 10.767-24 24h-8C25.121 68 0 93.122 0 124v192c0 30.878 25.121 56 56 56h304c30.879 0 56-25.122 56-56V124c0-30.878-25.121-56-56-56zM88 60h32c4.411 0 8 3.589 8 8H80c0-4.411 3.589-8 8-8zm272 296H56c-22.056 0-40-17.944-40-40V164h64a8 8 0 0 0 0-16H16v-24c0-22.056 17.944-40 40-40h304c22.056 0 40 17.944 40 40v24h-64a8 8 0 0 0 0 16h64v152c0 22.056-17.944 40-40 40z"/><path d="M208 100c-66.168 0-120 53.832-120 120s53.832 120 120 120 120-53.832 120-120-53.832-120-120-120zm0 224c-57.346 0-104-46.654-104-104s46.654-104 104-104 104 46.654 104 104-46.654 104-104 104z"/><path d="M208 132c-48.523 0-88 39.477-88 88s39.477 88 88 88 88-39.477 88-88-39.477-88-88-88zm0 160c-39.701 0-72-32.299-72-72s32.299-72 72-72 72 32.299 72 72-32.299 72-72 72z"/><path d="M208 164a8 8 0 0 0 0 16c22.056 0 40 17.944 40 40a8 8 0 0 0 16 0c0-30.878-25.121-56-56-56zm144-24c13.233 0 24-10.766 24-24s-10.767-24-24-24-24 10.766-24 24 10.767 24 24 24zm0-32c4.411 0 8 3.589 8 8s-3.589 8-8 8-8-3.589-8-8 3.589-8 8-8z"/></symbol><symbol id="svg-nav-review" viewBox="0 0 373.674 373.674"><path d="M112.485 152.938a9 9 0 0 0 0-12.729l-15.146-15.146a36.43 36.43 0 0 0 4.039-9.719h21.409c4.971 0 9-4.029 9-9s-4.029-9-9-9h-21.409a36.357 36.357 0 0 0-4.038-9.718l15.146-15.146a9.001 9.001 0 0 0-12.728-12.729L84.611 74.899a36.39 36.39 0 0 0-9.718-4.038V49.452c0-4.971-4.029-9-9-9s-9 4.029-9 9v21.409a36.429 36.429 0 0 0-9.719 4.038l-15.15-15.147a8.998 8.998 0 0 0-12.728.001 9 9 0 0 0 .001 12.728l15.149 15.147a36.38 36.38 0 0 0-4.037 9.717H9c-4.971 0-9 4.029-9 9s4.029 9 9 9h21.409a36.396 36.396 0 0 0 4.038 9.719l-15.15 15.146a9 9 0 0 0-.001 12.728 9 9 0 0 0 12.728.001l15.15-15.147a36.43 36.43 0 0 0 9.719 4.039v21.408c0 4.971 4.029 9 9 9s9-4.029 9-9V141.83a36.422 36.422 0 0 0 9.718-4.038l15.146 15.146a9.001 9.001 0 0 0 12.728 0zM84.49 106.804a18.543 18.543 0 0 1-5.251 12.489 9.361 9.361 0 0 0-.4.399 18.535 18.535 0 0 1-12.508 5.252 9.162 9.162 0 0 0-.877 0 18.542 18.542 0 0 1-12.509-5.253 12.263 12.263 0 0 0-.398-.398 18.534 18.534 0 0 1-5.252-12.517 8.866 8.866 0 0 0 0-.864 18.54 18.54 0 0 1 5.247-12.51 7.904 7.904 0 0 0 .409-.409 18.545 18.545 0 0 1 12.504-5.247c.291.014.586.014.877 0a18.544 18.544 0 0 1 12.502 5.245 9.971 9.971 0 0 0 .412.413 18.539 18.539 0 0 1 5.244 12.48 9.974 9.974 0 0 0 0 .92zM63.827 237.609a9 9 0 0 1-9 9H9c-4.971 0-9-4.029-9-9s4.029-9 9-9h45.827a9 9 0 0 1 9 9zm0 32.325a9 9 0 0 1-9 9H34.334c-4.971 0-9-4.029-9-9s4.029-9 9-9h20.493a9 9 0 0 1 9 9zm69.368-53.492a9 9 0 0 1 9-9h10.123c4.971 0 9 4.029 9 9s-4.029 9-9 9h-10.123a9 9 0 0 1-9-9zm240.408 16.912c-.574-25.425-6.373-30.563-27.946-49.676-2.451-2.172-5.143-4.557-8.099-7.21-1.966-1.764-3.938-3.647-6.026-5.643-3.272-3.127-6.657-6.36-10.406-9.499-2.896-2.426-5.637-4.734-8.245-6.93-33.523-28.228-47.399-39.911-82.133-39.911h-75.437a9 9 0 0 0-9 9 9 9 0 0 0 9 9h75.437c28.165 0 37.141 7.559 70.539 35.681 2.618 2.204 5.372 4.522 8.282 6.96 3.298 2.762 6.465 5.788 9.528 8.714 2.096 2.003 4.264 4.074 6.439 6.025 2.987 2.681 5.707 5.091 8.184 7.285 4.771 4.227 8.485 7.517 11.379 10.293h-127.84c-1.934-.684-9.033-4.986-22.394-18.276-10.608-10.552-17.927-19.531-19.15-21.724a8.998 8.998 0 0 0-11.663-4.678 9 9 0 0 0-4.887 11.752c2.578 6.248 16.598 21.08 23.65 28.05 23.148 22.876 30.713 22.876 33.944 22.876h138.454c.23 2.333.319 5.03.394 8.317.107 4.704.061 14.784.027 22.145l-.023 5.125c-.018 3.827-.039 8.196-.039 13.586 0 1.395-.671 2.743-1.8 3.887-5.275-17.45-21.503-30.192-40.652-30.192-23.411 0-42.457 19.046-42.457 42.456s19.046 42.455 42.457 42.455c20.86 0 38.255-15.123 41.798-34.98 10.912-3.544 18.653-12.863 18.653-23.625 0-5.355.021-9.696.039-13.5l.023-5.129c.037-7.88.082-17.686-.03-22.634zm-36.025 57.433c-.011 13.476-10.978 24.436-24.457 24.436-13.485 0-24.457-10.971-24.457-24.455 0-13.485 10.971-24.456 24.457-24.456 13.455 0 24.406 10.919 24.457 24.361a2.166 2.166 0 0 0 0 .114zm-15.446-.02c0 4.971-4.029 9-9 9s-9.011-4.029-9.011-9 4.018-9 8.988-9h.023a9 9 0 0 1 9 9zm-80.194-9.001h-51.963c-4.14-19.102-21.174-33.455-41.497-33.455-19.176 0-35.424 12.781-40.674 30.271-.594-.59-1.051-1.215-1.356-1.83a4.769 4.769 0 0 1-.523-2.136v-83.823c0-4.971-4.029-9-9-9s-9 4.029-9 9v83.823c0 3.529.811 6.947 2.409 10.156 3.195 6.422 9.144 11.235 16.358 13.521 3.563 19.832 20.945 34.929 41.787 34.929 20.324 0 37.358-14.354 41.497-33.456h51.963a9 9 0 0 0-.001-18zm-93.46 33.456c-13.439 0-24.381-10.896-24.455-24.318a9.577 9.577 0 0 0 0-.339c.109-13.393 11.037-24.254 24.454-24.254 13.485 0 24.457 10.971 24.457 24.456.001 13.485-10.971 24.455-24.456 24.455zm9.012-24.455c0 4.971-4.029 9-9 9s-9.012-4.029-9.012-9 4.018-9 8.988-9h.023a9 9 0 0 1 9.001 9z"/></symbol><symbol id="svg-nav-video" viewBox="0 0 512 512"><path d="M435.574 59.858H76.426C34.285 59.858 0 94.143 0 136.284v171.023a8.017 8.017 0 0 0 16.034 0V136.284c0-33.3 27.092-60.393 60.393-60.393h359.148c33.3 0 60.393 27.092 60.393 60.393v239.432c0 33.3-27.092 60.393-60.393 60.393H76.426c-33.3 0-60.393-27.092-60.393-60.393v-34.205a8.017 8.017 0 0 0-16.034 0v34.205c0 42.141 34.285 76.426 76.426 76.426h359.148c42.141 0 76.426-34.285 76.426-76.426V136.284c.001-42.141-34.284-76.426-76.425-76.426z"/><path d="M362.982 249.278l-34.205-22.233a8.018 8.018 0 0 0-8.738 13.444L343.903 256l-148.296 96.394V159.607l98.779 64.206a8.018 8.018 0 0 0 11.09-2.353 8.016 8.016 0 0 0-2.353-11.091l-111.165-72.256c-5.24-3.407-12.384.491-12.384 6.721v222.33c0 6.226 7.142 10.131 12.385 6.721L362.982 262.72c4.779-3.105 4.778-10.335 0-13.442z"/></symbol><symbol id="svg-nav-anketa" viewBox="0 0 434.168 434.168"><path d="M332.318 230.196V34.967H40.93v364.235h134.038c9.616 0 17.483 7.867 17.483 17.483s-7.867 17.483-17.483 17.483H23.446c-9.616 0-17.483-7.867-17.483-17.483V17.483C5.963 7.867 13.831 0 23.446 0H349.8c9.616 0 17.483 7.867 17.483 17.483v212.713c0 9.616-7.867 17.483-17.483 17.483s-17.482-7.867-17.482-17.483zm90.039 42.543c-7.285-6.411-18.357-5.828-24.768 1.457l-95.867 106.648-48.079-46.331c-6.993-6.702-18.066-6.411-24.768.583s-6.411 18.066.583 24.768l61.191 58.86c3.205 3.205 7.576 4.954 12.238 4.954h.583c4.662-.291 9.324-2.331 12.238-5.828l107.814-120.052c6.702-7.576 6.119-18.648-1.165-25.059zM268.212 101.986H110.863c-9.616 0-17.483 7.867-17.483 17.483s7.867 17.483 17.483 17.483h157.349c9.616 0 17.483-7.867 17.483-17.483s-7.867-17.483-17.483-17.483zm17.484 113.641c0-9.616-7.867-17.483-17.483-17.483h-157.35c-9.616 0-17.483 7.867-17.483 17.483s7.867 17.483 17.483 17.483h157.349c9.616 0 17.484-7.867 17.484-17.483zm-174.833 75.761c-9.616 0-17.483 7.867-17.483 17.483s7.867 17.483 17.483 17.483h46.622c9.616 0 17.483-7.867 17.483-17.483s-7.867-17.483-17.483-17.483h-46.622z"/></symbol><symbol id="svg-nav-reviews" viewBox="0 0 60 60"><path d="M20 49c-2.206 0-4 1.794-4 4s1.794 4 4 4 4-1.794 4-4-1.794-4-4-4zm0 6c-1.103 0-2-.897-2-2s.897-2 2-2 2 .897 2 2-.897 2-2 2zM17 5h4a1 1 0 1 0 0-2h-4a1 1 0 1 0 0 2zm7 0h1a1 1 0 1 0 0-2h-1a1 1 0 1 0 0 2z"/><path d="M56 12H38V4.405A4.41 4.41 0 0 0 33.595 0H8.405A4.41 4.41 0 0 0 4 4.405v51.189A4.41 4.41 0 0 0 8.405 60h25.189A4.41 4.41 0 0 0 38 55.595V33h18V12zM8.405 2h25.189A2.408 2.408 0 0 1 36 4.405V6H6V4.405A2.408 2.408 0 0 1 8.405 2zm25.19 56H8.405A2.408 2.408 0 0 1 6 55.595V48h30v7.595A2.408 2.408 0 0 1 33.595 58zM36 46H6V8h30v4H18v21h4v7l9.333-7H36v13zm18-15H30.667L24 36v-5h-4V14h34v17z"/><path d="M25 21h10a1 1 0 1 0 0-2H25a1 1 0 1 0 0 2zm-1 4a1 1 0 0 0 1 1h24a1 1 0 1 0 0-2H25a1 1 0 0 0-1 1z"/></symbol><symbol id="svg-nav-used" viewBox="0 0 373.678 373.678"><path d="M76.341 187.847c-37.77 0-68.497-30.729-68.497-68.499 0-29.721 19.022-55.079 45.533-64.54a9 9 0 0 1 8.919-10.215h28.092a9 9 0 0 1 8.923 10.185 67.657 67.657 0 0 1 11.748 5.501l8.469-10.842a9.001 9.001 0 0 1 14.186 11.08l-50.279 64.371a9.001 9.001 0 0 1-14.186-11.08l30.6-39.177c-7.196-3.802-15.191-5.782-23.507-5.782-27.844 0-50.497 22.653-50.497 50.499 0 27.845 22.653 50.499 50.497 50.499 27.846 0 50.499-22.654 50.499-50.499a50.74 50.74 0 0 0-1.884-13.726 9 9 0 0 1 6.23-11.099c4.788-1.351 9.755 1.444 11.1 6.229a68.78 68.78 0 0 1 2.554 18.595c-.001 37.772-30.73 68.5-68.5 68.5zm-21.512 68.949H34.332c-4.971 0-9 4.029-9 9s4.029 9 9 9h20.497c4.971 0 9-4.029 9-9s-4.029-9-9-9zm21.529-116.395h-.035c-4.971 0-8.982 4.029-8.982 9s4.047 9 9.018 9 9-4.029 9-9-4.03-9-9.001-9zm-21.529 84.07H9c-4.971 0-9 4.029-9 9s4.029 9 9 9h45.829c4.971 0 9-4.029 9-9s-4.029-9-9-9zm196.111 62.157a9 9 0 0 1-9 9h-51.964c-4.138 19.103-21.172 33.456-41.496 33.456-20.843 0-38.227-15.097-41.789-34.93-7.212-2.285-13.16-7.098-16.355-13.519-1.602-3.22-2.413-6.637-2.413-10.157v-60.013c0-4.971 4.029-9 9-9s9 4.029 9 9v60.013c0 .714.178 1.434.529 2.139.305.614.761 1.237 1.354 1.826 5.249-17.49 21.498-30.27 40.675-30.27 20.322 0 37.356 14.354 41.496 33.455h51.964a9 9 0 0 1 8.999 9zm-78.003.001c0-13.485-10.971-24.456-24.456-24.456-13.396 0-24.313 10.828-24.455 24.19.003.154.003.31-.001.465.107 13.394 11.037 24.256 24.456 24.256 13.485.001 24.456-10.97 24.456-24.455zm-39.744-74.325a9 9 0 0 0 9 9h10.125c4.971 0 9-4.029 9-9s-4.029-9-9-9h-10.125a9 9 0 0 0-9 9zm179.942 65.325h-.023c-4.971 0-8.988 4.029-8.988 9s4.041 9 9.012 9 9-4.029 9-9-4.031-9-9.001-9zm60.501-25.864l-.027 6.079c-.017 3.595-.036 7.681-.036 12.635 0 10.762-7.74 20.081-18.651 23.625-3.543 19.857-20.939 34.98-41.802 34.98-23.409 0-42.453-19.045-42.453-42.455s19.044-42.456 42.453-42.456c19.15 0 35.38 12.741 40.655 30.191 1.127-1.144 1.798-2.492 1.798-3.886 0-4.987.02-9.101.036-12.72l.028-6.08c.034-7.33.082-17.368-.026-22.05-.075-3.29-.163-5.988-.395-8.323H216.76c-3.23 0-10.795 0-33.942-22.876-7.053-6.97-21.072-21.802-23.649-28.05a9 9 0 0 1 4.887-11.752c4.528-1.873 9.697.227 11.663 4.678 1.224 2.193 8.542 11.172 19.149 21.724 13.359 13.29 20.458 17.593 22.393 18.276h127.841c-2.896-2.776-6.609-6.066-11.382-10.294a1668.309 1668.309 0 0 1-8.183-7.284c-2.172-1.949-4.334-4.017-6.426-6.015-3.066-2.93-6.237-5.96-9.539-8.727a4674.498 4674.498 0 0 1-8.279-6.958c-33.4-28.122-42.377-35.681-70.542-35.681h-62.137c-4.971 0-9-4.029-9-9s4.029-9 9-9h62.137c34.733 0 48.61 11.684 82.136 39.911 2.607 2.195 5.349 4.504 8.245 6.93 3.753 3.145 7.14 6.381 10.415 9.511 2.084 1.991 4.053 3.872 6.015 5.634 2.952 2.649 5.644 5.034 8.095 7.205 21.576 19.114 27.375 24.252 27.95 49.678.113 4.929.067 14.699.029 22.55zm-36.056 34.771c-.051-13.441-11.004-24.362-24.461-24.362-13.483 0-24.453 10.971-24.453 24.456 0 13.484 10.97 24.455 24.453 24.455 13.482 0 24.451-10.96 24.461-24.438v-.111zm-189.089-8.907h-.022c-4.971 0-8.988 4.029-8.988 9s4.04 9 9.011 9 9-4.029 9-9-4.03-9-9.001-9z"/></symbol><symbol id="svg-nav-share" viewBox="0 0 512.001 512.001"><path d="M404.99 344.077c-26.743 0-50.588 12.583-65.974 32.124l-154.093-88.964a83.477 83.477 0 0 0 6.049-31.236 83.504 83.504 0 0 0-6.049-31.236l154.093-88.964c15.387 19.54 39.231 32.124 65.974 32.124 46.297 0 83.962-37.666 83.962-83.962C488.952 37.666 451.288 0 404.99 0s-83.962 37.665-83.962 83.961a83.487 83.487 0 0 0 6.052 31.24l-154.091 88.964c-15.387-19.542-39.233-32.127-65.978-32.127-46.297 0-83.962 37.666-83.962 83.962 0 46.296 37.665 83.962 83.962 83.962 26.745 0 50.591-12.585 65.978-32.127L327.08 396.8a83.484 83.484 0 0 0-6.052 31.24c0 46.297 37.665 83.961 83.962 83.961s83.962-37.665 83.962-83.961-37.664-83.963-83.962-83.963zm0-320.269c33.169 0 60.155 26.985 60.155 60.153 0 33.169-26.985 60.155-60.155 60.155-33.169 0-60.155-26.986-60.155-60.155.001-33.169 26.987-60.153 60.155-60.153zM107.011 316.155c-33.169 0-60.155-26.986-60.155-60.155s26.985-60.155 60.155-60.155c33.169 0 60.155 26.986 60.155 60.155s-26.986 60.155-60.155 60.155zM404.99 488.192c-33.169 0-60.155-26.985-60.155-60.153 0-33.169 26.985-60.155 60.155-60.155 33.169 0 60.155 26.986 60.155 60.155s-26.986 60.153-60.155 60.153z"/><path d="M107.011 220.606c-19.516 0-35.394 15.877-35.394 35.394 0 6.573 5.329 11.904 11.904 11.904S95.425 262.573 95.425 256c0-6.389 5.197-11.586 11.586-11.586 6.574 0 11.904-5.331 11.904-11.904 0-6.574-5.33-11.904-11.904-11.904z"/></symbol><symbol id="svg-nav-analogs" viewBox="0 0 397.238 397.238"><path d="M37.844 80.734v125.835a9 9 0 0 0 9 9h104.957a9 9 0 0 0 9-9V80.734a9 9 0 0 0-9-9H46.844a9 9 0 0 0-9 9zm18 9h86.957v107.835H55.844V89.734zm70.849 27.077a9 9 0 0 1-9 9H80.949c-4.971 0-9-4.029-9-9s4.029-9 9-9h36.744a9 9 0 0 1 9 9zm-12.738-64.92H18v116.834c0 4.971-4.029 9-9 9s-9-4.029-9-9V42.891a9 9 0 0 1 9-9h104.955c4.971 0 9 4.029 9 9s-4.029 9-9 9zm-4.673 94.803a9 9 0 0 1-9 9H80.949c-4.971 0-9-4.029-9-9s4.029-9 9-9h19.333a9 9 0 0 1 9 9zm56.476 90.873h10.122c4.971 0 9 4.029 9 9s-4.029 9-9 9h-10.122c-4.971 0-9-4.029-9-9s4.029-9 9-9zm179.938 83.325c0 4.971-4.029 9-9 9s-9.012-4.029-9.012-9 4.018-9 8.988-9h.023a9 9 0 0 1 9.001 9zm51.471-57.413c-.575-25.427-6.374-30.564-27.949-49.678-2.45-2.171-5.142-4.556-8.097-7.207-1.967-1.766-3.94-3.65-6.029-5.646-3.271-3.126-6.654-6.357-10.402-9.497-2.896-2.425-5.636-4.733-8.242-6.928-33.525-28.229-47.401-39.912-82.138-39.912h-62.133c-4.971 0-9 4.029-9 9s4.029 9 9 9h62.133c28.168 0 37.145 7.559 70.544 35.681 2.617 2.205 5.37 4.522 8.278 6.958 3.297 2.762 6.463 5.787 9.525 8.713 2.097 2.004 4.266 4.075 6.442 6.028 2.986 2.68 5.706 5.09 8.183 7.283 4.771 4.228 8.486 7.519 11.381 10.295H240.822c-1.934-.684-9.032-4.986-22.392-18.276-10.607-10.551-17.926-19.529-19.148-21.723-1.968-4.451-7.138-6.547-11.662-4.68a9 9 0 0 0-4.89 11.751c2.576 6.247 16.596 21.081 23.649 28.052 23.147 22.876 30.712 22.876 33.942 22.876h138.456c.23 2.333.318 5.03.393 8.317.106 4.686.062 14.728.028 22.06l-.023 5.121c-.019 3.85-.039 8.243-.039 13.675 0 1.394-.672 2.743-1.801 3.887-5.274-17.45-21.505-30.192-40.655-30.192-23.409 0-42.453 19.045-42.453 42.455s19.044 42.456 42.453 42.456c20.862 0 38.259-15.124 41.802-34.98 10.912-3.545 18.654-12.864 18.654-23.625 0-5.397.021-9.764.039-13.589l.023-5.126c.036-7.85.08-17.619-.031-22.549zm-60.486 81.869c-13.483 0-24.453-10.971-24.453-24.456 0-13.484 10.97-24.455 24.453-24.455 13.397 0 24.313 10.823 24.459 24.184-.003.156-.003.313.001.47-.107 13.393-11.038 24.257-24.46 24.257zm-71.179-33.457h-51.963c-4.14-19.101-21.174-33.454-41.497-33.454-19.176 0-35.424 12.779-40.675 30.268-.595-.592-1.053-1.219-1.36-1.837a4.719 4.719 0 0 1-.521-2.125V244.73c0-4.971-4.029-9-9-9s-9 4.029-9 9v60.013c0 3.536.813 6.957 2.412 10.158 3.197 6.42 9.145 11.232 16.354 13.518 3.563 19.833 20.946 34.93 41.789 34.93 20.324 0 37.359-14.354 41.497-33.457h51.963c4.971 0 9-4.029 9-9a9 9 0 0 0-8.999-9.001zm-93.46 33.457c-13.44 0-24.384-10.897-24.457-24.32.003-.112.003-.225.001-.336.107-13.393 11.037-24.255 24.456-24.255 13.485 0 24.457 10.971 24.457 24.455 0 13.485-10.972 24.456-24.457 24.456zm-84.651-77.614a9 9 0 0 1-9 9H32.562c-4.971 0-9-4.029-9-9s4.029-9 9-9h45.829a9 9 0 0 1 9 9zm0 32.325a9 9 0 0 1-9 9H57.894c-4.971 0-9-4.029-9-9s4.029-9 9-9h20.497a9 9 0 0 1 9 9zm93.663 20.833c0 4.971-4.029 9-9 9s-9.012-4.029-9.012-9 4.018-9 8.988-9h.023a9 9 0 0 1 9.001 9z"/></symbol></svg>