<svg style="width:0;height:0" xmlns="http://www.w3.org/2000/svg"><symbol id="svg-horse" viewBox="0 0 32 31"><path d="M31.967 3.693a.703.703 0 0 0-.67-.491H25.76A13.055 13.055 0 0 0 18.127.075a33.529 33.529 0 0 0-13.75 1.957L.463 3.455a.703.703 0 1 0 .48 1.322l3.914-1.423a32.131 32.131 0 0 1 13.178-1.876c1.904.126 3.753.729 5.364 1.73a.703.703 0 0 0 .091 1.4h5.581l-1.116.784a4.038 4.038 0 0 1-3.697.49.703.703 0 0 0-.48 1.321 5.435 5.435 0 0 0 2.872.232l-.864 17.478-.005.06a2.991 2.991 0 0 0-2.923 1.294.703.703 0 1 0 1.17.78c.301-.451.81-.709 1.338-.7-.386.673-1 1.183-1.736 1.437l-.62.214a1.662 1.662 0 0 1-.297.072l-.756-3.026a.703.703 0 0 0-1.365.342l.552 2.206-.571-.323a1.093 1.093 0 0 1-.53-1.201 4.277 4.277 0 0 0-.141-2.384l-1.556-4.38c.18.031.365.054.553.067l3.172.216a.703.703 0 0 0 .095-1.403l-3.172-.216c-2.039-.139-3.025-1.657-3.25-2.914-.224-1.258.176-3.023 2.04-3.859l2.829-1.268a.703.703 0 1 0-.575-1.283l-2.829 1.268c-.912.409-1.648 1.032-2.157 1.818-1.258.347-6.303 1.876-9.752 4.942a.703.703 0 0 0 .934 1.051c2.57-2.284 6.22-3.688 8.143-4.316a5.137 5.137 0 0 0 .371 3.132c-.26.77-1.092 3.117-2.335 5.605-1.95 3.9-4.01 6.379-5.96 7.166a.703.703 0 1 0 .527 1.304c4.401-1.778 7.624-9.544 8.757-12.643l.065.065c.253.243.53.455.826.635l1.948 5.484c.183.515.216 1.068.095 1.601a2.491 2.491 0 0 0 1.208 2.736l1.064.603a3.084 3.084 0 0 0 2.526.233l.62-.214a4.603 4.603 0 0 0 3.102-4.131l.892-18.033c.235-.118.463-.253.68-.407l2.938-2.062a.704.704 0 0 0 .266-.788z"/><path d="M24.339 14.187a.701.701 0 0 0 .993.052.703.703 0 0 0 .052-.993l-.95-1.055a.703.703 0 0 0-1.045.94l.95 1.056z"/></symbol><symbol id="svg-speed" viewBox="0 0 32 30"><path d="M16.558 18.52a1.318 1.318 0 1 0 .002-2.638l-3.318-2.406-.557.582 2.554 3.18.003.044a1.32 1.32 0 0 0 1.316 1.238z"/><path d="M16 0C7.176 0 0 7.176 0 15.998c0 3.079.878 6.069 2.54 8.646l.12.186h1.99l2.698-2.356-1.165-1.337-2.631 2.297-.086-.145a14.462 14.462 0 0 1-1.98-7.292c0-.074.005-.145.013-.236l.01-.27 3.204-.003v-1.773H1.68l.028-.163a14.473 14.473 0 0 1 3.05-6.73l.098-.12L7.114 8.96l1.257-1.25L6.084 5.42l.108-.098c2.355-2.165 5.264-3.468 8.414-3.768l.153-.014.002 3.7h1.772V1.512l.145.007a14.488 14.488 0 0 1 9.33 3.984l.103.097-2.338 2.343 1.255 1.253 2.279-2.28.097.123a14.49 14.49 0 0 1 2.888 6.514l.028.163-3.15.002v1.774h3.322l.012.285c.005.074.01.146.01.22 0 2.544-.678 5.054-1.96 7.26l-.092.158-2.48-2.477-1.25 1.254 2.635 2.637h1.973l.12-.186A15.932 15.932 0 0 0 32 15.997C32 7.177 24.822 0 16 0zM23.13 27.578H8.87v1.833H23.13v-1.833z"/></symbol><symbol id="svg-gas" viewBox="0 0 32 32"><path d="M27.253 14.31l-4.781-4.781a.674.674 0 0 0-.362-.187l-4-.666a.673.673 0 0 0-.681.315l-1.333 2.229a.666.666 0 0 0 .1.814l6.666 6.667a.665.665 0 0 0 .943 0l3.448-3.448a.666.666 0 0 0 0-.943zm-5.573-3.688l2.28 2.28a1.692 1.692 0 0 1-1.822-.373l-2.196-2.197 1.738.29zm1.654 6.664l-5.828-5.828.627-1.05 3.063 3.063a3.012 3.012 0 0 0 3.748.415l.895.895-2.505 2.505zM2.549 8.288c-.248-.36-.85-.36-1.097 0C1.016 8.919 0 10.48 0 11.333c0 1.103.898 2 2 2 1.103 0 2-.897 2-2C4 10.48 2.985 8.92 2.55 8.288zM2 12a.668.668 0 0 1-.666-.665c.005-.205.282-.786.666-1.433.385.646.662 1.228.667 1.433 0 .367-.3.665-.667.665z"/><path d="M31.312 20.297l.493-.492a.666.666 0 0 0 0-.943l-2.195-2.195.781-.782a2.67 2.67 0 0 0 0-3.77l-4.176-4.176c.22-.383.339-.82.339-1.272 0-.683-.267-1.323-.749-1.805l-1.12-1.121a2.548 2.548 0 0 0-2.752-.564l-5.106 2.04-2.355-2.355a.666.666 0 0 0-.943 0l-.02.02C12.079 1.646 9.63 0 6.74 0 2.829 0 .398 1.603.296 1.67a.665.665 0 0 0-.184.924l1.48 2.218c.199.301.61.383.915.19C2.524 4.994 4.125 4 6.74 4c1.607 0 3.111 1.013 3.984 1.736a.664.664 0 0 0 .138.735l2.472 2.472v2.896c0 .701.285 1.389.781 1.885l7.333 7.333a2.648 2.648 0 0 0 1.886.782c.443 0 .863-.119 1.242-.32l2.287 2.286a.665.665 0 0 0 .942 0l.102-.102C27.466 26.142 25.339 28 22.775 28h-3.441a.666.666 0 0 0-.667.667v2.666c0 .369.298.667.667.667h3.441c5.088 0 9.226-4.138 9.226-9.225 0-.882-.244-1.724-.689-2.477zM6.74 2.668c-2.08 0-3.592.543-4.372.906l-.745-1.117c.87-.426 2.668-1.123 5.117-1.123 2.465 0 4.648 1.503 5.824 2.495l-.93.928c-1.097-.924-2.878-2.09-4.894-2.09zm17.538 17.447c-.521.523-1.366.521-1.887 0l-7.333-7.333a1.342 1.342 0 0 1-.39-.943V8.668a.666.666 0 0 0-.196-.472L12.277 6 14 4.276l2.196 2.195a.66.66 0 0 0 .718.147l5.515-2.204a1.219 1.219 0 0 1 1.314.27l1.12 1.12c.23.231.358.537.358.863 0 .325-.128.631-.359.862a.666.666 0 0 0 0 .942l4.586 4.586c.52.52.52 1.366 0 1.886l-5.17 5.171zM27 3338l-4.61 NaN 3.22 NaN 3.057 NaN 1.724 NaN-3.057 NaNzM22.775 30.667H20v-1.334h2.775a6.567 6.567 0 0 0 6.559-6.558c0-.147-.018-.295-.053-.447l1.046-1.046c.218.467.34.97.34 1.493 0 4.351-3.54 7.892-7.892 7.892z"/></symbol><symbol id="svg-360" viewBox="0 0 32 28"><path d="M9 16.139H5c-.552 0-1-.452-1-1.009 0-.557.448-1.009 1-1.009h3V8.07H5c-.552 0-1-.451-1-1.008 0-.557.448-1.009 1-1.009h4c.552 0 1 .452 1 1.009v8.069c0 .557-.448 1.009-1 1.009zM16 16.139h-2c-1.105 0-2-.903-2-2.018V8.07c0-1.114.895-2.017 2-2.017h3c.552 0 1 .452 1 1.009 0 .557-.448 1.008-1 1.008h-3v2.018h2c1.105 0 2 .903 2 2.017v2.017a2.009 2.009 0 0 1-2 2.018zm-2-4.035v2.017h2v-2.017h-2zM24 16.139h-2c-1.105 0-2-.903-2-2.018V8.07c0-1.114.895-2.017 2-2.017h2c1.105 0 2 .903 2 2.017v6.052a2.009 2.009 0 0 1-2 2.018zm-2-8.07v6.052h2V8.07h-2z"/><path d="M9 12.104H5c-.552 0-1-.451-1-1.009 0-.557.448-1.008 1-1.008h4c.552 0 1 .451 1 1.008 0 .557-.448 1.009-1 1.009zM16 24.208c-8.972 0-16-3.544-16-8.07a5.502 5.502 0 0 1 2.384-4.286.995.995 0 0 1 1.405.174c.34.44.263 1.074-.173 1.418A3.675 3.675 0 0 0 2 16.139C2 19 7.75 22.19 16 22.19c.552 0 1 .451 1 1.008 0 .557-.448 1.009-1 1.009zM19 24.067a1.004 1.004 0 0 1-1.048-.96c-.027-.558.4-1.03.952-1.058C25.23 21.44 30 18.894 30 16.14a3.675 3.675 0 0 0-1.616-2.695 1.015 1.015 0 0 1-.172-1.417.994.994 0 0 1 1.404-.173A5.494 5.494 0 0 1 32 16.139c0 3.923-5.306 7.183-12.904 7.924l-.096.004z"/><path d="M13 27.234c-.552.001-1-.45-1.002-1.007 0-.268.105-.526.294-.716l2.294-2.312-2.294-2.312a1.016 1.016 0 0 1 0-1.428.995.995 0 0 1 1.416 0l3 3.026c.391.394.392 1.032.002 1.427l-3.002 3.027a.995.995 0 0 1-.708.295zM29 6.052c-1.657 0-3-1.355-3-3.026C26 1.355 27.343 0 29 0s3 1.355 3 3.026c0 1.671-1.343 3.026-3 3.026zm0-4.035c-.552 0-1 .452-1 1.009 0 .557.448 1.009 1 1.009s1-.452 1-1.009c0-.557-.448-1.009-1-1.009z"/></symbol><symbol id="svg-gears" viewBox="0 0 24 23"><path d="M14.588 15.487a.434.434 0 0 0-.088-.25 23.757 23.757 0 0 1-1.125-1.437c.175-.342.308-.659.4-.95l1.937-.3c.075-.008.142-.052.2-.131a.408.408 0 0 0 .088-.244V9.862a.372.372 0 0 0-.088-.243.36.36 0 0 0-.212-.131L13.8 9.2a8.548 8.548 0 0 0-.425-1.025c.125-.183.312-.433.562-.75.25-.316.426-.541.525-.675a.418.418 0 0 0 .088-.237c0-.225-.6-.892-1.8-2a.415.415 0 0 0-.263-.1c-.1 0-.183.029-.25.087l-1.475 1.113a5.5 5.5 0 0 0-.937-.388l-.288-1.912a.322.322 0 0 0-.125-.22.381.381 0 0 0-.25-.093H6.837c-.191 0-.316.1-.374.3-.1.384-.196 1.025-.288 1.925-.358.117-.68.25-.962.4L3.775 4.5a.45.45 0 0 0-.262-.087c-.159 0-.488.246-.988.737-.5.492-.842.863-1.025 1.113a.366.366 0 0 0-.087.25c0 .075.029.158.087.25A23.68 23.68 0 0 1 2.625 8.2a6.165 6.165 0 0 0-.4.95l-1.937.3c-.076.008-.142.052-.2.131A.408.408 0 0 0 0 9.825v2.312c0 .092.03.173.087.244.059.07.13.11.213.119l1.9.3c.1.316.246.658.438 1.025-.134.183-.33.438-.588.762-.258.325-.43.546-.512.663a.42.42 0 0 0-.088.237c0 .226.6.892 1.8 2 .083.067.17.1.263.1.108 0 .191-.029.25-.087l1.475-1.113c.341.175.654.304.937.388l.288 1.912c.008.084.05.157.124.219a.381.381 0 0 0 .25.094h2.325c.192 0 .317-.1.375-.3.1-.392.196-1.038.288-1.938.333-.1.654-.23.962-.387l1.438 1.125a.45.45 0 0 0 .262.087c.159 0 .486-.248.982-.744.495-.495.84-.869 1.03-1.118a.32.32 0 0 0 .088-.238zm-4.326-2.224A3.083 3.083 0 0 1 8 14.2a3.084 3.084 0 0 1-2.263-.937A3.084 3.084 0 0 1 4.8 11c0-.883.313-1.638.937-2.262A3.083 3.083 0 0 1 8 7.8c.883 0 1.637.312 2.262.938.625.624.938 1.379.938 2.262s-.313 1.637-.938 2.263zM22.137 16.137a3.495 3.495 0 0 0-.375-.65c.426-.941.638-1.516.638-1.725 0-.033-.016-.062-.05-.087-1-.583-1.517-.875-1.55-.875l-.075.025c-.342.342-.725.809-1.15 1.4a4.156 4.156 0 0 0-.375-.025c-.083 0-.208.009-.375.025a12.402 12.402 0 0 0-.65-.844c-.316-.387-.508-.58-.575-.58-.016 0-.141.066-.375.2-.233.133-.479.274-.737.425-.259.15-.404.233-.438.25-.033.024-.05.054-.05.087 0 .208.213.783.638 1.725a3.521 3.521 0 0 0-.375.65c-1.242.124-1.863.254-1.863.387v1.75c0 .133.62.263 1.863.388.1.225.225.441.375.65-.425.941-.638 1.516-.638 1.724 0 .034.017.063.05.088 1.017.591 1.534.887 1.55.887.067 0 .259-.196.575-.587.317-.392.534-.675.65-.85.167.016.292.025.375.025.084 0 .208-.009.375-.025.116.175.333.458.65.85.316.391.508.587.575.587.017 0 .533-.296 1.55-.887.034-.025.05-.054.05-.088 0-.208-.213-.783-.637-1.725a3.62 3.62 0 0 0 .374-.65c1.242-.124 1.863-.254 1.863-.387v-1.75c0-.133-.62-.263-1.863-.387zm-1.806 2.394a1.54 1.54 0 0 1-1.131.47 1.54 1.54 0 0 1-1.131-.47 1.541 1.541 0 0 1-.47-1.131c0-.433.16-.808.476-1.125A1.538 1.538 0 0 1 19.2 15.8c.433 0 .808.158 1.125.475.317.317.475.692.475 1.125 0 .442-.156.819-.469 1.131zM22.137 3.337a3.494 3.494 0 0 0-.375-.65c.426-.941.638-1.516.638-1.725 0-.033-.016-.062-.05-.087C21.35.292 20.833 0 20.8 0l-.075.025c-.342.342-.725.808-1.15 1.4A4.163 4.163 0 0 0 19.2 1.4c-.083 0-.208.008-.375.025a12.477 12.477 0 0 0-.65-.844C17.86.194 17.667 0 17.6 0c-.016 0-.141.067-.375.2-.233.134-.479.275-.737.425-.259.15-.404.234-.438.25C16.017.9 16 .93 16 .963c0 .208.213.783.638 1.725a3.51 3.51 0 0 0-.375.65c-1.242.125-1.863.254-1.863.387v1.75c0 .133.62.263 1.863.387.1.225.225.442.375.65C16.213 7.454 16 8.03 16 8.237c0 .034.017.063.05.088 1.017.591 1.534.887 1.55.887.067 0 .259-.195.575-.587.317-.392.534-.675.65-.85.167.016.292.025.375.025.084 0 .208-.009.375-.025.116.175.333.458.65.85.316.392.508.587.575.587.017 0 .533-.296 1.55-.887.034-.025.05-.054.05-.088 0-.208-.213-.783-.637-1.725.15-.208.274-.425.374-.65C23.38 5.737 24 5.608 24 5.475v-1.75c0-.133-.62-.263-1.863-.388zm-1.806 2.394A1.54 1.54 0 0 1 19.2 6.2a1.54 1.54 0 0 1-1.131-.469 1.541 1.541 0 0 1-.47-1.131c0-.433.16-.808.476-1.125A1.537 1.537 0 0 1 19.2 3c.433 0 .808.158 1.125.475.317.317.475.692.475 1.125 0 .442-.156.819-.469 1.131z"/></symbol>
<symbol id="svg-gearbox" viewBox="0 0 512 512">
  <path d="M460.699,0H51.301C23.014,0,0,23.014,0,51.301V460.7C0,488.987,23.014,512,51.301,512h409.397
  C488.986,512,512,488.987,512,460.7V51.301C512,23.014,488.986,0,460.699,0z M491.52,460.7c0,16.995-13.826,30.82-30.821,30.82
  H51.301c-16.995,0-30.821-13.825-30.821-30.82V51.301c0-16.995,13.826-30.821,30.821-30.821h409.397
  c16.995,0,30.821,13.826,30.821,30.821V460.7z"/>
  <path d="M430.08,366.666V145.334c18.346-10.64,30.72-30.482,30.72-53.174c0-33.879-27.561-61.44-61.44-61.44
    s-61.44,27.561-61.44,61.44c0,22.692,12.374,42.534,30.72,53.174v69.706h-81.92v-69.706c18.346-10.64,30.72-30.482,30.72-53.174
    c0-33.879-27.561-61.44-61.44-61.44s-61.44,27.561-61.44,61.44c0,22.692,12.374,42.534,30.72,53.174v69.706h-81.92v-69.706
    c18.346-10.64,30.72-30.482,30.72-53.174c0-33.879-27.561-61.44-61.44-61.44S51.2,58.281,51.2,92.16
    c0,22.692,12.374,42.534,30.72,53.174V266.24c0,5.655,4.585,10.24,10.24,10.24h133.12v90.186
    c-18.346,10.641-30.72,30.483-30.72,53.174c0,33.878,27.561,61.44,61.44,61.44s61.44-27.563,61.44-61.44
    c0-22.691-12.374-42.534-30.72-53.174V276.48h81.92v90.186c-18.346,10.641-30.72,30.484-30.72,53.174
    c0,33.878,27.561,61.44,61.44,61.44s61.44-27.563,61.44-61.44C460.8,397.149,448.426,377.306,430.08,366.666z M358.4,92.16
    c0-22.585,18.375-40.96,40.96-40.96s40.96,18.375,40.96,40.96s-18.375,40.96-40.96,40.96S358.4,114.745,358.4,92.16z
     M215.04,92.16c0-22.585,18.375-40.96,40.96-40.96s40.96,18.375,40.96,40.96s-18.375,40.96-40.96,40.96
    S215.04,114.745,215.04,92.16z M71.68,92.16c0-22.585,18.375-40.96,40.96-40.96s40.96,18.375,40.96,40.96
    s-18.375,40.96-40.96,40.96S71.68,114.745,71.68,92.16z M296.96,419.84c0,22.585-18.375,40.96-40.96,40.96
    s-40.96-18.375-40.96-40.96s18.375-40.96,40.96-40.96S296.96,397.255,296.96,419.84z M276.48,256
    c-5.655,0-10.24,4.585-10.24,10.24v93.029c-3.333-0.562-6.75-0.869-10.24-0.869s-6.907,0.308-10.24,0.869V266.24
    c0-5.655-4.585-10.24-10.24-10.24H102.4V152.731c3.333,0.562,6.75,0.869,10.24,0.869s6.907-0.308,10.24-0.869v72.549
    c0,5.655,4.585,10.24,10.24,10.24h102.4c5.655,0,10.24-4.585,10.24-10.24v-72.549c3.333,0.562,6.75,0.869,10.24,0.869
    s6.907-0.308,10.24-0.869v72.549c0,5.655,4.585,10.24,10.24,10.24h102.4c5.655,0,10.24-4.585,10.24-10.24v-72.549
    c3.333,0.562,6.75,0.869,10.24,0.869s6.907-0.308,10.24-0.869v206.539c-3.333-0.562-6.75-0.869-10.24-0.869
    s-6.907,0.308-10.24,0.869V266.24c0-5.655-4.585-10.24-10.24-10.24H276.48z M399.36,460.8c-22.585,0-40.96-18.375-40.96-40.96
    s18.375-40.96,40.96-40.96s40.96,18.375,40.96,40.96S421.945,460.8,399.36,460.8z"/>
</symbol>
<symbol id="svg-calendar" viewBox="0 0 512 512">
    <path d="M85.34,68.267c4.713,0,8.533-3.82,8.533-8.533v-51.2C93.873,3.82,90.052,0,85.34,0s-8.533,3.82-8.533,8.533v51.2
      C76.806,64.446,80.627,68.267,85.34,68.267z"/>
    <path d="M469.34,25.6h-8.533c-2.263-0.001-4.434,0.898-6.035,2.499c-1.6,1.6-2.499,3.771-2.499,6.035v25.6
      c0,14.138-11.461,25.6-25.6,25.6s-25.6-11.461-25.6-25.6v-25.6c0.001-2.263-0.898-4.434-2.499-6.035
      c-1.6-1.6-3.771-2.499-6.035-2.499H119.473c-2.263-0.001-4.434,0.898-6.035,2.499c-1.6,1.6-2.499,3.771-2.499,6.035v25.6
      c0,14.138-11.462,25.6-25.6,25.6s-25.6-11.461-25.6-25.6v-25.6c0.001-2.263-0.898-4.434-2.499-6.035
      c-1.6-1.6-3.771-2.499-6.035-2.499h-8.533C19.12,25.628,0.034,44.714,0.006,68.267v324.267
      c0.028,23.553,19.114,42.639,42.667,42.667h169.599c37.495,60.713,110.33,89.703,179.291,71.364
      c68.961-18.34,117.772-79.681,120.155-150.999c0.139-0.467,0.236-0.946,0.288-1.431V68.267
      C511.979,44.714,492.892,25.628,469.34,25.6z M128.006,418.133H42.673c-14.132-0.015-25.585-11.468-25.6-25.6V332.8h110.933
      V418.133z M128.006,315.733H17.073v-76.8h110.933V315.733z M128.006,221.867H17.073v-76.8h110.933V221.867z M145.073,418.133
      V332.8h43.584c-0.604,5.669-0.91,11.366-0.917,17.067c0.024,23.601,5.241,46.907,15.279,68.267H145.073z M231.956,238.933
      c-20.259,21.427-34.274,47.984-40.53,76.8h-46.353v-76.8H231.956z M145.073,221.867v-76.8h102.4v76.8H145.073z M349.873,494.933
      c-80.118,0-145.067-64.949-145.067-145.067S269.755,204.8,349.873,204.8S494.94,269.749,494.94,349.867
      C494.85,429.948,429.954,494.844,349.873,494.933z M264.54,212.266v-67.199h102.4v43.584c-5.669-0.604-11.366-0.91-17.067-0.917
      C319.691,187.747,290.121,196.248,264.54,212.266z M494.94,277.894c-7.095-14.245-16.242-27.372-27.149-38.96h27.149V277.894z
       M494.94,221.867h-45.919c-19.11-14.902-41.332-25.309-65.015-30.447v-46.353H494.94V221.867z M494.94,128H17.073V68.267
      c0.015-14.132,11.468-25.585,25.6-25.6v17.067c0,23.564,19.102,42.667,42.667,42.667s42.667-19.103,42.667-42.667V42.667h256
      v17.067c0,23.564,19.103,42.667,42.667,42.667s42.667-19.103,42.667-42.667V42.667c14.132,0.015,25.585,11.468,25.6,25.6V128z"/>
    <path d="M426.673,68.267c4.713,0,8.533-3.82,8.533-8.533v-51.2c0-4.713-3.82-8.533-8.533-8.533s-8.533,3.82-8.533,8.533v51.2
      C418.14,64.446,421.96,68.267,426.673,68.267z"/>
    <path d="M349.873,221.867c-70.692,0-128,57.308-128,128s57.308,128,128,128s128-57.308,128-128
      C477.794,279.207,420.533,221.945,349.873,221.867z M349.873,460.8c-61.267,0-110.933-49.667-110.933-110.933
      s49.667-110.933,110.933-110.933S460.806,288.6,460.806,349.867C460.737,411.105,411.111,460.731,349.873,460.8z"/>
    <path d="M358.406,346.333v-81.8c0-4.713-3.82-8.533-8.533-8.533s-8.533,3.82-8.533,8.533v85.333c0.001,2.263,0.9,4.433,2.5,6.033
      l42.667,42.667c3.341,3.281,8.701,3.256,12.012-0.054s3.335-8.671,0.054-12.012L358.406,346.333z"/>
</symbol>
<symbol id="svg-price" viewBox="0 0 512 512">
  <path d="M117.999,394.077c-12.271,0-22.254,9.983-22.254,22.255c0,12.271,9.983,22.254,22.254,22.254s22.254-9.983,22.254-22.254
    S130.27,394.077,117.999,394.077z M117.999,423.586c-4,0-7.254-3.254-7.254-7.254s3.254-7.255,7.254-7.255
    s7.254,3.254,7.254,7.255C125.253,420.332,121.999,423.586,117.999,423.586z"/>
  <path d="M477.193,81.701c-20.918-20.917-48.697-33.228-78.221-34.664c-28.271-1.371-55.904,7.288-78.182,24.432l-5.617-0.644
    c-16.901-1.939-52.069-5.972-60.342-6.962c-12.024-1.44-24.275,2.162-33.609,9.883l-71.68,59.3
    c-11.542,9.549-19.752,22.236-23.743,36.692c-7.912,28.66-22.594,79.277-32.905,99.65l-31.459,31.459l-2.074-2.074
    c-3.301-3.301-7.691-5.12-12.36-5.12s-9.059,1.818-12.36,5.12l-29.53,29.53c-6.815,6.815-6.815,17.904,0,24.719l7.833,7.833
    c2.862,2.862,7.503,2.862,10.365,0s2.862-7.503,0-10.365l-7.833-7.833c-0.719-0.719-0.826-1.559-0.826-1.995
    c0-0.436,0.107-1.276,0.826-1.995l29.53-29.53c0.719-0.719,1.559-0.826,1.995-0.826c0.436,0,1.276,0.107,1.995,0.826l7.252,7.252
    c0.001,0.002,0.003,0.003,0.004,0.005l46.218,46.218l53.493,53.494c0.719,0.719,0.826,1.559,0.826,1.995
    c0,0.436-0.107,1.276-0.826,1.995l-29.53,29.53c-0.719,0.719-1.559,0.826-1.995,0.826c-0.436,0-1.276-0.107-1.995-0.826
    l-65.982-65.982c-2.862-2.862-7.503-2.862-10.365,0s-2.862,7.503,0,10.365l65.982,65.982c3.408,3.408,7.884,5.112,12.36,5.112
    s8.952-1.704,12.36-5.112l29.53-29.53c3.301-3.301,5.12-7.691,5.12-12.36s-1.818-9.059-5.12-12.36l-2.109-2.109l4.589-4.588
    c3.946-3.946,8.865-6.854,14.226-8.408c0.1-0.029,0.199-0.06,0.298-0.093l53.722-18.089c18.23-6.254,34.184-17.551,46.138-32.669
    l26.907-34.029l71.812-71.812c3.448,0.664,7.562,1.12,11.415,1.183v5.831c0,2.257,2.257,4.326,5.455,4.326
    c2.821,0,5.643-2.069,5.643-4.326v-6.395c20.314-2.821,34.233-15.612,34.233-38.748c0-25.581-17.869-33.857-34.233-39.876v-38.183
    c13.167,0.94,18.057,6.959,22.571,6.959c5.643,0,8.276-7.147,8.276-10.721c0-9.217-18.057-13.167-30.848-13.543v-5.079
    c0-2.257-2.821-4.326-5.643-4.326c-3.198,0-5.455,2.069-5.455,4.326v5.455c-17.869,1.881-35.738,11.286-35.738,34.986
    c0,24.076,18.81,30.848,35.738,36.867v14.536c-5.159-6.131-13.605-9.678-24.472-10.262c-24.849-1.351-59.178,12.496-78.171,31.49
    c-12.112,12.112-25.867,25.869-33.449,33.456c-2.351,2.352-5.5,3.647-8.865,3.647h-0.273c-5.055,0-12.042-5.468-13.959-10.73
    l-0.005-72.104l24.018-19.765l18.987-2.914c-3.728,16.9-3.746,34.489,0.018,51.489c0.757,3.418,3.787,5.746,7.149,5.746
    c0.524,0,1.057-0.057,1.591-0.175c3.952-0.875,6.446-4.788,5.571-8.74c-4.021-18.159-3.129-37.081,2.578-54.743
    c0.023-0.062,0.035-0.128,0.056-0.19c0.008-0.023,0.02-0.044,0.027-0.067c5.107-15.663,13.644-29.553,25.374-41.283
    c2.491-2.49,5.138-4.883,7.871-7.115c0.059-0.044,0.112-0.095,0.17-0.141c0.012-0.009,0.024-0.017,0.036-0.026
    c19.878-16.149,44.979-24.356,70.684-23.106c25.879,1.258,50.231,12.05,68.569,30.388c19.677,19.677,30.513,45.837,30.513,73.664
    c0,27.827-10.836,53.988-30.513,73.665c-25.943,25.944-64.162,36.372-99.739,27.213c-3.916-1.01-7.915,1.35-8.924,5.271
    c-1.009,3.92,1.351,7.915,5.271,8.924c9.73,2.505,19.73,3.757,29.731,3.757c10.21,0,20.421-1.305,30.341-3.915
    c20.241-5.325,38.806-16.005,53.685-30.885c22.443-22.452,34.804-52.294,34.804-84.036
    C511.999,133.988,499.638,104.146,477.193,81.701z M403.293,176.815c9.217,3.95,16.552,9.216,16.552,21.066
    c0,10.722-6.395,16.741-16.552,18.622V176.815z M376.396,133.929c0-9.781,7.523-14.483,18.057-15.8v34.233
    C384.484,148.601,376.396,144.651,376.396,133.929z M342.803,252.32l-6.886-6.885c-1.24-1.241-1.923-2.89-1.923-4.644
    c0-1.754,0.683-3.403,1.924-4.644l11.992-11.993c3.834-3.833,8.869-5.75,13.905-5.75c3.972,0,7.943,1.193,11.326,3.578
    L342.803,252.32z M281.683,124.503l-27.748,4.259c-1.303,0.2-2.527,0.747-3.545,1.585l-28.246,23.244
    c-1.692,1.392-2.672,3.468-2.672,5.659l0.005,76.67c0,0.638,0.083,1.274,0.248,1.89c3.184,11.929,16.441,22.392,28.369,22.392
    h0.273c7.283,0,14.113-2.821,19.233-7.944c7.582-7.586,21.335-21.342,33.446-33.453c16.128-16.127,46.188-28.33,67.019-27.218
    c4.755,0.256,11.072,1.366,14.16,5.2c0.165,0.205,0.34,0.4,0.526,0.585c1.554,1.554,5.763,5.772,0.387,13.8
    c-13.461-10.69-33.151-9.823-45.592,2.618l-11.992,11.992c-4.009,4.009-6.217,9.339-6.217,15.009
    c0,5.669,2.208,10.999,6.217,15.008l6.886,6.885l-33.007,33.007c-0.201,0.201-0.39,0.414-0.567,0.636l-27.171,34.364
    c-10.208,12.909-23.831,22.555-39.358,27.882l-53.54,18.028c-7.667,2.252-14.701,6.425-20.352,12.076l-4.588,4.588l-41.02-41.02
    l-41.038-41.034l32.268-32.268c0.523-0.523,0.964-1.122,1.308-1.777c10.967-20.903,26.357-73.836,34.553-103.528
    c3.187-11.544,9.743-21.676,18.957-29.299l71.68-59.3c6.254-5.174,14.461-7.589,22.522-6.623
    c7.266,0.87,35.091,4.066,53.272,6.152C295.445,96.212,287.164,109.614,281.683,124.503z"/>
</symbol>
<symbol id="svg-colors" viewBox="0 0 512 512">
  <path d="M432.433,306.68c-13.476-13.6-32.65-19.516-51.292-15.828c-8.398,1.661-17.157,2.504-26.036,2.504
    c-23.8,0-46.072-5.97-62.713-16.812c-15.633-10.186-24.242-23.394-24.242-37.192c0-19.754,18.437-38.545,46.972-47.872
    c3.991-1.305,6.168-5.597,4.864-9.588c-1.304-3.991-5.595-6.169-9.588-4.864c-35.439,11.583-57.453,35.465-57.453,62.324
    c0,19.112,11.061,36.844,31.147,49.931c19.079,12.431,44.298,19.277,71.012,19.277c9.867,0,19.619-0.94,28.987-2.794
    c13.629-2.696,27.662,1.647,37.544,11.618c9.858,9.946,14.066,23.98,11.256,37.541c-0.14,0.676-0.281,1.273-0.42,1.776
    c-11.844,43.102-38.822,80.949-75.964,106.57c-3.456,2.384-4.326,7.119-1.942,10.574c1.475,2.139,3.85,3.286,6.265,3.286
    c1.488,0,2.992-0.436,4.309-1.345c40.084-27.649,69.203-68.51,81.992-115.056c0.224-0.814,0.442-1.73,0.648-2.723
    C451.625,339.443,445.889,320.256,432.433,306.68z"/>
  <path d="M342.61,480.863c-1.853-3.766-6.409-5.316-10.177-3.461c-26.065,12.833-54.026,19.359-83.107,19.394
    c-0.082,0-0.161,0-0.242,0c-51.223,0-99.251-20.066-135.256-56.517c-36.055-36.502-55.529-84.883-54.833-136.231
    c0.669-49.345,20.367-95.958,55.466-131.252c35.1-35.296,81.602-55.248,130.938-56.182c24.897-0.468,49.158,3.789,72.131,12.659
    c3.916,1.511,8.318-0.437,9.83-4.353c1.512-3.917-0.437-8.318-4.353-9.83c-24.821-9.584-51.039-14.182-77.895-13.677
    c-53.304,1.009-103.533,22.552-141.432,60.662c-37.897,38.108-59.166,88.455-59.889,141.767
    c-0.751,55.451,20.279,107.699,59.219,147.121c38.887,39.368,90.748,61.039,146.071,61.037c0.084,0,0.177,0,0.263,0
    c31.424-0.039,61.638-7.09,89.804-20.958C342.915,489.187,344.464,484.631,342.61,480.863z"/>
  <path d="M179.362,162.505c-19.991,0-36.256,16.264-36.256,36.256s16.264,36.256,36.256,36.256s36.256-16.264,36.256-36.256
    C215.617,178.769,199.353,162.505,179.362,162.505z M179.362,219.812c-11.608,0-21.052-9.444-21.052-21.052
    c0-11.608,9.444-21.052,21.052-21.052s21.052,9.444,21.052,21.052C200.413,210.368,190.97,219.812,179.362,219.812z"/>
  <path d="M125.876,250.375c-19.991,0-36.256,16.264-36.256,36.256s16.264,36.256,36.256,36.256s36.256-16.264,36.256-36.256
    S145.867,250.375,125.876,250.375z M125.876,307.682c-11.608,0-21.052-9.444-21.052-21.052s9.444-21.052,21.052-21.052
    s21.052,9.444,21.052,21.052S137.484,307.682,125.876,307.682z"/>
  <path d="M160.259,347.797c-19.992,0-36.256,16.264-36.256,36.256c0,19.991,16.264,36.256,36.256,36.256
    s36.257-16.264,36.257-36.256C196.516,364.062,180.252,347.797,160.259,347.797z M160.259,405.104
    c-11.609,0-21.052-9.444-21.052-21.052s9.444-21.052,21.052-21.052s21.053,9.444,21.053,21.052S171.868,405.104,160.259,405.104z"
    />
  <path d="M249.086,396.509c-19.991,0-36.256,16.264-36.256,36.256c0,19.991,16.264,36.256,36.256,36.256
    c19.991,0,36.256-16.264,36.256-36.256C285.342,412.773,269.078,396.509,249.086,396.509z M249.086,453.815
    c-11.608,0-21.052-9.444-21.052-21.052c0-11.608,9.444-21.052,21.052-21.052c11.608,0,21.051,9.444,21.051,21.052
    C270.138,444.372,260.694,453.815,249.086,453.815z"/>
  <path d="M343.643,347.797c-19.992,0-36.256,16.264-36.256,36.256c0,19.991,16.264,36.256,36.256,36.256
    c19.991,0,36.257-16.264,36.257-36.256S363.636,347.797,343.643,347.797z M343.643,405.104c-11.608,0-21.052-9.444-21.052-21.052
    c0-11.608,9.444-21.052,21.052-21.052c11.608,0,21.052,9.444,21.052,21.052C364.696,395.661,355.251,405.104,343.643,405.104z"/>
  <path d="M465.867,67.203c-0.636-4.15-4.518-7-8.665-6.363c-4.15,0.635-6.999,4.516-6.363,8.665
    c7.536,49.189-3.916,78.664-34.021,87.678l-13.867-5.674l21.534-33.483c2.271-3.531,1.249-8.236-2.282-10.506
    c-3.529-2.271-8.236-1.25-10.506,2.282l-23.057,35.852l-6.875-2.813l8.69-41.731c0.857-4.11-1.782-8.136-5.892-8.992
    c-4.109-0.857-8.136,1.782-8.992,5.893l-8.116,38.975l-11.388-4.66c-7.652-8.692-10.416-20.411-7.76-33.198
    c3.647-17.554,16.693-32.979,34.049-40.255c27.9-11.698,46.426-21.231,57.59-34.009c1.626,4.961,3.457,10.973,5.217,17.664
    c1.069,4.06,5.23,6.485,9.286,5.418c4.06-1.068,6.486-5.226,5.418-9.287c-5.156-19.597-10.77-33.364-11.007-33.94
    C447.689,1.863,444.91,0,441.826,0c-0.001,0-0.002,0-0.003,0c-3.085,0.001-5.864,1.868-7.032,4.723
    c-5.862,14.326-20.032,24.077-58.314,40.128c-21.908,9.185-38.406,28.797-43.057,51.184c-3.408,16.409,0.077,32.267,9.534,44.277
    l-43.783,123.815c-1.4,3.958,0.674,8.301,4.632,9.701s8.301-0.675,9.701-4.632l5.161-14.594l39.93,16.338l-3.915,8.383
    c-1.777,3.804-0.133,8.328,3.671,10.105c1.04,0.485,2.135,0.716,3.211,0.716c2.861,0,5.602-1.624,6.892-4.387l53.328-114.192
    c20.907-6.412,34.967-20.514,41.797-41.993C468.883,112.897,469.652,91.913,465.867,67.203z M365.035,257.148L323.74,240.25
    l32.351-91.487l13.922,5.696c0.001,0,0.002,0.001,0.004,0.001l36.079,14.763L365.035,257.148z"/>
</symbol>
<symbol id="svg-percents" viewBox="0 0 480 480">
  <path d="M351.608,0H96.653C73.57,0,54.857,18.713,54.857,41.796v384.522c0.049,6.561,3.932,12.486,9.927,15.151
    c6.039,2.383,12.905,1.171,17.763-3.135l35.004-32.392l42.841,38.139c2.895,2.559,6.588,4.036,10.449,4.18
    c4.042-0.021,7.94-1.506,10.971-4.18l42.318-38.139l42.318,38.139c6.203,5.175,15.218,5.175,21.42,0l42.841-38.139l35.004,32.392
    c4.859,4.306,11.724,5.518,17.763,3.135c5.995-2.665,9.877-8.59,9.927-15.151V41.796C393.404,18.713,374.691,0,351.608,0z
     M372.506,415.869l-30.825-28.212c-6.2-5.71-15.743-5.71-21.943,0l-42.318,38.139l-42.318-38.139
    c-2.947-2.811-6.901-4.318-10.971-4.18c-4.07-0.138-8.025,1.368-10.971,4.18l-42.318,38.139l-42.318-38.139
    c-6.2-5.71-15.743-5.71-21.943,0l-30.824,28.212V41.796c0-11.542,9.356-20.898,20.898-20.898h254.955
    c11.542,0,20.898,9.356,20.898,20.898V415.869z"/>
  <path d="M129.567,259.135h96.653c5.771,0,10.449-4.678,10.449-10.449s-4.678-10.449-10.449-10.449h-96.653
    c-5.771,0-10.449,4.678-10.449,10.449S123.797,259.135,129.567,259.135z"/>
  <path d="M318.694,284.212H129.567c-5.771,0-10.449,4.678-10.449,10.449c0,5.771,4.678,10.449,10.449,10.449h189.127
    c5.771,0,10.449-4.678,10.449-10.449C329.143,288.89,324.465,284.212,318.694,284.212z"/>
  <path d="M318.694,330.71H129.567c-5.771,0-10.449,4.678-10.449,10.449s4.678,10.449,10.449,10.449h189.127
    c5.771,0,10.449-4.678,10.449-10.449S324.465,330.71,318.694,330.71z"/>
  <path d="M184.947,126.433c19.332,0,35.004-15.672,35.004-35.004s-15.672-35.004-35.004-35.004s-35.004,15.672-35.004,35.004
    C149.943,110.761,165.615,126.433,184.947,126.433z M184.947,77.322c7.791,0,14.106,6.316,14.106,14.106
    s-6.315,14.106-14.106,14.106c-7.791,0-14.106-6.315-14.106-14.106S177.156,77.322,184.947,77.322z"/>
  <path d="M263.314,134.792c-19.332,0-35.004,15.672-35.004,35.004c0,19.332,15.672,35.004,35.004,35.004c0,0,0,0,0,0
    c19.332,0,35.004-15.672,35.004-35.004S282.646,134.792,263.314,134.792z M263.314,183.902c-7.791,0-14.106-6.315-14.106-14.106
    c0-7.791,6.316-14.106,14.106-14.106s14.106,6.315,14.106,14.106C277.42,177.587,271.105,183.902,263.314,183.902z"/>
  <path d="M162.482,192.261c1.929,1.969,4.558,3.095,7.314,3.135c2.782,0.089,5.46-1.059,7.314-3.135L288.914,80.457
    c2.786-3.715,2.786-8.824,0-12.539c-3.462-4.617-10.012-5.552-14.629-2.09L162.482,177.11
    C158.435,181.35,158.435,188.022,162.482,192.261z"/>
</symbol>
<symbol id="svg-diploma" viewBox="0 0 60 60">
  <path d="M38.914,0H6.5v60h47V14.586L38.914,0z M39.5,3.414L50.086,14H39.5V3.414z M8.5,58V2h29v14h14v42H8.5z"/>
	<path d="M16.5,17h9c0.553,0,1-0.447,1-1s-0.447-1-1-1h-9c-0.553,0-1,0.447-1,1S15.947,17,16.5,17z"/>
	<path d="M16.5,25h5c0.553,0,1-0.447,1-1s-0.447-1-1-1h-5c-0.553,0-1,0.447-1,1S15.947,25,16.5,25z"/>
	<path d="M31.5,25h7c0.553,0,1-0.447,1-1s-0.447-1-1-1h-7c-0.553,0-1,0.447-1,1S30.947,25,31.5,25z"/>
	<path d="M25.79,23.3c-0.19,0.18-0.29,0.439-0.29,0.7c0,0.26,0.1,0.52,0.29,0.71C25.979,24.89,26.24,25,26.5,25s0.52-0.101,0.71-0.3
		c0.18-0.181,0.29-0.44,0.29-0.7c0-0.261-0.11-0.521-0.29-0.71C26.83,22.92,26.16,22.92,25.79,23.3z"/>
	<path d="M43.5,25c0.26,0,0.52-0.11,0.71-0.29c0.18-0.19,0.29-0.45,0.29-0.71c0-0.261-0.11-0.521-0.29-0.71
		c-0.38-0.37-1.04-0.37-1.42,0c-0.181,0.189-0.29,0.449-0.29,0.71c0,0.26,0.109,0.52,0.29,0.71C42.979,24.89,43.24,25,43.5,25z"/>
	<path d="M28.5,31h-7c-0.553,0-1,0.447-1,1s0.447,1,1,1h7c0.553,0,1-0.447,1-1S29.053,31,28.5,31z"/>
	<path d="M16.5,33c0.26,0,0.52-0.11,0.71-0.29c0.189-0.19,0.29-0.45,0.29-0.71c0-0.261-0.101-0.521-0.29-0.71
		c-0.38-0.37-1.04-0.37-1.42,0C15.6,31.479,15.5,31.729,15.5,32c0,0.26,0.109,0.52,0.29,0.71C15.979,32.89,16.24,33,16.5,33z"/>
	<path d="M19.645,40.166c-2.19,1.14-2.927,3.321-3.196,5.582c-0.414-0.347-0.828-0.693-1.242-1.04
		c-0.98-0.821-2.402,0.586-1.414,1.415c0.935,0.783,1.871,1.567,2.806,2.351c0.658,0.551,1.677,0.203,1.707-0.707
		c0.073-2.166,0.175-4.742,2.348-5.873C21.796,41.299,20.786,39.572,19.645,40.166z"/>
	<path d="M26.295,44.155c-1.385,0.321-2.961,2.083-3.936,0.106c-0.569-1.154-2.295-0.142-1.727,1.009
		c0.517,1.049,1.5,1.784,2.669,1.932c0.594,0.075,1.131-0.009,1.688-0.226c0.409-0.159,1.937-1.308,2.267-0.717
		c0.628,1.124,2.356,0.116,1.727-1.009C28.446,44.288,27.359,43.908,26.295,44.155z"/>
	<path d="M46.745,34.513c-0.233-0.083-0.336-0.259-0.377-0.357c-0.04-0.098-0.093-0.296,0.014-0.52c0.485-1.022,0.282-2.199-0.518-3
		c-0.801-0.799-1.979-1.003-2.999-0.518c-0.226,0.107-0.424,0.054-0.521,0.014c-0.099-0.041-0.274-0.144-0.357-0.377
		C41.608,28.688,40.632,28,39.5,28s-2.108,0.688-2.487,1.755c-0.083,0.233-0.259,0.336-0.357,0.377
		c-0.097,0.04-0.296,0.094-0.52-0.014c-1.021-0.483-2.198-0.282-3,0.518c-0.8,0.801-1.003,1.978-0.518,2.999
		c0.106,0.225,0.054,0.423,0.014,0.521c-0.041,0.099-0.144,0.274-0.377,0.357C31.188,34.892,30.5,35.868,30.5,37
		s0.688,2.108,1.755,2.487c0.233,0.083,0.336,0.259,0.377,0.357c0.04,0.098,0.093,0.296-0.014,0.52
		c-0.485,1.022-0.282,2.199,0.518,3c0.387,0.386,0.862,0.63,1.364,0.728v12.322l5-5l5,5V44.091c0.502-0.097,0.978-0.34,1.364-0.727
		c0.8-0.801,1.003-1.978,0.518-2.999c-0.106-0.225-0.054-0.423-0.014-0.521c0.041-0.099,0.144-0.274,0.377-0.357
		C47.812,39.108,48.5,38.132,48.5,37S47.812,34.892,46.745,34.513z M39.5,48.586l-3,3v-7.758c0.009,0.001,0.018,0.002,0.026,0.004
		c0.05,0.01,0.098,0.022,0.13,0.036c0.049,0.021,0.118,0.057,0.184,0.116c0.067,0.06,0.132,0.144,0.173,0.261
		C37.392,45.312,38.368,46,39.5,46s2.108-0.688,2.487-1.755c0.041-0.117,0.106-0.201,0.173-0.261
		c0.067-0.06,0.135-0.096,0.184-0.116c0.032-0.013,0.079-0.026,0.129-0.036c0.008-0.001,0.017-0.003,0.026-0.004v7.757L39.5,48.586z
		 M46.075,37.603c-0.702,0.249-1.269,0.787-1.554,1.476c-0.286,0.689-0.267,1.471,0.054,2.146c0.175,0.367-0.029,0.63-0.126,0.726
		c-0.079,0.081-0.281,0.224-0.561,0.17l-0.22-0.069c-0.091-0.041-0.187-0.063-0.281-0.092c-0.07-0.022-0.138-0.052-0.209-0.069
		c-0.098-0.022-0.199-0.028-0.299-0.039c-0.081-0.009-0.16-0.026-0.241-0.028c-0.097-0.002-0.193,0.014-0.289,0.022
		c-0.083,0.008-0.167,0.006-0.25,0.022c-0.177,0.033-0.351,0.084-0.52,0.154c0,0-0.001,0-0.002,0.001h0
		c-0.044,0.018-0.081,0.047-0.124,0.067c-0.124,0.06-0.249,0.119-0.362,0.197c-0.135,0.093-0.258,0.203-0.373,0.319
		c-0.013,0.013-0.03,0.023-0.043,0.037c-0.252,0.265-0.449,0.583-0.574,0.934C39.967,43.959,39.636,44,39.5,44
		s-0.467-0.041-0.603-0.425c-0.125-0.352-0.322-0.669-0.574-0.934c-0.01-0.011-0.023-0.018-0.034-0.029
		c-0.118-0.12-0.244-0.231-0.383-0.327c-0.108-0.075-0.229-0.131-0.348-0.189c-0.047-0.023-0.089-0.055-0.138-0.075h0
		c-0.001,0-0.001-0.001-0.001-0.001c-0.021-0.009-0.043-0.011-0.064-0.019c-0.146-0.056-0.294-0.103-0.445-0.132
		c-0.122-0.024-0.243-0.029-0.365-0.036c-0.045-0.002-0.09-0.013-0.135-0.013c-0.003,0-0.005,0.001-0.008,0.001
		c-0.374-0.001-0.737,0.072-1.047,0.223l-0.227,0.071c-0.287,0.065-0.496-0.083-0.578-0.166c-0.097-0.096-0.301-0.358-0.126-0.727
		c0.32-0.674,0.34-1.455,0.054-2.145c-0.285-0.688-0.852-1.227-1.554-1.476C32.541,37.467,32.5,37.136,32.5,37
		s0.041-0.467,0.425-0.603c0.702-0.249,1.269-0.787,1.554-1.476c0.286-0.689,0.267-1.471-0.054-2.146
		c-0.175-0.367,0.029-0.63,0.126-0.726c0.096-0.097,0.357-0.299,0.727-0.126c0.673,0.32,1.455,0.342,2.145,0.054
		c0.688-0.285,1.227-0.852,1.476-1.554C39.033,30.041,39.364,30,39.5,30s0.467,0.041,0.603,0.425
		c0.25,0.702,0.787,1.269,1.476,1.554c0.688,0.288,1.471,0.267,2.146-0.054c0.366-0.177,0.631,0.029,0.726,0.126
		c0.097,0.096,0.301,0.358,0.126,0.727c-0.32,0.674-0.34,1.455-0.054,2.145c0.285,0.688,0.852,1.227,1.554,1.476
		C46.459,36.533,46.5,36.864,46.5,37S46.459,37.467,46.075,37.603z"/>
</symbol>
<symbol id="svg-cash" viewBox="0 0 25.771 25.771">
  	<path  d="M24.171,13.728v9.8h-18.8v-9.8H24.171 M25.771,12.128h-22v13h22V12.128L25.771,12.128z"/>
		<path  d="M19.771,12.128l2.252,2.252c-0.017,0.083-0.05,0.16-0.05,0.248c0,0.717,0.581,1.297,1.298,1.297
			c0.088,0,0.164-0.033,0.247-0.049l2.253,2.252v-6H19.771z"/>
		<circle cx="21.271" cy="18.628" r="1.298"/>
		<ellipse cx="14.771" cy="18.628" rx="3.926" ry="3.414"/>
		<circle  cx="8.271" cy="18.628" r="1.297"/>
		<path  d="M3.771,18.128l2.252-2.252c0.083,0.017,0.16,0.05,0.248,0.05c0.717,0,1.297-0.581,1.297-1.298
			c0-0.088-0.033-0.164-0.05-0.247l2.253-2.253h-6V18.128z"/>
		<path  d="M7.569,22.628c0-0.717-0.581-1.297-1.298-1.297c-0.088,0-0.164,0.033-0.247,0.049l-2.253-2.252v6h6
			l-2.252-2.252C7.536,22.793,7.569,22.715,7.569,22.628z"/>
		<path  d="M23.271,21.33c-0.717,0-1.297,0.581-1.297,1.298c0,0.088,0.033,0.164,0.05,0.247l-2.253,2.253h6v-6
			l-2.252,2.252C23.436,21.363,23.359,21.33,23.271,21.33z"/>
		<circle  cx="18.473" cy="8.505" r="1.297"/>
		<path  d="M2.271,12.128c0-0.828,0.672-1.5,1.5-1.5h0.82L4.628,10.5L16.205,4.16l0.885,0.258
			c0.025,0.08,0.034,0.164,0.077,0.241c0.344,0.63,1.132,0.859,1.762,0.515c0.076-0.042,0.128-0.107,0.191-0.162l0.887,0.26
			l2.017,3.682L21.765,9.84c-0.079,0.024-0.163,0.033-0.24,0.075c-0.293,0.16-0.488,0.422-0.591,0.713h3.831l-2.586-4.723h0.001
			l-2.883-5.262l-5.264,2.882h0.001L5.263,8.328L0,11.21l2.271,4.147V12.128z"/>
		<path  d="M11.131,8.634c-0.871,0.476-1.498,1.198-1.85,1.994h7.233c-0.058-0.305-0.145-0.604-0.299-0.885
			C15.308,8.089,13.033,7.593,11.131,8.634z"/>
</symbol>
<symbol id="svg-testdrive" viewBox="0 0 373.678 373.678">
  <path d="M76.341,187.847c-37.77,0-68.497-30.729-68.497-68.499c0-29.721,19.022-55.079,45.533-64.54
	c-0.054-0.397-0.081-0.803-0.081-1.215c0-4.971,4.029-9,9-9h28.092c4.971,0,9,4.029,9,9c0,0.401-0.026,0.797-0.077,1.185
	c4.066,1.446,7.995,3.284,11.748,5.501l8.469-10.842c3.061-3.917,8.716-4.611,12.633-1.553c3.917,3.06,4.612,8.716,1.553,12.633
	l-50.279,64.371c-3.06,3.919-8.716,4.612-12.633,1.553s-4.612-8.716-1.553-12.633l30.6-39.177
	c-7.196-3.802-15.191-5.782-23.507-5.782c-27.844,0-50.497,22.653-50.497,50.499c0,27.845,22.653,50.499,50.497,50.499
	c27.846,0,50.499-22.654,50.499-50.499c0-4.659-0.634-9.277-1.884-13.726c-1.344-4.786,1.445-9.755,6.23-11.099
	c4.788-1.351,9.755,1.444,11.1,6.229c1.694,6.033,2.554,12.289,2.554,18.595C144.84,157.119,114.111,187.847,76.341,187.847z
	 M54.829,256.796H34.332c-4.971,0-9,4.029-9,9s4.029,9,9,9h20.497c4.971,0,9-4.029,9-9S59.8,256.796,54.829,256.796z
	 M76.358,140.401h-0.035c-4.971,0-8.982,4.029-8.982,9s4.047,9,9.018,9s9-4.029,9-9S81.329,140.401,76.358,140.401z M54.829,224.471
	H9c-4.971,0-9,4.029-9,9s4.029,9,9,9h45.829c4.971,0,9-4.029,9-9S59.8,224.471,54.829,224.471z M250.94,286.628c0,4.971-4.029,9-9,9
	h-51.964c-4.138,19.103-21.172,33.456-41.496,33.456c-20.843,0-38.227-15.097-41.789-34.93c-7.212-2.285-13.16-7.098-16.355-13.519
	c-1.602-3.22-2.413-6.637-2.413-10.157v-60.013c0-4.971,4.029-9,9-9s9,4.029,9,9v60.013c0,0.714,0.178,1.434,0.529,2.139
	c0.305,0.614,0.761,1.237,1.354,1.826c5.249-17.49,21.498-30.27,40.675-30.27c20.322,0,37.356,14.354,41.496,33.455h51.964
	C246.911,277.628,250.94,281.658,250.94,286.628z M172.937,286.629c0-13.485-10.971-24.456-24.456-24.456
	c-13.396,0-24.313,10.828-24.455,24.19c0.003,0.154,0.003,0.31-0.001,0.465c0.107,13.394,11.037,24.256,24.456,24.256
	C161.966,311.085,172.937,300.114,172.937,286.629z M133.193,212.304c0,4.971,4.029,9,9,9h10.125c4.971,0,9-4.029,9-9s-4.029-9-9-9
	h-10.125C137.223,203.304,133.193,207.334,133.193,212.304z M313.135,277.629h-0.023c-4.971,0-8.988,4.029-8.988,9s4.041,9,9.012,9
	s9-4.029,9-9S318.105,277.629,313.135,277.629z M373.636,251.765l-0.027,6.079c-0.017,3.595-0.036,7.681-0.036,12.635
	c0,10.762-7.74,20.081-18.651,23.625c-3.543,19.857-20.939,34.98-41.802,34.98c-23.409,0-42.453-19.045-42.453-42.455
	s19.044-42.456,42.453-42.456c19.15,0,35.38,12.741,40.655,30.191c1.127-1.144,1.798-2.492,1.798-3.886
	c0-4.987,0.02-9.101,0.036-12.72l0.028-6.08c0.034-7.33,0.082-17.368-0.026-22.05c-0.075-3.29-0.163-5.988-0.395-8.323H216.76
	c-3.23,0-10.795,0-33.942-22.876c-7.053-6.97-21.072-21.802-23.649-28.05c-1.896-4.595,0.292-9.856,4.887-11.752
	c4.528-1.873,9.697,0.227,11.663,4.678c1.224,2.193,8.542,11.172,19.149,21.724c13.359,13.29,20.458,17.593,22.393,18.276h127.841
	c-2.896-2.776-6.609-6.066-11.382-10.294c-2.477-2.194-5.196-4.604-8.183-7.284c-2.172-1.949-4.334-4.017-6.426-6.015
	c-3.066-2.93-6.237-5.96-9.539-8.727c-2.907-2.436-5.661-4.754-8.279-6.958c-33.4-28.122-42.377-35.681-70.542-35.681h-62.137
	c-4.971,0-9-4.029-9-9s4.029-9,9-9h62.137c34.733,0,48.61,11.684,82.136,39.911c2.607,2.195,5.349,4.504,8.245,6.93
	c3.753,3.145,7.14,6.381,10.415,9.511c2.084,1.991,4.053,3.872,6.015,5.634c2.952,2.649,5.644,5.034,8.095,7.205
	c21.576,19.114,27.375,24.252,27.95,49.678C373.72,234.144,373.674,243.914,373.636,251.765z M337.58,286.536
	c-0.051-13.441-11.004-24.362-24.461-24.362c-13.483,0-24.453,10.971-24.453,24.456c0,13.484,10.97,24.455,24.453,24.455
	c13.482,0,24.451-10.96,24.461-24.438C337.58,286.61,337.58,286.573,337.58,286.536z M148.491,277.629h-0.022
	c-4.971,0-8.988,4.029-8.988,9s4.04,9,9.011,9s9-4.029,9-9S153.462,277.629,148.491,277.629z"/>
</symbol>
<symbol id="svg-topspeed" viewBox="0 0 512 512">
  <path d="M55.063 113.887a9.943 9.943 0 0 0 6.003 2.011c3.024 0 6.016-1.363 7.985-3.953l.191-.25c3.383-4.363 2.59-10.644-1.773-14.03-4.364-3.384-10.649-2.59-14.031 1.772l-.376.489c-3.296 4.414-2.398 10.644 2 13.96zm0 0"/><path d="M437.02 74.98C388.668 26.63 324.379 0 256 0c-12.45 0-24.797.91-36.96 2.68-.372.035-.74.09-1.103.164C168.23 10.285 121.66 32.199 83.98 66.406c-4.09 3.711-4.394 10.035-.683 14.125s10.035 4.395 14.125.684a238.512 238.512 0 0 1 6.73-5.863L116.5 96.738a191.497 191.497 0 0 0-55.766 55.766L47.7 144.977a235.252 235.252 0 0 1 5.758-10.18c2.844-4.738 1.305-10.879-3.43-13.719-4.738-2.844-10.879-1.305-13.722 3.43a253.939 253.939 0 0 0-10.985 20.387C8.707 179.383 0 217.359 0 256c0 5.523 4.477 10 10 10h30c5.523 0 10-4.477 10-10 0-93.738 76.262-170 170-170 36.152 0 71.398 11.59 100.406 32.824l-80.55 80.551A59.51 59.51 0 0 0 220 196c-33.082 0-60 26.914-60 60 0 33.082 26.918 60 60 60 33.086 0 60-26.918 60-60a59.51 59.51 0 0 0-3.375-19.855l80.55-80.551C378.41 184.602 390 219.848 390 256c0 5.523 4.477 10 10 10 5.52 0 10-4.477 10-10 0-30.117-7.207-59.672-20.703-86.2l66.898-38.624c21.016 33.586 33.832 72.797 35.594 114.824h-20.824c-5.524 0-10 4.477-10 10s4.476 10 10 10H502c5.52 0 10-4.477 10-10 0-68.379-26.629-132.668-74.98-181.02zM30.262 246H20.21a236 236 0 0 1 18.812-82.941l11.692 6.75A188.69 188.69 0 0 0 30.262 246zm306.27-211.836L306.198 86.7A190.317 190.317 0 0 0 230 66.277v-44.84A237.633 237.633 0 0 1 256 20c28.27 0 55.387 5.008 80.531 14.164zm-216.4 28.863A235.07 235.07 0 0 1 210 24.52v41.746a188.562 188.562 0 0 0-76.191 20.449zm242.481 58.844l-11.695 11.695c-.004.004-.004.004-.004.008L224.242 260.242c-2.297 2.301-6.183 2.301-8.484 0-2.297-2.3-2.297-6.187 0-8.484l138.37-138.371a5.946 5.946 0 0 1 4.243-1.739c1.613 0 3.121.618 4.242 1.739a5.946 5.946 0 0 1 1.739 4.242 5.946 5.946 0 0 1-1.739 4.242zM260 256c0 22.055-17.945 40-40 40s-40-17.945-40-40c0-22.059 17.945-40 40-40 1.043 0 2.074.05 3.098.129l-21.485 21.484c-10.136 10.14-10.136 26.633 0 36.77 5.07 5.07 11.73 7.605 18.387 7.605s13.316-2.535 18.387-7.605l21.48-21.485c.078 1.028.133 2.059.133 3.102zm119.3-103.52a187.626 187.626 0 0 0-7.84-11.175l5.294-5.293c4.898-4.895 7.598-11.426 7.598-18.383 0-6.957-2.7-13.488-7.598-18.387-4.899-4.898-11.426-7.594-18.383-7.594-6.957 0-13.488 2.7-18.387 7.598l-5.293 5.29a189.367 189.367 0 0 0-11.171-7.84l31.652-54.825c35.574 16.543 66.367 41.691 89.683 72.762zm0 0"/><path d="M442.234 246h-.27c-5.523 0-10 4.477-10 10s4.477 10 10 10h.27c5.524 0 10-4.477 10-10s-4.476-10-10-10zm0 0M270.535 421.867c5.52 0 10-4.48 10-10 0-5.523-4.48-10-10-10h-32c-5.523 0-10 4.477-10 10V470c0 5.523 4.477 10 10 10h32c5.52 0 10-4.477 10-10s-4.48-10-10-10h-22v-9.066h6c5.52 0 10-4.477 10-10 0-5.524-4.48-10-10-10h-6v-9.067zm0 0M192 401.867h-14.535c-5.52 0-10 4.477-10 10V470c0 5.523 4.48 10 10 10 5.523 0 10-4.477 10-10v-19.066H192c13.527 0 24.535-11.008 24.535-24.536 0-13.527-11.008-24.53-24.535-24.53zm0 29.067h-4.535v-9.067H192c2.457 0 4.535 2.074 4.535 4.531s-2.078 4.536-4.535 4.536zm0 0M334.531 421.867c5.524 0 10-4.48 10-10 0-5.523-4.476-10-10-10h-31.996c-5.523 0-10 4.477-10 10V470c0 5.523 4.477 10 10 10h31.996c5.524 0 10-4.477 10-10s-4.476-10-10-10h-21.996v-9.066h6c5.52 0 10-4.477 10-10 0-5.524-4.48-10-10-10h-6v-9.067zm0 0M382.531 401.867h-16c-5.52 0-10 4.477-10 10V470c0 5.523 4.48 10 10 10h16c14.34 0 26-11.664 26-26v-26.133c0-14.34-11.66-26-26-26zm6 52.133c0 3.254-2.746 6-6 6h-6v-38.133h6c3.254 0 6 2.746 6 6zm0 0M128 421.867h17.469c5.52 0 10-4.48 10-10 0-5.523-4.48-10-10-10H128c-13.527 0-24.531 11.004-24.531 24.531 0 13.528 11.004 24.536 24.531 24.536.5 0 .988-.051 1.465-.122.48.075.969.122 1.469.122 2.457 0 4.53 2.074 4.53 4.535 0 2.457-2.073 4.531-4.53 4.531h-17.47c-5.519 0-10 4.477-10 10s4.481 10 10 10h17.47c13.527 0 24.53-11.004 24.53-24.531 0-13.532-11.003-24.535-24.53-24.535-.5 0-.989.046-1.47.117-.476-.07-.964-.117-1.464-.117-2.457 0-4.531-2.079-4.531-4.536 0-2.457 2.074-4.53 4.531-4.53zm0 0"/><path d="M414.531 369.867H97.47c-14.34 0-26 11.664-26 26V486c0 14.336 11.66 26 26 26H414.53c14.336 0 26-11.664 26-26v-90.133c0-14.336-11.66-26-26-26zm6 116.133c0 3.254-2.746 6-6 6H97.47c-3.254 0-6-2.746-6-6v-90.133c0-3.254 2.746-6 6-6H414.53c3.254 0 6 2.746 6 6zm0 0"/>
</symbol>
<symbol id="svg-car-nav" viewBox="0 0 485.213 485.213">
  <path d="M471.882,407.567L360.567,296.243c-16.586,25.795-38.536,47.734-64.331,64.321l111.324,111.324
			c17.772,17.768,46.587,17.768,64.321,0C489.654,454.149,489.654,425.334,471.882,407.567z"/>
  <path d="M363.909,181.955C363.909,81.473,282.44,0,181.956,0C81.474,0,0.001,81.473,0.001,181.955s81.473,181.951,181.955,181.951
			C282.44,363.906,363.909,282.437,363.909,181.955z M181.956,318.416c-75.252,0-136.465-61.208-136.465-136.46
			c0-75.252,61.213-136.465,136.465-136.465c75.25,0,136.468,61.213,136.468,136.465
			C318.424,257.208,257.206,318.416,181.956,318.416z"/>
  <path d="M75.817,181.955h30.322c0-41.803,34.014-75.814,75.816-75.814V75.816C123.438,75.816,75.817,123.437,75.817,181.955z"/>
</symbol>
<symbol id="svg-info" viewBox="0 0 437.6 437.6">
  <path d="M194,142.8c0.8,1.6,1.6,3.2,2.4,4.4c0.8,1.2,2,2.4,2.8,3.6c1.2,1.2,2.4,2.4,4,3.6c1.2,0.8,2.8,2,4.8,2.4
				c1.6,0.8,3.2,1.2,5.2,1.6c2,0.4,3.6,0.4,5.2,0.4c1.6,0,3.6,0,5.2-0.4c1.6-0.4,3.2-0.8,4.4-1.6h0.4c1.6-0.8,3.2-1.6,4.8-2.8
				c1.2-0.8,2.4-2,3.6-3.2l0.4-0.4c1.2-1.2,2-2.4,2.8-3.6s1.6-2.4,2-4c0-0.4,0-0.4,0.4-0.8c0.8-1.6,1.2-3.6,1.6-5.2
				c0.4-1.6,0.4-3.6,0.4-5.2s0-3.6-0.4-5.2c-0.4-1.6-0.8-3.2-1.6-5.2c-1.2-2.8-2.8-5.2-4.8-7.2c-0.4-0.4-0.4-0.4-0.8-0.8
				c-1.2-1.2-2.4-2-4-3.2c-1.6-0.8-2.8-1.6-4.4-2.4c-1.6-0.8-3.2-1.2-4.8-1.6c-2-0.4-3.6-0.4-5.2-0.4c-1.6,0-3.6,0-5.2,0.4
				c-1.6,0.4-3.2,0.8-4.8,1.6H208c-1.6,0.8-3.2,1.6-4.4,2.4c-1.6,1.2-2.8,2-4,3.2c-1.2,1.2-2.4,2.4-3.2,3.6
				c-0.8,1.2-1.6,2.8-2.4,4.4c-0.8,1.6-1.2,3.2-1.6,4.8c-0.4,2-0.4,3.6-0.4,5.2c0,1.6,0,3.6,0.4,5.2
				C192.8,139.6,193.6,141.2,194,142.8z"/>
  <path d="M249.6,289.2h-9.2v-98c0-5.6-4.4-10.4-10.4-10.4h-42c-5.6,0-10.4,4.4-10.4,10.4v21.6c0,5.6,4.4,10.4,10.4,10.4h8.4v66.4
				H188c-5.6,0-10.4,4.4-10.4,10.4v21.6c0,5.6,4.4,10.4,10.4,10.4h61.6c5.6,0,10.4-4.4,10.4-10.4V300
				C260,294,255.2,289.2,249.6,289.2z"/>
  <path d="M218.8,0C98,0,0,98,0,218.8s98,218.8,218.8,218.8s218.8-98,218.8-218.8S339.6,0,218.8,0z M218.8,408.8
				c-104.8,0-190-85.2-190-190s85.2-190,190-190s190,85.2,190,190S323.6,408.8,218.8,408.8z"/>
</symbol>
</svg>
