<svg style="width:0;height:0" xmlns="http://www.w3.org/2000/svg">
  <symbol id="svg-map" viewBox="0 0 16 25">
    <path fill-rule="evenodd" clip-rule="evenodd" d="M8.35732 15.9922C8.23886 15.9974 8.11974 16 8 16C3.58172 16 0 12.4183 0 8C0 3.58172 3.58172 0 8 0C12.4183 0 16 3.58172 16 8C16 8.913 15.8471 9.79027 15.5654 10.6076C13.3625 17 10.1627 20.594 7 24C7.69158 20.8879 8.14402 18.0583 8.35732 15.9922ZM13 8C13 10.7614 10.7614 13 8 13C5.23858 13 3 10.7614 3 8C3 5.23858 5.23858 3 8 3C10.7614 3 13 5.23858 13 8Z"/>
    <path fill="currentColor" d="M11 8C11 9.65685 9.65685 11 8 11C6.34315 11 5 9.65685 5 8C5 6.34315 6.34315 5 8 5C9.65685 5 11 6.34315 11 8Z"/>
  </symbol>
  <symbol id="svg-phone" viewBox="0 0 14 14">
    <path d="M13.9933 11.0487C14.023 11.2761 13.9537 11.4739 13.7858 11.6419L11.8147 13.5995C11.7257 13.6983 11.6097 13.7825 11.4664 13.8516C11.3231 13.9208 11.1824 13.9653 11.0441 13.9851C11.0342 13.9851 11.0045 13.9876 10.9551 13.9926C10.9057 13.9975 10.8415 14 10.7625 14C10.5747 14 10.2708 13.9679 9.85091 13.9036C9.43098 13.8393 8.91722 13.6811 8.30961 13.429C7.70186 13.1769 7.01272 12.7987 6.24206 12.2945C5.4714 11.7903 4.65129 11.0982 3.7818 10.2182C3.09017 9.536 2.51709 8.88346 2.06259 8.2606C1.60808 7.6377 1.2425 7.06178 0.965848 6.53283C0.689168 6.00387 0.481677 5.52435 0.343349 5.09427C0.205021 4.66419 0.111156 4.29342 0.0617534 3.98198C0.0123507 3.67054 -0.00741041 3.42584 0.00247014 3.24788C0.0123507 3.06991 0.017291 2.97104 0.017291 2.95127C0.0370521 2.81285 0.0815145 2.67196 0.150678 2.5286C0.219842 2.38524 0.303827 2.26906 0.402632 2.18008L2.3738 0.207627C2.51213 0.0692089 2.67022 0 2.84807 0C2.97652 0 3.09014 0.0370762 3.18895 0.111229C3.28775 0.185381 3.37174 0.276836 3.4409 0.385593L5.02673 3.39618C5.11565 3.55437 5.14036 3.72739 5.10083 3.91525C5.06131 4.1031 4.97733 4.26129 4.84888 4.38982L4.12266 5.11652C4.1029 5.13629 4.08561 5.16842 4.07079 5.21291C4.05596 5.25741 4.04855 5.29448 4.04855 5.32414C4.08808 5.53177 4.177 5.76906 4.31533 6.03601C4.4339 6.27329 4.61669 6.56249 4.8637 6.90359C5.11071 7.24469 5.46147 7.63767 5.91598 8.08259C6.3606 8.53744 6.75583 8.89085 7.10164 9.14302C7.44739 9.39504 7.73649 9.58049 7.96869 9.69914C8.20088 9.81778 8.37873 9.88946 8.50221 9.91411L8.68742 9.95121C8.70718 9.95121 8.73937 9.94377 8.78378 9.92896C8.82825 9.91411 8.86036 9.89683 8.88014 9.87703L9.72491 9.01686C9.90285 8.85869 10.1102 8.7796 10.3474 8.7796C10.5154 8.7796 10.6487 8.80923 10.7475 8.86858H10.7623L13.6227 10.5593C13.8303 10.6879 13.9538 10.851 13.9933 11.0487Z"/>
  </symbol>
  <symbol id="svg-hamburger" viewBox="0 0 40 40">
    <!--<rect opacity="0.2" width="40" height="40" fill="#AAAAAA"/>-->
    <path fill-rule="evenodd" clip-rule="evenodd" d="M11 13H29V15H11V13Z"/>
    <path fill-rule="evenodd" clip-rule="evenodd" d="M11 19H29V21H11V19Z"/>
    <path fill-rule="evenodd" clip-rule="evenodd" d="M11 25H29V27H11V25Z"/>
  </symbol>
  <symbol id="svg-close" viewBox="0 0 40 40">
    <!--<rect width="40" height="40" fill="#CC2128"/>-->
    <path d="M21.4545 21L28 14.4545L26.5455 13L20 19.5455L13.4545 13L12 14.4545L18.5455 21L12 27.5455L13.4545 29L20 22.4545L26.5455 29L28 27.5455L21.4545 21Z"/>
  </symbol>
  <symbol id="svg-plus" viewBox="0 0 40 40">
    <path d="M21 21H27V19L21 19V13H19V19H13L13 21H19V27H21V21Z"/>
  </symbol>
  <symbol id="svg-minus" viewBox="0 0 40 40">
    <path fill-rule="evenodd" clip-rule="evenodd" d="M11 21V19H27V21H11Z"/>
  </symbol>
  <symbol id="svg-arrow-long" viewBox="0 0 40 40">
    <path d="M15 20L21 14M15 20L21 26M15 20H28.5"  stroke-width="2" stroke-linecap="square"/>
  </symbol>
  <symbol id="svg-arrow-short" viewBox="0 0 11 18">
    <!--<path d="M9 2L2 9L9 16" stroke="#CC2128" stroke-width="2" stroke-linecap="square" />-->
    <path d="M9 2L2 9L9 16" stroke-width="2" stroke-linecap="square"/>
  </symbol>
  <symbol id="svg-arrow-fat" viewBox="0 0 7 8">
    <path d="M2.3 1.55L4.75 4L2.3 6.45" stroke-width="2" stroke-linecap="square"/>
  </symbol>

  <!--<symbol id="svg-fb" viewBox="0 0 210 210">-->
    <!--<rect opacity="0.6" x="59.5" y="60.5" width="89" height="89" rx="23.5" stroke="white"/>-->
    <!--<rect opacity="0.3" x="35.5" y="36.5" width="137" height="137" rx="39.5" stroke="white"/>-->
    <!--<rect opacity="0.2" x="-0.5" y="0.5" width="209" height="209" rx="59.5" stroke="white"/>-->
    <!--<rect x="74" y="76" width="60" height="60" rx="10" fill="#215BCC"/>-->
    <!--<path d="M117.557 103.255V97.0255C117.557 95.306 118.952 93.9105 120.672 93.9105H123.787V86.123H117.557C112.395 86.123 108.212 90.3065 108.212 95.468V103.255H101.982V111.043H108.212V135.963H117.557V111.043H123.787L126.902 103.255H117.557Z" fill="white"/>-->
  <!--</symbol>-->
  <!--<symbol id="svg-youtube" viewBox="0 0 210 210">-->
    <!--<rect opacity="0.6" x="61.2808" y="60.5" width="89" height="89" rx="23.5" stroke="white"/>-->
    <!--<rect opacity="0.3" x="37.2808" y="36.5" width="137" height="137" rx="39.5" stroke="white"/>-->
    <!--<rect opacity="0.2" x="1.28076" y="0.5" width="209" height="209" rx="59.5" stroke="white"/>-->
    <!--<rect x="75.7808" y="76" width="60" height="60" rx="10" fill="#CC212B"/>-->
    <!--<path d="M127.186 93.445C125.957 91.2191 124.624 90.8096 121.908 90.6539C119.195 90.4665 112.373 90.3887 106.463 90.3887C100.542 90.3887 93.7172 90.4665 91.0072 90.6511C88.2972 90.8096 86.9606 91.2162 85.7202 93.445C84.4544 95.668 83.8031 99.497 83.8031 106.238C83.8031 106.244 83.8031 106.247 83.8031 106.247C83.8031 106.253 83.8031 106.255 83.8031 106.255V106.261C83.8031 112.973 84.4544 116.831 85.7202 119.031C86.9606 121.257 88.2943 121.661 91.0044 121.848C93.7172 122.01 100.542 122.105 106.463 122.105C112.373 122.105 119.195 122.01 121.911 121.851C124.626 121.664 125.96 121.26 127.189 119.034C128.466 116.834 129.112 112.976 129.112 106.264C129.112 106.264 129.112 106.255 129.112 106.25V106.241C129.112 99.497 128.466 95.668 127.186 93.445ZM100.794 114.897V97.5969L114.953 106.247L100.794 114.897Z" fill="white"/>-->
  <!--</symbol>-->
  <!--<symbol id="svg-vk" viewBox="0 0 210 210">-->
    <!--<rect opacity="0.6" x="59.5" y="60.5" width="89" height="89" rx="23.5" stroke="white"/>-->
    <!--<rect opacity="0.3" x="35.5" y="36.5" width="137" height="137" rx="39.5" stroke="white"/>-->
    <!--<rect opacity="0.2" x="-0.5" y="0.5" width="209" height="209" rx="59.5" stroke="white"/>-->
    <!--<rect x="74" y="76" width="60" height="60" rx="10" fill="#4178AC"/>-->
    <!--<path d="M123.377 117.147C123.262 116.95 122.546 115.372 119.102 112.129C115.497 108.733 115.981 109.285 120.324 103.413C122.968 99.8367 124.026 97.6528 123.695 96.7191C123.38 95.8292 121.435 96.064 121.435 96.064L114.967 96.1022C114.967 96.1022 114.488 96.0367 114.13 96.2523C113.783 96.4653 113.56 96.9566 113.56 96.9566C113.56 96.9566 112.535 99.7247 111.168 102.078C108.287 107.044 107.133 107.306 106.662 106.997C105.567 106.279 105.841 104.109 105.841 102.569C105.841 97.7565 106.56 95.75 104.439 95.2314C103.735 95.0594 103.218 94.9447 101.418 94.9256C99.1098 94.901 97.1538 94.9338 96.0481 95.4825C95.3109 95.8483 94.7432 96.6645 95.0903 96.711C95.5181 96.7683 96.4866 96.9758 97.0005 97.6855C97.665 98.6 97.6408 100.658 97.6408 100.658C97.6408 100.658 98.0228 106.323 96.7503 107.027C95.8759 107.51 94.6787 106.525 92.1093 102.018C90.7937 99.7111 89.7983 97.1587 89.7983 97.1587C89.7983 97.1587 89.6072 96.6837 89.2656 96.4298C88.8512 96.1213 88.2701 96.023 88.2701 96.023L82.1198 96.0612C82.1198 96.0612 81.197 96.0885 80.858 96.4953C80.5567 96.8584 80.8338 97.6064 80.8338 97.6064C80.8338 97.6064 85.6497 109.036 91.1004 114.799C96.1019 120.081 101.779 119.735 101.779 119.735H104.351C104.351 119.735 105.128 119.647 105.524 119.213C105.89 118.815 105.876 118.067 105.876 118.067C105.876 118.067 105.825 114.564 107.429 114.048C109.008 113.541 111.036 117.434 113.186 118.932C114.811 120.065 116.046 119.817 116.046 119.817L121.795 119.735C121.795 119.735 124.803 119.546 123.377 117.147Z" fill="white"/>-->
  <!--</symbol>-->
  <!--<symbol id="svg-twitter" viewBox="0 0 210 210">-->
    <!--<rect opacity="0.6" x="61.2808" y="60.5" width="89" height="89" rx="23.5" stroke="white"/>-->
    <!--<rect opacity="0.3" x="37.2808" y="36.5" width="137" height="137" rx="39.5" stroke="white"/>-->
    <!--<rect opacity="0.2" x="1.28076" y="0.5" width="209" height="209" rx="59.5" stroke="white"/>-->
    <!--<rect x="75.7808" y="76" width="60" height="60" rx="10" fill="#2FCEF1"/>-->
    <!--<path d="M127.237 94.1434C125.72 94.7801 124.104 95.2022 122.42 95.4071C124.153 94.4166 125.476 92.8601 126.097 90.984C124.482 91.9062 122.698 92.5576 120.796 92.9211C119.262 91.3572 117.075 90.3887 114.69 90.3887C110.062 90.3887 106.335 93.9848 106.335 98.3933C106.335 99.0277 106.392 99.6376 106.529 100.218C99.579 99.8938 93.4292 96.7051 89.2979 91.8476C88.5766 93.0455 88.1536 94.4166 88.1536 95.8927C88.1536 98.6642 89.6445 101.121 91.8669 102.543C90.5238 102.519 89.2062 102.146 88.0899 101.558C88.0899 101.582 88.0899 101.614 88.0899 101.645C88.0899 105.534 90.9876 108.765 94.7876 109.509C94.1072 109.687 93.3655 109.772 92.5958 109.772C92.0606 109.772 91.5203 109.743 91.0131 109.636C92.0963 112.805 95.1699 115.135 98.8247 115.21C95.9804 117.34 92.369 118.623 88.4594 118.623C87.7738 118.623 87.1163 118.594 86.4587 118.514C90.1619 120.8 94.5506 122.105 99.2834 122.105C114.667 122.105 123.077 109.906 123.077 99.3326C123.077 98.9789 123.065 98.6373 123.047 98.2982C124.706 97.1711 126.1 95.7633 127.237 94.1434Z" fill="white"/>-->
  <!--</symbol>-->


  <symbol id="svg-fb" viewBox="0 0 60 60">
    <rect width="60" height="60" rx="10" fill="#215BCC"/>
    <path d="M44.5566 28.2555V22.0255C44.5566 20.306 45.9521 18.9105 47.6716 18.9105H50.7866V11.123H44.5566C39.3951 11.123 35.2117 15.3065 35.2117 20.468V28.2555H28.9817V36.0429H35.2117V60.9628H44.5566V36.0429H50.7866L53.9016 28.2555H44.5566Z" fill="white"/>
  </symbol>
  <symbol id="svg-youtube" viewBox="0 0 60 60">
    <rect width="60" height="60" rx="10" fill="#CC212B"/>
    <path d="M51.1862 17.445C49.9572 15.2191 48.6234 14.8096 45.9077 14.6539C43.1948 14.4665 36.373 14.3887 30.4631 14.3887C24.5418 14.3887 17.7171 14.4665 15.0071 14.6511C12.297 14.8096 10.9604 15.2162 9.72011 17.445C8.45429 19.668 7.80298 23.497 7.80298 30.2381C7.80298 30.2439 7.80298 30.2468 7.80298 30.2468C7.80298 30.2525 7.80298 30.2554 7.80298 30.2554V30.2612C7.80298 36.9735 8.45429 40.8313 9.72011 43.0313C10.9604 45.2572 12.2942 45.6608 15.0043 45.8482C17.7171 46.0097 24.5418 46.1049 30.4631 46.1049C36.373 46.1049 43.1948 46.0097 45.9105 45.8511C48.6262 45.6637 49.96 45.2601 51.189 43.0342C52.4662 40.8342 53.1118 36.9764 53.1118 30.2641C53.1118 30.2641 53.1118 30.2554 53.1118 30.2496V30.241C53.1118 23.497 52.4662 19.668 51.1862 17.445ZM24.7938 38.8966V21.5969L38.9528 30.2468L24.7938 38.8966Z" fill="white"/>
  </symbol>
  <symbol id="svg-vk" viewBox="0 0 60 60">
    <rect x="0.561279" width="60" height="60" rx="10" fill="#4178AC"/>
    <path d="M50.9385 42.1469C50.8229 41.9503 50.1072 40.3724 46.6635 37.1293C43.0583 33.7334 43.5426 34.2848 47.8849 28.4128C50.5296 24.8367 51.5869 22.6528 51.256 21.7191C50.9412 20.8292 48.9961 21.064 48.9961 21.064L42.5283 21.1022C42.5283 21.1022 42.0494 21.0367 41.6916 21.2523C41.3445 21.4653 41.1212 21.9566 41.1212 21.9566C41.1212 21.9566 40.0962 24.7247 38.7295 27.0779C35.848 32.0436 34.6939 32.3056 34.223 31.9972C33.128 31.2792 33.4025 29.1089 33.4025 27.5693C33.4025 22.7565 34.1208 20.75 32.0008 20.2314C31.2959 20.0594 30.7793 19.9447 28.9794 19.9256C26.671 19.901 24.7151 19.9338 23.6094 20.4825C22.8722 20.8483 22.3045 21.6645 22.6516 21.711C23.0794 21.7683 24.0479 21.9758 24.5618 22.6855C25.2263 23.6 25.2021 25.6584 25.2021 25.6584C25.2021 25.6584 25.5841 31.3229 24.3116 32.0272C23.4372 32.5104 22.2399 31.5249 19.6706 27.0179C18.355 24.7111 17.3595 22.1587 17.3595 22.1587C17.3595 22.1587 17.1685 21.6837 16.8268 21.4298C16.4125 21.1213 15.8314 21.023 15.8314 21.023L9.68111 21.0612C9.68111 21.0612 8.7583 21.0885 8.41931 21.4953C8.11798 21.8584 8.3951 22.6064 8.3951 22.6064C8.3951 22.6064 13.2109 34.0364 18.6617 39.7992C23.6632 45.0815 29.3399 44.7348 29.3399 44.7348H31.912C31.912 44.7348 32.6895 44.6474 33.085 44.2134C33.4509 43.8148 33.4374 43.0668 33.4374 43.0668C33.4374 43.0668 33.3863 39.5644 34.9898 39.0485C36.5691 38.5407 38.5976 42.4335 40.7473 43.9322C42.3723 45.0651 43.6072 44.8167 43.6072 44.8167L49.3566 44.7348C49.3566 44.7348 52.3645 44.5464 50.9385 42.1469Z" fill="white"/>
  </symbol>
  <symbol id="svg-twitter" viewBox="0 0 60 60">
    <rect x="0.341919" width="60" height="60" rx="10" fill="#2FCEF1"/>
    <path d="M52.7979 19.1434C51.2814 19.7801 49.6656 20.2022 47.981 20.4071C49.714 19.4166 51.0368 17.8601 51.6586 15.984C50.0428 16.9062 48.2588 17.5576 46.3575 17.9211C44.8232 16.3572 42.6365 15.3887 40.251 15.3887C35.6227 15.3887 31.8966 18.9848 31.8966 23.3933C31.8966 24.0277 31.9527 24.6376 32.0903 25.2182C25.1402 24.8938 18.9904 21.7051 14.8591 16.8476C14.1378 18.0455 13.7147 19.4166 13.7147 20.8927C13.7147 23.6642 15.2057 26.1209 17.4281 27.5433C16.0849 27.5189 14.7673 27.1456 13.651 26.5576C13.651 26.582 13.651 26.6138 13.651 26.6455C13.651 30.5344 16.5488 33.7645 20.3488 34.5087C19.6683 34.6868 18.9267 34.7721 18.157 34.7721C17.6218 34.7721 17.0815 34.7429 16.5743 34.6355C17.6574 37.8047 20.7311 40.1346 24.3858 40.2102C21.5415 42.3401 17.9302 43.6234 14.0206 43.6234C13.335 43.6234 12.6774 43.5941 12.0199 43.5136C15.723 45.7996 20.1118 47.1049 24.8446 47.1049C40.228 47.1049 48.6385 34.9063 48.6385 24.3326C48.6385 23.9789 48.6258 23.6373 48.6079 23.2982C50.2671 22.1711 51.6612 20.7633 52.7979 19.1434Z" fill="white"/>
  </symbol>


  <symbol id="svg-loader" viewBox="0 0 24 6">
    <circle cx="12" cy="3" r="3"/>
    <circle cx="21" cy="3" r="3"/>
    <circle cx="3" cy="3" r="3"/>
  </symbol>

  <symbol id="svg-fb-sm" viewBox="0 0 11 22"><path d="M6.875 7.563v-2.75c0-.76.616-1.375 1.375-1.375h1.375V0h-2.75A4.125 4.125 0 0 0 2.75 4.125v3.438H0V11h2.75v11h4.125V11h2.75L11 7.562H6.875z"/></symbol>
  <symbol id="svg-youtube-sm" viewBox="0 0 20 14"><path d="M19.15 1.35C18.608.366 18.019.185 16.82.116 15.623.034 12.611 0 10.002 0 7.39 0 4.376.034 3.18.116 1.984.186 1.394.366.846 1.349.288 2.33 0 4.021 0 6.996v.01c0 2.963.287 4.666.846 5.637.548.983 1.136 1.161 2.333 1.244 1.197.071 4.21.113 6.823.113 2.61 0 5.62-.042 6.82-.112 1.198-.083 1.787-.26 2.33-1.243.563-.971.848-2.674.848-5.637v-.011c0-2.976-.285-4.667-.85-5.648zM7.5 10.817V3.182L13.75 7 7.5 10.818z"/></symbol>
  <symbol id="svg-vk-sm" viewBox="0 0 19 11"><path d="M18.83 9.811c-.05-.086-.366-.783-1.886-2.215-1.592-1.499-1.378-1.255.539-3.847C18.65 2.17 19.117 1.206 18.97.794c-.14-.393-.998-.289-.998-.289l-2.855.017s-.211-.029-.37.066c-.152.094-.25.311-.25.311s-.453 1.222-1.057 2.26c-1.272 2.193-1.781 2.308-1.989 2.172-.483-.317-.362-1.275-.362-1.954 0-2.125.317-3.01-.619-3.24-.31-.075-.539-.126-1.333-.134-1.02-.011-1.883.003-2.37.245-.326.162-.577.522-.424.543.19.025.617.116.844.43.293.403.282 1.312.282 1.312s.169 2.5-.393 2.811c-.386.214-.914-.221-2.048-2.21-.581-1.02-1.02-2.146-1.02-2.146s-.085-.21-.236-.322c-.183-.136-.44-.18-.44-.18L.62.505S.212.516.062.695c-.133.16-.01.49-.01.49s2.125 5.046 4.531 7.59c2.208 2.332 4.714 2.179 4.714 2.179h1.135s.343-.039.518-.23c.161-.176.155-.507.155-.507s-.022-1.546.686-1.773c.697-.225 1.592 1.494 2.541 2.155.717.5 1.262.39 1.262.39l2.538-.035s1.328-.084.699-1.143z"/></symbol>
  <symbol id="svg-twitter-sm" viewBox="0 0 18 14"><path d="M18 1.657a7.963 7.963 0 0 1-2.126.558A3.544 3.544 0 0 0 17.497.263c-.713.407-1.5.694-2.34.855A3.777 3.777 0 0 0 12.462 0c-2.043 0-3.688 1.587-3.688 3.533 0 .28.025.55.085.806-3.067-.143-5.782-1.55-7.606-3.695A3.441 3.441 0 0 0 .748 2.43c0 1.223.658 2.307 1.64 2.935A3.77 3.77 0 0 1 .72 4.93v.039C.72 6.686 2 8.11 3.677 8.439c-.3.08-.628.117-.968.117-.236 0-.475-.013-.699-.06.479 1.399 1.835 2.427 3.449 2.46a7.627 7.627 0 0 1-4.576 1.507c-.302 0-.593-.013-.883-.048A10.729 10.729 0 0 0 5.661 14c6.79 0 10.503-5.385 10.503-10.052 0-.156-.006-.307-.014-.457A7.197 7.197 0 0 0 18 1.657z"/></symbol>

</svg>
