<svg width="48" height="48" viewBox="0 0 48 48" fill="none" xmlns="http://www.w3.org/2000/svg"><path d="M20.424 30h-2.97v-9.457l-2.919.853v-2.25l5.616-1.943h.273V30zm4.034-6.258l.782-6.539h7.48v2.303h-5.072l-.29 2.54c.211-.123.487-.232.827-.325.345-.094.682-.14 1.01-.14 1.272 0 2.247.377 2.927 1.133.686.75 1.028 1.805 1.028 3.164 0 .82-.184 1.564-.553 2.232a3.754 3.754 0 0 1-1.538 1.53c-.663.357-1.445.536-2.347.536a5.276 5.276 0 0 1-2.259-.492c-.703-.334-1.254-.789-1.652-1.363a3.332 3.332 0 0 1-.59-1.96h2.972c.029.47.178.841.448 1.116.27.276.624.414 1.063.414.996 0 1.495-.739 1.495-2.215 0-1.366-.61-2.048-1.829-2.048-.691 0-1.207.223-1.547.668l-2.355-.554z" fill="#CC2128"/><circle cx="24" cy="24" r="22" stroke="#C9E7F1" stroke-width="4"/></svg>