<svg width="48" height="48" viewBox="0 0 48 48" fill="none" xmlns="http://www.w3.org/2000/svg"><circle cx="24" cy="24" r="22" stroke="#C9E7F1" stroke-width="4"/><path d="M34.5 16.97h-4.746c.34-.232.633-.463.837-.67a3.138 3.138 0 0 0 0-4.413c-1.175-1.182-3.224-1.183-4.4 0-.649.653-2.376 3.31-2.137 5.084h-.108c.237-1.775-1.488-4.431-2.138-5.084-1.176-1.183-3.225-1.182-4.399 0a3.14 3.14 0 0 0-.002 4.413c.206.207.498.438.839.67H13.5c-.827 0-1.5.674-1.5 1.5v3.75c0 .415.336.75.75.75h.75v9c0 .827.673 1.5 1.5 1.5h18c.826 0 1.5-.673 1.5-1.5v-9h.75a.75.75 0 0 0 .75-.75v-3.75c0-.826-.674-1.5-1.5-1.5zm-16.027-4.025a1.593 1.593 0 0 1 1.137-.474c.427 0 .83.168 1.135.474 1.011 1.017 2.016 3.615 1.667 3.976 0 0-.063.05-.278.05-1.036 0-3.015-1.077-3.661-1.728a1.636 1.636 0 0 1 0-2.298zM23.25 31.97H15v-9h8.25v9zm0-10.5H13.5v-3h9.75v3zm4.005-8.526c.609-.61 1.665-.61 2.273 0a1.636 1.636 0 0 1 0 2.298c-.647.65-2.625 1.728-3.662 1.728-.214 0-.277-.048-.279-.05-.348-.361.657-2.96 1.668-3.976zM33 31.97h-8.25v-9H33v9zm1.5-10.5h-9.75v-3h9.75v3z" fill="#CC2128"/></svg>