<svg width="12" height="12" viewBox="0 0 12 12" fill="none" xmlns="http://www.w3.org/2000/svg"><path d="M11.994 9.47a.58.58 0 0 1-.178.509l-1.69 1.678a.953.953 0 0 1-.298.216c-.122.06-.243.097-.362.114a1.733 1.733 0 0 1-.241.013c-.161 0-.421-.027-.781-.083-.36-.055-.8-.19-1.321-.406-.521-.216-1.112-.54-1.773-.973-.66-.432-1.363-1.025-2.108-1.78a13.928 13.928 0 0 1-1.474-1.677A11.957 11.957 0 0 1 .828 5.6a7.98 7.98 0 0 1-.534-1.233 6.546 6.546 0 0 1-.241-.954 3.15 3.15 0 0 1-.05-.63l.012-.253c.017-.119.055-.24.114-.363a.953.953 0 0 1 .216-.298L2.035.178A.56.56 0 0 1 2.44 0c.11 0 .208.032.292.095a.883.883 0 0 1 .216.236l1.36 2.58a.619.619 0 0 1 .063.445.792.792 0 0 1-.216.407l-.622.623a.212.212 0 0 0-.045.082.314.314 0 0 0-.019.096c.034.178.11.38.229.61.101.203.258.451.47.743.212.293.512.63.902 1.01.381.39.72.694 1.016.91.296.216.544.375.743.477.2.101.352.163.458.184l.158.032a.303.303 0 0 0 .083-.02.212.212 0 0 0 .083-.044l.724-.737a.778.778 0 0 1 .533-.204c.144 0 .258.026.343.077h.013l2.452 1.449c.178.11.283.25.317.42z" fill="#EB5757"/></svg>