<svg xmlns="http://www.w3.org/2000/svg" height="369.607" width="702.009" fill="#eb5757"><path d="M199.628 175.487a4.818 4.818 0 0 1 1.741-5.358l37.422-27.455c5.958-4.371 8.333-11.736 6.049-18.763-2.283-7.028-8.533-11.591-15.922-11.625l-46.413-.215a4.818 4.818 0 0 1-4.558-3.311L163.4 64.684c-2.316-7.017-8.586-11.55-15.975-11.551-7.389 0-13.66 4.534-15.976 11.55l-6.557 19.859a5.999 5.999 0 0 0 3.816 7.578 5.999 5.999 0 0 0 7.579-3.816l6.557-19.859c1.014-3.073 3.762-3.312 4.581-3.312.818 0 3.566.239 4.58 3.312l14.547 44.077a16.807 16.807 0 0 0 15.897 11.55l46.413.215c3.236.015 4.313 2.555 4.565 3.333.253.778.875 3.465-1.734 5.379l-37.423 27.455a16.808 16.808 0 0 0-6.072 18.689l14.143 44.222c.986 3.083-1.097 4.892-1.759 5.372-.662.481-3.025 1.904-5.652.013l-37.677-27.114a16.81 16.81 0 0 0-19.654 0l-37.684 27.119c-2.627 1.89-4.991.468-5.652-.012-.662-.481-2.745-2.289-1.76-5.371l14.139-44.229a16.808 16.808 0 0 0-6.072-18.688L63.149 133c-2.609-1.914-1.987-4.602-1.734-5.379.253-.778 1.33-3.318 4.565-3.333l46.416-.215a6.001 6.001 0 0 0-.028-12h-.028l-46.416.215c-7.389.034-13.639 4.597-15.922 11.625-2.283 7.028.091 14.393 6.048 18.764l37.421 27.455a4.82 4.82 0 0 1 1.741 5.358l-14.138 44.229c-2.25 7.038.159 14.392 6.137 18.734 3 2.179 6.442 3.269 9.886 3.269 3.419 0 6.84-1.075 9.829-3.225l37.683-27.119a4.818 4.818 0 0 1 5.635 0l37.677 27.114c5.998 4.316 13.736 4.3 19.715-.044 5.979-4.343 8.387-11.697 6.136-18.736z"/><path d="M147.421 0C66.133 0 0 66.133 0 147.421s66.133 147.421 147.421 147.421a6 6 0 0 0 0-12C72.75 282.843 12 222.093 12 147.421S72.75 12 147.421 12c74.671 0 135.421 60.75 135.421 135.421 0 46.48-23.42 89.182-62.65 114.228a6 6 0 0 0 6.457 10.115c42.7-27.262 68.193-73.745 68.193-124.342C294.843 66.133 228.71 0 147.421 0z"/><g style="line-height:1.25;-inkscape-font-specification:'Roboto Bold'" aria-label="Хит продаж" font-weight="700" font-size="96" font-family="Roboto" letter-spacing="0" word-spacing="0"><path d="M191.68 305.389l12.797-23.532h16.172l-19.875 33.844 20.39 34.406h-16.358l-13.125-23.906-13.125 23.906h-16.36l20.39-34.406-19.874-33.844h16.172zM257.868 299.389h13.547v50.718h-13.547v-31.312l-16.969 31.312h-13.593V299.39h13.593v31.265zM323.962 310.264h-16.266v39.843h-13.594v-39.843h-15.984v-10.875h45.844zM398.915 350.107H385.32v-39.75h-16.969v39.75h-13.546V299.39h44.109zM455.024 325.217q0 11.719-5.343 18.797-5.297 7.03-14.344 7.03-7.688 0-12.422-5.343v23.906h-13.547V299.39h12.563l.468 4.968q4.922-5.906 12.844-5.906 9.375 0 14.578 6.938 5.203 6.937 5.203 19.125zm-13.547-.985q0-7.078-2.53-10.921-2.485-3.844-7.266-3.844-6.375 0-8.766 4.875v20.765q2.484 5.016 8.86 5.016 9.702 0 9.702-15.89zM461.259 324.28q0-7.548 2.906-13.454 2.906-5.906 8.344-9.14 5.484-3.235 12.703-3.235 10.265 0 16.734 6.281 6.516 6.282 7.266 17.063l.093 3.469q0 11.672-6.515 18.75-6.516 7.03-17.485 7.03-10.968 0-17.53-7.03-6.516-7.032-6.516-19.125zm13.547.984q0 7.218 2.718 11.062 2.719 3.797 7.782 3.797 4.921 0 7.687-3.75 2.766-3.797 2.766-12.094 0-7.078-2.766-10.968-2.766-3.891-7.781-3.891-4.969 0-7.688 3.89-2.718 3.844-2.718 11.954zM515.071 339.186q4.594-4.875 6.235-9.657 1.64-4.781 1.828-13.547l.375-16.593h37.312v39.797h7.313v26.156h-13.547v-15.235H524.54v15.235h-13.828v-26.156zm15.985 0h16.265v-28.594h-10.547l-.093 6.094q-.422 13.968-5.625 22.5zM604.321 350.107q-.937-1.828-1.36-4.546-4.921 5.484-12.796 5.484-7.453 0-12.375-4.313-4.875-4.312-4.875-10.875 0-8.062 5.953-12.375 6-4.312 17.297-4.359h6.234v-2.906q0-3.516-1.828-5.625-1.781-2.11-5.672-2.11-3.422 0-5.39 1.641-1.922 1.64-1.922 4.5H574.04q0-4.406 2.719-8.156 2.718-3.75 7.687-5.86 4.969-2.156 11.156-2.156 9.375 0 14.86 4.735 5.531 4.687 5.531 13.218v21.985q.047 7.218 2.016 10.922v.796zm-11.203-9.421q3 0 5.531-1.313 2.532-1.36 3.75-3.61v-8.718h-5.062q-10.172 0-10.828 7.031l-.047.797q0 2.531 1.781 4.172 1.781 1.64 4.875 1.64zM675.29 331.31h-6.14v18.797h-13.548v-18.796h-6.046l-10.079 18.796h-16.359l15.984-26.53-15.796-24.188h16.78l10.548 18.937h4.968V299.39h13.547v18.937h5.063l10.594-18.937h16.78l-15.702 23.859 16.125 26.86h-16.641z"/></g></svg>